<?xml version="1.0" encoding="utf-8"?>
<!-- Generator: Adobe Illustrator 24.0.2, SVG Export Plug-In . SVG Version: 6.00 Build 0)  -->
<svg version="1.1" xmlns="http://www.w3.org/2000/svg" xmlns:xlink="http://www.w3.org/1999/xlink" x="0px" y="0px"
	 viewBox="0 0 24 24" style="enable-background:new 0 0 24 24;" xml:space="preserve">
<style type="text/css">
	.st0{fill:#FFFFFF;}
	.st1{fill:#3380FF;}
	.st2{display:none;}
	.st3{display:inline;fill:#3380FF;}
	.st4{display:inline;}
	.st5{opacity:0.25;}
	.st6{fill:#ECEFF1;}
	.st7{display:inline;fill:none;stroke:#000000;stroke-miterlimit:10;}
	.st8{clip-path:url(#SVGID_2_);fill:none;stroke:#8FA3AD;stroke-miterlimit:10;}
</style>
<g id="Layer_1">
	<rect x="3" y="2.7" class="st0" width="19.3" height="18.4"/>
	<path class="st1" d="M19,0H5C2.2,0,0,2.2,0,5v14c0,2.8,2.2,5,5,5h14c2.8,0,5-2.2,5-5V5C24,2.2,21.8,0,19,0z M8,19H5V8h3V19z
		 M6.5,6.7c-1,0-1.8-0.8-1.8-1.8s0.8-1.8,1.8-1.8S8.3,4,8.3,5S7.5,6.7,6.5,6.7z M20,19h-3v-5.6c0-3.4-4-3.1-4,0V19h-3V8h3v1.8
		c1.4-2.6,7-2.8,7,2.5V19z"/>
</g>
<g id="Layer_2" class="st2">
	<path class="st3" d="M12,24L12,24C5.4,24,0,18.6,0,12v0C0,5.4,5.4,0,12,0h0c6.6,0,12,5.4,12,12v0C24,18.6,18.6,24,12,24z"/>
	<g class="st4">
		<g class="st5">
			<path d="M18,18.3H6c-0.9,0-1.7-0.8-1.7-1.7V9.5c0-0.9,0.8-1.7,1.7-1.7h12c0.9,0,1.7,0.8,1.7,1.7v7.1C19.7,17.5,18.9,18.3,18,18.3
				z"/>
		</g>
		<g>
			<path class="st6" d="M18,17.3H6c-0.9,0-1.7-0.8-1.7-1.7V8.5c0-0.9,0.8-1.7,1.7-1.7h12c0.9,0,1.7,0.8,1.7,1.7v7.1
				C19.7,16.5,18.9,17.3,18,17.3z"/>
		</g>
	</g>
	
		<image style="display:inline;overflow:visible;" width="167" height="162" xlink:href="F10A286E.jpg"  transform="matrix(1 0 0 1 -7942 -7942)">
	</image>
	
		<image style="display:inline;overflow:visible;" width="167" height="162" xlink:href="F10A2869.jpg"  transform="matrix(1 0 0 1 -199.8187 -98.978)">
	</image>
	<path class="st7" d="M12.1,12.1"/>
	<path class="st7" d="M12.1,12.1"/>
	<path class="st7" d="M0,25.1"/>
	<path class="st7" d="M24,25.1"/>
	<g class="st4">
		<defs>
			<path id="SVGID_1_" d="M18,17.3H6c-0.9,0-1.7-0.8-1.7-1.7V8.5c0-0.9,0.8-1.7,1.7-1.7h12c0.9,0,1.7,0.8,1.7,1.7v7.1
				C19.7,16.5,18.9,17.3,18,17.3z"/>
		</defs>
		<clipPath id="SVGID_2_">
			<use xlink:href="#SVGID_1_"  style="overflow:visible;"/>
		</clipPath>
		<polyline class="st8" points="0,5 12,13 24,5 		"/>
	</g>
</g>
</svg>
