<?xml version="1.0" encoding="UTF-8" standalone="no"?>
<!DOCTYPE svg PUBLIC "-//W3C//DTD SVG 1.1//EN" "http://www.w3.org/Graphics/SVG/1.1/DTD/svg11.dtd">
<svg width="100%" height="100%" viewBox="0 0 1920 1080" version="1.1" xmlns="http://www.w3.org/2000/svg" xmlns:xlink="http://www.w3.org/1999/xlink" xml:space="preserve" xmlns:serif="http://www.serif.com/" style="fill-rule:evenodd;clip-rule:evenodd;stroke-linejoin:round;stroke-miterlimit:2;">
    <g id="BG_1">
        <g>
            <clipPath id="_clip1">
                <rect x="0" y="0" width="1920" height="1080"/>
            </clipPath>
            <g clip-path="url(#_clip1)">
                <path d="M0,943L35,952L63,965L91,989L115.82,1001.87C118.535,1003.25 121.623,1003.74 124.63,1003.24L153,1004L177,998L202,986L239.06,984.48C241,984.163 242.984,984.248 244.89,984.73L289,983L317.61,1003.14C319.835,1003.71 322.165,1003.73 324.4,1003.2L359,990L406,986L478,961L520,960L542.45,952.07C545.404,951.373 548.505,951.636 551.3,952.82L600,969L626,992L658.35,998.68L704,1018C723,1025 722.43,1025.09 723.3,1025.28L767,1032L803,1048L837,1050.12C839.64,1050.69 842.389,1050.51 844.93,1049.59L876,1042L892,1034L923,1034L956,1020L989,996L1005,986L1015,988L1023.58,1002.53C1026.3,1007.11 1031.35,1009.81 1036.67,1009.53L1061.94,1008.2C1064.59,1008.06 1067.15,1007.19 1069.34,1005.68L1083,994L1092,990L1114,996L1131,1005L1152,1006.94L1183,1016C1194.19,1019.25 1205.54,1021.92 1217,1024C1223.94,1025.12 1230.99,1025.45 1238,1025L1285,1016L1302,1016L1318,1008L1359,995L1387,1006L1407,1001L1422,1001L1447.67,991.53C1449.86,991.183 1452.1,991.347 1454.22,992.01L1478,1001.01L1506,1016.01L1537,1019.01L1546,1025.01L1607.26,1040.15C1609.07,1040.72 1610.97,1040.92 1612.86,1040.75C1644.44,1035.13 1678.92,1030.31 1716,1027.01C1751.07,1023.88 1784.07,1022.51 1814.64,1022.32C1816.85,1022.12 1818.98,1021.41 1820.87,1020.24C1854.64,1008.1 1871.17,996.69 1880,988.01C1891.69,976.265 1905.2,966.473 1920,959.01L1920,1080.01L0,1080.01L0,943Z" style="fill:rgb(245,252,255);fill-rule:nonzero;"/>
                <path d="M139.39,569.35L150,569.35C151,571.96 148.21,572.01 147.79,573.61C143.79,576.1 138.98,572.86 134.7,575.61L136.92,578.38C135.92,582.27 131.42,581.65 129.19,583.98L132.32,587.47C124.86,589.47 120.32,579.23 111.99,584.31L121.76,591.47C118.69,594.37 116.51,593.89 115.3,591.69C113.16,587.82 108.15,588.91 106.3,585.56C101.23,587.67 102.7,592.56 101.3,595.77C95.89,597.77 95.44,590.67 91.3,590.77C88.99,590.37 88.55,592.84 86.19,593.7L75.88,588.53L73,591.39C72.86,591.7 72.51,592.2 72.61,592.32C83.51,605.1 98.5,608.14 114.15,610.24C116.7,605.31 121.67,604.47 125.48,601.94C128.31,603.64 128.78,606.86 130.24,609.41C135.03,610.87 135.6,605.41 139.87,604.34C144.58,608.7 151.46,606.29 158.45,607.22C158.37,610.22 155.82,612.37 154.09,612.15C147.39,611.29 146.21,616.26 144.21,620.27C138.89,622 136.21,618.09 133.28,615.03C129.72,618.44 133.05,619.94 134.49,621.83C133.61,622.83 132.49,623.72 131.95,624.83C131.41,625.94 132.27,627.56 130.16,628.46L125.46,628.46C121.57,630.84 126.67,637.46 120.46,638.97L111.11,638.97L106.52,634.38C104.07,635.87 101.52,637.22 97.6,636.52C96.39,634.97 94.73,632.87 93.15,630.87C89.78,633.14 92.32,636.41 90.64,638.62C86.06,636.09 79.37,637.78 77.08,631.53L69.44,635.16C77.6,643.86 88.19,647.33 98.78,651.16C110.35,655.36 121,652.26 131.62,647.66C132.5,653.06 128.02,654.2 125.93,658.3C131.05,658.3 135.59,659.02 139.78,658.09C143.78,657.22 147.32,654.64 150.91,652.89C153.74,653.04 153.5,654.95 153.48,656.73C155.28,660.22 159.69,656.5 161.61,659.66C163.53,662.82 167.95,659.06 169.97,663.08C168.51,670.3 158.15,669.4 156.58,675.82C155.01,682.24 147.1,683.93 147.1,692.2C142.52,688.08 137.9,687.53 132.94,688.2C130.76,689.2 133.05,692.81 129.75,693.48C125.99,693.16 123.93,688.89 119.75,688.88C117.54,688.79 118.68,690.96 117.85,692.88L100.26,692.88L95.26,688.14C93.942,688.837 93.386,690.461 94,691.82C96.49,697.34 100.17,702.04 106,704.06C108.14,704.8 110.09,705.29 111.45,707.06L135.9,707.06C137.83,703.76 142.25,704.45 144.74,701.33L153.51,705.69L148.41,710.79C152.02,714.21 154.55,711.61 157.96,710.06C160.96,708.71 164.96,709.78 168.4,709.78C172.47,714.41 178.59,713.99 183.73,716.78C180.46,727.17 165.5,725.34 163.29,736.84C160.29,736.84 157.11,736.5 154.06,736.93C151.01,737.36 148.72,735.33 145.98,734.63C145.14,737.05 144.56,738.95 147.98,739.63C151.4,740.31 153.56,742.14 153.52,745.9C141.08,750.37 141.08,750.37 128.29,747.68C125.29,749.1 126.29,752.94 124.72,754.22C131.14,763.04 141.5,756.3 150.08,760.75C158.22,764.98 167.67,756.75 176.69,758.67C178.82,760.72 176.07,760.8 175.99,761.61C174.56,763.88 177.99,763.94 177.39,765.81C174.39,767.75 170.61,765.92 167.27,766.87C168.27,770.87 173.21,771.73 172.44,776.05C169.6,779.43 169.07,772.78 166.05,774.59C164.05,775.75 160.86,773.88 158.86,775.95C158.99,777.31 158.74,778.47 159.21,778.95C161.3,781.29 163.59,783.44 165.08,784.95C179.19,788.14 191.14,780.57 206.08,779.57L199.64,787.23C198.64,790.23 202.04,790.93 202.29,793.56C202.45,796.43 199.19,797.28 197.83,799.45C196.07,802.26 193.31,801.72 190.67,801.81C187.22,801.93 190.24,807.35 186.38,807.2C183.66,807.09 180.97,807.02 179.38,809.69L169.65,804C167.57,803.13 166.83,807.71 163.76,807.27C161.27,806.91 158.65,807.44 156.42,807.55C155.77,811.22 157.27,811.55 159.54,812.82C167.54,817.15 176.37,818.05 184.78,820.51C190.69,822.25 196.78,820.06 202.56,817.39L210.19,824.24C215.05,817.34 223.25,823.65 229.73,817.1C228.19,827.8 218.48,828.18 214.73,834.03L205.54,834.5C205.13,838.82 209.44,835.42 209.93,837.86C208.81,843.91 202.75,841.12 199.32,843.68L205.03,846.34C199.95,850.95 196.24,843.86 191.66,845.06C187.08,846.26 182.71,847.4 178.11,848.61C177.4,853.16 180.03,855.23 183.75,855.81C192.35,857.15 200.8,859.81 209.69,858.62C211.355,858.502 213.025,858.502 214.69,858.62C215.45,860.62 216.03,862.22 216.77,864.19L247.53,864.19C244.41,866.82 241.83,869.86 235.81,869.71C241.64,872.55 239.11,876.8 240.81,879.63L246.52,881.63C234.52,885.4 223.18,888.39 212.58,893.9L208.64,891.47C206.7,893.35 208.14,895.75 207.64,897.84C202.44,900.17 197.49,905.43 192.17,899.34C189.3,898.86 188.71,901.09 187.3,901.88C185.51,902.387 183.592,901.582 182.7,899.95C175.7,903.08 168.77,902.41 161.61,900.66C152.96,898.54 144.47,894.66 135.29,897.04C132.9,901.38 136.61,903.52 138.82,904.47C151.831,910.231 165.302,914.894 179.09,918.41C184.61,919.75 190.76,922.89 195.34,920.34C200.34,917.59 204.65,918.9 209.16,918.18C211.26,920.77 207.88,920.86 207.7,923.24L239.43,923.24C239.93,927.86 235.95,925.1 235.31,927.06C239.19,932.33 245.31,931.59 250.91,932.76C242.27,935.48 233.5,933.64 224.91,934.76C227.91,941.02 236.91,937.95 240.96,945.99C226.13,940.99 213.27,944.72 200.83,948.08C198.01,950.46 201.14,953.88 198.66,955.69C195.81,957.07 194.43,955.13 192.5,953.08C188.32,954.27 184.34,958.25 180.18,955.69C176.87,957.18 178.98,960.69 176.18,961.53C170.45,960.94 166.51,954.08 159.77,956.61L157.93,961.71L152.15,956.17L148.8,959.23L138,953.71C136.86,956.02 136.81,957.18 139.48,958.87C154.81,968.56 171.34,975.42 188.29,981.63C195,984.1 201.49,981.94 207.68,983.26C219.21,976.81 222.23,975.73 228.76,975.73C228.23,978.5 225.55,979.49 223.9,981.73C224.44,982.14 225.02,982.97 225.61,982.98C228.28,983.03 231.93,983.98 233.43,982.55C237.93,978.43 242.76,981.55 247.7,981.72L226.85,989.08C229.93,997.57 238.13,991.4 242.75,995.16C239.94,998.43 235.92,995.28 232.75,997.09C231.14,998.81 233.59,998.95 233.96,999.91C235.5,1003.91 240.52,1000.37 243.36,1004.22L228.36,1004.22C225.46,1006.8 228.48,1007.29 228.98,1008.6C228.61,1011.6 223.22,1008.46 223.81,1012.73C223.21,1017.1 228.44,1014.19 229.15,1017.14C225.15,1019.75 220.43,1016.93 216.37,1018.88C215.2,1020.72 217.84,1020.55 217.26,1023.22C215.34,1024.57 211.92,1023.22 208.55,1023.72C208.06,1025.14 207.55,1026.72 206.96,1028.33C204.96,1030.42 201.55,1027.5 199.6,1030.24C205.17,1038.16 214.74,1038.6 222.36,1039.24C231.11,1039.97 238.9,1045.24 248.02,1043.07C244.17,1046.5 239.72,1044.41 233.53,1046.19L229.13,1050.58L216.81,1044.45C215.17,1049.35 221.22,1048.81 220.36,1052.24C219.11,1055.24 213.83,1056.24 215.71,1061.53C209.88,1061.68 207.28,1057.53 203.12,1056.58C201.65,1058.58 201.43,1061.99 197.97,1064.09C193.36,1059.68 189.09,1054.02 181.67,1053.48C179.14,1056.4 185.34,1056.99 183.33,1060.11C182.25,1061.78 184.04,1064.49 182.61,1066.22C179.09,1068.71 177.95,1064.52 175.24,1064.13C172.79,1063.31 172.37,1067.26 168.78,1066.81C166.4,1063.09 161.78,1064.38 157.49,1064.22C157.22,1058.78 151.49,1059.12 148.58,1055.73C144.4,1057.91 139.97,1061.15 135.33,1056.47C133.52,1059.18 134.77,1060.84 136.67,1062.25C135.67,1064.5 134.76,1066.67 133.82,1068.83C129.23,1066.23 123.04,1065.14 119.53,1067.7C115.21,1070.85 109.76,1060.48 108.38,1071.25C103.13,1065.42 97.58,1067.25 92.78,1066.56C85.48,1065.04 83.27,1058.43 79.27,1053.4L76.27,1055.99C74.41,1053.43 74.14,1049.61 70.58,1048.23L66.74,1052.07C66.55,1061 70.62,1070 72,1080L30.89,1080C37.32,1067.35 37.11,1054 40.27,1041.87C36.6,1037.42 32.05,1036.1 28.06,1034.04C24.53,1037.36 27.52,1041.39 25.7,1044.55C23.95,1046.05 23.88,1043.55 21.84,1043.18C20.92,1047.43 17.31,1050.11 14.26,1053.25C12.1,1052.52 13.06,1050.38 12.06,1048.48C5.12,1050.19 5.64,1059.19 0.98,1061.1C-3.13,1062.48 -3.54,1058.5 -6.97,1058.98C-8.91,1063.98 -14.75,1065.56 -18.68,1069.42L-20.68,1067.42C-24.01,1068.15 -24.84,1073.15 -29.13,1072.42C-32.82,1069.58 -28.57,1064.55 -31.84,1061.5C-38.12,1061.41 -39.01,1069.5 -44.84,1069.74C-49.14,1068.38 -44.9,1063.74 -48.73,1061.35L-54.39,1068.73C-61.61,1071.35 -63.89,1067.48 -67.39,1063.99L-72.14,1071.23C-73.14,1066.03 -75.54,1064.11 -78.98,1063.23C-78.41,1061.29 -75.5,1060.37 -76.56,1057.77C-77.32,1056.43 -78.49,1056.29 -79.87,1056.11C-84.19,1055.57 -87.33,1061.39 -92.18,1058.2C-92.45,1054.37 -85.26,1053.79 -88.42,1047.96C-93.16,1048.26 -98.17,1053.31 -104.11,1049.34C-96.26,1045.05 -87.68,1044.63 -78.2,1041.27L-85.07,1038.81C-88.99,1036.53 -92.83,1040.3 -97.35,1042.16C-97.94,1040.61 -98.53,1039.05 -99.07,1037.6C-103.47,1035.73 -105.8,1042.6 -109.82,1040.06C-112.2,1039.06 -111.57,1036.98 -112.32,1034.68L-121.72,1039.6L-123.54,1034.85L-129.84,1034.16C-130.61,1030.48 -125.84,1030.34 -125.72,1027.09C-131.96,1023.88 -137.72,1032.75 -144.31,1027.76L-128.84,1020.13C-131.33,1017.45 -134.76,1015.44 -139.84,1014.25C-133.84,1011.78 -128.64,1013.63 -123.84,1012.7C-122.32,1011.78 -122.64,1010.36 -122.57,1008.41C-118.86,1005.87 -112.99,1009.47 -109.48,1004.88C-108.93,1004.16 -106.12,1004.88 -104.48,1005.34C-93.35,1008.42 -83.73,1008.28 -74,1004.75C-69.62,1003.16 -69.24,1002.37 -69.1,994.4C-71.95,994.84 -72.88,997.58 -75.1,999.14C-80.21,995.44 -71.1,992.89 -74.2,989.53C-74.84,988.29 -75.2,988.53 -76.15,989.37C-80.84,993.94 -84.76,999.47 -91.93,1001.43C-94.47,999.15 -91.73,995.26 -93.18,992.21C-93.81,990.95 -94.46,990.93 -95.09,992.15C-97.09,996.01 -101.89,995.86 -104.56,998.82C-109.86,997.41 -109.16,992.54 -109.23,989.01C-114.47,987.3 -117.54,994.72 -122.23,990.18C-123.77,985.54 -118.84,984.64 -117.23,981.79C-117.96,980.54 -119.15,980.31 -120.52,980.39C-123.523,980.399 -126.486,981.082 -129.19,982.39C-133.1,984.39 -138.56,984.39 -141.62,977.39C-134.49,978.82 -128.84,975.47 -122.62,973.76L-127.91,968.08C-127.15,967.65 -126.42,966.88 -125.68,966.88C-114.86,966.8 -104.03,966.88 -93.2,966.88C-90.04,966.88 -86.78,967.36 -83.76,966.72C-81.43,966.23 -79.4,964.33 -76.4,962.56C-84.1,960.23 -90.34,953.63 -100.02,958.11C-99.93,953.55 -105.22,953.76 -107.59,950.74C-109.34,951.83 -110.3,954.65 -113.26,953.06C-114.46,952.41 -114.53,951.11 -114.43,949.38L-101.64,942.92L-120.58,942.92C-123.05,940.92 -122.5,939.57 -122.34,937.15C-114.44,939.3 -107.67,933.22 -98.89,934.63C-97.74,929.26 -96.94,924.35 -102.67,920.86C-107.03,920.25 -107.67,925.52 -111.18,926.29C-120.53,924.81 -123.61,916.82 -128,910.17C-128.57,905.78 -123.4,908.59 -122.6,905.98L-122.6,902.19C-129.13,903.19 -134.6,899.19 -141.21,898.42C-141.26,897.24 -141.32,896.02 -141.37,894.86C-136.94,891.31 -134.77,898.61 -130.42,896.68C-127.35,895.32 -123.42,897.68 -119.85,895.44L-125.24,889.65C-122.37,887.58 -119.67,887.38 -116.9,889.97C-114.13,892.56 -110.9,890.62 -107.97,891.1C-105.9,890.22 -106.54,888.16 -106.06,886.73C-99.67,882.73 -94.47,889.43 -88.5,888.4C-80.5,894.15 -73.12,888.22 -65.67,886.76C-59.44,885.686 -53.521,883.259 -48.33,879.65C-45.78,878.65 -47.43,874.8 -44.27,873.73C-44.82,872.32 -45.96,872.23 -47.27,872.13C-52.17,871.78 -55.18,876.13 -59.63,876.89C-62.94,873.16 -55.25,871.31 -58.21,867.42C-60.37,866.05 -60.37,869.5 -63.51,869.27L-71.16,865.51L-68.32,862.39C-73.07,858.87 -75.8,865.63 -80.58,864.39C-84.73,863.32 -87.43,858.18 -92.64,860.14L-89.86,856.87C-94.69,855.62 -99.56,854.78 -103.49,851.65C-100.49,848.95 -96.49,851.65 -91.85,849.32L-113.47,840.66C-107.58,839.66 -104.19,839 -99.7,841.66C-96.34,843.66 -90.85,843 -86.57,842.19C-81.98,841.32 -78.77,845.57 -73.95,844.92L-76.09,840.5C-52.26,844.13 -31.09,840.57 -16.33,829.85C-21.99,828.99 -26.76,827.68 -28.85,823.79C-32.53,822.69 -33.29,825.93 -36,826.29C-39.12,827.14 -39.21,820.09 -44.8,825.12L-41.8,818.88C-47.7,815.36 -48.09,824.64 -53.52,823.22C-57.4,820.94 -52.78,815.79 -55.97,812.89C-59.67,814.62 -61.26,820.97 -68.67,816.43L-72,813.17C-74.18,812.87 -74.86,816.43 -77.44,815.29C-80.72,814.98 -78.17,811.15 -80.44,810.18C-83.16,808.97 -84.52,810.93 -86.33,812.85C-92.44,811.85 -96.64,805.28 -104.16,807.29C-102.26,803.29 -98.55,802.35 -98.16,797.78C-100.59,794.78 -107.89,798.13 -108.67,791.59C-100.07,790.9 -91.96,787.77 -83.04,787.99C-74.89,788.19 -66.81,788.91 -58.27,786.12C-50.16,783.48 -40.52,785.55 -31.91,785.55L-28.32,781.78C-30.7,775.11 -36.9,778.64 -40.81,776.97C-41.767,775.426 -41.539,773.41 -40.26,772.12C-29.05,773.34 -18.97,767.12 -8.15,763.76C-5.161,762.972 -3.19,760.069 -3.56,757C-9.67,753.33 -14.4,756.08 -18.65,761.6C-19.49,759.36 -20.06,757.8 -21.19,754.75C-22.83,757.55 -24.12,759.75 -25.19,761.59C-28.24,760.11 -29.08,757.04 -32.55,759.17L-34.02,763.47L-47.87,763.47L-51.67,759.68C-51.98,760.51 -52.55,762.08 -53.06,763.48C-57.18,764.89 -57.8,762.48 -57.98,758.57C-62.08,758.9 -66.42,756.71 -69.89,761.13C-72.7,758.44 -75.03,755.13 -79.31,754.45C-78.01,752.77 -75.41,751.71 -77.56,747.86C-80.7,746.1 -87.77,750.4 -89.69,742.52C-83.36,741.91 -76.69,742.42 -72.69,734.9C-71.37,732.42 -65.69,730.9 -60.94,731.25C-49.56,732.15 -39.36,727.4 -29.2,723.11C-27.66,722.46 -26.61,720.64 -25.33,719.37C-23.09,715.66 -29.84,714.71 -27.88,711.09C-25.99,708.3 -22.72,710.86 -21.07,709.59C-19.3,708.13 -19.83,706.78 -19.95,705.42C-22.67,703.1 -25.95,704.89 -28.95,704.29C-33.3,707.79 -36.24,713.17 -43.64,714.07C-48.05,712.24 -51.87,707.65 -56.26,702.07L-67.07,702.07C-68.42,696.62 -71.56,693.5 -76.82,692.18C-72.71,689.18 -68.02,691.86 -63.99,690.3L-62.16,685.53C-59.68,688.08 -55.51,687.53 -53.62,690.75C-46.24,690.55 -38.22,692.34 -32.77,684.88C-36.16,680.69 -41.01,684.26 -44.27,681.6L-41.5,678.47C-44.85,675.03 -46.85,678.82 -48.23,680.06C-54.15,679.35 -54.35,674.68 -56.61,671.72L-61.85,671.72C-64.13,669.88 -62.64,667.43 -63.14,665.23C-65.93,663.65 -69.37,662.75 -71.56,658.57L-53.28,658.57C-52.39,656.04 -51.84,654.47 -51.12,652.44L-36.3,657.99C-27.24,654.58 -16.17,655.1 -6.19,648.78C-11.66,645.78 -17.28,643.56 -21.7,639.11C-26.12,634.66 -27.87,627.74 -35.13,626.31L-37,628C-44.89,625.14 -50.75,618.35 -59.66,620.68C-60.18,617.5 -56.57,616.84 -58.19,613.21C-63.202,612.337 -67.988,610.463 -72.26,607.7C-65.91,606.88 -60.72,605.64 -55.75,609.07L-52.75,606.07C-53.32,604.88 -53.92,603.63 -54.88,601.65C-48.51,602.17 -44.2,605.22 -40.34,609.48C-37.94,607.08 -38.23,603.38 -34.16,601.11L-44.42,594.28C-35.22,593.7 -29.17,591.4 -23.52,595.86L-19.92,592.06C-19.34,589.62 -20.41,587.81 -22.01,587.28C-31.27,584.28 -38.44,577.74 -46.57,572.84C-45.94,572.2 -45.3,571.56 -44.63,570.9C-44.46,567.22 -48.82,570.77 -49.07,566.69L-45.74,563.59C-41.49,563.71 -39.28,568.27 -34.05,565.73C-33.34,564.54 -31.96,562.19 -30.13,559.09C-25.13,563.76 -20.48,564.09 -15.47,563.5C-13.34,562.5 -15.56,558.97 -11.82,558.06L4.56,566.49C16.33,557.7 31.34,552.9 39.74,539.94C39.96,536.94 38.34,536.57 35.92,536.59C32.99,543.71 27.32,546.53 19.51,547.75C13.69,548.66 7.01,549.67 2.64,556.35C2.13,553.89 1.88,552.65 1.55,551.06C-1.68,550.89 -4.82,555.32 -8.45,551.97C-7.14,546.27 2.61,548.25 1.8,539.62C-2.42,540.02 -3.73,545.9 -8.83,545.1C-11.83,544.64 -15.42,548.01 -18.75,549.66C-19.93,547.31 -21.25,544.66 -22.48,542.24C-22.16,538.67 -18.35,537.81 -17.37,534.95C-18.24,533.46 -20.37,533.42 -20.88,533.95C-23.64,536.85 -26.05,540.09 -27.88,542.33C-31.88,541.62 -34.36,542.93 -36.01,540.61C-36.7,536.36 -32.01,535.33 -30.76,531.67C-38.76,529.99 -47.67,533.5 -54.48,527.16C-49.89,521.58 -43.04,523.45 -37.38,522.98C-34.38,520.65 -37.65,517.2 -34.25,514.68C-24.82,519.51 -16.17,527.48 -4.56,528.55C-3.51,524.35 -8.46,524.32 -8.56,520.25C-0.67,520.83 4.6,528.05 12.07,528.37C20.12,528.7 28.18,528.44 36.58,528.44L36.58,515.44C32.23,513.93 32.19,516.44 31.25,519.18C30.43,521.5 25.79,519.55 25.31,523.32C22.12,521.16 24.69,517.89 23,515.72C19.18,511.97 17.4,520.05 13.59,517.17C8.94,513.31 18.09,511.71 14.76,507.3L4.91,512.2L1.31,507.49C-4,505 -6.26,509.36 -10,509.61L-13.73,506.18C-14.37,505.5 -13.73,505.13 -13.17,504.18C-10.29,499.05 -4.66,503.12 -1.33,500.73C1.81,494.79 -7.14,497.52 -6.71,492.15C-6.42,488.39 -12.29,487.66 -18.29,487.38C-14.58,484.7 -13.79,481.01 -9.08,482.71C-10.73,477 -17.33,475.96 -17.08,469.18C-8,470.42 -1.2,476 6.77,479.84C10.31,479.9 12.55,474.09 19.39,479.47C16.14,472.05 10.46,470.47 9.97,465.47C13.58,458.9 16.37,469.14 20.32,465.4C21.161,462.402 21.192,459.234 20.41,456.22C16.31,453.06 14.41,460.63 10.54,457.3C8.27,452.67 13.45,451.76 15.12,448.77L4.82,432.18C10.29,427.61 14.3,436.18 19.91,433.51C20.34,432.26 20.91,430.69 21.43,429.12C22.06,428.24 22.54,428.51 23.38,429.48C24.8,431.14 26.63,432.32 26.31,435.08C25.58,441.24 29.17,445.64 33.64,450.97L33.64,432.13C29.25,426.94 25.07,420.13 21.12,413.13C23.34,411.13 25.02,412.13 26.75,413.95C29.54,416.89 32.47,419.71 36.04,423.27C37.95,417.9 36.82,412.77 37.04,407.82C37.26,402.87 37.04,398.17 37.04,391.48C40.89,397.69 43.16,402 42.54,407.48C42.04,411.78 42.46,411.81 46.54,417.9C48.94,412.76 51.34,407.9 58.69,405.9C56.12,413.73 51.77,419.1 47.69,424.28C42.69,430.66 41.6,437.18 43.11,445.08C52.94,443.2 51.01,432.63 57.2,428.72C59.48,429.19 58.38,431.35 59.13,432.99C63.59,432.99 66.41,428.05 72.5,428.53C71.14,431.68 68.4,433.07 66.97,435.27C69.07,439.66 75.11,438.71 77.38,443.78C70.6,446.13 63.03,443.21 55.81,445.43C60.34,449.59 67.81,448.92 69.92,456.8C65.15,459.26 58.87,456.98 55.51,461.2C52.29,459.74 54.51,456.2 51.05,455.32C46.79,455.45 45.91,460.6 41.69,462.17C46.46,471.17 44.87,480.52 45.28,490.43C52.65,491.35 58.75,488.37 61.93,482.85C64.59,478.23 70.13,475.15 69.93,468.46C69.84,466.17 73.54,463.74 75.57,461.3C78.39,462.2 80.71,464.36 84.57,463.36L91.71,454.82C94.93,457.11 93.61,459.56 94.12,462.39L87.55,466.23C91.49,471.23 96.49,466.91 99.71,470.55C98.38,476.88 91.65,478.72 89.24,484.06C92.62,486.82 97.53,487.59 102.34,488.9C98.75,493.68 92.56,494.07 89.77,498.72C86.887,499.255 83.912,498.452 81.69,496.54L77.83,499.84C77.05,503.04 79.3,504.2 81.19,506.33C84.68,508.42 89.49,505.33 93.47,507.72C92.11,512.6 88.11,512.42 84.25,512.48C82.08,514.28 83.62,516.72 83.12,518.75C82.28,520.88 80.12,520.1 78.58,520.82C77.22,522.32 77.22,523.82 79.02,525.87C84.76,525.63 88.79,519.05 95.27,520.42C97.68,521.96 96.27,524.42 96.71,526.64C101.14,529.93 105.89,532.48 111.71,530.89C112.56,536.76 119.02,536.59 120.83,540.89C112.75,546.89 107.19,547.89 97.71,545.03C95.06,546.95 98.14,550.36 95.13,553.03C88.65,552.3 86.65,545.03 81.4,542.16L76.4,542.16C75.148,542.876 74.608,544.42 75.14,545.76C75.57,546.92 76.75,547.81 77.61,548.83C74.73,552.39 70.27,550.14 64.44,542.09C59.98,541.49 62.7,546.59 59.44,547.75C51.93,545.36 51.3,538.25 49.96,529.64C47.08,534.9 47.52,538.39 49.04,541.78C50.56,545.17 52.43,548.47 54.57,552.65C58.91,556.26 65.11,555.65 71.01,555.6C73.88,558.51 67.72,558.54 72.32,563.41C74.63,564.34 79.06,569.3 86.19,564.9C91.1,561.9 97,560.43 100.79,555.84C102.66,556.9 101.91,558.4 102.24,560.59C108.18,560.15 112.79,562.59 114.24,569.11C120.94,569.64 126.19,565.31 133.4,563.45C134.13,565.52 135.09,568.22 136.05,570.92L139.39,569.35Z" style="fill:rgb(245,252,255);fill-rule:nonzero;"/>
                <path d="M317.19,802.37L307.38,802.37C306.38,804.78 309.04,804.83 309.43,806.31C313.11,808.61 317.58,805.61 321.53,808.11L319.53,810.68C320.53,814.28 324.62,813.68 326.68,815.86L323.78,819.08C330.68,820.93 334.92,811.46 342.58,816.17L333.58,822.78C336.42,825.46 338.44,825.02 339.58,822.99C341.58,819.41 346.19,820.42 347.88,817.32C352.57,819.27 351.21,823.74 352.56,826.76C357.56,828.63 357.97,822.04 361.79,822.13C363.93,821.77 364.34,824.05 366.52,824.85L376.05,820.06L378.72,822.74C378.85,823.04 379.18,823.5 379.09,823.6C369,835.42 355.09,838.23 340.67,840.18C338.31,835.62 333.72,834.84 330.19,832.5C327.57,834.08 327.14,837.05 325.79,839.41C321.36,840.76 320.84,835.74 316.89,834.72C312.53,838.72 306.17,836.53 299.71,837.38C299.78,840.17 302.14,842.15 303.71,841.94C309.91,841.15 310.99,845.74 312.84,849.45C317.76,851.05 320.26,847.45 322.95,844.61C326.25,847.76 323.17,849.15 321.84,850.89C322.752,851.713 323.54,852.662 324.18,853.71C324.63,854.71 323.89,856.24 325.84,857.07L330.18,857.07C333.78,859.27 329.06,865.37 334.77,866.79L343.41,866.79L347.66,862.55C349.93,863.93 352.29,865.17 355.9,864.55C357.03,863.13 358.56,861.18 360.02,859.33C363.14,861.43 360.79,864.45 362.34,866.5C366.58,864.16 372.77,865.72 374.88,859.94L381.95,863.3C374.4,871.35 364.61,874.55 354.81,878.11C344.11,882 334.27,879.11 324.45,874.88C323.64,879.88 327.78,880.88 329.71,884.71C324.98,884.71 320.78,885.37 316.9,884.52C313.24,883.72 309.9,881.33 306.62,879.71C303.99,879.85 304.21,881.61 304.24,883.27C302.57,886.49 298.49,883.05 296.72,885.97C294.95,888.89 290.86,885.42 288.98,889.13C290.33,895.81 299.92,894.98 301.37,900.92C302.82,906.86 310.13,908.42 310.13,916.06C314.37,912.25 318.64,911.74 323.23,912.4C325.23,913.31 323.12,916.66 326.17,917.28C329.66,916.99 331.56,913.04 335.46,913.03C337.51,912.94 336.46,914.95 337.22,916.72L353.45,916.72L358.1,912.34C359.26,912.99 359.754,914.423 359.24,915.65C356.94,920.75 353.53,925.09 348.12,926.96C346.12,927.65 344.34,928.1 343.12,929.75L320.41,929.75C318.63,926.7 314.54,927.33 312.23,924.45L304.13,928.45L308.85,933.17C305.5,936.33 303.16,933.92 300.01,932.49C297.27,931.24 293.51,932.23 290.36,932.23C286.6,936.51 280.93,936.12 276.19,938.7C279.19,948.31 293.04,946.62 295.09,957.25C297.932,957.08 300.782,957.11 303.62,957.34C306.5,957.74 308.55,955.86 311.09,955.21C311.87,957.45 312.4,959.21 309.26,959.8C306.12,960.39 304.1,962.13 304.13,965.6C315.64,969.74 315.64,969.74 327.47,967.25C330.25,968.56 329.27,972.12 330.77,973.25C324.83,981.4 315.25,975.17 307.32,979.25C299.79,983.15 291.05,975.52 282.71,977.32C280.71,979.22 283.28,979.32 283.36,980.04C284.68,982.14 281.49,982.2 282.07,983.92C284.8,985.72 288.33,984.03 291.43,984.92C290.5,988.63 285.93,989.42 286.64,993.42C289.27,996.54 289.76,990.42 292.55,992.06C294.36,993.14 297.35,991.41 299.2,993.32C299.08,994.58 299.31,995.65 298.88,996.14C296.95,998.29 294.83,1000.28 293.45,1001.66C280.4,1004.61 269.35,997.66 255.54,996.66L261.54,1003.74C262.48,1006.54 259.32,1007.16 259.09,1009.59C258.94,1012.25 261.95,1013.03 263.21,1015.04C264.84,1017.64 267.39,1017.14 269.83,1017.23C273.02,1017.33 270.23,1022.34 273.83,1022.23C276.35,1022.13 278.83,1022.07 280.28,1024.54L289.28,1019.31C291.2,1018.5 291.89,1022.74 294.73,1022.31C297.03,1021.98 299.45,1022.46 301.52,1022.57C302.12,1025.96 300.73,1026.3 298.63,1027.44C291.27,1031.44 283.07,1032.28 275.29,1034.56C269.83,1036.16 264.19,1034.13 258.85,1031.67C256.51,1033.76 254.45,1035.67 251.85,1038C247.35,1031.62 239.77,1037.45 233.78,1031.4C235.2,1041.29 244.18,1041.65 247.67,1047.05L256.17,1047.49C256.55,1051.49 252.57,1048.34 252.11,1050.6C253.11,1056.19 258.75,1053.6 261.92,1055.98L256.65,1058.44C261.34,1062.7 264.77,1056.15 269.01,1057.25L281.54,1060.54C282.2,1064.74 279.76,1066.66 276.32,1067.19C268.37,1068.43 260.55,1070.94 252.32,1069.79C250.772,1069.68 249.218,1069.68 247.67,1069.79C246.96,1071.68 246.43,1073.12 245.74,1074.95L217.18,1074.95C220.07,1077.38 222.45,1080.19 228.01,1080.05C222.62,1082.67 225.01,1086.61 223.43,1089.22L218.15,1091.05C229.27,1094.53 239.73,1097.3 249.53,1102.39L253.18,1100.15C254.97,1101.88 253.64,1104.15 254.09,1106.04C258.9,1108.19 263.48,1113.04 268.4,1107.42C271.05,1106.97 271.59,1109.04 272.9,1109.77C274.555,1110.24 276.327,1109.49 277.15,1107.98C283.59,1110.88 290.04,1110.26 296.65,1108.64C304.65,1106.64 312.51,1103.13 321,1105.3C323.2,1109.3 319.78,1111.3 317.73,1112.16C305.699,1117.49 293.242,1121.8 280.49,1125.05C275.38,1126.3 269.7,1129.2 265.49,1126.84C260.9,1124.29 256.87,1125.51 252.71,1124.84C250.76,1127.24 253.89,1127.32 254.06,1129.52L224.7,1129.52C224.23,1133.79 227.91,1131.24 228.51,1133.05C224.92,1137.93 219.26,1137.25 214.08,1138.33C222.08,1140.84 230.18,1139.14 238.08,1140.14C235.33,1145.93 227.02,1143.14 223.24,1150.53C236.95,1145.88 248.85,1149.35 260.34,1152.45C262.96,1154.65 260.06,1157.82 262.34,1159.45C264.98,1160.73 266.26,1158.94 268.04,1157.04C271.91,1158.14 275.59,1161.81 279.43,1159.45C282.49,1160.83 280.54,1164.05 283.14,1164.85C288.43,1164.3 292.08,1157.96 298.31,1160.3L300,1165.01C302,1163.14 303.67,1161.5 305.35,1159.9L308.45,1162.73L318.4,1157.73C319.45,1159.86 319.49,1160.94 317.02,1162.5C302.85,1171.5 287.56,1177.8 271.89,1183.5C265.68,1185.77 259.68,1183.78 253.96,1185C243.3,1179 240.51,1178 234.47,1178C234.95,1180.57 237.47,1181.48 238.96,1183.6C238.46,1183.98 237.96,1184.74 237.38,1184.76C234.91,1184.76 231.53,1185.63 230.15,1184.36C225.99,1180.55 221.52,1183.42 216.95,1183.6L236.23,1190.39C233.38,1198.25 225.8,1192.54 221.52,1196.02C224.13,1199.02 227.85,1196.13 230.75,1197.81C232.25,1199.39 229.98,1199.53 229.64,1200.41C228.21,1204.11 223.58,1200.84 220.95,1204.41L234.8,1204.41C237.48,1206.8 234.69,1207.25 234.22,1208.41C234.56,1211.17 239.55,1208.28 239.01,1212.23C239.56,1216.23 234.72,1213.58 234.07,1216.3C237.73,1218.72 242.13,1216.11 245.88,1217.92C246.97,1219.61 244.52,1219.46 245.06,1221.92C246.84,1223.16 250,1221.92 253.12,1222.38C253.57,1223.7 254.07,1225.15 254.59,1226.64C256.47,1228.57 259.59,1225.88 261.39,1228.41C256.24,1235.74 247.39,1236.14 240.39,1236.73C232.3,1237.41 225.1,1242.33 216.66,1240.27C220.22,1243.45 224.34,1241.51 230.07,1243.15L234.13,1247.22L245.53,1241.55C247.04,1246.08 241.45,1245.55 242.24,1248.75C243.4,1251.52 248.24,1252.44 246.55,1257.34C251.93,1257.48 254.34,1253.66 258.19,1252.77C259.55,1254.65 259.75,1257.77 262.95,1259.71C267.21,1255.63 271.16,1250.4 278.02,1249.9C280.36,1252.6 274.62,1253.14 276.49,1256.03C277.49,1257.57 275.83,1260.03 277.16,1261.67C280.41,1263.98 281.46,1260.11 283.97,1259.75C286.23,1258.99 286.62,1262.64 289.97,1262.22C292.17,1258.78 296.44,1259.97 300.41,1259.83C300.66,1254.83 305.98,1255.11 308.65,1251.98C312.52,1253.98 316.65,1256.98 320.9,1252.66C322.58,1255.17 321.42,1256.71 319.66,1258L322.3,1264.09C326.54,1261.69 332.3,1260.68 335.51,1263.09C339.51,1266.01 344.51,1256.43 345.82,1266.38C350.68,1260.99 355.82,1262.73 360.25,1262.04C367,1260.64 369.04,1254.52 372.75,1249.88L375.49,1252.27C377.21,1249.9 377.49,1246.37 380.75,1245.09L384.3,1248.64C384.56,1256.84 380.8,1265.21 379.52,1274.43L417.52,1274.43C411.52,1262.73 411.76,1250.43 408.84,1239.17C412.23,1235.05 416.44,1233.83 420.13,1231.93C423.39,1235 420.63,1238.72 422.31,1241.65C423.93,1243.03 423.99,1240.65 425.88,1240.38C426.74,1244.3 430.08,1246.79 432.88,1249.69C434.88,1249.02 433.99,1247.04 434.88,1245.28C441.31,1246.86 440.82,1255.18 445.13,1256.95C448.93,1258.22 449.31,1254.54 452.49,1254.95C454.28,1259.61 459.68,1261.05 463.31,1264.61L465.18,1262.75C468.26,1263.43 469.02,1268.05 472.99,1267.35C476.41,1264.72 472.47,1260.07 475.5,1257.25C481.3,1257.17 482.13,1264.65 487.5,1264.87C491.5,1263.61 487.55,1259.3 491.1,1257.11L496.33,1263.94C503.01,1266.36 505.11,1262.78 508.33,1259.56L512.72,1266.25C513.67,1261.44 515.87,1259.66 519.05,1258.88C518.52,1257.09 515.83,1256.24 516.81,1253.88C517.51,1252.64 518.6,1252.51 519.87,1252.35C523.87,1251.84 526.76,1257.23 531.26,1254.28C531.5,1250.74 524.86,1250.2 527.77,1244.81C532.16,1245.09 536.77,1249.81 542.28,1246.09C535.03,1242.09 527.09,1241.73 518.33,1238.62L524.68,1236.34C528.3,1234.23 531.85,1237.73 536.03,1239.45C536.58,1238.01 537.12,1236.57 537.63,1235.23C541.7,1233.5 543.85,1239.81 547.56,1237.5C549.77,1236.56 549.18,1234.66 549.88,1232.5L558.57,1237.05C559.11,1235.65 559.66,1234.21 560.25,1232.65L566.07,1232.02C566.79,1228.62 562.38,1228.48 562.27,1225.48C568.04,1222.48 573.41,1230.71 579.46,1226.1L565.15,1219.1C567.45,1216.62 570.63,1214.76 575.29,1213.66C569.79,1211.38 564.94,1213.08 560.53,1212.22C559.12,1211.37 559.42,1210.06 559.36,1208.22C555.93,1205.87 550.49,1209.22 547.25,1204.95C546.74,1204.28 544.14,1204.95 542.61,1205.37C532.33,1208.23 523.43,1208.1 514.43,1204.83C510.43,1203.36 510.03,1202.63 509.9,1195.27C512.53,1195.67 513.4,1198.21 515.47,1199.65C520.19,1196.22 511.81,1193.86 514.63,1190.76C515.22,1189.61 515.63,1189.76 516.44,1190.61C520.77,1194.84 524.44,1199.95 531.03,1201.76C533.38,1199.65 530.85,1196.06 532.18,1193.24C532.77,1192.08 533.37,1192.05 533.95,1193.18C535.77,1196.75 540.24,1196.61 542.71,1199.35C547.61,1198.04 546.96,1193.54 547.03,1190.28C551.88,1188.69 554.71,1195.55 559.1,1191.36C560.52,1187.07 555.96,1186.24 554.47,1183.6C555.112,1182.6 556.303,1182.09 557.47,1182.31C560.244,1182.33 562.978,1182.97 565.47,1184.19C569.09,1186.07 574.13,1186 576.96,1179.57C570.37,1180.89 565.15,1177.79 559.36,1176.21L564.25,1170.96C563.55,1170.56 562.87,1169.86 562.19,1169.85C552.19,1169.78 542.19,1169.85 532.19,1169.85C529.26,1169.85 526.25,1170.3 523.45,1169.71C521.3,1169.25 519.45,1167.49 516.65,1165.86C523.77,1163.71 529.54,1157.6 538.49,1161.74C538.41,1157.53 543.3,1157.74 545.49,1154.93C547.11,1155.93 548,1158.54 550.74,1157.08C551.84,1156.48 551.91,1155.27 551.81,1153.67L539.99,1147.67L557.5,1147.67C559.79,1145.82 559.28,1144.57 559.13,1142.34C551.82,1144.34 545.57,1138.7 537.45,1140.01C536.39,1135.01 535.65,1130.5 540.94,1127.27C544.94,1126.7 545.6,1131.58 548.81,1132.27C557.46,1130.9 560.3,1123.52 564.37,1117.36C564.89,1113.3 560.11,1115.9 559.37,1113.49L559.37,1109.98C565.37,1110.86 570.49,1107.24 576.58,1106.5C576.58,1105.41 576.68,1104.28 576.73,1103.21C572.63,1099.92 570.62,1106.68 566.61,1104.89C563.77,1103.63 560.1,1105.77 556.83,1103.74L561.83,1098.39C559.17,1096.48 556.69,1096.3 554.12,1098.68C551.55,1101.06 548.57,1099.29 545.86,1099.68C543.95,1098.87 544.54,1096.96 544.1,1095.68C538.19,1092.03 533.38,1098.17 527.86,1097.23C520.44,1102.54 513.64,1097.06 506.74,1095.71C500.989,1094.71 495.527,1092.47 490.74,1089.13C488.37,1088.25 489.9,1084.64 486.98,1083.66C487.49,1082.35 488.54,1082.27 489.76,1082.18C494.29,1081.85 497.08,1085.92 501.19,1086.58C504.25,1083.13 497.14,1081.42 499.88,1077.83C501.88,1076.56 501.88,1079.74 504.78,1079.53L511.85,1076.06L509.23,1073.17C513.62,1069.91 516.14,1076.17 520.57,1075.04C524.4,1074.04 526.9,1069.29 531.71,1071.11L529.15,1068.11C533.61,1066.96 538.15,1066.18 541.75,1063.29C538.98,1060.79 535.29,1063.29 530.98,1061.13L550.98,1053.13C545.54,1052.13 542.41,1051.59 538.25,1054.05C535.15,1055.88 530.07,1055.28 526.11,1054.53C521.87,1053.73 518.9,1057.66 514.44,1057.06L516.44,1052.97C494.44,1056.33 474.86,1053.03 461.17,1043.12C466.4,1042.33 470.82,1041.12 472.75,1037.52C476.15,1036.52 476.86,1039.52 479.37,1039.83C482.25,1040.62 482.37,1034.1 487.5,1038.75L484.73,1032.98C490.18,1029.72 490.54,1038.3 495.57,1036.98C499.15,1034.87 494.87,1030.11 497.83,1027.43C501.25,1029.03 502.72,1034.9 509.57,1030.71L512.57,1027.71C514.57,1027.43 515.21,1030.71 517.57,1029.71C520.57,1029.42 518.25,1025.88 520.32,1024.98C522.82,1023.86 524.08,1025.68 525.76,1027.45C531.41,1026.53 535.29,1020.45 542.24,1022.31C540.49,1018.62 537.06,1017.74 536.7,1013.52C538.95,1010.76 545.7,1013.84 546.42,1007.79C538.48,1007.15 530.98,1004.26 522.73,1004.46C515.19,1004.65 507.73,1005.31 499.82,1002.74C492.33,1000.29 483.41,1002.21 475.45,1002.21L472.13,998.72C474.32,992.55 480.06,995.81 483.67,994.28C484.562,992.853 484.354,990.986 483.17,989.79C472.8,990.91 463.48,985.21 453.48,982.06C450.738,981.328 448.927,978.67 449.25,975.85C454.9,972.45 459.25,974.99 463.25,980.1C464.02,978.02 464.55,976.58 465.6,973.76L469.29,980.09C472.1,978.72 472.88,975.88 476.08,977.85C476.33,978.56 476.83,980.01 477.45,981.85L490.27,981.85L493.78,978.34C494.06,979.11 494.59,980.56 495.07,981.85C498.87,983.16 499.45,980.95 499.61,977.31C503.4,977.62 507.42,975.6 510.61,979.68C513.21,977.2 515.37,974.09 519.32,973.51C518.13,971.95 515.72,970.98 517.71,967.41C520.61,965.78 527.15,969.76 528.93,962.47C523.07,961.91 516.93,962.38 513.22,955.47C512,953.18 506.75,951.74 502.35,952.09C491.82,952.93 482.4,948.53 473,944.56C471.57,943.96 470.6,942.29 469.42,941.11C467.34,937.68 473.59,936.8 471.77,933.45C470.03,930.87 467,933.24 465.48,932.06C463.84,930.71 464.33,929.47 464.48,928.21C467,926.06 470.04,927.71 472.86,927.21C476.86,930.44 479.59,935.41 486.44,936.21C490.51,934.52 494.04,930.27 498.11,925.16L508.05,925.16C509.3,920.16 512.2,917.23 517.05,916.01C513.24,913.26 508.91,915.72 505.18,914.27C504.62,912.83 504.07,911.39 503.48,909.86C501.2,912.22 497.34,911.7 495.59,914.69C488.76,914.51 481.35,916.16 476.31,909.26C479.45,905.38 483.93,908.69 486.95,906.26L484.38,903.38C487.48,900.19 489.33,903.7 490.6,904.85C496.08,904.19 496.26,899.85 498.35,897.13L503.2,897.13C505.31,895.43 503.93,893.13 504.39,891.13C506.98,889.67 510.15,888.84 512.18,884.97L495.28,884.97C494.45,882.63 493.94,881.18 493.28,879.3L479.57,884.43C471.2,881.28 460.96,881.76 451.73,875.92C456.79,873.17 461.98,871.1 466.07,866.98C470.16,862.86 471.78,856.46 478.49,855.14L480.21,856.63C487.51,853.98 492.93,847.7 501.21,849.86C501.69,846.92 498.35,846.31 499.85,842.95C504.482,842.147 508.904,840.416 512.85,837.86C506.97,837.1 502.18,835.96 497.58,839.13L494.8,836.34L496.8,832.25C490.91,832.73 486.92,835.56 483.35,839.5C481.14,837.28 481.4,833.86 477.64,831.76L487.12,825.44C478.62,824.9 473.02,822.78 467.8,826.9L464.47,823.39C463.94,821.13 464.92,819.45 466.4,818.97C474.97,816.15 481.6,810.14 489.12,805.61L487.32,803.82C487.16,800.42 491.19,803.7 491.43,799.93L488.36,797C484.43,797.12 482.36,801.33 477.54,799L473.92,792.86C469.3,797.18 464.99,797.52 460.36,796.93C458.36,796.04 460.45,792.75 456.99,791.93L441.84,799.73C430.96,791.6 417.08,787.16 409.31,775.17C409.11,772.39 410.6,772.05 412.84,772.07C415.55,778.66 420.84,781.27 428.02,782.4C433.4,783.24 439.58,784.17 443.61,790.4C444.09,788.12 444.32,786.98 444.61,785.51C447.61,785.34 450.5,789.44 453.9,786.35C452.69,781.07 443.68,782.91 444.42,774.93C448.32,775.29 449.54,780.73 454.25,780C457.02,779.57 460.35,782.68 463.42,784.21C464.52,782.03 465.73,779.62 466.88,777.35C466.57,774.05 463.05,773.26 462.14,770.61C462.96,769.23 464.89,769.19 465.4,769.72C467.95,772.4 470.17,775.39 471.86,777.47C475.58,776.81 477.86,778.03 479.38,775.88C480.02,771.95 475.7,771 474.52,767.61C481.89,766.05 490.15,769.3 496.46,763.44C492.21,758.28 485.88,760.01 480.64,759.57C477.89,757.42 480.89,754.23 477.75,751.9C469,756.32 461,763.68 450.3,764.68C449.3,760.79 453.91,760.76 454.02,757C446.73,757.54 441.86,764.22 434.94,764.51C427.5,764.82 420.04,764.58 412.28,764.58L412.28,752.52C416.28,751.13 416.34,753.52 417.21,755.98C417.97,758.13 422.26,756.32 422.7,759.81C425.65,757.81 423.28,754.81 424.84,752.81C428.37,749.35 430.02,756.81 433.54,754.16C437.84,750.59 429.38,749.16 432.46,745.03L441.54,749.55L444.87,745.2C449.77,742.89 451.87,746.93 455.33,747.2L458.78,744.04C459.38,743.41 458.78,743.04 458.27,742.19C455.6,737.44 450.4,741.19 447.27,738.99C444.38,733.5 452.65,735.99 452.27,731.06C451.99,727.59 457.42,726.91 462.97,726.65C459.54,724.17 458.81,720.76 454.46,722.33C455.98,717.05 462.08,716.09 461.87,709.82C453.47,710.97 447.16,716.11 439.79,719.68C436.51,719.74 434.44,714.36 428.12,719.34C431.12,712.47 436.38,711 436.83,706.42C433.49,700.34 430.91,709.81 427.25,706.35C426.481,703.576 426.457,700.647 427.18,697.86C430.97,694.94 432.7,701.94 436.3,698.86C438.4,694.58 433.61,693.74 432.07,690.98C435.19,685.98 438.39,680.77 441.59,675.61C436.53,671.38 432.82,679.34 427.64,676.84L426.24,672.78C425.65,671.96 425.24,672.21 424.43,673.11C423.11,674.64 421.43,675.74 421.72,678.29C422.39,683.98 419.07,688.05 414.94,692.98L414.94,675.48C419,670.68 422.86,664.39 426.51,657.9C424.51,656.05 422.92,656.98 421.32,658.66C418.73,661.38 416.02,663.98 412.72,667.28C410.95,662.28 412,657.57 411.81,652.99C411.62,648.41 411.81,644.06 411.81,637.88C408.25,643.63 406.15,647.6 406.73,652.64C407.18,656.64 406.8,656.64 403.07,662.28C400.85,657.53 398.63,653.03 391.84,651.19C394.21,658.43 398.24,663.41 402,668.19C406.65,674.1 407.63,680.12 406.23,687.43C397.15,685.69 398.93,675.92 393.23,672.3C391.12,672.73 392.13,674.73 391.44,676.24C387.32,676.24 384.7,671.68 379.07,672.12C380.34,675.04 382.87,676.32 384.19,678.36C382.25,682.36 376.66,681.53 374.56,686.23C380.84,688.4 387.83,685.7 394.56,687.75C390.37,691.59 383.44,690.98 381.51,698.26C385.93,700.54 391.73,698.43 394.84,702.34C397.84,700.99 395.79,697.7 398.96,696.89C402.9,697.01 403.72,701.78 407.62,703.23C403.21,711.56 404.68,720.23 404.3,729.36C397.48,730.21 391.84,727.46 388.9,722.36C386.44,718.09 381.31,715.25 381.54,709.06C381.62,706.94 378.2,704.69 376.33,702.44C373.71,703.27 371.57,705.27 368,704.34L361.4,696.45C358.4,698.56 359.65,700.82 359.18,703.45L365.24,707C361.6,711.59 356.98,707.62 354,711C355.24,716.85 361.45,718.56 363.68,723.49C360.56,726.04 356.02,726.75 351.57,727.97C354.89,732.38 360.57,732.74 363.2,737.05C365.86,737.551 368.608,736.815 370.66,735.05L374.23,738.11C374.96,741.06 372.88,742.11 371.13,744.11C367.9,746.05 363.45,743.16 359.77,745.4C361.03,749.91 364.77,749.74 368.3,749.8C370.3,751.47 368.88,753.73 369.3,755.6C370.08,757.6 372.04,756.85 373.5,757.51C374.76,758.9 374.76,760.33 373.1,762.19C367.78,761.96 364.1,755.87 358.1,757.19C355.87,758.6 357.1,760.89 356.77,762.93C352.67,765.93 348.28,768.34 342.88,766.87C342,772.2 336,772 334.36,776C341.84,781.58 346.98,782.5 355.75,779.83C358.19,781.61 355.35,784.76 358.13,787.19C364.13,786.52 365.97,779.83 370.82,777.14L375.5,777.14C376.656,777.803 377.154,779.232 376.66,780.47C376.27,781.54 375.18,782.37 374.38,783.31C377.04,786.6 381.17,784.52 386.55,777.08C390.68,776.52 388.16,781.23 391.15,782.31C398.15,780.1 398.68,773.52 399.91,765.57C402.58,770.43 402.17,773.65 400.77,776.78C399.37,779.91 397.64,782.97 395.65,786.84C391.65,790.18 385.91,789.64 380.45,789.57C377.8,792.26 383.45,792.29 379.24,796.79C377.11,797.65 373.01,802.24 366.42,798.17C361.87,795.36 356.42,794.04 352.91,789.79C351.19,790.79 351.91,792.16 351.58,794.18C346.08,793.78 341.81,795.98 340.52,802.06C334.33,802.55 329.52,798.55 322.81,796.82C322.13,798.74 321.24,801.24 320.36,803.74L317.19,802.37Z" style="fill:rgb(245,252,255);fill-rule:nonzero;"/>
                <path d="M1676.52,877C1676.8,871.7 1681.39,870 1684.89,865.24C1676.07,862.41 1668.54,858 1671.96,847.49L1663.24,844.41C1663.35,841.95 1661.98,839.65 1665.43,837.66C1676.43,835.3 1681.26,848.66 1690.98,850.87L1694.59,845.57C1684.52,837.44 1680.69,823.42 1667.96,817.11C1669.48,814.45 1671.96,815.64 1673.96,815.34C1675.96,813.99 1676.25,811.99 1676.24,809.75C1676.24,807.68 1676.53,805.61 1676.69,803.64C1693.52,800.09 1709.81,795.29 1725.95,798.53C1729.34,794.99 1729.44,792.53 1727.47,790.1C1721.47,785.98 1719.27,795.26 1712.92,793.1C1708.39,787.41 1700.56,783.1 1696.82,773.64C1711.67,767.57 1718.82,779.56 1728,784.93C1736.27,784.37 1731.06,775.03 1737.06,773.49C1731.6,768.33 1729.39,774.59 1725.88,775.49C1721.48,771.49 1728.5,763.03 1719.02,761.35C1723.12,758.35 1725.02,755.5 1724.58,749.6C1735.71,753.28 1743.58,743.16 1754.83,745.74C1755.16,735.1 1747.33,732.74 1743.83,728.25C1739.25,727.34 1737.67,730.07 1734.91,732.66C1733.08,722.41 1722.91,717.97 1718.57,710.13C1724.37,703.24 1730.89,708.13 1735.97,705.42C1739.31,700.93 1735.97,695.65 1737.84,691.28C1732.96,686.12 1729.9,689.38 1726.7,692.89C1721.14,688.89 1728.52,679.98 1718.37,677.81C1722.01,676.5 1723.69,675.28 1724.48,675.7C1734.72,681.22 1742.92,689.91 1753.85,694.48C1754.99,694.96 1754.97,698.22 1755.69,701L1779.78,701C1780.94,699.78 1782.96,697.69 1785.2,695.35C1772.1,688.66 1755.85,687.76 1742.81,674.56C1759.43,667.11 1770.16,676.71 1782.24,680.47L1790.04,673.59L1776.75,660.3L1780.75,656.3C1777.27,651.68 1774.01,646.61 1763.58,651.81L1759.14,658C1752.37,657.81 1747.33,659.39 1742.44,656.79C1743,655.73 1743.29,654.2 1744.09,653.85C1753.93,649.51 1764.89,647.24 1772.52,638.13C1764.25,633.89 1755.26,638.4 1748.66,635.89L1765,619.36C1769.85,621.13 1777.65,628.9 1784.44,617.36C1788.93,609.2 1782.8,601.89 1780.18,592.9L1805.28,601.43C1809.07,597 1807.04,594.43 1804.28,591.64C1794.93,582.24 1784.03,573.92 1780.67,559.64C1791.87,562.35 1791.87,562.35 1806.67,556.15C1803.38,548.94 1797.51,542.65 1798.6,533.85C1805.54,530.79 1811.69,526.78 1815.6,520.05L1812.35,516.8L1824.19,506C1826.99,513.22 1814.85,519.59 1822.34,526.91C1828.34,530.5 1829.85,519.58 1837.14,523.59C1834.48,529.13 1831.5,535.25 1833.86,541.12C1831.17,546.86 1823.43,548.42 1825.27,557.32C1835.27,557.1 1843.59,550.32 1853.27,548.96C1856.27,553.2 1857.5,556.88 1850.48,557.66C1846.31,558.12 1846.48,560.92 1846.67,563.96C1852.39,570.72 1857.46,564.61 1862.74,562.96C1864.87,564.61 1864.74,567.72 1863.74,568.7C1860.24,571.91 1854.56,572.02 1851.03,577.89L1851.03,590.38C1844.2,597.95 1842.3,586.46 1834.58,589.33C1834.21,590.05 1832.58,593.33 1830.88,596.56C1831.24,596.91 1833.3,598.97 1835.56,601.24C1846.56,600.24 1855.94,590.75 1868.56,593.17C1861.32,607.78 1841.39,609.25 1838.82,627.76C1855.91,626.53 1869.97,618.76 1883.04,609.05C1884.48,611.28 1885.71,612.36 1885.88,613.58C1886.88,620.93 1875.44,621.7 1877.22,629.58C1862.53,632.92 1862.7,653.49 1846.88,655.46C1848.99,660.23 1853.18,656.98 1855.61,658.34C1863.61,655.64 1866.28,647.34 1874.49,644.34C1881.2,641.94 1885.71,633.42 1891.18,627.63C1897.88,634.15 1894.95,638.83 1889.86,643.34C1883.78,648.73 1883.67,654.27 1889.99,659.95C1882.89,670.18 1872.74,675.03 1862.54,676.49L1874.66,688.6L1868.54,695.33C1872.54,699.33 1876.73,698.15 1885.4,690.33C1884.4,689.33 1883.28,688.33 1882.4,687.2C1882.16,686.92 1882.4,686.2 1882.51,684.92L1897.01,684.92C1902.01,675.73 1913.63,675.68 1918.32,666.36C1921.92,671.36 1921.79,675.08 1919,680.02C1913,690.56 1914.63,704.7 1903.49,712.88C1903.24,724.16 1893.88,722.88 1886.86,724.88C1886.26,731.21 1893.37,725.45 1894.3,730.63L1894.3,735.28C1890.45,737.84 1890.37,732.28 1887.59,733.04C1879.93,746.12 1894.59,752.54 1895.77,762.79C1910.58,755.92 1927.77,757.38 1939.86,742.91C1945.97,755.91 1939.19,763.06 1933.22,770.12C1931.67,771.95 1926.45,771.97 1926.22,773.38C1924.22,784.97 1910.67,787.89 1907.59,799.13C1915.59,808.69 1922.46,795.22 1929.9,797.91C1939.6,788.99 1953.81,786.78 1962.4,776.17C1966.76,780.03 1971.79,783.58 1967.01,793.17L1943.48,815.24L1936.08,815.58C1930.34,820.05 1928.69,827.03 1925.3,832.85C1925.23,837.42 1930.17,838.05 1931.05,840.97L1965.48,823.79C1972.66,831.45 1972.66,831.45 1971.48,841.51L1966.83,837.29C1964.95,838.441 1964.11,840.764 1964.83,842.85C1965.52,844.73 1967.27,846.24 1968.54,847.85C1965.71,855.79 1957.54,854.4 1952.04,855.5C1950.91,860.32 1952.31,862.64 1955.04,864.5C1955.18,868.5 1947.52,871.9 1953.84,876.44C1971.47,870.74 1982.46,855.32 1997.76,841.83C2001.23,853.91 1992.39,860.12 1995.26,867.72C1993.18,869.72 1995.95,867.12 1993.85,869.14L1995.26,867.72C2002.43,867.72 1997.78,877.07 2003.63,878.19C1999.17,886.04 1988.22,885.24 1984.16,890.87C1980.1,896.5 1973.03,899.45 1971.51,906.87L1962.19,906.87C1959.94,911.97 1957.64,917.23 1954.64,924.03C1973.37,920.14 1984.64,908.15 1997.34,898.96C1999.44,910.55 1998.51,913.02 1986.01,927.29L1986.01,940.71C1978.74,943.88 1971.16,939.6 1965.2,943.45C1960.65,953.12 1975.1,947.86 1973.41,955.08C1968.5,959.35 1962.53,959.46 1956.54,959.5C1962.54,959.5 1968.54,959.35 1973.41,955.08C1983.11,954.79 1993.17,957.01 2003.1,948.08C1996.1,966.83 1987.79,973.9 1971.35,976.95C1969.35,977.32 1967.35,976.52 1965.35,978.31C1962.35,981.07 1960.53,985.73 1955.35,985.71C1951.2,985.71 1947.05,985.71 1942.9,987.1C1955.09,993.69 1969.75,984.94 1982.26,995.37C1987.62,983.75 2000.57,996.08 2007.5,986.02C2006.11,1003.58 1985.31,999.4 1980.76,1011.5C1975.87,1024.5 1958.99,1024.12 1954.36,1037.58L1931.53,1037.58C1930.25,1040.82 1928.53,1045.05 1927.42,1047.94C1913,1044.15 1905.11,1052.69 1895.16,1054.19L1903.73,1057.37C1899.38,1062.78 1890.32,1056.37 1887.88,1064.09C1885.6,1058.62 1878.16,1061.42 1874.88,1054.33C1873.41,1057.55 1872.26,1060.05 1869.88,1065.18C1870.1,1068.18 1876.82,1067.71 1881.1,1070.34C1879.56,1075.56 1875.24,1071.96 1872.1,1073.26C1865.67,1069.08 1860.25,1063.95 1858.17,1056.02C1853.89,1058.66 1850.23,1061.6 1850.39,1067.93L1832.55,1067.93C1829.4,1070.07 1829.38,1072.12 1829.12,1074.3C1826.66,1095.05 1836.43,1114.9 1833.61,1135.69C1833.15,1139.12 1833.55,1142.69 1833.55,1145.51C1829.26,1148.32 1825.72,1147.08 1820.85,1146.94C1819.09,1122.67 1823.66,1097.56 1813.99,1073.69C1798.99,1069.86 1784.37,1076.69 1769.25,1078.37L1761.89,1085.72C1753.19,1080.72 1740.89,1080.88 1737.81,1068.35C1739.82,1066.83 1742.05,1065.64 1744.43,1064.8C1741.99,1065.92 1739.43,1066.8 1737.81,1068.35C1730.38,1070.35 1726.35,1063.69 1719.34,1062.53L1737.34,1053.53L1737.34,1047.53L1668.4,1047.53C1669.73,1039.53 1674.93,1044.09 1678.4,1042.3C1678.4,1036.62 1687.1,1033.83 1684.79,1027.48C1682.55,1024.26 1680.27,1025.32 1678.22,1025.26C1674.51,1026.95 1678.09,1032.69 1671.9,1034.2C1664.06,1030.89 1659.44,1022.14 1651.76,1016.42C1647.42,1015.69 1642.27,1017.71 1635.57,1013.91L1645.73,1007.91L1636.41,988.91C1638.51,985.55 1641.82,984.91 1642.69,985.91C1650.61,995.46 1663.38,996.37 1673.03,1005.52L1682.55,992.03C1684.94,992.34 1684.42,991.53 1682.92,990.24C1678.19,986.16 1674.92,980.37 1666.92,981.04C1664.3,981.26 1661.34,977.23 1658.74,975.29L1658.74,961.54C1663.28,957.24 1672.35,962.32 1674.99,953.97L1659,935.85C1660.15,932.34 1663.6,933.85 1666.62,932.32C1666.62,927.27 1660.05,926.32 1658.95,921.05C1665.16,920.56 1670.78,918.59 1676.95,922.98C1689.59,931.98 1702.67,930.84 1715.26,922.58C1707.59,911.17 1689.95,913.4 1682.54,898.69L1673.66,898.11C1671.66,887.35 1663.72,884.17 1654.35,884.47L1654.35,878.61C1658.99,873.89 1661.93,877.49 1664.97,880.7C1667.97,877.43 1671.59,875.7 1676.48,877.04C1678.2,879.51 1680.89,881.61 1683.16,882.04C1681.21,881.22 1678,879.84 1676.52,877Z" style="fill:rgb(245,252,255);fill-rule:nonzero;"/>
                <path d="M1476.83,1231.39C1476.55,1226.09 1471.96,1224.39 1468.46,1219.63C1477.29,1216.8 1484.81,1212.4 1481.39,1201.89L1490.12,1198.81C1490,1196.34 1491.38,1194.05 1487.93,1192.06C1476.87,1189.69 1472.1,1203.06 1462.37,1205.26L1458.76,1199.96C1468.83,1191.84 1472.66,1177.82 1485.39,1171.5C1483.87,1168.84 1481.39,1170.03 1479.39,1169.74C1477.39,1168.39 1477.09,1166.39 1477.1,1164.15C1477.1,1162.08 1476.81,1160 1476.65,1158.04C1459.82,1154.49 1443.53,1149.69 1427.4,1152.93C1424,1149.39 1423.91,1146.93 1425.87,1144.5C1431.87,1140.37 1434.07,1149.65 1440.43,1147.5C1444.95,1141.81 1452.78,1137.5 1456.53,1128.03C1441.67,1121.96 1434.53,1133.95 1425.34,1139.32C1417.08,1138.77 1422.28,1129.42 1416.28,1127.88C1421.74,1122.73 1423.95,1128.99 1427.46,1129.88C1431.87,1125.88 1424.84,1117.42 1434.32,1115.75C1430.23,1112.75 1428.32,1109.9 1428.76,1104C1417.63,1107.67 1409.76,1097.55 1398.51,1100.13C1398.18,1089.5 1406.01,1087.13 1409.51,1082.65C1414.08,1081.73 1415.66,1084.46 1418.42,1087.05C1420.25,1076.81 1430.42,1072.37 1434.76,1064.52C1428.96,1057.63 1422.44,1062.52 1417.36,1059.82C1414.02,1055.32 1417.36,1050.05 1415.49,1045.67C1420.38,1040.52 1423.43,1043.78 1426.63,1047.28C1432.19,1043.28 1424.81,1034.38 1434.96,1032.21C1431.32,1030.9 1429.64,1029.67 1428.85,1030.1C1418.62,1035.62 1410.41,1044.31 1399.48,1048.88C1398.34,1049.36 1398.37,1052.62 1397.64,1055.39L1373.55,1055.39L1368.13,1049.74C1381.23,1043.06 1397.48,1042.15 1410.52,1028.95C1393.91,1021.51 1383.17,1031.11 1371.1,1034.87L1363.29,1027.99L1376.58,1014.69L1372.58,1010.69C1376.06,1006.07 1379.32,1001 1389.75,1006.2L1394.19,1012.38C1400.96,1012.19 1406,1013.77 1410.9,1011.17C1410.33,1010.17 1410.05,1008.59 1409.24,1008.24C1399.4,1003.9 1388.44,1001.62 1380.81,992.51C1389.08,988.27 1398.08,992.79 1404.67,990.28L1388.33,973.75C1383.48,975.52 1375.68,983.29 1368.9,971.75C1364.4,963.59 1370.53,956.28 1373.15,947.28L1348.06,955.82C1344.26,951.39 1346.29,948.82 1349.06,946.03C1358.41,936.62 1369.31,928.3 1372.67,914.03C1361.47,916.74 1361.47,916.74 1346.67,910.54C1349.96,903.32 1355.83,897.04 1354.74,888.23C1347.8,885.17 1341.65,881.16 1337.74,874.43L1340.98,871.18L1329.07,860.34C1326.28,867.56 1338.41,873.92 1330.92,881.24C1324.92,884.84 1323.42,873.92 1316.13,877.92C1318.78,883.46 1321.77,889.58 1319.41,895.45C1322.09,901.2 1329.83,902.76 1327.99,911.66C1318.04,911.44 1309.67,904.66 1299.99,903.3C1296.99,907.54 1295.76,911.22 1302.78,912C1306.95,912.46 1306.78,915.26 1306.6,918.3C1300.87,925.06 1295.8,918.94 1290.52,917.3C1288.39,918.96 1288.52,922.06 1289.52,923.05C1293.02,926.26 1298.7,926.37 1302.23,932.24L1302.23,944.7C1309.06,952.27 1310.96,940.78 1318.68,943.64L1322.38,950.87L1317.7,955.56C1306.7,954.56 1297.32,945.07 1284.7,947.49C1291.93,962.1 1311.87,963.57 1314.43,982.08C1297.34,980.85 1283.28,973.08 1270.21,963.36C1268.77,965.59 1267.54,966.67 1267.38,967.89C1266.38,975.24 1277.81,976.02 1276.03,983.89C1290.72,987.22 1290.55,1007.79 1306.37,1009.76C1304.26,1014.54 1300.07,1011.29 1297.64,1012.65C1289.64,1009.95 1286.98,1001.65 1278.76,998.65C1272.06,996.26 1267.54,987.74 1262.07,981.94C1255.37,988.47 1258.3,993.14 1263.39,997.65C1269.47,1003.05 1269.58,1008.59 1263.27,1014.27C1270.36,1024.5 1280.51,1029.35 1290.71,1030.8L1278.72,1043L1284.84,1049.74C1280.84,1053.74 1276.66,1052.56 1267.98,1044.74C1268.98,1043.74 1270.1,1042.74 1270.98,1041.62C1271.22,1041.33 1270.98,1040.62 1270.87,1039.34L1256.37,1039.34C1251.37,1030.15 1239.75,1030.1 1235.06,1020.78C1231.46,1025.78 1231.59,1029.5 1234.38,1034.44C1240.38,1044.98 1238.75,1059.12 1249.89,1067.3C1250.14,1078.57 1259.5,1077.3 1266.52,1079.3C1267.12,1085.63 1260.02,1079.88 1259.09,1085.05L1259.09,1089.71C1262.93,1092.27 1263.02,1086.65 1265.79,1087.47C1273.45,1100.54 1258.79,1106.96 1257.62,1117.21C1242.8,1110.35 1225.62,1111.8 1213.52,1097.33C1207.41,1110.33 1214.19,1117.49 1220.17,1124.55C1221.71,1126.37 1226.93,1126.39 1227.17,1127.81C1229.17,1139.4 1242.73,1142.31 1245.8,1153.56C1237.85,1163.12 1230.93,1149.64 1223.5,1152.34C1213.79,1143.41 1199.58,1141.2 1190.99,1130.6C1186.63,1134.45 1181.6,1138 1186.38,1147.6L1209.91,1169.66L1217.31,1170C1223.05,1174.47 1224.71,1181.45 1228.09,1187.28C1228.16,1191.84 1223.22,1192.47 1222.34,1195.39L1188,1178.17C1180.81,1185.83 1180.81,1185.83 1182,1195.88L1186.65,1191.66C1188.53,1192.81 1189.37,1195.13 1188.65,1197.22C1187.96,1199.11 1186.21,1200.61 1184.94,1202.22C1187.77,1210.16 1195.94,1208.77 1201.44,1209.86C1202.57,1214.68 1201.17,1217.01 1198.44,1218.86C1198.3,1222.86 1205.96,1226.27 1199.64,1230.86C1182.01,1225.15 1171.02,1209.73 1155.73,1196.24C1152.25,1208.33 1161.09,1214.54 1158.23,1222.14C1160.3,1224.14 1157.54,1221.53 1159.63,1223.56L1158.23,1222.14C1151.05,1222.14 1155.7,1231.49 1149.86,1232.61C1154.31,1240.46 1165.27,1239.61 1169.32,1245.29C1173.37,1250.97 1180.45,1253.87 1181.97,1261.29L1191.3,1261.29L1198.84,1278.46C1180.11,1274.56 1168.84,1262.57 1156.14,1253.38C1154.04,1264.97 1154.97,1267.45 1167.47,1281.72L1167.47,1295.14C1174.74,1298.3 1182.32,1294.03 1188.28,1297.88C1192.83,1307.55 1178.38,1302.29 1180.08,1309.5C1184.98,1313.77 1190.95,1313.88 1196.94,1313.93C1190.94,1313.93 1184.94,1313.77 1180.08,1309.5C1170.38,1309.22 1160.31,1311.43 1150.38,1302.5C1157.38,1321.25 1165.69,1328.32 1182.14,1331.37C1184.14,1331.74 1186.14,1330.93 1188.14,1332.73C1191.19,1335.48 1192.96,1340.15 1198.14,1340.12C1202.29,1340.12 1206.44,1340.12 1210.59,1341.51C1198.4,1348.1 1183.74,1339.35 1171.23,1349.78C1165.87,1338.16 1152.92,1350.49 1145.99,1340.43C1147.38,1358 1168.18,1353.81 1172.73,1365.92C1177.62,1378.92 1194.5,1378.53 1199.13,1392L1221.96,1392C1223.25,1395.23 1224.96,1399.47 1226.08,1402.36C1240.49,1398.56 1248.38,1407.1 1258.33,1408.61L1249.77,1411.79C1254.12,1417.2 1263.17,1410.79 1265.62,1418.51C1267.89,1413.03 1275.34,1415.83 1278.62,1408.75C1280.09,1411.96 1281.24,1414.47 1283.62,1419.6C1283.4,1422.6 1276.68,1422.12 1272.41,1424.75C1273.94,1429.98 1278.26,1426.37 1281.41,1427.68C1287.85,1423.5 1293.27,1418.37 1295.34,1410.43C1299.62,1413.08 1303.28,1416.02 1303.12,1422.35L1320.96,1422.35C1324.12,1424.49 1324.14,1426.54 1324.39,1428.71C1326.85,1449.47 1317.08,1469.31 1319.9,1490.1C1320.36,1493.53 1319.96,1497.1 1319.96,1499.92C1324.25,1502.74 1327.79,1501.49 1332.66,1501.35C1334.42,1477.08 1329.85,1451.97 1339.52,1428.11C1354.52,1424.28 1369.14,1431.11 1384.26,1432.78L1391.62,1440.14C1400.33,1435.14 1412.62,1435.3 1415.7,1422.77C1413.69,1421.25 1411.45,1420.05 1409.08,1419.21C1411.52,1420.33 1414.08,1421.21 1415.7,1422.77C1423.13,1424.77 1427.17,1418.1 1434.17,1416.95L1416.17,1407.95L1416.17,1401.89L1485,1401.89C1483.67,1393.89 1478.48,1398.45 1475,1396.67C1475,1390.98 1466.3,1388.2 1468.61,1381.85C1470.85,1378.63 1473.13,1379.68 1475.18,1379.62C1478.89,1381.31 1475.31,1387.06 1481.51,1388.62C1489.34,1385.31 1493.97,1376.56 1501.64,1370.83C1505.98,1370.11 1511.13,1372.12 1517.83,1368.33L1507.67,1362.33L1516.99,1343.33C1514.89,1339.97 1511.58,1339.33 1510.71,1340.33C1502.8,1349.88 1490.03,1350.79 1480.37,1359.94C1476.66,1354.68 1473.76,1350.56 1470.85,1346.45C1468.46,1346.75 1468.99,1345.95 1470.48,1344.66C1475.21,1340.58 1478.48,1334.78 1486.48,1335.46C1489.09,1335.68 1492.06,1331.64 1494.65,1329.71L1494.65,1315.97C1490.11,1311.68 1481.04,1316.76 1478.4,1308.41L1494.33,1290.29C1493.18,1286.78 1489.73,1288.29 1486.71,1286.76C1486.71,1281.76 1493.28,1280.76 1494.38,1275.48C1488.17,1275 1482.55,1273.02 1476.38,1277.42C1463.74,1286.42 1450.66,1285.28 1438.06,1277.02C1445.73,1265.61 1463.37,1267.83 1470.78,1253.13L1479.66,1252.55C1481.66,1241.78 1489.6,1238.61 1498.97,1238.91L1498.97,1233C1494.33,1228.28 1491.39,1231.89 1488.35,1235.1C1485.35,1231.83 1481.73,1230.1 1476.84,1231.43C1475.12,1233.9 1472.43,1236 1470.16,1236.43C1472.14,1235.58 1475.36,1234.2 1476.83,1231.39Z" style="fill:rgb(245,252,255);fill-rule:nonzero;"/>
                <path d="M1534.69,1349.45L1534.69,1332.35C1529.58,1323.85 1526.97,1314.35 1518.55,1309.35C1519.2,1307.05 1522.21,1306.56 1521.68,1304C1521.68,1300.7 1518.44,1299.9 1517.07,1297.7C1514.74,1298.45 1513.83,1302.37 1507.59,1298.48C1506.43,1297.56 1513.09,1297.11 1511.02,1293.01C1495.77,1285.01 1500.86,1267.15 1496.8,1252.28C1499.13,1250.28 1504.4,1253.74 1507.33,1248.66C1509.33,1245.28 1507.46,1242.66 1510.46,1237.77C1504.34,1241.19 1500.9,1243.36 1495.79,1241.22C1499.22,1238.22 1497.98,1233.22 1502.2,1230.8C1498.03,1226.4 1496.29,1230.6 1493.92,1232.26L1489.71,1228.05C1486.65,1222.41 1492.78,1219.19 1492.51,1214.55L1485.89,1208.06C1488.7,1204.44 1493.64,1202.06 1493.05,1196.24C1496.98,1198.02 1494.05,1202.54 1497.95,1203.02C1503.81,1199.1 1503.81,1199.1 1505.39,1193.02C1503.81,1187.13 1495.22,1185.4 1495.57,1177.8C1501.57,1178.39 1505.13,1183.96 1511.28,1183.37C1511.04,1178.78 1506.15,1178.06 1505.54,1175.29C1504.93,1172.04 1506.66,1170.69 1508.28,1169.36C1507.59,1167.19 1509.76,1169.15 1507.92,1168.05C1505.31,1166.5 1501.09,1168.15 1500.92,1164.31C1496.07,1162.86 1494.39,1169.64 1489.92,1166.44C1488.63,1163.91 1492.39,1163.77 1492.4,1161.83L1492.4,1152.16L1486.87,1149.74C1485.59,1142.74 1485.03,1139.04 1489,1136.5C1485.62,1131.86 1479.56,1137.36 1476.14,1133.1C1478.43,1129.26 1483.72,1133.75 1486.54,1128.32C1480.68,1125.32 1477.28,1118.79 1469.97,1117.65C1470.43,1113.41 1475.06,1116.82 1475.73,1113.4C1474.37,1110.49 1469.92,1109.34 1469.49,1104.56C1473.66,1100.21 1479.49,1099.07 1485.74,1097.96C1480.65,1093.96 1483.87,1088.11 1481.74,1082.96L1474.26,1082.35C1470.51,1078.7 1474.05,1076.77 1476.09,1074.53C1474.94,1072.18 1472.28,1073.4 1469.73,1071.53C1471.44,1066.67 1466.46,1062.88 1466.1,1056.77C1468.1,1052.92 1470.46,1048.48 1472.9,1043.86C1471.9,1040.18 1467.08,1036.65 1469.9,1032.6C1472.21,1029.26 1473.48,1026.29 1472.9,1022.42C1474.97,1018.83 1481.01,1022.7 1481.04,1017.51C1487.14,1017.27 1487.77,1023.88 1493.34,1024.01C1499.84,1023.19 1491.11,1013.48 1498.93,1013.61C1497.85,1010.22 1495.28,1011.39 1493.37,1010.41C1491.43,1007.7 1495.62,1007.7 1495.59,1005.95C1496.59,1002.65 1493.81,1001.22 1492.27,999.17C1494.27,994.43 1495.18,989.29 1498.54,986.77C1499.85,982.33 1495.6,981.59 1495.64,978.44C1495.24,976.09 1497.64,975.22 1499.12,973.27C1493.12,970.12 1486.43,973.27 1478.92,970.81C1482.78,966.93 1486.24,963.48 1489.03,960.68C1489.7,955.37 1486.66,955.68 1483.36,955.38L1483.36,934.26L1495.6,928.12C1496.22,924.46 1494.8,922.52 1491.33,923.26C1488.64,923.84 1487.23,929.11 1483.19,925.33L1489.25,913.63C1488.96,909.42 1484.49,908.25 1482.06,903.96C1488.46,900.8 1482.45,887.54 1498.58,887.64L1488.13,894.69C1490.05,896.02 1491.3,897.25 1491.61,897.04C1497.84,892.97 1503.97,892.11 1510.41,899.04C1510.11,892.57 1517.18,890.59 1514.83,885.24C1514.14,884.82 1513.53,884.3 1513.41,884.4C1512.57,885.08 1511.84,885.88 1510.67,887.05C1504.3,883.26 1501.46,876.94 1498.51,869.3L1504.35,864.74L1506.49,870.74L1517.22,870.74C1515.73,872.22 1519.82,871 1518.53,869.44C1516.53,866.99 1510.22,868.83 1511.78,862.82C1511.85,862.56 1511.08,862.07 1510.69,861.69L1502.85,860.81C1502.6,857.08 1505.33,858.51 1507.07,857.97C1509.98,856.32 1508.27,853.32 1508.9,849.97L1519.38,841.3L1511.38,832.83C1514.23,826.97 1520.2,822.83 1521.79,816.17C1521.79,811.74 1516.79,810.97 1515.6,807.28C1516.44,805.95 1518.09,806.28 1519.66,806.01C1524.76,805.25 1528.48,813.01 1535.43,807.28L1527.43,804.16C1530.2,797.63 1536.83,796.06 1533.99,789.47L1529.99,792.86C1526.99,791.15 1528.81,788.18 1528.28,785.86C1531.58,779.4 1538.2,776.91 1544.28,773.4C1543.12,769.2 1539.21,766.06 1543.79,759.18C1544,758.92 1547.91,761.87 1550.44,760.01C1550.36,753.51 1542.7,755.71 1541.05,750.82C1543.05,745.82 1548.19,743.29 1551.23,738.82L1551.23,729.42C1553.55,726.71 1556.48,728.6 1559.32,727.88L1562.32,721.51L1566.93,721.51C1566.83,729.65 1569.59,737.87 1564.57,746.11C1567.77,749.75 1573.44,745.57 1577.71,749.18C1570.35,750.32 1567.94,758.06 1561.25,759.98L1578.18,759.98C1582.27,763.85 1579.86,766.13 1577.18,768.61C1580.34,772.33 1587.4,767.81 1588.98,773.96L1590.07,775.28C1583.37,779.01 1590.67,788.53 1583.99,791.55C1579.47,794.3 1574.92,792.31 1570.68,793.38C1572.83,797.58 1574.93,800.26 1579.33,799.6C1583.33,799.01 1586.77,799.8 1589.24,803.68C1586.12,807.8 1588.13,813.9 1584.05,817.87C1585.81,820.14 1588.17,818.68 1590.18,819.11C1592.33,822.11 1589.57,823.96 1588.4,826.16C1589.57,823.96 1592.33,822.16 1590.18,819.11C1590.02,815.79 1593.48,815.11 1595.72,810.92C1596.2,817.51 1597.62,822.13 1599.96,825.5C1599.83,830.82 1594.96,827.32 1593.61,830.66C1593.67,831.58 1593.76,833.05 1593.83,834.18C1597.75,837.76 1599.4,833.18 1602.34,832.48C1605.99,839.95 1596.63,846.09 1601.01,854.21C1604.42,857.15 1608.31,853.77 1614.22,851.61C1608.96,861.49 1607.35,870.3 1613.43,878.25C1610.58,882.4 1607.64,885.13 1603.2,886.25L1609.14,888.32C1610.41,893.45 1609.66,897.98 1606.62,902.86C1601.85,910.53 1601.33,919.99 1597.13,928.17C1595.21,931.91 1596.8,937.46 1597.68,942.61C1600.8,934.23 1603.07,925.44 1614.52,926.49C1621.52,934.06 1610.08,940.98 1613.52,948.34C1616.13,949.88 1616.23,945.81 1618.59,946.66C1621.67,952.13 1615.74,953.51 1613.67,956.66C1617.08,961.48 1617.07,966.32 1613.67,971.16C1617.22,974.3 1618.89,969.79 1621.56,969.23L1627,975C1617.36,972.82 1613.81,981.58 1604.26,983C1612.26,986.38 1618.62,984.09 1624.49,985.28C1627.15,987.43 1625.04,990.41 1625.97,992.43C1624.84,996.13 1620.65,993.59 1619.38,996.43C1619.88,998.95 1618.26,1001.78 1620.54,1004.18C1626.16,1006.18 1627.21,1000.18 1630.64,998.27C1633.01,999.47 1632.92,1002 1632.25,1003.66C1629.66,1010.01 1627.65,1016.3 1629.81,1023.18L1635.57,1025.25C1629,1032.25 1626.14,1041.45 1618.21,1045.93C1622.59,1053.57 1625.09,1048.28 1627.84,1047.29C1629.32,1048.15 1629.84,1050.07 1628.99,1051.55C1624.39,1056.72 1623.15,1063.24 1621.49,1069.55L1614.9,1069.55C1611.68,1071.38 1612.99,1074.33 1612.9,1076.8C1612.79,1079.53 1613.13,1082.29 1609.82,1083.56C1613.82,1091.2 1619.82,1089.17 1626.65,1088.66L1622.65,1084.23L1627.25,1079.63C1631.25,1081.51 1627.41,1085.57 1629.53,1087.97L1635.28,1093.72C1630.67,1098.32 1633.84,1105.82 1625.02,1111.42C1618.16,1112.74 1616.35,1122.03 1613.62,1130.64L1616.02,1133.04C1608.44,1141.87 1596.61,1145.91 1590.37,1156.28C1593.17,1159.52 1597.37,1155.95 1600.37,1157.98L1608.5,1150.98C1613.35,1151.1 1613.65,1155.21 1618.21,1156.42L1606.28,1169.13C1605.72,1173.85 1610.11,1175.21 1612.2,1178.13C1609.62,1182.97 1608.13,1188.57 1602.85,1191.53C1606.54,1195.53 1611.85,1198.45 1608.85,1205.47L1603.51,1207.47C1606.54,1211.53 1607.33,1216.85 1605.62,1221.61C1604.2,1223.77 1601.04,1221.35 1600.14,1224.31C1603.99,1231.19 1609.44,1229.99 1615.14,1226.59C1616.55,1228.78 1616.45,1231.94 1614.5,1232.04C1608.6,1232.35 1607.09,1237.79 1603.19,1240.29L1606.29,1244.19C1607.29,1245.66 1601.95,1245.98 1602.82,1248.94C1603.34,1250.7 1603.88,1253.25 1601.7,1254.86L1597.31,1255.86C1595.4,1259.47 1598.17,1264.44 1593.44,1266.86C1595.31,1268.52 1596.98,1269.92 1596.44,1272.45C1587.9,1276.45 1586.56,1285.25 1583.54,1292.78C1581.29,1298.41 1580.48,1304.78 1573.69,1307.24C1569.69,1307.94 1568.47,1310.06 1570.44,1313.75C1571.37,1320.88 1562.68,1325.37 1564.32,1331.67C1565.87,1337.67 1567.42,1343.38 1567.18,1349.55L1534.69,1349.45Z" style="fill:rgb(245,252,255);fill-rule:nonzero;"/>
                <path d="M720.88,1495L720.88,1477.91C725.98,1469.41 728.6,1459.91 737.02,1454.91C736.36,1452.62 733.35,1452.13 733.89,1449.57C733.89,1446.27 737.12,1445.46 738.49,1443.26C740.82,1444.01 741.73,1447.93 747.97,1444.05C749.14,1443.13 742.47,1442.68 744.55,1438.58C759.79,1430.58 754.71,1412.71 758.76,1397.85C756.44,1395.79 751.16,1399.3 748.23,1394.23C746.23,1390.84 748.11,1388.23 745.1,1383.33C751.22,1386.76 754.66,1388.93 759.77,1386.78C756.35,1383.78 757.59,1378.78 753.36,1376.36C757.53,1371.97 759.28,1376.17 761.65,1377.82L765.86,1373.61C768.92,1367.98 762.79,1364.76 763.05,1360.12L769.67,1353.62C766.86,1350 761.92,1347.62 762.52,1341.81C758.58,1343.58 761.57,1348.11 757.62,1348.59C751.75,1344.66 751.75,1344.66 750.17,1338.59C751.75,1332.69 760.35,1330.97 760,1323.37C754,1323.96 750.43,1329.53 744.29,1328.94C744.52,1324.35 749.41,1323.63 750.02,1320.85C750.63,1317.61 748.9,1316.26 747.28,1314.92C747.98,1312.76 745.81,1314.72 747.65,1313.62C750.25,1312.06 754.47,1313.71 754.65,1309.87C759.5,1308.43 761.18,1315.21 765.65,1312C766.95,1309.48 763.18,1309.33 763.17,1307.39L763.17,1297.72L768.69,1295.31C769.98,1288.31 770.54,1284.61 766.57,1282.07C769.95,1277.43 776,1282.92 779.43,1278.66C777.14,1274.83 771.85,1279.32 769.02,1273.89C774.88,1270.89 778.28,1264.36 785.6,1263.21C785.14,1258.98 780.51,1262.39 779.84,1258.97C781.19,1256.05 785.64,1254.91 786.07,1250.13C781.91,1245.77 776.07,1244.64 769.83,1243.52C774.92,1239.52 771.69,1233.68 773.83,1228.52L781.32,1227.91C785.07,1224.26 781.53,1222.33 779.48,1220.09C780.64,1217.74 783.3,1218.95 785.85,1217.09C784.14,1212.24 789.12,1208.45 789.48,1202.33L782.67,1189.43C783.67,1185.75 788.49,1182.22 785.67,1178.17C783.37,1174.82 782.1,1171.86 782.67,1167.98C780.59,1164.4 774.56,1168.27 774.52,1163.08C768.42,1162.84 767.79,1169.45 762.22,1169.58C755.72,1168.76 764.46,1159.04 756.63,1159.17C757.71,1155.79 760.28,1156.96 762.19,1155.97C764.19,1153.27 759.94,1153.27 759.97,1151.51C758.97,1148.22 761.75,1146.79 763.29,1144.74C761.29,1140 760.39,1134.86 757.02,1132.34C755.72,1127.9 759.96,1127.15 759.93,1124.01C760.32,1121.66 757.93,1120.79 756.45,1118.83C762.45,1115.69 769.13,1118.83 776.65,1116.37L766.54,1106.25C765.86,1100.94 768.91,1101.25 772.2,1100.95L772.2,1079.76L760,1073.71C759.39,1070.04 760.8,1068.11 764.28,1068.85C766.96,1069.42 768.37,1074.7 772.41,1070.92L766.36,1059.21C766.64,1055.01 771.11,1053.83 773.55,1049.55C767.14,1046.39 773.15,1033.12 757.02,1033.23L767.48,1040.23C765.55,1041.56 764.31,1042.78 764,1042.58C757.76,1038.5 751.64,1037.64 745.2,1044.58C745.5,1038.12 738.42,1036.13 740.77,1030.79C741.47,1030.37 742.08,1029.85 742.19,1029.94C743.03,1030.62 743.76,1031.43 744.93,1032.6C751.3,1028.81 754.14,1022.49 757.1,1014.85L751.26,1010.29C750.59,1012.17 749.92,1014.05 749.11,1016.29L738.42,1016.29C739.9,1017.78 735.81,1016.56 737.11,1015C739.11,1012.55 745.41,1014.39 743.85,1008.38C743.78,1008.12 744.56,1007.63 744.94,1007.25L752.78,1006.37C753.03,1002.64 750.31,1004.07 748.56,1003.52C745.66,1001.88 747.37,998.87 746.73,995.52L736.26,986.86C739.41,983.53 741.6,981.23 744.26,978.38C741.4,972.52 735.44,968.38 733.85,961.73C733.85,957.29 738.85,956.52 740.04,952.83C739.19,951.51 737.54,951.83 735.97,951.57C730.87,950.81 727.15,958.57 720.21,952.83L728.21,949.72C725.45,943.19 718.81,941.61 721.66,935.02L725.66,938.41C728.66,936.71 726.84,933.73 727.36,931.41C724.07,924.94 717.44,922.46 711.36,918.95C712.52,914.74 716.42,911.61 711.85,904.73C711.63,904.47 707.73,907.42 705.2,905.56C705.27,899.05 712.93,901.25 714.59,896.36C712.59,891.36 707.44,888.84 704.41,884.36L704.41,875C702.08,872.29 699.16,874.18 696.32,873.45L693.32,867.08L688.71,867.08C688.81,875.22 686.05,883.44 691.07,891.69C687.87,895.33 682.2,891.15 677.93,894.75C685.29,895.89 687.69,903.63 694.38,905.55L677.49,905.55C673.4,909.42 675.8,911.7 678.49,914.19C675.33,917.9 668.28,913.38 666.69,919.53C666.23,920.09 665.92,920.48 665.6,920.86C672.3,924.59 665,934.11 671.68,937.13C676.21,939.88 680.75,937.88 684.99,938.95C682.84,943.16 680.74,945.83 676.35,945.18C672.4,944.59 668.91,945.38 666.43,949.26C669.55,953.38 667.55,959.48 671.62,963.45C669.86,965.72 667.5,964.26 665.49,964.69C663.35,967.69 666.1,969.53 667.27,971.74C666.1,969.53 663.35,967.74 665.49,964.69C665.65,961.37 662.2,960.69 659.95,956.49C659.48,963.09 658.05,967.71 655.72,971.08C655.85,976.4 660.72,972.89 662.07,976.23C662.01,977.16 661.92,978.62 661.84,979.76C657.93,983.33 656.28,978.76 653.33,978.06C649.68,985.53 659.04,991.67 654.67,999.79C651.25,1002.73 647.37,999.35 641.45,997.18C646.71,1007.07 648.33,1015.87 642.25,1023.83C645.1,1027.98 648.03,1030.71 652.48,1031.83L646.53,1033.9C645.26,1039.04 646.01,1043.56 649.05,1048.45C653.82,1056.12 654.35,1065.58 658.54,1073.75C660.47,1077.5 658.87,1083.05 657.99,1088.2C654.88,1079.82 652.6,1071.03 641.16,1072.08C634.16,1079.64 645.59,1086.57 642.16,1093.93C639.55,1095.47 639.45,1091.39 637.09,1092.25C634.01,1097.72 639.94,1099.1 642,1102.25C638.6,1107.06 638.61,1111.91 642,1116.75C638.45,1119.88 636.78,1115.38 634.11,1114.82L628.6,1120.59C638.23,1118.41 641.79,1127.17 651.34,1128.59C643.29,1131.97 636.97,1129.68 631.11,1130.86C628.45,1133.01 630.55,1135.99 629.62,1138.01C630.75,1141.72 634.94,1139.18 636.22,1142.01C635.72,1144.54 637.34,1147.37 635.06,1149.77C629.43,1151.77 628.38,1145.77 624.96,1143.86C622.58,1145.05 622.67,1147.59 623.35,1149.25C625.93,1155.59 627.95,1161.88 625.79,1168.77L620.03,1170.84C626.59,1177.84 629.45,1187.03 637.39,1191.51C633.01,1199.16 630.51,1193.86 627.75,1192.87C626.279,1193.73 625.764,1195.64 626.6,1197.13C631.21,1202.3 632.44,1208.82 634.1,1215.13L640.7,1215.13C643.91,1216.96 642.6,1219.92 642.7,1222.39C642.82,1225.12 642.48,1227.88 645.78,1229.15C641.78,1236.79 635.78,1234.76 628.96,1234.24L632.96,1229.81L628.36,1225.22C624.31,1227.1 628.2,1231.16 626.07,1233.56L620.33,1239.3C624.93,1243.9 621.76,1251.41 630.59,1257.01C637.45,1258.32 639.26,1267.62 641.99,1276.22L639.58,1278.63C647.17,1287.46 659,1291.5 665.24,1301.87C662.44,1305.11 658.24,1301.54 655.24,1303.56L647.1,1296.56C642.26,1296.67 641.96,1300.78 637.39,1301.99L649.32,1314.71C649.89,1319.43 645.49,1320.79 643.4,1323.71C645.99,1328.55 647.47,1334.14 652.75,1337.1C649.06,1341.1 643.75,1344.03 646.75,1351.04L652.08,1353.04C649.055,1357.1 648.265,1362.42 649.98,1367.19C651.39,1369.34 654.56,1366.93 655.46,1369.89C651.61,1376.76 646.16,1375.57 640.46,1372.17C639.05,1374.36 639.14,1377.51 641.1,1377.62C646.99,1377.92 648.51,1383.36 652.4,1385.87L649.31,1389.77C648.31,1391.24 653.64,1391.56 652.77,1394.52C652.25,1396.28 651.71,1398.83 653.9,1400.44L658.29,1401.44C660.19,1405.04 657.42,1410.01 662.15,1412.44C660.29,1414.1 658.61,1415.49 659.15,1418.03C667.69,1422.03 669.03,1430.82 672.04,1438.36C674.29,1443.99 675.11,1450.36 681.89,1452.82C685.89,1453.52 687.11,1455.64 685.15,1459.33C684.22,1466.46 692.9,1470.95 691.27,1477.25C689.72,1483.25 688.16,1488.95 688.41,1495.12L720.88,1495Z" style="fill:rgb(245,252,255);fill-rule:nonzero;"/>
            </g>
        </g>
    </g>
</svg>
