<svg xmlns="http://www.w3.org/2000/svg" xmlns:xlink="http://www.w3.org/1999/xlink" viewBox="0 0 1920 1080"><defs><style>.cls-1{fill:none;}.cls-2{clip-path:url(#clip-path);}.cls-3{fill:#033f63;}</style><clipPath id="clip-path"><rect class="cls-1" width="1920" height="1080"/></clipPath></defs><g id="BG_1" data-name="BG 1"><g class="cls-2"><path class="cls-3" d="M0,943l35,9,28,13,28,24,24.82,12.87a14.29,14.29,0,0,0,8.81,1.37L153,1004l24-6,25-12,37.06-1.52a14.33,14.33,0,0,1,5.83.25L289,983l28.61,20.14a14.18,14.18,0,0,0,6.79.06L359,990l47-4,72-25,42-1,22.45-7.93a14.28,14.28,0,0,1,8.85.75L600,969l26,23,32.35,6.68L704,1018c19,7,18.43,7.09,19.3,7.28L767,1032l36,16,34,2.12a14.38,14.38,0,0,0,7.93-.53L876,1042l16-8h31l33-14,33-24,16-10,10,2,8.58,14.53a14.34,14.34,0,0,0,13.09,7l25.27-1.33a14.34,14.34,0,0,0,7.4-2.52L1083,994l9-4,22,6,17,9,21,1.94,31,9.06a339.17,339.17,0,0,0,34,8,94.28,94.28,0,0,0,21,1l47-9h17l16-8,41-13,28,11,20-5h15l25.67-9.47a14.39,14.39,0,0,1,6.55.48l23.78,9,28,15,31,3,9,6,61.26,15.14a14.35,14.35,0,0,0,5.6.6c31.58-5.62,66.06-10.44,103.14-13.74,35.07-3.13,68.07-4.5,98.64-4.69a14.34,14.34,0,0,0,6.23-2.08c33.77-12.14,50.3-23.55,59.13-32.23a154.83,154.83,0,0,1,40-29v121H0Z"/><path class="cls-3" d="M139.39,569.35H150c1,2.61-1.79,2.66-2.21,4.26-4,2.49-8.81-.75-13.09,2l2.22,2.77c-1,3.89-5.5,3.27-7.73,5.6l3.13,3.49c-7.46,2-12-8.24-20.33-3.16l9.77,7.16c-3.07,2.9-5.25,2.42-6.46.22-2.14-3.87-7.15-2.78-9-6.13-5.07,2.11-3.6,7-5,10.21-5.41,2-5.86-5.1-10-5-2.31-.4-2.75,2.07-5.11,2.93l-10.31-5.17L73,591.39c-.14.31-.49.81-.39.93,10.9,12.78,25.89,15.82,41.54,17.92,2.55-4.93,7.52-5.77,11.33-8.3,2.83,1.7,3.3,4.92,4.76,7.47,4.79,1.46,5.36-4,9.63-5.07,4.71,4.36,11.59,1.95,18.58,2.88-.08,3-2.63,5.15-4.36,4.93-6.7-.86-7.88,4.11-9.88,8.12-5.32,1.73-8-2.18-10.93-5.24-3.56,3.41-.23,4.91,1.21,6.8-.88,1-2,1.89-2.54,3s.32,2.73-1.79,3.63h-4.7c-3.89,2.38,1.21,9-5,10.51h-9.35l-4.59-4.59c-2.45,1.49-5,2.84-8.92,2.14-1.21-1.55-2.87-3.65-4.45-5.65-3.37,2.27-.83,5.54-2.51,7.75-4.58-2.53-11.27-.84-13.56-7.09l-7.64,3.63c8.16,8.7,18.75,12.17,29.34,16,11.57,4.2,22.22,1.1,32.84-3.5.88,5.4-3.6,6.54-5.69,10.64,5.12,0,9.66.72,13.85-.21,4-.87,7.54-3.45,11.13-5.2,2.83.15,2.59,2.06,2.57,3.84,1.8,3.49,6.21-.23,8.13,2.93s6.34-.6,8.36,3.42c-1.46,7.22-11.82,6.32-13.39,12.74s-9.48,8.11-9.48,16.38c-4.58-4.12-9.2-4.67-14.16-4-2.18,1,.11,4.61-3.19,5.28-3.76-.32-5.82-4.59-10-4.6-2.21-.09-1.07,2.08-1.9,4H100.26l-5-4.74A2.84,2.84,0,0,0,94,691.82c2.49,5.52,6.17,10.22,12,12.24,2.14.74,4.09,1.23,5.45,3H135.9c1.93-3.3,6.35-2.61,8.84-5.73l8.77,4.36-5.1,5.1c3.61,3.42,6.14.82,9.55-.73,3-1.35,7-.28,10.44-.28,4.07,4.63,10.19,4.21,15.33,7-3.27,10.39-18.23,8.56-20.44,20.06-3,0-6.18-.34-9.23.09s-5.34-1.6-8.08-2.3c-.84,2.42-1.42,4.32,2,5s5.58,2.51,5.54,6.27c-12.44,4.47-12.44,4.47-25.23,1.78-3,1.42-2,5.26-3.57,6.54,6.42,8.82,16.78,2.08,25.36,6.53,8.14,4.23,17.59-4,26.61-2.08,2.13,2.05-.62,2.13-.7,2.94-1.43,2.27,2,2.33,1.4,4.2-3,1.94-6.78.11-10.12,1.06,1,4,5.94,4.86,5.17,9.18-2.84,3.38-3.37-3.27-6.39-1.46-2,1.16-5.19-.71-7.19,1.36.13,1.36-.12,2.52.35,3,2.09,2.34,4.38,4.49,5.87,6,14.11,3.19,26.06-4.38,41-5.38l-6.44,7.66c-1,3,2.4,3.7,2.65,6.33.16,2.87-3.1,3.72-4.46,5.89-1.76,2.81-4.52,2.27-7.16,2.36-3.45.12-.43,5.54-4.29,5.39-2.72-.11-5.41-.18-7,2.49L169.65,804c-2.08-.87-2.82,3.71-5.89,3.27-2.49-.36-5.11.17-7.34.28-.65,3.67.85,4,3.12,5.27,8,4.33,16.83,5.23,25.24,7.69,5.91,1.74,12-.45,17.78-3.12l7.63,6.85c4.86-6.9,13.06-.59,19.54-7.14-1.54,10.7-11.25,11.08-15,16.93l-9.19.47c-.41,4.32,3.9.92,4.39,3.36-1.12,6.05-7.18,3.26-10.61,5.82l5.71,2.66c-5.08,4.61-8.79-2.48-13.37-1.28s-8.95,2.34-13.55,3.55c-.71,4.55,1.92,6.62,5.64,7.2,8.6,1.34,17.05,4,25.94,2.81a35.44,35.44,0,0,1,5,0c.76,2,1.34,3.6,2.08,5.57h30.76c-3.12,2.63-5.7,5.67-11.72,5.52,5.83,2.84,3.3,7.09,5,9.92l5.71,2c-12,3.77-23.34,6.76-33.94,12.27l-3.94-2.43c-1.94,1.88-.5,4.28-1,6.37-5.2,2.33-10.15,7.59-15.47,1.5-2.87-.48-3.46,1.75-4.87,2.54a4,4,0,0,1-4.6-1.93c-7,3.13-13.93,2.46-21.09.71-8.65-2.12-17.14-6-26.32-3.62-2.39,4.34,1.32,6.48,3.53,7.43a255.22,255.22,0,0,0,40.27,13.94c5.52,1.34,11.67,4.48,16.25,1.93,5-2.75,9.31-1.44,13.82-2.16,2.1,2.59-1.28,2.68-1.46,5.06h31.73c.5,4.62-3.48,1.86-4.12,3.82,3.88,5.27,10,4.53,15.6,5.7-8.64,2.72-17.41.88-26,2,3,6.26,12,3.19,16.05,11.23-14.83-5-27.69-1.27-40.13,2.09-2.82,2.38.31,5.8-2.17,7.61-2.85,1.38-4.23-.56-6.16-2.61-4.18,1.19-8.16,5.17-12.32,2.61-3.31,1.49-1.2,5-4,5.84-5.73-.59-9.67-7.45-16.41-4.92l-1.84,5.1-5.78-5.54-3.35,3.06L138,953.71c-1.14,2.31-1.19,3.47,1.48,5.16,15.33,9.69,31.86,16.55,48.81,22.76,6.71,2.47,13.2.31,19.39,1.63,11.53-6.45,14.55-7.53,21.08-7.53-.53,2.77-3.21,3.76-4.86,6,.54.41,1.12,1.24,1.71,1.25,2.67.05,6.32,1,7.82-.43,4.5-4.12,9.33-1,14.27-.83l-20.85,7.36c3.08,8.49,11.28,2.32,15.9,6.08-2.81,3.27-6.83.12-10,1.93-1.61,1.72.84,1.86,1.21,2.82,1.54,4,6.56.46,9.4,4.31h-15c-2.9,2.58.12,3.07.62,4.38-.37,3-5.76-.14-5.17,4.13-.6,4.37,4.63,1.46,5.34,4.41-4,2.61-8.72-.21-12.78,1.74-1.17,1.84,1.47,1.67.89,4.34-1.92,1.35-5.34,0-8.71.5-.49,1.42-1,3-1.59,4.61-2,2.09-5.41-.83-7.36,1.91,5.57,7.92,15.14,8.36,22.76,9,8.75.73,16.54,6,25.66,3.83-3.85,3.43-8.3,1.34-14.49,3.12l-4.4,4.39-12.32-6.13c-1.64,4.9,4.41,4.36,3.55,7.79-1.25,3-6.53,4-4.65,9.29-5.83.15-8.43-4-12.59-4.95-1.47,2-1.69,5.41-5.15,7.51-4.61-4.41-8.88-10.07-16.3-10.61-2.53,2.92,3.67,3.51,1.66,6.63-1.08,1.67.71,4.38-.72,6.11-3.52,2.49-4.66-1.7-7.37-2.09-2.45-.82-2.87,3.13-6.46,2.68-2.38-3.72-7-2.43-11.29-2.59-.27-5.44-6-5.1-8.91-8.49-4.18,2.18-8.61,5.42-13.25.74-1.81,2.71-.56,4.37,1.34,5.78-1,2.25-1.91,4.42-2.85,6.58-4.59-2.6-10.78-3.69-14.29-1.13-4.32,3.15-9.77-7.22-11.15,3.55-5.25-5.83-10.8-4-15.6-4.69-7.3-1.52-9.51-8.13-13.51-13.16l-3,2.59c-1.86-2.56-2.13-6.38-5.69-7.76l-3.84,3.84C66.55,1061,70.62,1070,72,1080H30.89c6.43-12.65,6.22-26,9.38-38.13-3.67-4.45-8.22-5.77-12.21-7.83-3.53,3.32-.54,7.35-2.36,10.51-1.75,1.5-1.82-1-3.86-1.37-.92,4.25-4.53,6.93-7.58,10.07-2.16-.73-1.2-2.87-2.2-4.77-6.94,1.71-6.42,10.71-11.08,12.62-4.11,1.38-4.52-2.6-7.95-2.12-1.94,5-7.78,6.58-11.71,10.44l-2-2c-3.33.73-4.16,5.73-8.45,5-3.69-2.84.56-7.87-2.71-10.92-6.28-.09-7.17,8-13,8.24-4.3-1.36-.06-6-3.89-8.39l-5.66,7.38c-7.22,2.62-9.5-1.25-13-4.74l-4.75,7.24c-1-5.2-3.4-7.12-6.84-8,.57-1.94,3.48-2.86,2.42-5.46-.76-1.34-1.93-1.48-3.31-1.66-4.32-.54-7.46,5.28-12.31,2.09-.27-3.83,6.92-4.41,3.76-10.24-4.74.3-9.75,5.35-15.69,1.38,7.85-4.29,16.43-4.71,25.91-8.07l-6.87-2.46c-3.92-2.28-7.76,1.49-12.28,3.35-.59-1.55-1.18-3.11-1.72-4.56-4.4-1.87-6.73,5-10.75,2.46-2.38-1-1.75-3.08-2.5-5.38l-9.4,4.92-1.82-4.75-6.3-.69c-.77-3.68,4-3.82,4.12-7.07-6.24-3.21-12,5.66-18.59.67l15.47-7.63c-2.49-2.68-5.92-4.69-11-5.88,6-2.47,11.2-.62,16-1.55,1.52-.92,1.2-2.34,1.27-4.29,3.71-2.54,9.58,1.06,13.09-3.53.55-.72,3.36,0,5,.46,11.13,3.08,20.75,2.94,30.48-.59,4.38-1.59,4.76-2.38,4.9-10.35-2.85.44-3.78,3.18-6,4.74-5.11-3.7,4-6.25.9-9.61-.64-1.24-1-1-1.95-.16-4.69,4.57-8.61,10.1-15.78,12.06-2.54-2.28.2-6.17-1.25-9.22-.63-1.26-1.28-1.28-1.91-.06-2,3.86-6.8,3.71-9.47,6.67-5.3-1.41-4.6-6.28-4.67-9.81-5.24-1.71-8.31,5.71-13,1.17-1.54-4.64,3.39-5.54,5-8.39-.73-1.25-1.92-1.48-3.29-1.4a20.05,20.05,0,0,0-8.67,2c-3.91,2-9.37,2-12.43-5,7.13,1.43,12.78-1.92,19-3.63l-5.29-5.68c.76-.43,1.49-1.2,2.23-1.2,10.82-.08,21.65,0,32.48,0,3.16,0,6.42.48,9.44-.16,2.33-.49,4.36-2.39,7.36-4.16-7.7-2.33-13.94-8.93-23.62-4.45.09-4.56-5.2-4.35-7.57-7.37-1.75,1.09-2.71,3.91-5.67,2.32-1.2-.65-1.27-1.95-1.17-3.68l12.79-6.46h-18.94c-2.47-2-1.92-3.35-1.76-5.77,7.9,2.15,14.67-3.93,23.45-2.52,1.15-5.37,1.95-10.28-3.78-13.77-4.36-.61-5,4.66-8.51,5.43-9.35-1.48-12.43-9.47-16.82-16.12-.57-4.39,4.6-1.58,5.4-4.19v-3.79c-6.53,1-12-3-18.61-3.77-.05-1.18-.11-2.4-.16-3.56,4.43-3.55,6.6,3.75,10.95,1.82,3.07-1.36,7,1,10.57-1.24l-5.39-5.79c2.87-2.07,5.57-2.27,8.34.32s6,.65,8.93,1.13c2.07-.88,1.43-2.94,1.91-4.37,6.39-4,11.59,2.7,17.56,1.67,8,5.75,15.38-.18,22.83-1.64a43.25,43.25,0,0,0,17.34-7.11c2.55-1,.9-4.85,4.06-5.92-.55-1.41-1.69-1.5-3-1.6-4.9-.35-7.91,4-12.36,4.76-3.31-3.73,4.38-5.58,1.42-9.47-2.16-1.37-2.16,2.08-5.3,1.85l-7.65-3.76,2.84-3.12c-4.75-3.52-7.48,3.24-12.26,2-4.15-1.07-6.85-6.21-12.06-4.25l2.78-3.27c-4.83-1.25-9.7-2.09-13.63-5.22,3-2.7,7,0,11.64-2.33l-21.62-8.66c5.89-1,9.28-1.66,13.77,1,3.36,2,8.85,1.34,13.13.53,4.59-.87,7.8,3.38,12.62,2.73l-2.14-4.42c23.83,3.63,45,.07,59.76-10.65-5.66-.86-10.43-2.17-12.52-6.06-3.68-1.1-4.44,2.14-7.15,2.5-3.12.85-3.21-6.2-8.8-1.17l3-6.24c-5.9-3.52-6.29,5.76-11.72,4.34-3.88-2.28.74-7.43-2.45-10.33-3.7,1.73-5.29,8.08-12.7,3.54L-72,813.17c-2.18-.3-2.86,3.26-5.44,2.12-3.28-.31-.73-4.14-3-5.11-2.72-1.21-4.08.75-5.89,2.67-6.11-1-10.31-7.57-17.83-5.56,1.9-4,5.61-4.94,6-9.51-2.43-3-9.73.35-10.51-6.19,8.6-.69,16.71-3.82,25.63-3.6,8.15.2,16.23.92,24.77-1.87,8.11-2.64,17.75-.57,26.36-.57l3.59-3.77c-2.38-6.67-8.58-3.14-12.49-4.81a3.94,3.94,0,0,1,.55-4.85c11.21,1.22,21.29-5,32.11-8.36A6.22,6.22,0,0,0-3.56,757c-6.11-3.67-10.84-.92-15.09,4.6-.84-2.24-1.41-3.8-2.54-6.85-1.64,2.8-2.93,5-4,6.84-3.05-1.48-3.89-4.55-7.36-2.42l-1.47,4.3H-47.87l-3.8-3.79c-.31.83-.88,2.4-1.39,3.8-4.12,1.41-4.74-1-4.92-4.91-4.1.33-8.44-1.86-11.91,2.56-2.81-2.69-5.14-6-9.42-6.68,1.3-1.68,3.9-2.74,1.75-6.59-3.14-1.76-10.21,2.54-12.13-5.34,6.33-.61,13-.1,17-7.62,1.32-2.48,7-4,11.75-3.65,11.38.9,21.58-3.85,31.74-8.14,1.54-.65,2.59-2.47,3.87-3.74,2.24-3.71-4.51-4.66-2.55-8.28,1.89-2.79,5.16-.23,6.81-1.5,1.77-1.46,1.24-2.81,1.12-4.17-2.72-2.32-6-.53-9-1.13-4.35,3.5-7.29,8.88-14.69,9.78-4.41-1.83-8.23-6.42-12.62-12H-67.07c-1.35-5.45-4.49-8.57-9.75-9.89,4.11-3,8.8-.32,12.83-1.88l1.83-4.77c2.48,2.55,6.65,2,8.54,5.22,7.38-.2,15.4,1.59,20.85-5.87-3.39-4.19-8.24-.62-11.5-3.28l2.77-3.13c-3.35-3.44-5.35.35-6.73,1.59-5.92-.71-6.12-5.38-8.38-8.34h-5.24c-2.28-1.84-.79-4.29-1.29-6.49-2.79-1.58-6.23-2.48-8.42-6.66h18.28c.89-2.53,1.44-4.1,2.16-6.13l14.82,5.55c9.06-3.41,20.13-2.89,30.11-9.21-5.47-3-11.09-5.22-15.51-9.67s-6.17-11.37-13.43-12.8L-37,628c-7.89-2.86-13.75-9.65-22.66-7.32-.52-3.18,3.09-3.84,1.47-7.47a37.88,37.88,0,0,1-14.07-5.51c6.35-.82,11.54-2.06,16.51,1.37l3-3c-.57-1.19-1.17-2.44-2.13-4.42,6.37.52,10.68,3.57,14.54,7.83,2.4-2.4,2.11-6.1,6.18-8.37l-10.26-6.83c9.2-.58,15.25-2.88,20.9,1.58l3.6-3.8c.58-2.44-.49-4.25-2.09-4.78-9.26-3-16.43-9.54-24.56-14.44.63-.64,1.27-1.28,1.94-1.94.17-3.68-4.19-.13-4.44-4.21l3.33-3.1c4.25.12,6.46,4.68,11.69,2.14.71-1.19,2.09-3.54,3.92-6.64,5,4.67,9.65,5,14.66,4.41,2.13-1-.09-4.53,3.65-5.44l16.38,8.43c11.77-8.79,26.78-13.59,35.18-26.55.22-3-1.4-3.37-3.82-3.35-2.93,7.12-8.6,9.94-16.41,11.16-5.82.91-12.5,1.92-16.87,8.6-.51-2.46-.76-3.7-1.09-5.29-3.23-.17-6.37,4.26-10,.91,1.31-5.7,11.06-3.72,10.25-12.35-4.22.4-5.53,6.28-10.63,5.48-3-.46-6.59,2.91-9.92,4.56-1.18-2.35-2.5-5-3.73-7.42.32-3.57,4.13-4.43,5.11-7.29-.87-1.49-3-1.53-3.51-1-2.76,2.9-5.17,6.14-7,8.38-4-.71-6.48.6-8.13-1.72-.69-4.25,4-5.28,5.25-8.94-8-1.68-16.91,1.83-23.72-4.51,4.59-5.58,11.44-3.71,17.1-4.18,3-2.33-.27-5.78,3.13-8.3,9.43,4.83,18.08,12.8,29.69,13.87,1.05-4.2-3.9-4.23-4-8.3,7.89.58,13.16,7.8,20.63,8.12,8.05.33,16.11.07,24.51.07v-13c-4.35-1.51-4.39,1-5.33,3.74-.82,2.32-5.46.37-5.94,4.14-3.19-2.16-.62-5.43-2.31-7.6-3.82-3.75-5.6,4.33-9.41,1.45-4.65-3.86,4.5-5.46,1.17-9.87L4.91,512.2l-3.6-4.71C-4,505-6.26,509.36-10,509.61l-3.73-3.43c-.64-.68,0-1.05.56-2,2.88-5.13,8.51-1.06,11.84-3.45,3.14-5.94-5.81-3.21-5.38-8.58.29-3.76-5.58-4.49-11.58-4.77,3.71-2.68,4.5-6.37,9.21-4.67-1.65-5.71-8.25-6.75-8-13.53C-8,470.42-1.2,476,6.77,479.84c3.54.06,5.78-5.75,12.62-.37-3.25-7.42-8.93-9-9.42-14,3.61-6.57,6.4,3.67,10.35-.07a17.62,17.62,0,0,0,.09-9.18c-4.1-3.16-6,4.41-9.87,1.08-2.27-4.63,2.91-5.54,4.58-8.53L4.82,432.18c5.47-4.57,9.48,4,15.09,1.33.43-1.25,1-2.82,1.52-4.39.63-.88,1.11-.61,1.95.36,1.42,1.66,3.25,2.84,2.93,5.6-.73,6.16,2.86,10.56,7.33,15.89V432.13c-4.39-5.19-8.57-12-12.52-19,2.22-2,3.9-1,5.63.82,2.79,2.94,5.72,5.76,9.29,9.32,1.91-5.37.78-10.5,1-15.45s0-9.65,0-16.34c3.85,6.21,6.12,10.52,5.5,16-.5,4.3-.08,4.33,4,10.42,2.4-5.14,4.8-10,12.15-12-2.57,7.83-6.92,13.2-11,18.38-5,6.38-6.09,12.9-4.58,20.8,9.83-1.88,7.9-12.45,14.09-16.36,2.28.47,1.18,2.63,1.93,4.27,4.46,0,7.28-4.94,13.37-4.46-1.36,3.15-4.1,4.54-5.53,6.74,2.1,4.39,8.14,3.44,10.41,8.51-6.78,2.35-14.35-.57-21.57,1.65,4.53,4.16,12,3.49,14.11,11.37-4.77,2.46-11.05.18-14.41,4.4-3.22-1.46-1-5-4.46-5.88-4.26.13-5.14,5.28-9.36,6.85,4.77,9,3.18,18.35,3.59,28.26,7.37.92,13.47-2.06,16.65-7.58,2.66-4.62,8.2-7.7,8-14.39-.09-2.29,3.61-4.72,5.64-7.16,2.82.9,5.14,3.06,9,2.06l7.14-8.54c3.22,2.29,1.9,4.74,2.41,7.57l-6.57,3.84c3.94,5,8.94.68,12.16,4.32-1.33,6.33-8.06,8.17-10.47,13.51,3.38,2.76,8.29,3.53,13.1,4.84-3.59,4.78-9.78,5.17-12.57,9.82a9.68,9.68,0,0,1-8.08-2.18l-3.86,3.3c-.78,3.2,1.47,4.36,3.36,6.49,3.49,2.09,8.3-1,12.28,1.39-1.36,4.88-5.36,4.7-9.22,4.76-2.17,1.8-.63,4.24-1.13,6.27-.84,2.13-3,1.35-4.54,2.07-1.36,1.5-1.36,3,.44,5.05,5.74-.24,9.77-6.82,16.25-5.45,2.41,1.54,1,4,1.44,6.22,4.43,3.29,9.18,5.84,15,4.25.85,5.87,7.31,5.7,9.12,10-8.08,6-13.64,7-23.12,4.14-2.65,1.92.43,5.33-2.58,8-6.48-.73-8.48-8-13.73-10.87h-5a2.91,2.91,0,0,0-1.26,3.6c.43,1.16,1.61,2.05,2.47,3.07-2.88,3.56-7.34,1.31-13.17-6.74-4.46-.6-1.74,4.5-5,5.66-7.51-2.39-8.14-9.5-9.48-18.11-2.88,5.26-2.44,8.75-.92,12.14s3.39,6.69,5.53,10.87c4.34,3.61,10.54,3,16.44,2.95,2.87,2.91-3.29,2.94,1.31,7.81,2.31.93,6.74,5.89,13.87,1.49,4.91-3,10.81-4.47,14.6-9.06,1.87,1.06,1.12,2.56,1.45,4.75,5.94-.44,10.55,2,12,8.52,6.7.53,11.95-3.8,19.16-5.66.73,2.07,1.69,4.77,2.65,7.47Z"/><path class="cls-3" d="M317.19,802.37h-9.81c-1,2.41,1.66,2.46,2.05,3.94,3.68,2.3,8.15-.7,12.1,1.8l-2,2.57c1,3.6,5.09,3,7.15,5.18l-2.9,3.22c6.9,1.85,11.14-7.62,18.8-2.91l-9,6.61c2.84,2.68,4.86,2.24,6,.21,2-3.58,6.61-2.57,8.3-5.67,4.69,1.95,3.33,6.42,4.68,9.44,5,1.87,5.41-4.72,9.23-4.63,2.14-.36,2.55,1.92,4.73,2.72l9.53-4.79,2.67,2.68c.13.3.46.76.37.86-10.09,11.82-24,14.63-38.42,16.58-2.36-4.56-6.95-5.34-10.48-7.68-2.62,1.58-3.05,4.55-4.4,6.91-4.43,1.35-4.95-3.67-8.9-4.69-4.36,4-10.72,1.81-17.18,2.66.07,2.79,2.43,4.77,4,4.56,6.2-.79,7.28,3.8,9.13,7.51,4.92,1.6,7.42-2,10.11-4.84,3.3,3.15.22,4.54-1.11,6.28a12.76,12.76,0,0,1,2.34,2.82c.45,1-.29,2.53,1.66,3.36h4.34c3.6,2.2-1.12,8.3,4.59,9.72h8.64l4.25-4.24c2.27,1.38,4.63,2.62,8.24,2,1.13-1.42,2.66-3.37,4.12-5.22,3.12,2.1.77,5.12,2.32,7.17,4.24-2.34,10.43-.78,12.54-6.56l7.07,3.36c-7.55,8.05-17.34,11.25-27.14,14.81-10.7,3.89-20.54,1-30.36-3.23-.81,5,3.33,6,5.26,9.83-4.73,0-8.93.66-12.81-.19-3.66-.8-7-3.19-10.28-4.81-2.63.14-2.41,1.9-2.38,3.56-1.67,3.22-5.75-.22-7.52,2.7s-5.86-.55-7.74,3.16c1.35,6.68,10.94,5.85,12.39,11.79s8.76,7.5,8.76,15.14c4.24-3.81,8.51-4.32,13.1-3.66,2,.91-.11,4.26,2.94,4.88,3.49-.29,5.39-4.24,9.29-4.25,2.05-.09,1,1.92,1.76,3.69h16.23l4.65-4.38a2.63,2.63,0,0,1,1.14,3.31c-2.3,5.1-5.71,9.44-11.12,11.31-2,.69-3.78,1.14-5,2.79H320.41c-1.78-3.05-5.87-2.42-8.18-5.3l-8.1,4,4.72,4.72c-3.35,3.16-5.69.75-8.84-.68-2.74-1.25-6.5-.26-9.65-.26-3.76,4.28-9.43,3.89-14.17,6.47,3,9.61,16.85,7.92,18.9,18.55a60.75,60.75,0,0,1,8.53.09c2.88.4,4.93-1.48,7.47-2.13.78,2.24,1.31,4-1.83,4.59s-5.16,2.33-5.13,5.8c11.51,4.14,11.51,4.14,23.34,1.65,2.78,1.31,1.8,4.87,3.3,6-5.94,8.15-15.52,1.92-23.45,6-7.53,3.9-16.27-3.73-24.61-1.93-2,1.9.57,2,.65,2.72,1.32,2.1-1.87,2.16-1.29,3.88,2.73,1.8,6.26.11,9.36,1-.93,3.71-5.5,4.5-4.79,8.5,2.63,3.12,3.12-3,5.91-1.36,1.81,1.08,4.8-.65,6.65,1.26-.12,1.26.11,2.33-.32,2.82-1.93,2.15-4.05,4.14-5.43,5.52-13.05,2.95-24.1-4-37.91-5l6,7.08c.94,2.8-2.22,3.42-2.45,5.85-.15,2.66,2.86,3.44,4.12,5.45,1.63,2.6,4.18,2.1,6.62,2.19,3.19.1.4,5.11,4,5,2.52-.1,5-.16,6.45,2.31l9-5.23c1.92-.81,2.61,3.43,5.45,3,2.3-.33,4.72.15,6.79.26.6,3.39-.79,3.73-2.89,4.87-7.36,4-15.56,4.84-23.34,7.12-5.46,1.6-11.1-.43-16.44-2.89-2.34,2.09-4.4,4-7,6.33-4.5-6.38-12.08-.55-18.07-6.6,1.42,9.89,10.4,10.25,13.89,15.65l8.5.44c.38,4-3.6.85-4.06,3.11,1,5.59,6.64,3,9.81,5.38l-5.27,2.46c4.69,4.26,8.12-2.29,12.36-1.19l12.53,3.29c.66,4.2-1.78,6.12-5.22,6.65-7.95,1.24-15.77,3.75-24,2.6a32.92,32.92,0,0,0-4.65,0c-.71,1.89-1.24,3.33-1.93,5.16H217.18c2.89,2.43,5.27,5.24,10.83,5.1-5.39,2.62-3,6.56-4.58,9.17l-5.28,1.83c11.12,3.48,21.58,6.25,31.38,11.34l3.65-2.24c1.79,1.73.46,4,.91,5.89,4.81,2.15,9.39,7,14.31,1.38,2.65-.45,3.19,1.62,4.5,2.35a3.7,3.7,0,0,0,4.25-1.79c6.44,2.9,12.89,2.28,19.5.66,8-2,15.86-5.51,24.35-3.34,2.2,4-1.22,6-3.27,6.86a235.52,235.52,0,0,1-37.24,12.89c-5.11,1.25-10.79,4.15-15,1.79-4.59-2.55-8.62-1.33-12.78-2-1.95,2.4,1.18,2.48,1.35,4.68H224.7c-.47,4.27,3.21,1.72,3.81,3.53-3.59,4.88-9.25,4.2-14.43,5.28,8,2.51,16.1.81,24,1.81-2.75,5.79-11.06,3-14.84,10.39,13.71-4.65,25.61-1.18,37.1,1.92,2.62,2.2-.28,5.37,2,7,2.64,1.28,3.92-.51,5.7-2.41,3.87,1.1,7.55,4.77,11.39,2.41,3.06,1.38,1.11,4.6,3.71,5.4,5.29-.55,8.94-6.89,15.17-4.55l1.69,4.71c2-1.87,3.67-3.51,5.35-5.11l3.1,2.83,9.95-5c1.05,2.13,1.09,3.21-1.38,4.77-14.17,9-29.46,15.3-45.13,21-6.21,2.27-12.21.28-17.93,1.5-10.66-6-13.45-7-19.49-7,.48,2.57,3,3.48,4.49,5.6-.5.38-1,1.14-1.58,1.16-2.47,0-5.85.87-7.23-.4-4.16-3.81-8.63-.94-13.2-.76l19.28,6.79c-2.85,7.86-10.43,2.15-14.71,5.63,2.61,3,6.33.11,9.23,1.79,1.5,1.58-.77,1.72-1.11,2.6-1.43,3.7-6.06.43-8.69,4h13.85c2.68,2.39-.11,2.84-.58,4,.34,2.76,5.33-.13,4.79,3.82.55,4-4.29,1.35-4.94,4.07,3.66,2.42,8.06-.19,11.81,1.62,1.09,1.69-1.36,1.54-.82,4,1.78,1.24,4.94,0,8.06.46.45,1.32.95,2.77,1.47,4.26,1.88,1.93,5-.76,6.8,1.77-5.15,7.33-14,7.73-21,8.32-8.09.68-15.29,5.6-23.73,3.54,3.56,3.18,7.68,1.24,13.41,2.88l4.06,4.07,11.4-5.67c1.51,4.53-4.08,4-3.29,7.2,1.16,2.77,6,3.69,4.31,8.59,5.38.14,7.79-3.68,11.64-4.57,1.36,1.88,1.56,5,4.76,6.94,4.26-4.08,8.21-9.31,15.07-9.81,2.34,2.7-3.4,3.24-1.53,6.13,1,1.54-.66,4,.67,5.64,3.25,2.31,4.3-1.56,6.81-1.92,2.26-.76,2.65,2.89,6,2.47,2.2-3.44,6.47-2.25,10.44-2.39.25-5,5.57-4.72,8.24-7.85,3.87,2,8,5,12.25.68,1.68,2.51.52,4.05-1.24,5.34l2.64,6.09c4.24-2.4,10-3.41,13.21-1,4,2.92,9-6.66,10.31,3.29,4.86-5.39,10-3.65,14.43-4.34,6.75-1.4,8.79-7.52,12.5-12.16l2.74,2.39c1.72-2.37,2-5.9,5.26-7.18l3.55,3.55c.26,8.2-3.5,16.57-4.78,25.79h38c-6-11.7-5.76-24-8.68-35.26,3.39-4.12,7.6-5.34,11.29-7.24,3.26,3.07.5,6.79,2.18,9.72,1.62,1.38,1.68-1,3.57-1.27.86,3.92,4.2,6.41,7,9.31,2-.67,1.11-2.65,2-4.41,6.43,1.58,5.94,9.9,10.25,11.67,3.8,1.27,4.18-2.41,7.36-2,1.79,4.66,7.19,6.1,10.82,9.66l1.87-1.86c3.08.68,3.84,5.3,7.81,4.6,3.42-2.63-.52-7.28,2.51-10.1,5.8-.08,6.63,7.4,12,7.62,4-1.26.05-5.57,3.6-7.76l5.23,6.83c6.68,2.42,8.78-1.16,12-4.38l4.39,6.69c.95-4.81,3.15-6.59,6.33-7.37-.53-1.79-3.22-2.64-2.24-5,.7-1.24,1.79-1.37,3.06-1.53,4-.51,6.89,4.88,11.39,1.93.24-3.54-6.4-4.08-3.49-9.47,4.39.28,9,5,14.51,1.28-7.25-4-15.19-4.36-23.95-7.47l6.35-2.28c3.62-2.11,7.17,1.39,11.35,3.11.55-1.44,1.09-2.88,1.6-4.22,4.07-1.73,6.22,4.58,9.93,2.27,2.21-.94,1.62-2.84,2.32-5l8.69,4.55c.54-1.4,1.09-2.84,1.68-4.4l5.82-.63c.72-3.4-3.69-3.54-3.8-6.54,5.77-3,11.14,5.23,17.19.62l-14.31-7c2.3-2.48,5.48-4.34,10.14-5.44-5.5-2.28-10.35-.58-14.76-1.44-1.41-.85-1.11-2.16-1.17-4-3.43-2.35-8.87,1-12.11-3.27-.51-.67-3.11,0-4.64.42-10.28,2.86-19.18,2.73-28.18-.54-4-1.47-4.4-2.2-4.53-9.56,2.63.4,3.5,2.94,5.57,4.38,4.72-3.43-3.66-5.79-.84-8.89.59-1.15,1-1,1.81-.15,4.33,4.23,8,9.34,14.59,11.15,2.35-2.11-.18-5.7,1.15-8.52.59-1.16,1.19-1.19,1.77-.06,1.82,3.57,6.29,3.43,8.76,6.17,4.9-1.31,4.25-5.81,4.32-9.07,4.85-1.59,7.68,5.27,12.07,1.08,1.42-4.29-3.14-5.12-4.63-7.76a2.92,2.92,0,0,1,3-1.29,18.47,18.47,0,0,1,8,1.88c3.62,1.88,8.66,1.81,11.49-4.62-6.59,1.32-11.81-1.78-17.6-3.36l4.89-5.25c-.7-.4-1.38-1.1-2.06-1.11-10-.07-20,0-30,0-2.93,0-5.94.45-8.74-.14-2.15-.46-4-2.22-6.8-3.85,7.12-2.15,12.89-8.26,21.84-4.12-.08-4.21,4.81-4,7-6.81,1.62,1,2.51,3.61,5.25,2.15,1.1-.6,1.17-1.81,1.07-3.41l-11.82-6h17.51c2.29-1.85,1.78-3.1,1.63-5.33-7.31,2-13.56-3.64-21.68-2.33-1.06-5-1.8-9.51,3.49-12.74,4-.57,4.66,4.31,7.87,5,8.65-1.37,11.49-8.75,15.56-14.91.52-4.06-4.26-1.46-5-3.87v-3.51c6,.88,11.12-2.74,17.21-3.48,0-1.09.1-2.22.15-3.29-4.1-3.29-6.11,3.47-10.12,1.68-2.84-1.26-6.51.88-9.78-1.15l5-5.35c-2.66-1.91-5.14-2.09-7.71.29s-5.55.61-8.26,1c-1.91-.81-1.32-2.72-1.76-4-5.91-3.65-10.72,2.49-16.24,1.55-7.42,5.31-14.22-.17-21.12-1.52a39.83,39.83,0,0,1-16-6.58c-2.37-.88-.84-4.49-3.76-5.47.51-1.31,1.56-1.39,2.78-1.48,4.53-.33,7.32,3.74,11.43,4.4,3.06-3.45-4.05-5.16-1.31-8.75,2-1.27,2,1.91,4.9,1.7l7.07-3.47-2.62-2.89c4.39-3.26,6.91,3,11.34,1.87,3.83-1,6.33-5.75,11.14-3.93l-2.56-3c4.46-1.15,9-1.93,12.6-4.82-2.77-2.5-6.46,0-10.77-2.16l20-8c-5.44-1-8.57-1.54-12.73.92-3.1,1.83-8.18,1.23-12.14.48-4.24-.8-7.21,3.13-11.67,2.53l2-4.09c-22,3.36-41.58.06-55.27-9.85,5.23-.79,9.65-2,11.58-5.6,3.4-1,4.11,2,6.62,2.31,2.88.79,3-5.73,8.13-1.08l-2.77-5.77c5.45-3.26,5.81,5.32,10.84,4,3.58-2.11-.7-6.87,2.26-9.55,3.42,1.6,4.89,7.47,11.74,3.28l3-3c2-.28,2.64,3,5,2,3-.29.68-3.83,2.75-4.73,2.5-1.12,3.76.7,5.44,2.47,5.65-.92,9.53-7,16.48-5.14-1.75-3.69-5.18-4.57-5.54-8.79,2.25-2.76,9,.32,9.72-5.73-7.94-.64-15.44-3.53-23.69-3.33-7.54.19-15,.85-22.91-1.72-7.49-2.45-16.41-.53-24.37-.53l-3.32-3.49c2.19-6.17,7.93-2.91,11.54-4.44a3.64,3.64,0,0,0-.5-4.49c-10.37,1.12-19.69-4.58-29.69-7.73a5.75,5.75,0,0,1-4.23-6.21c5.65-3.4,10-.86,14,4.25.77-2.08,1.3-3.52,2.35-6.34l3.69,6.33c2.81-1.37,3.59-4.21,6.79-2.24.25.71.75,2.16,1.37,4h12.82l3.51-3.51c.28.77.81,2.22,1.29,3.51,3.8,1.31,4.38-.9,4.54-4.54,3.79.31,7.81-1.71,11,2.37,2.6-2.48,4.76-5.59,8.71-6.17-1.19-1.56-3.6-2.53-1.61-6.1,2.9-1.63,9.44,2.35,11.22-4.94-5.86-.56-12-.09-15.71-7-1.22-2.29-6.47-3.73-10.87-3.38-10.53.84-19.95-3.56-29.35-7.53-1.43-.6-2.4-2.27-3.58-3.45-2.08-3.43,4.17-4.31,2.35-7.66-1.74-2.58-4.77-.21-6.29-1.39-1.64-1.35-1.15-2.59-1-3.85,2.52-2.15,5.56-.5,8.38-1,4,3.23,6.73,8.2,13.58,9,4.07-1.69,7.6-5.94,11.67-11.05h9.94c1.25-5,4.15-7.93,9-9.15-3.81-2.75-8.14-.29-11.87-1.74-.56-1.44-1.11-2.88-1.7-4.41-2.28,2.36-6.14,1.84-7.89,4.83-6.83-.18-14.24,1.47-19.28-5.43,3.14-3.88,7.62-.57,10.64-3l-2.57-2.88c3.1-3.19,4.95.32,6.22,1.47,5.48-.66,5.66-5,7.75-7.72h4.85c2.11-1.7.73-4,1.19-6,2.59-1.46,5.76-2.29,7.79-6.16h-16.9c-.83-2.34-1.34-3.79-2-5.67l-13.71,5.13c-8.37-3.15-18.61-2.67-27.84-8.51,5.06-2.75,10.25-4.82,14.34-8.94s5.71-10.52,12.42-11.84l1.72,1.49c7.3-2.65,12.72-8.93,21-6.77.48-2.94-2.86-3.55-1.36-6.91a34.87,34.87,0,0,0,13-5.09c-5.88-.76-10.67-1.9-15.27,1.27l-2.78-2.79,2-4.09c-5.89.48-9.88,3.31-13.45,7.25-2.21-2.22-1.95-5.64-5.71-7.74l9.48-6.32c-8.5-.54-14.1-2.66-19.32,1.46l-3.33-3.51c-.53-2.26.45-3.94,1.93-4.42,8.57-2.82,15.2-8.83,22.72-13.36l-1.8-1.79c-.16-3.4,3.87-.12,4.11-3.89L488.36,797c-3.93.12-6,4.33-10.82,2l-3.62-6.14c-4.62,4.32-8.93,4.66-13.56,4.07-2-.89.09-4.18-3.37-5l-15.15,7.8c-10.88-8.13-24.76-12.57-32.53-24.56-.2-2.78,1.29-3.12,3.53-3.1,2.71,6.59,8,9.2,15.18,10.33,5.38.84,11.56,1.77,15.59,8,.48-2.28.71-3.42,1-4.89,3-.17,5.89,3.93,9.29.84-1.21-5.28-10.22-3.44-9.48-11.42,3.9.36,5.12,5.8,9.83,5.07,2.77-.43,6.1,2.68,9.17,4.21,1.1-2.18,2.31-4.59,3.46-6.86-.31-3.3-3.83-4.09-4.74-6.74.82-1.38,2.75-1.42,3.26-.89,2.55,2.68,4.77,5.67,6.46,7.75,3.72-.66,6,.56,7.52-1.59.64-3.93-3.68-4.88-4.86-8.27,7.37-1.56,15.63,1.69,21.94-4.17-4.25-5.16-10.58-3.43-15.82-3.87-2.75-2.15.25-5.34-2.89-7.67C469,756.32,461,763.68,450.3,764.68c-1-3.89,3.61-3.92,3.72-7.68-7.29.54-12.16,7.22-19.08,7.51-7.44.31-14.9.07-22.66.07V752.52c4-1.39,4.06,1,4.93,3.46.76,2.15,5.05.34,5.49,3.83,2.95-2,.58-5,2.14-7,3.53-3.46,5.18,4,8.7,1.35,4.3-3.57-4.16-5-1.08-9.13l9.08,4.52,3.33-4.35c4.9-2.31,7,1.73,10.46,2l3.45-3.16c.6-.63,0-1-.51-1.85-2.67-4.75-7.87-1-11-3.2-2.89-5.49,5.38-3,5-7.93-.28-3.47,5.15-4.15,10.7-4.41-3.43-2.48-4.16-5.89-8.51-4.32,1.52-5.28,7.62-6.24,7.41-12.51-8.4,1.15-14.71,6.29-22.08,9.86-3.28.06-5.35-5.32-11.67-.34,3-6.87,8.26-8.34,8.71-12.92-3.34-6.08-5.92,3.39-9.58-.07a16.38,16.38,0,0,1-.07-8.49c3.79-2.92,5.52,4.08,9.12,1,2.1-4.28-2.69-5.12-4.23-7.88,3.12-5,6.32-10.21,9.52-15.37-5.06-4.23-8.77,3.73-13.95,1.23l-1.4-4.06c-.59-.82-1-.57-1.81.33-1.32,1.53-3,2.63-2.71,5.18.67,5.69-2.65,9.76-6.78,14.69V675.48c4.06-4.8,7.92-11.09,11.57-17.58-2-1.85-3.59-.92-5.19.76-2.59,2.72-5.3,5.32-8.6,8.62-1.77-5-.72-9.71-.91-14.29s0-8.93,0-15.11c-3.56,5.75-5.66,9.72-5.08,14.76.45,4,.07,4-3.66,9.64-2.22-4.75-4.44-9.25-11.23-11.09,2.37,7.24,6.4,12.22,10.16,17,4.65,5.91,5.63,11.93,4.23,19.24-9.08-1.74-7.3-11.51-13-15.13-2.11.43-1.1,2.43-1.79,3.94-4.12,0-6.74-4.56-12.37-4.12,1.27,2.92,3.8,4.2,5.12,6.24-1.94,4-7.53,3.17-9.63,7.87,6.28,2.17,13.27-.53,20,1.52-4.19,3.84-11.12,3.23-13.05,10.51,4.42,2.28,10.22.17,13.33,4.08,3-1.35.95-4.64,4.12-5.45,3.94.12,4.76,4.89,8.66,6.34-4.41,8.33-2.94,17-3.32,26.13-6.82.85-12.46-1.9-15.4-7-2.46-4.27-7.59-7.11-7.36-13.3.08-2.12-3.34-4.37-5.21-6.62-2.62.83-4.76,2.83-8.33,1.9l-6.6-7.89c-3,2.11-1.75,4.37-2.22,7l6.06,3.55c-3.64,4.59-8.26.62-11.24,4,1.24,5.85,7.45,7.56,9.68,12.49-3.12,2.55-7.66,3.26-12.11,4.48,3.32,4.41,9,4.77,11.63,9.08a8.91,8.91,0,0,0,7.46-2l3.57,3.06c.73,2.95-1.35,4-3.1,6-3.23,1.94-7.68-.95-11.36,1.29,1.26,4.51,5,4.34,8.53,4.4,2,1.67.58,3.93,1,5.8.78,2,2.74,1.25,4.2,1.91,1.26,1.39,1.26,2.82-.4,4.68-5.32-.23-9-6.32-15-5-2.23,1.41-1,3.7-1.33,5.74-4.1,3-8.49,5.41-13.89,3.94C342,772.2,336,772,334.36,776c7.48,5.58,12.62,6.5,21.39,3.83,2.44,1.78-.4,4.93,2.38,7.36,6-.67,7.84-7.36,12.69-10.05h4.68a2.69,2.69,0,0,1,1.16,3.33c-.39,1.07-1.48,1.9-2.28,2.84,2.66,3.29,6.79,1.21,12.17-6.23,4.13-.56,1.61,4.15,4.6,5.23,7-2.21,7.53-8.79,8.76-16.74,2.67,4.86,2.26,8.08.86,11.21s-3.13,6.19-5.12,10.06c-4,3.34-9.74,2.8-15.2,2.73-2.65,2.69,3,2.72-1.21,7.22-2.13.86-6.23,5.45-12.82,1.38-4.55-2.81-10-4.13-13.51-8.38-1.72,1-1,2.37-1.33,4.39-5.5-.4-9.77,1.8-11.06,7.88-6.19.49-11-3.51-17.71-5.24-.68,1.92-1.57,4.42-2.45,6.92Z"/><path class="cls-3" d="M1676.52,877c.28-5.3,4.87-7,8.37-11.76-8.82-2.83-16.35-7.24-12.93-17.75l-8.72-3.08c.11-2.46-1.26-4.76,2.19-6.75,11-2.36,15.83,11,25.55,13.21l3.61-5.3c-10.07-8.13-13.9-22.15-26.63-28.46,1.52-2.66,4-1.47,6-1.77,2-1.35,2.29-3.35,2.28-5.59,0-2.07.29-4.14.45-6.11,16.83-3.55,33.12-8.35,49.26-5.11,3.39-3.54,3.49-6,1.52-8.43-6-4.12-8.2,5.16-14.55,3-4.53-5.69-12.36-10-16.1-19.46,14.85-6.07,22,5.92,31.18,11.29,8.27-.56,3.06-9.9,9.06-11.44-5.46-5.16-7.67,1.1-11.18,2-4.4-4,2.62-12.46-6.86-14.14,4.1-3,6-5.85,5.56-11.75,11.13,3.68,19-6.44,30.25-3.86.33-10.64-7.5-13-11-17.49-4.58-.91-6.16,1.82-8.92,4.41-1.83-10.25-12-14.69-16.34-22.53,5.8-6.89,12.32-2,17.4-4.71,3.34-4.49,0-9.77,1.87-14.14-4.88-5.16-7.94-1.9-11.14,1.61-5.56-4,1.82-12.91-8.33-15.08,3.64-1.31,5.32-2.53,6.11-2.11,10.24,5.52,18.44,14.21,29.37,18.78,1.14.48,1.12,3.74,1.84,6.52h24.09c1.16-1.22,3.18-3.31,5.42-5.65-13.1-6.69-29.35-7.59-42.39-20.79,16.62-7.45,27.35,2.15,39.43,5.91l7.8-6.88-13.29-13.29,4-4c-3.48-4.62-6.74-9.69-17.17-4.49l-4.44,6.19c-6.77-.19-11.81,1.39-16.7-1.21.56-1.06.85-2.59,1.65-2.94,9.84-4.34,20.8-6.61,28.43-15.72-8.27-4.24-17.26.27-23.86-2.24l16.34-16.53c4.85,1.77,12.65,9.54,19.44-2,4.49-8.16-1.64-15.47-4.26-24.46l25.1,8.53c3.79-4.43,1.76-7-1-9.79-9.35-9.4-20.25-17.72-23.61-32,11.2,2.71,11.2,2.71,26-3.49-3.29-7.21-9.16-13.5-8.07-22.3,6.94-3.06,13.09-7.07,17-13.8l-3.25-3.25L1824.19,506c2.8,7.22-9.34,13.59-1.85,20.91,6,3.59,7.51-7.33,14.8-3.32-2.66,5.54-5.64,11.66-3.28,17.53-2.69,5.74-10.43,7.3-8.59,16.2,10-.22,18.32-7,28-8.36,3,4.24,4.23,7.92-2.79,8.7-4.17.46-4,3.26-3.81,6.3,5.72,6.76,10.79.65,16.07-1,2.13,1.65,2,4.76,1,5.74-3.5,3.21-9.18,3.32-12.71,9.19v12.49c-6.83,7.57-8.73-3.92-16.45-1.05-.37.72-2,4-3.7,7.23.36.35,2.42,2.41,4.68,4.68,11-1,20.38-10.49,33-8.07-7.24,14.61-27.17,16.08-29.74,34.59,17.09-1.23,31.15-9,44.22-18.71,1.44,2.23,2.67,3.31,2.84,4.53,1,7.35-10.44,8.12-8.66,16-14.69,3.34-14.52,23.91-30.34,25.88,2.11,4.77,6.3,1.52,8.73,2.88,8-2.7,10.67-11,18.88-14,6.71-2.4,11.22-10.92,16.69-16.71,6.7,6.52,3.77,11.2-1.32,15.71-6.08,5.39-6.19,10.93.13,16.61-7.1,10.23-17.25,15.08-27.45,16.54l12.12,12.11-6.12,6.73c4,4,8.19,2.82,16.86-5-1-1-2.12-2-3-3.13-.24-.28,0-1,.11-2.28h14.5c5-9.19,16.62-9.24,21.31-18.56,3.6,5,3.47,8.72.68,13.66-6,10.54-4.37,24.68-15.51,32.86-.25,11.28-9.61,10-16.63,12-.6,6.33,6.51.57,7.44,5.75v4.65c-3.85,2.56-3.93-3-6.71-2.24-7.66,13.08,7,19.5,8.18,29.75,14.81-6.87,32-5.41,44.09-19.88,6.11,13-.67,20.15-6.64,27.21-1.55,1.83-6.77,1.85-7,3.26-2,11.59-15.55,14.51-18.63,25.75,8,9.56,14.87-3.91,22.31-1.22,9.7-8.92,23.91-11.13,32.5-21.74,4.36,3.86,9.39,7.41,4.61,17l-23.53,22.07-7.4.34c-5.74,4.47-7.39,11.45-10.78,17.27-.07,4.57,4.87,5.2,5.75,8.12l34.43-17.18c7.18,7.66,7.18,7.66,6,17.72l-4.65-4.22a4.72,4.72,0,0,0-2,5.56c.69,1.88,2.44,3.39,3.71,5-2.83,7.94-11,6.55-16.5,7.65-1.13,4.82.27,7.14,3,9,.14,4-7.52,7.4-1.2,11.94,17.63-5.7,28.62-21.12,43.92-34.61,3.47,12.08-5.37,18.29-2.5,25.89-2.08,2,.69-.6-1.41,1.42l1.41-1.42c7.17,0,2.52,9.35,8.37,10.47-4.46,7.85-15.41,7.05-19.47,12.68s-11.13,8.58-12.65,16h-9.32c-2.25,5.1-4.55,10.36-7.55,17.16,18.73-3.89,30-15.88,42.7-25.07,2.1,11.59,1.17,14.06-11.33,28.33v13.42c-7.27,3.17-14.85-1.11-20.81,2.74-4.55,9.67,9.9,4.41,8.21,11.63-4.91,4.27-10.88,4.38-16.87,4.42,6,0,12-.15,16.87-4.42,9.7-.29,19.76,1.93,29.69-7-7,18.75-15.31,25.82-31.75,28.87-2,.37-4-.43-6,1.36-3,2.76-4.82,7.42-10,7.4-4.15,0-8.3,0-12.45,1.39,12.19,6.59,26.85-2.16,39.36,8.27,5.36-11.62,18.31.71,25.24-9.35-1.39,17.56-22.19,13.38-26.74,25.48-4.89,13-21.77,12.62-26.4,26.08h-22.83c-1.28,3.24-3,7.47-4.11,10.36-14.42-3.79-22.31,4.75-32.26,6.25l8.57,3.18c-4.35,5.41-13.41-1-15.85,6.72-2.28-5.47-9.72-2.67-13-9.76-1.47,3.22-2.62,5.72-5,10.85.22,3,6.94,2.53,11.22,5.16-1.54,5.22-5.86,1.62-9,2.92-6.43-4.18-11.85-9.31-13.93-17.24-4.28,2.64-7.94,5.58-7.78,11.91h-17.84c-3.15,2.14-3.17,4.19-3.43,6.37-2.46,20.75,7.31,40.6,4.49,61.39-.46,3.43-.06,7-.06,9.82-4.29,2.81-7.83,1.57-12.7,1.43-1.76-24.27,2.81-49.38-6.86-73.25-15-3.83-29.62,3-44.74,4.68l-7.36,7.35c-8.7-5-21-4.84-24.08-17.37a24.47,24.47,0,0,1,6.62-3.55c-2.44,1.12-5,2-6.62,3.55-7.43,2-11.46-4.66-18.47-5.82l18-9v-6H1668.4c1.33-8,6.53-3.44,10-5.23,0-5.68,8.7-8.47,6.39-14.82-2.24-3.22-4.52-2.16-6.57-2.22-3.71,1.69-.13,7.43-6.32,8.94-7.84-3.31-12.46-12.06-20.14-17.78-4.34-.73-9.49,1.29-16.19-2.51l10.16-6-9.32-19c2.1-3.36,5.41-4,6.28-3,7.92,9.55,20.69,10.46,30.34,19.61l9.52-13.49c2.39.31,1.87-.5.37-1.79-4.73-4.08-8-9.87-16-9.2-2.62.22-5.58-3.81-8.18-5.75V961.54c4.54-4.3,13.61.78,16.25-7.57L1659,935.85c1.15-3.51,4.6-2,7.62-3.53,0-5.05-6.57-6-7.67-11.27,6.21-.49,11.83-2.46,18,1.93,12.64,9,25.72,7.86,38.31-.4-7.67-11.41-25.31-9.18-32.72-23.89l-8.88-.58c-2-10.76-9.94-13.94-19.31-13.64v-5.86c4.64-4.72,7.58-1.12,10.62,2.09,3-3.27,6.62-5,11.51-3.66,1.72,2.47,4.41,4.57,6.68,5C1681.21,881.22,1678,879.84,1676.52,877Z"/><path class="cls-3" d="M1476.83,1231.39c-.28-5.3-4.87-7-8.37-11.76,8.83-2.83,16.35-7.23,12.93-17.74l8.73-3.08c-.12-2.47,1.26-4.76-2.19-6.75-11.06-2.37-15.83,11-25.56,13.2l-3.61-5.3c10.07-8.12,13.9-22.14,26.63-28.46-1.52-2.66-4-1.47-6-1.76-2-1.35-2.3-3.35-2.29-5.59,0-2.07-.29-4.15-.45-6.11-16.83-3.55-33.12-8.35-49.25-5.11-3.4-3.54-3.49-6-1.53-8.43,6-4.13,8.2,5.15,14.56,3,4.52-5.69,12.35-10,16.1-19.47-14.86-6.07-22,5.92-31.19,11.29-8.26-.55-3.06-9.9-9.06-11.44,5.46-5.15,7.67,1.11,11.18,2,4.41-4-2.62-12.46,6.86-14.13-4.09-3-6-5.85-5.56-11.75-11.13,3.67-19-6.45-30.25-3.87-.33-10.63,7.5-13,11-17.48,4.57-.92,6.15,1.81,8.91,4.4,1.83-10.24,12-14.68,16.34-22.53-5.8-6.89-12.32-2-17.4-4.7-3.34-4.5,0-9.77-1.87-14.15,4.89-5.15,7.94-1.89,11.14,1.61,5.56-4-1.82-12.9,8.33-15.07-3.64-1.31-5.32-2.54-6.11-2.11-10.23,5.52-18.44,14.21-29.37,18.78-1.14.48-1.11,3.74-1.84,6.51h-24.09l-5.42-5.65c13.1-6.68,29.35-7.59,42.39-20.79-16.61-7.44-27.35,2.16-39.42,5.92l-7.81-6.88,13.29-13.3-4-4c3.48-4.62,6.74-9.69,17.17-4.49l4.44,6.18c6.77-.19,11.81,1.39,16.71-1.21-.57-1-.85-2.58-1.66-2.93-9.84-4.34-20.8-6.62-28.43-15.73,8.27-4.24,17.27.28,23.86-2.23l-16.34-16.53c-4.85,1.77-12.65,9.54-19.43-2-4.5-8.16,1.63-15.47,4.25-24.47l-25.09,8.54c-3.8-4.43-1.77-7,1-9.79,9.35-9.41,20.25-17.73,23.61-32-11.2,2.71-11.2,2.71-26-3.49,3.29-7.22,9.16-13.5,8.07-22.31-6.94-3.06-13.09-7.07-17-13.8l3.24-3.25-11.91-10.84c-2.79,7.22,9.34,13.58,1.85,20.9-6,3.6-7.5-7.32-14.79-3.32,2.65,5.54,5.64,11.66,3.28,17.53,2.68,5.75,10.42,7.31,8.58,16.21-9.95-.22-18.32-7-28-8.36-3,4.24-4.23,7.92,2.79,8.7,4.17.46,4,3.26,3.82,6.3-5.73,6.76-10.8.64-16.08-1-2.13,1.66-2,4.76-1,5.75,3.5,3.21,9.18,3.32,12.71,9.19V944.7c6.83,7.57,8.73-3.92,16.45-1.06l3.7,7.23-4.68,4.69c-11-1-20.38-10.49-33-8.07,7.23,14.61,27.17,16.08,29.73,34.59-17.09-1.23-31.15-9-44.22-18.72-1.44,2.23-2.67,3.31-2.83,4.53-1,7.35,10.43,8.13,8.65,16,14.69,3.33,14.52,23.9,30.34,25.87-2.11,4.78-6.3,1.53-8.73,2.89-8-2.7-10.66-11-18.88-14-6.7-2.39-11.22-10.91-16.69-16.71-6.7,6.53-3.77,11.2,1.32,15.71,6.08,5.4,6.19,10.94-.12,16.62,7.09,10.23,17.24,15.08,27.44,16.53L1278.72,1043l6.12,6.74c-4,4-8.18,2.82-16.86-5,1-1,2.12-2,3-3.12.24-.29,0-1-.11-2.28h-14.5c-5-9.19-16.62-9.24-21.31-18.56-3.6,5-3.47,8.72-.68,13.66,6,10.54,4.37,24.68,15.51,32.86.25,11.27,9.61,10,16.63,12,.6,6.33-6.5.58-7.43,5.75v4.66c3.84,2.56,3.93-3.06,6.7-2.24,7.66,13.07-7,19.49-8.17,29.74-14.82-6.86-32-5.41-44.1-19.88-6.11,13,.67,20.16,6.65,27.22,1.54,1.82,6.76,1.84,7,3.26,2,11.59,15.56,14.5,18.63,25.75-7.95,9.56-14.87-3.92-22.3-1.22-9.71-8.93-23.92-11.14-32.51-21.74-4.36,3.85-9.39,7.4-4.61,17l23.53,22.06,7.4.34c5.74,4.47,7.4,11.45,10.78,17.28.07,4.56-4.87,5.19-5.75,8.11L1188,1178.17c-7.19,7.66-7.19,7.66-6,17.71l4.65-4.22a4.71,4.71,0,0,1,2,5.56c-.69,1.89-2.44,3.39-3.71,5,2.83,7.94,11,6.55,16.5,7.64,1.13,4.82-.27,7.15-3,9-.14,4,7.52,7.41,1.2,12-17.63-5.71-28.62-21.13-43.91-34.62-3.48,12.09,5.36,18.3,2.5,25.9,2.07,2-.69-.61,1.4,1.42l-1.4-1.42c-7.18,0-2.53,9.35-8.37,10.47,4.45,7.85,15.41,7,19.46,12.68s11.13,8.58,12.65,16h9.33l7.54,17.17c-18.73-3.9-30-15.89-42.7-25.08-2.1,11.59-1.17,14.07,11.33,28.34v13.42c7.27,3.16,14.85-1.11,20.81,2.74,4.55,9.67-9.9,4.41-8.2,11.62,4.9,4.27,10.87,4.38,16.86,4.43-6,0-12-.16-16.86-4.43-9.7-.28-19.77,1.93-29.7-7,7,18.75,15.31,25.82,31.76,28.87,2,.37,4-.44,6,1.36,3.05,2.75,4.82,7.42,10,7.39,4.15,0,8.3,0,12.45,1.39-12.19,6.59-26.85-2.16-39.36,8.27-5.36-11.62-18.31.71-25.24-9.35,1.39,17.57,22.19,13.38,26.74,25.49,4.89,13,21.77,12.61,26.4,26.08h22.83c1.29,3.23,3,7.47,4.12,10.36,14.41-3.8,22.3,4.74,32.25,6.25l-8.56,3.18c4.35,5.41,13.4-1,15.85,6.72,2.27-5.48,9.72-2.68,13-9.76,1.47,3.21,2.62,5.72,5,10.85-.22,3-6.94,2.52-11.21,5.15,1.53,5.23,5.85,1.62,9,2.93,6.44-4.18,11.86-9.31,13.93-17.25,4.28,2.65,7.94,5.59,7.78,11.92h17.84c3.16,2.14,3.18,4.19,3.43,6.36,2.46,20.76-7.31,40.6-4.49,61.39.46,3.43.06,7,.06,9.82,4.29,2.82,7.83,1.57,12.7,1.43,1.76-24.27-2.81-49.38,6.86-73.24,15-3.83,29.62,3,44.74,4.67l7.36,7.36c8.71-5,21-4.84,24.08-17.37a24.76,24.76,0,0,0-6.62-3.56c2.44,1.12,5,2,6.62,3.56,7.43,2,11.47-4.67,18.47-5.82l-18-9v-6.06H1485c-1.33-8-6.52-3.44-10-5.22,0-5.69-8.7-8.47-6.39-14.82,2.24-3.22,4.52-2.17,6.57-2.23,3.71,1.69.13,7.44,6.33,9,7.83-3.31,12.46-12.06,20.13-17.79,4.34-.72,9.49,1.29,16.19-2.5l-10.16-6,9.32-19c-2.1-3.36-5.41-4-6.28-3-7.91,9.55-20.68,10.46-30.34,19.61-3.71-5.26-6.61-9.38-9.52-13.49-2.39.3-1.86-.5-.37-1.79,4.73-4.08,8-9.88,16-9.2,2.61.22,5.58-3.82,8.17-5.75v-13.74c-4.54-4.29-13.61.79-16.25-7.56l15.93-18.12c-1.15-3.51-4.6-2-7.62-3.53,0-5,6.57-6,7.67-11.28-6.21-.48-11.83-2.46-18,1.94-12.64,9-25.72,7.86-38.32-.4,7.67-11.41,25.31-9.19,32.72-23.89l8.88-.58c2-10.77,9.94-13.94,19.31-13.64V1233c-4.64-4.72-7.58-1.11-10.62,2.1-3-3.27-6.62-5-11.51-3.67-1.72,2.47-4.41,4.57-6.68,5C1472.14,1235.58,1475.36,1234.2,1476.83,1231.39Z"/><path class="cls-3" d="M1534.69,1349.45v-17.1c-5.11-8.5-7.72-18-16.14-23,.65-2.3,3.66-2.79,3.13-5.35,0-3.3-3.24-4.1-4.61-6.3-2.33.75-3.24,4.67-9.48.78-1.16-.92,5.5-1.37,3.43-5.47-15.25-8-10.16-25.86-14.22-40.73,2.33-2,7.6,1.46,10.53-3.62,2-3.38.13-6,3.13-10.89-6.12,3.42-9.56,5.59-14.67,3.45,3.43-3,2.19-8,6.41-10.42-4.17-4.4-5.91-.2-8.28,1.46l-4.21-4.21c-3.06-5.64,3.07-8.86,2.8-13.5l-6.62-6.49c2.81-3.62,7.75-6,7.16-11.82,3.93,1.78,1,6.3,4.9,6.78,5.86-3.92,5.86-3.92,7.44-10-1.58-5.89-10.17-7.62-9.82-15.22,6,.59,9.56,6.16,15.71,5.57-.24-4.59-5.13-5.31-5.74-8.08-.61-3.25,1.12-4.6,2.74-5.93-.69-2.17,1.48-.21-.36-1.31-2.61-1.55-6.83.1-7-3.74-4.85-1.45-6.53,5.33-11,2.13-1.29-2.53,2.47-2.67,2.48-4.61,0-2.71,0-5.42,0-9.67l-5.53-2.42c-1.28-7-1.84-10.7,2.13-13.24-3.38-4.64-9.44.86-12.86-3.4,2.29-3.84,7.58.65,10.4-4.78-5.86-3-9.26-9.53-16.57-10.67.46-4.24,5.09-.83,5.76-4.25-1.36-2.91-5.81-4.06-6.24-8.84,4.17-4.35,10-5.49,16.25-6.6-5.09-4-1.87-9.85-4-15l-7.48-.61c-3.75-3.65-.21-5.58,1.83-7.82-1.15-2.35-3.81-1.13-6.36-3,1.71-4.86-3.27-8.65-3.63-14.76,2-3.85,4.36-8.29,6.8-12.91-1-3.68-5.82-7.21-3-11.26,2.31-3.34,3.58-6.31,3-10.18,2.07-3.59,8.11.28,8.14-4.91,6.1-.24,6.73,6.37,12.3,6.5,6.5-.82-2.23-10.53,5.59-10.4-1.08-3.39-3.65-2.22-5.56-3.2-1.94-2.71,2.25-2.71,2.22-4.46,1-3.3-1.78-4.73-3.32-6.78,2-4.74,2.91-9.88,6.27-12.4,1.31-4.44-2.94-5.18-2.9-8.33-.4-2.35,2-3.22,3.48-5.17-6-3.15-12.69,0-20.2-2.46,3.86-3.88,7.32-7.33,10.11-10.13.67-5.31-2.37-5-5.67-5.3V934.26l12.24-6.14c.62-3.66-.8-5.6-4.27-4.86-2.69.58-4.1,5.85-8.14,2.07l6.06-11.7c-.29-4.21-4.76-5.38-7.19-9.67,6.4-3.16.39-16.42,16.52-16.32l-10.45,7.05c1.92,1.33,3.17,2.56,3.48,2.35,6.23-4.07,12.36-4.93,18.8,2-.3-6.47,6.77-8.45,4.42-13.8-.69-.42-1.3-.94-1.42-.84-.84.68-1.57,1.48-2.74,2.65-6.37-3.79-9.21-10.11-12.16-17.75l5.84-4.56,2.14,6h10.73c-1.49,1.48,2.6.26,1.31-1.3-2-2.45-8.31-.61-6.75-6.62.07-.26-.7-.75-1.09-1.13l-7.84-.88c-.25-3.73,2.48-2.3,4.22-2.84,2.91-1.65,1.2-4.65,1.83-8l10.48-8.67-8-8.47c2.85-5.86,8.82-10,10.41-16.66,0-4.43-5-5.2-6.19-8.89.84-1.33,2.49-1,4.06-1.27,5.1-.76,8.82,7,15.77,1.27l-8-3.12c2.77-6.53,9.4-8.1,6.56-14.69l-4,3.39c-3-1.71-1.18-4.68-1.71-7,3.3-6.46,9.92-8.95,16-12.46-1.16-4.2-5.07-7.34-.49-14.22.21-.26,4.12,2.69,6.65.83-.08-6.5-7.74-4.3-9.39-9.19,2-5,7.14-7.53,10.18-12v-9.4c2.32-2.71,5.25-.82,8.09-1.54l3-6.37h4.61c-.1,8.14,2.66,16.36-2.36,24.6,3.2,3.64,8.87-.54,13.14,3.07-7.36,1.14-9.77,8.88-16.46,10.8h16.93c4.09,3.87,1.68,6.15-1,8.63,3.16,3.72,10.22-.8,11.8,5.35l1.09,1.32c-6.7,3.73.6,13.25-6.08,16.27-4.52,2.75-9.07.76-13.31,1.83,2.15,4.2,4.25,6.88,8.65,6.22,4-.59,7.44.2,9.91,4.08-3.12,4.12-1.11,10.22-5.19,14.19,1.76,2.27,4.12.81,6.13,1.24,2.15,3-.61,4.85-1.78,7.05,1.17-2.2,3.93-4,1.78-7.05-.16-3.32,3.3-4,5.54-8.19.48,6.59,1.9,11.21,4.24,14.58-.13,5.32-5,1.82-6.35,5.16.06.92.15,2.39.22,3.52,3.92,3.58,5.57-1,8.51-1.7,3.65,7.47-5.71,13.61-1.33,21.73,3.41,2.94,7.3-.44,13.21-2.6-5.26,9.88-6.87,18.69-.79,26.64-2.85,4.15-5.79,6.88-10.23,8l5.94,2.07c1.27,5.13.52,9.66-2.52,14.54-4.77,7.67-5.29,17.13-9.49,25.31-1.92,3.74-.33,9.29.55,14.44,3.12-8.38,5.39-17.17,16.84-16.12,7,7.57-4.44,14.49-1,21.85,2.61,1.54,2.71-2.53,5.07-1.68,3.08,5.47-2.85,6.85-4.92,10,3.41,4.82,3.4,9.66,0,14.5,3.55,3.14,5.22-1.37,7.89-1.93L1627,975c-9.64-2.18-13.19,6.58-22.74,8,8,3.38,14.36,1.09,20.23,2.28,2.66,2.15.55,5.13,1.48,7.15-1.13,3.7-5.32,1.16-6.59,4,.5,2.52-1.12,5.35,1.16,7.75,5.62,2,6.67-4,10.1-5.91,2.37,1.2,2.28,3.73,1.61,5.39-2.59,6.35-4.6,12.64-2.44,19.52l5.76,2.07c-6.57,7-9.43,16.2-17.36,20.68,4.38,7.64,6.88,2.35,9.63,1.36a3.13,3.13,0,0,1,1.15,4.26c-4.6,5.17-5.84,11.69-7.5,18h-6.59c-3.22,1.83-1.91,4.78-2,7.25-.11,2.73.23,5.49-3.08,6.76,4,7.64,10,5.61,16.83,5.1l-4-4.43,4.6-4.6c4,1.88.16,5.94,2.28,8.34l5.75,5.75c-4.61,4.6-1.44,12.1-10.26,17.7-6.86,1.32-8.67,10.61-11.4,19.22l2.4,2.4c-7.58,8.83-19.41,12.87-25.65,23.24,2.8,3.24,7-.33,10,1.7l8.13-7c4.85.12,5.15,4.23,9.71,5.44l-11.93,12.71c-.56,4.72,3.83,6.08,5.92,9-2.58,4.84-4.07,10.44-9.35,13.4,3.69,4,9,6.92,6,13.94l-5.34,2a15.11,15.11,0,0,1,2.11,14.14c-1.42,2.16-4.58-.26-5.48,2.7,3.85,6.88,9.3,5.68,15,2.28,1.41,2.19,1.31,5.35-.64,5.45-5.9.31-7.41,5.75-11.31,8.25l3.1,3.9c1,1.47-4.34,1.79-3.47,4.75.52,1.76,1.06,4.31-1.12,5.92l-4.39,1c-1.91,3.61.86,8.58-3.87,11,1.87,1.66,3.54,3.06,3,5.59-8.54,4-9.88,12.8-12.9,20.33-2.25,5.63-3.06,12-9.85,14.46-4,.7-5.22,2.82-3.25,6.51.93,7.13-7.76,11.62-6.12,17.92,1.55,6,3.1,11.71,2.86,17.88Z"/><path class="cls-3" d="M720.88,1495v-17.09c5.1-8.5,7.72-18,16.14-23-.66-2.29-3.67-2.78-3.13-5.34,0-3.3,3.23-4.11,4.6-6.31,2.33.75,3.24,4.67,9.48.79,1.17-.92-5.5-1.37-3.42-5.47,15.24-8,10.16-25.87,14.21-40.73-2.32-2.06-7.6,1.45-10.53-3.62-2-3.39-.12-6-3.13-10.9,6.12,3.43,9.56,5.6,14.67,3.45-3.42-3-2.18-8-6.41-10.42,4.17-4.39,5.92-.19,8.29,1.46l4.21-4.21c3.06-5.63-3.07-8.85-2.81-13.49l6.62-6.5c-2.81-3.62-7.75-6-7.15-11.81-3.94,1.77-.95,6.3-4.9,6.78-5.87-3.93-5.87-3.93-7.45-10,1.58-5.9,10.18-7.62,9.83-15.22-6,.59-9.57,6.16-15.71,5.57.23-4.59,5.12-5.31,5.73-8.09.61-3.24-1.12-4.59-2.74-5.93.7-2.16-1.47-.2.37-1.3,2.6-1.56,6.82.09,7-3.75,4.85-1.44,6.53,5.34,11,2.13,1.3-2.52-2.47-2.67-2.48-4.61,0-2.7,0-5.41,0-9.67l5.52-2.41c1.29-7,1.85-10.7-2.12-13.24,3.38-4.64,9.43.85,12.86-3.41-2.29-3.83-7.58.66-10.41-4.77,5.86-3,9.26-9.53,16.58-10.68-.46-4.23-5.09-.82-5.76-4.24,1.35-2.92,5.8-4.06,6.23-8.84-4.16-4.36-10-5.49-16.24-6.61,5.09-4,1.86-9.84,4-15l7.49-.61c3.75-3.65.21-5.58-1.84-7.82,1.16-2.35,3.82-1.14,6.37-3-1.71-4.85,3.27-8.64,3.63-14.76l-6.81-12.9c1-3.68,5.82-7.21,3-11.26-2.3-3.35-3.57-6.31-3-10.19-2.08-3.58-8.11.29-8.15-4.9-6.1-.24-6.73,6.37-12.3,6.5-6.5-.82,2.24-10.54-5.59-10.41,1.08-3.38,3.65-2.21,5.56-3.2,2-2.7-2.25-2.7-2.22-4.46-1-3.29,1.78-4.72,3.32-6.77-2-4.74-2.9-9.88-6.27-12.4-1.3-4.44,2.94-5.19,2.91-8.33.39-2.35-2-3.22-3.48-5.18,6-3.14,12.68,0,20.2-2.46l-10.11-10.12c-.68-5.31,2.37-5,5.66-5.3v-21.19L760,1073.71c-.61-3.67.8-5.6,4.28-4.86,2.68.57,4.09,5.85,8.13,2.07l-6.05-11.71c.28-4.2,4.75-5.38,7.19-9.66-6.41-3.16-.4-16.43-16.53-16.32l10.46,7c-1.93,1.33-3.17,2.55-3.48,2.35-6.24-4.08-12.36-4.94-18.8,2,.3-6.46-6.78-8.45-4.43-13.79.7-.42,1.31-.94,1.42-.85.84.68,1.57,1.49,2.74,2.66,6.37-3.79,9.21-10.11,12.17-17.75l-5.84-4.56c-.67,1.88-1.34,3.76-2.15,6H738.42c1.48,1.49-2.61.27-1.31-1.29,2-2.45,8.3-.61,6.74-6.62-.07-.26.71-.75,1.09-1.13l7.84-.88c.25-3.73-2.47-2.3-4.22-2.85-2.9-1.64-1.19-4.65-1.83-8l-10.47-8.66c3.15-3.33,5.34-5.63,8-8.48-2.86-5.86-8.82-10-10.41-16.65,0-4.44,5-5.21,6.19-8.9-.85-1.32-2.5-1-4.07-1.26-5.1-.76-8.82,7-15.76,1.26l8-3.11c-2.76-6.53-9.4-8.11-6.55-14.7l4,3.39c3-1.7,1.18-4.68,1.7-7-3.29-6.47-9.92-8.95-16-12.46,1.16-4.21,5.06-7.34.49-14.22-.22-.26-4.12,2.69-6.65.83.07-6.51,7.73-4.31,9.39-9.2-2-5-7.15-7.52-10.18-12V875c-2.33-2.71-5.25-.82-8.09-1.55l-3-6.37h-4.61c.1,8.14-2.66,16.36,2.36,24.61-3.2,3.64-8.87-.54-13.14,3.06,7.36,1.14,9.76,8.88,16.45,10.8H677.49c-4.09,3.87-1.69,6.15,1,8.64-3.16,3.71-10.21-.81-11.8,5.34-.46.56-.77.95-1.09,1.33,6.7,3.73-.6,13.25,6.08,16.27,4.53,2.75,9.07.75,13.31,1.82-2.15,4.21-4.25,6.88-8.64,6.23-3.95-.59-7.44.2-9.92,4.08,3.12,4.12,1.12,10.22,5.19,14.19-1.76,2.27-4.12.81-6.13,1.24-2.14,3,.61,4.84,1.78,7.05-1.17-2.21-3.92-4-1.78-7.05.16-3.32-3.29-4-5.54-8.2-.47,6.6-1.9,11.22-4.23,14.59.13,5.32,5,1.81,6.35,5.15-.06.93-.15,2.39-.23,3.53-3.91,3.57-5.56-1-8.51-1.7-3.65,7.47,5.71,13.61,1.34,21.73-3.42,2.94-7.3-.44-13.22-2.61,5.26,9.89,6.88,18.69.8,26.65,2.85,4.15,5.78,6.88,10.23,8l-5.95,2.07c-1.27,5.14-.52,9.66,2.52,14.55,4.77,7.67,5.3,17.13,9.49,25.3,1.93,3.75.33,9.3-.55,14.45-3.11-8.38-5.39-17.17-16.83-16.12-7,7.56,4.43,14.49,1,21.85-2.61,1.54-2.71-2.54-5.07-1.68-3.08,5.47,2.85,6.85,4.91,10-3.4,4.81-3.39,9.66,0,14.5-3.55,3.13-5.22-1.37-7.89-1.93l-5.51,5.77c9.63-2.18,13.19,6.58,22.74,8-8.05,3.38-14.37,1.09-20.23,2.27-2.66,2.15-.56,5.13-1.49,7.15,1.13,3.71,5.32,1.17,6.6,4-.5,2.53,1.12,5.36-1.16,7.76-5.63,2-6.68-4-10.1-5.91-2.38,1.19-2.29,3.73-1.61,5.39,2.58,6.34,4.6,12.63,2.44,19.52l-5.76,2.07c6.56,7,9.42,16.19,17.36,20.67-4.38,7.65-6.88,2.35-9.64,1.36a3.15,3.15,0,0,0-1.15,4.26c4.61,5.17,5.84,11.69,7.5,18h6.6c3.21,1.83,1.9,4.79,2,7.26.12,2.73-.22,5.49,3.08,6.76-4,7.64-10,5.61-16.82,5.09l4-4.43-4.6-4.59c-4.05,1.88-.16,5.94-2.29,8.34l-5.74,5.74c4.6,4.6,1.43,12.11,10.26,17.71,6.86,1.31,8.67,10.61,11.4,19.21l-2.41,2.41c7.59,8.83,19.42,12.87,25.66,23.24-2.8,3.24-7-.33-10,1.69l-8.14-7c-4.84.11-5.14,4.22-9.71,5.43l11.93,12.72c.57,4.72-3.83,6.08-5.92,9,2.59,4.84,4.07,10.43,9.35,13.39-3.69,4-9,6.93-6,13.94l5.33,2a15.12,15.12,0,0,0-2.1,14.15c1.41,2.15,4.58-.26,5.48,2.7-3.85,6.87-9.3,5.68-15,2.28-1.41,2.19-1.32,5.34.64,5.45,5.89.3,7.41,5.74,11.3,8.25l-3.09,3.9c-1,1.47,4.33,1.79,3.46,4.75-.52,1.76-1.06,4.31,1.13,5.92l4.39,1c1.9,3.6-.87,8.57,3.86,11-1.86,1.66-3.54,3.05-3,5.59,8.54,4,9.88,12.79,12.89,20.33,2.25,5.63,3.07,12,9.85,14.46,4,.7,5.22,2.82,3.26,6.51-.93,7.13,7.75,11.62,6.12,17.92-1.55,6-3.11,11.7-2.86,17.87Z"/></g></g></svg>