<svg xmlns="http://www.w3.org/2000/svg" xmlns:xlink="http://www.w3.org/1999/xlink" viewBox="0 0 1920 1080"><defs><style>.cls-1{fill:none;}.cls-2{clip-path:url(#clip-path);}.cls-3{fill:#28666e;}.cls-4{clip-path:url(#clip-path-2);}.cls-5{fill:#033f63;}</style><clipPath id="clip-path"><rect class="cls-1" width="1920" height="1080"/></clipPath><clipPath id="clip-path-2"><rect class="cls-1" x="-1940" width="1920" height="1080"/></clipPath></defs><g id="BG_2" data-name="BG 2"><g class="cls-2"><polygon class="cls-3" points="1920 1080 0 1080 0 850 89 815 158 838 233 858 291 846 313 833 352 854 371 837 397 827 425 849 454 852 496 873 546 865 576 852 589 843 620 846 666 854 690 844 704 818 726 797 738.25 772.41 746 766 762.98 773 792 794 842 810 859 826 880 834 897 853 923 857 943 864 976 873 1003 888 1039 883 1058 873 1077.92 863.6 1094 869 1104 880 1123 887 1135 881 1165 898 1179 914 1196 923 1207 912 1213 904 1223 897 1234 901 1243 902 1248 911 1255 917 1267 911 1279 909 1295 910 1330 923 1352 937 1384 937 1400 926 1427 919 1451 924 1478 939 1502.53 934.49 1540.82 940.26 1573 949 1622 947 1666 935 1716 937 1758 928 1789 906 1827 896 1849 879 1861 859 1880 855 1897 859 1911 850 1920 850 1920 1080"/><path class="cls-3" d="M621,678.53h-6.62c-.65,1.63,1.12,1.66,1.38,2.66,2.49,1.55,5.5-.47,8.17,1.22l-1.38,1.73c.65,2.43,3.43,2.05,4.82,3.5l-2,2.17c4.65,1.25,7.51-5.14,12.68-2L632,692.31c1.91,1.81,3.27,1.51,4,.14,1.34-2.41,4.46-1.74,5.61-3.83,3.16,1.32,2.24,4.34,3.15,6.38,3.37,1.26,3.65-3.19,6.23-3.13,1.44-.24,1.72,1.3,3.19,1.84l6.44-3.23,1.8,1.8c.09.2.31.51.25.59-6.81,8-16.17,9.87-25.93,11.18-1.6-3.07-4.7-3.6-7.08-5.18-1.76,1.07-2.06,3.07-3,4.67-3,.9-3.34-2.48-6-3.17-2.94,2.72-7.23,1.22-11.59,1.8,0,1.88,1.64,3.21,2.72,3.07,4.18-.53,4.91,2.57,6.16,5.07,3.32,1.08,5-1.36,6.83-3.27,2.22,2.13.14,3.07-.76,4.25a8.28,8.28,0,0,1,1.59,1.9c.3.7-.2,1.7,1.12,2.27h2.93c2.42,1.48-.76,5.6,3.09,6.56h5.84l2.86-2.87a7.39,7.39,0,0,0,5.57,1.34l2.78-3.53c2.1,1.42.52,3.46,1.57,4.84,2.86-1.58,7-.53,8.46-4.43l4.77,2.27c-5.1,5.43-11.71,7.59-18.32,10-7.22,2.62-13.86.69-20.49-2.19-.55,3.38,2.25,4.09,3.55,6.65-3.19,0-6,.44-8.64-.13s-4.71-2.16-7-3.25c-1.77.09-1.62,1.28-1.61,2.4-1.12,2.18-3.87-.15-5.07,1.82s-4-.37-5.22,2.14c.91,4.51,7.38,3.94,8.36,7.95s5.92,5.06,5.91,10.23a10,10,0,0,1,8.85-2.48c1.35.62-.08,2.88,2,3.3,2.35-.2,3.64-2.87,6.27-2.87,1.38-.06.67,1.3,1.19,2.49h11l3.13-3a1.76,1.76,0,0,1,.77,2.23c-1.55,3.45-3.85,6.38-7.5,7.64-1.34.46-2.56.77-3.4,1.88H623.13c-1.21-2.06-4-1.63-5.52-3.58l-5.47,2.73,3.18,3.18c-2.26,2.14-3.84.51-6-.46-1.85-.84-4.39-.17-6.52-.17-2.54,2.89-6.36,2.63-9.56,4.37,2,6.48,11.37,5.34,12.75,12.52a42.6,42.6,0,0,1,5.76,0c2,.28,3.33-1,5.05-1.43.52,1.51.88,2.7-1.24,3.1s-3.48,1.57-3.46,3.91c7.77,2.8,7.77,2.8,15.75,1.12,1.88.88,1.21,3.28,2.23,4.08-4,5.51-10.48,1.3-15.83,4.08-5.08,2.63-11-2.52-16.61-1.31-1.33,1.29.39,1.34.43,1.84.9,1.42-1.26,1.46-.87,2.62,1.85,1.21,4.23.07,6.32.66-.62,2.51-3.71,3-3.23,5.74,1.77,2.11,2.11-2,4-.92,1.22.73,3.24-.44,4.49.85-.08.85.07,1.57-.22,1.9-1.3,1.46-2.73,2.8-3.66,3.73-8.81,2-16.27-2.73-25.59-3.35l4,4.78c.63,1.88-1.5,2.3-1.66,3.94-.1,1.8,1.93,2.33,2.78,3.68,1.11,1.76,2.82,1.42,4.47,1.48,2.16.07.27,3.45,2.68,3.36,1.7-.07,3.38-.11,4.35,1.55l6.08-3.53c1.3-.54,1.76,2.32,3.68,2a23.73,23.73,0,0,1,4.58.18c.41,2.29-.53,2.52-2,3.29-5,2.7-10.51,3.26-15.75,4.8-3.69,1.08-7.5-.29-11.1-2l-4.76,4.28c-3-4.31-8.15-.38-12.2-4.46,1,6.68,7,6.92,9.38,10.56l5.74.3c.26,2.69-2.43.58-2.74,2.1.7,3.77,4.48,2,6.62,3.63L580,851.44c3.17,2.87,5.48-1.55,8.34-.8l8.46,2.22c.44,2.83-1.2,4.13-3.52,4.49-5.37.83-10.65,2.53-16.2,1.75a23.58,23.58,0,0,0-3.14,0c-.47,1.28-.83,2.25-1.29,3.48H553.44c1.95,1.64,3.56,3.54,7.32,3.45-3.64,1.77-2.06,4.42-3.1,6.19l-3.56,1.23c7.5,2.35,14.57,4.22,21.18,7.66l2.46-1.52c1.21,1.18.32,2.67.62,4,3.25,1.45,6.34,4.73,9.66.93,1.79-.3,2.16,1.09,3,1.59a2.5,2.5,0,0,0,2.87-1.21c4.35,2,8.69,1.54,13.16.45,5.4-1.33,10.7-3.72,16.43-2.26,1.49,2.7-.82,4-2.2,4.63a158.28,158.28,0,0,1-25.14,8.7c-3.45.84-7.28,2.8-10.14,1.21-3.1-1.72-5.82-.9-8.63-1.35-1.31,1.62.8,1.68.91,3.16h-19.8c-.32,2.89,2.17,1.16,2.57,2.39-2.42,3.28-6.24,2.82-9.73,3.55,5.39,1.7,10.86.55,16.23,1.23-1.86,3.91-7.47,2-10,7,9.26-3.14,17.29-.79,25,1.3,1.76,1.48-.19,3.62,1.35,4.75,1.78.86,2.64-.35,3.85-1.63,2.61.74,5.09,3.23,7.69,1.63,2.06.93.74,3.11,2.5,3.64,3.57-.36,6-4.65,10.24-3.06l1.14,3.18,3.61-3.46,2.09,1.91,6.72-3.4c.71,1.44.73,2.16-.93,3.22-9.57,6-19.89,10.33-30.46,14.21-4.19,1.53-8.24.19-12.11,1-7.19-4-9.08-4.7-13.15-4.7.32,1.73,2,2.35,3,3.78-.34.25-.7.77-1.07.78-1.66,0-4,.59-4.88-.27-2.81-2.57-5.82-.64-8.91-.52l13,4.59c-1.93,5.3-7.05,1.45-9.93,3.8,1.75,2,4.27.08,6.23,1.21,1,1.07-.52,1.16-.75,1.76-1,2.49-4.1.28-5.87,2.69h9.35c1.81,1.61-.08,1.91-.39,2.73.23,1.86,3.6-.09,3.23,2.58.37,2.72-2.89.91-3.33,2.75,2.47,1.63,5.44-.13,8,1.09.74,1.14-.92,1-.56,2.7,1.21.85,3.34,0,5.45.32.3.89.64,1.87,1,2.87,1.27,1.31,3.37-.51,4.59,1.2-3.48,4.94-9.45,5.21-14.21,5.61-5.46.46-10.32,3.78-16,2.4,2.41,2.14,5.19.83,9,1.94l2.75,2.74,7.69-3.82c1,3.06-2.75,2.72-2.22,4.86.78,1.87,4.08,2.49,2.9,5.8,3.64.09,5.27-2.49,7.86-3.09.92,1.27,1.06,3.38,3.22,4.68,2.87-2.75,5.54-6.28,10.17-6.62,1.58,1.83-2.29,2.19-1,4.14.67,1-.45,2.74.45,3.81,2.19,1.56,2.9-1.06,4.59-1.3,1.53-.51,1.8,2,4,1.67,1.48-2.32,4.36-1.52,7-1.62.16-3.39,3.75-3.18,5.55-5.29,2.61,1.36,5.38,3.38,8.27.46,1.14,1.69.36,2.73-.83,3.6.61,1.41,1.19,2.76,1.78,4.11,2.86-1.62,6.72-2.3,8.92-.7,2.7,2,6.09-4.51,7,2.21,3.27-3.64,6.73-2.46,9.74-2.92,4.55-.95,5.93-5.08,8.43-8.22l1.85,1.62c1.16-1.6,1.33-4,3.55-4.85l2.4,2.4c.18,5.53-2.37,11.18-3.23,17.4h25.66c-4-7.89-3.88-16.22-5.85-23.79,2.29-2.78,5.13-3.61,7.62-4.89,2.2,2.07.34,4.59,1.47,6.56,1.09.93,1.14-.64,2.41-.86.58,2.65,2.83,4.33,4.73,6.29,1.35-.46.75-1.79,1.37-3,4.34,1.07,4,6.68,6.92,7.88,2.57.86,2.82-1.63,5-1.33,1.21,3.14,4.86,4.11,7.31,6.52l1.26-1.25c2.08.45,2.6,3.57,5.28,3.1,2.3-1.77-.35-4.91,1.69-6.82,3.92-.05,4.47,5,8.13,5.15,2.68-.86,0-3.76,2.42-5.24l3.53,4.6c4.51,1.64,5.93-.78,8.13-3l3,4.51c.64-3.24,2.12-4.44,4.27-5-.36-1.21-2.17-1.78-1.51-3.41.47-.83,1.21-.92,2.07-1,2.69-.34,4.65,3.29,7.68,1.3.17-2.39-4.32-2.75-2.35-6.39,3,.19,6.09,3.34,9.79.86-4.89-2.68-10.25-2.94-16.17-5l4.29-1.54c2.45-1.43,4.84.93,7.67,2.09.36-1,.73-1.94,1.07-2.85,2.75-1.16,4.2,3.09,6.71,1.54,1.49-.64,1.09-1.92,1.56-3.36L784,972l1.13-3,3.93-.43c.48-2.3-2.49-2.39-2.56-4.42,3.89-2,7.52,3.54,11.6.42l-9.66-4.76a13,13,0,0,1,6.85-3.67c-3.72-1.54-7-.39-10-1-.95-.57-.75-1.46-.79-2.68-2.32-1.58-6,.67-8.17-2.2-.35-.45-2.1,0-3.13.28-7,1.93-13,1.84-19-.36-2.73-1-3-1.49-3-6.46,1.77.28,2.36,2,3.75,3,3.19-2.31-2.46-3.9-.56-6,.4-.77.65-.65,1.22-.1,2.93,2.85,5.37,6.31,9.85,7.53,1.58-1.43-.13-3.85.78-5.76.39-.78.8-.8,1.19,0,1.23,2.42,4.25,2.32,5.91,4.17,3.31-.88,2.87-3.92,2.92-6.12,3.27-1.07,5.19,3.56,8.14.72,1-2.89-2.12-3.45-3.12-5.23a2,2,0,0,1,2-.87,12.34,12.34,0,0,1,5.41,1.27c2.45,1.26,5.85,1.22,7.76-3.12-4.45.89-8-1.2-11.88-2.27l3.3-3.54c-.47-.27-.93-.75-1.39-.75-6.75,0-13.51,0-20.27,0a29.63,29.63,0,0,1-5.89-.09c-1.46-.31-2.72-1.5-4.6-2.6,4.81-1.45,8.7-5.58,14.75-2.78-.06-2.84,3.24-2.71,4.72-4.6,1.09.68,1.69,2.44,3.54,1.45.75-.4.79-1.22.73-2.3l-8-4h11.82c1.54-1.24,1.2-2.09,1.1-3.6-4.94,1.34-9.16-2.45-14.64-1.57-.72-3.36-1.22-6.42,2.36-8.6,2.72-.38,3.14,2.91,5.31,3.39,5.84-.93,7.76-5.91,10.5-10.06.35-2.74-2.87-1-3.37-2.62v-2.36c4.07.59,7.5-1.86,11.62-2.35,0-.74.06-1.5.1-2.23-2.77-2.21-4.13,2.35-6.84,1.14-1.91-.85-4.39.59-6.59-.78l3.36-3.61c-1.8-1.29-3.48-1.41-5.21.2s-3.74.41-5.57.71c-1.29-.55-.9-1.84-1.19-2.73-4-2.46-7.24,1.68-11,1-5,3.59-9.59-.11-14.25-1a27.11,27.11,0,0,1-10.82-4.44c-1.59-.6-.56-3-2.53-3.7.34-.88,1-.93,1.88-1,3-.23,4.94,2.52,7.71,3,2.06-2.33-2.73-3.49-.88-5.91,1.34-.86,1.34,1.29,3.3,1.15l4.78-2.35-1.78-2c3-2.19,4.67,2,7.66,1.27,2.59-.67,4.27-3.88,7.52-2.65-.49-.58-1-1.16-1.73-2,3-.77,6-1.3,8.51-3.26-1.87-1.68-4.36,0-7.27-1.45l13.49-5.4c-3.67-.66-5.79-1-8.59.61-2.1,1.24-5.52.84-8.2.33-2.86-.54-4.86,2.11-7.87,1.71.57-1.19,1-2,1.34-2.76-14.88,2.27-28.07,0-37.31-6.65,3.54-.53,6.51-1.36,7.82-3.78,2.3-.68,2.77,1.33,4.46,1.56,1.95.53,2-3.87,5.5-.73-1.13-2.35-1.51-3.12-1.88-3.89,3.69-2.2,3.93,3.59,7.32,2.7,2.42-1.42-.47-4.63,1.53-6.44,2.31,1.07,3.3,5,7.93,2.21l2-2c1.36-.18,1.78,2,3.39,1.33,2.05-.2.46-2.58,1.85-3.19,1.7-.76,2.55.47,3.68,1.67,3.81-.63,6.43-4.73,11.13-3.47-1.19-2.5-3.51-3.09-3.74-5.94,1.51-1.86,6.07.22,6.56-3.86-5.37-.43-10.43-2.39-16-2.25-5.08.12-10.13.57-15.46-1.17-5.06-1.65-11.08-.35-16.45-.35l-2.25-2.36c1.49-4.16,5.36-2,7.8-3a2.48,2.48,0,0,0-.34-3c-7,.76-13.29-3.09-20-5.21a3.91,3.91,0,0,1-2.86-4.2c3.82-2.29,6.77-.58,9.43,2.87.51-1.4.87-2.37,1.58-4.28l2.49,4.27c1.9-.92,2.43-2.83,4.59-1.51.16.48.5,1.46.92,2.69h8.65l2.37-2.37.87,2.38c2.57.87,3-.62,3.07-3.07,2.56.21,5.27-1.16,7.43,1.6,1.76-1.68,3.21-3.78,5.88-4.17-.8-1.05-2.43-1.71-1.09-4.11,2-1.1,6.38,1.58,7.58-3.34-4-.37-8.11-.06-10.61-4.75-.82-1.55-4.36-2.52-7.33-2.28-7.11.56-13.47-2.4-19.82-5.08-1-.41-1.61-1.54-2.41-2.34-1.4-2.31,2.81-2.9,1.59-5.17-1.18-1.73-3.22-.14-4.25-.93s-.77-1.75-.7-2.6c1.7-1.45,3.75-.34,5.65-.71,2.72,2.19,4.55,5.54,9.17,6.11,2.75-1.14,5.13-4,7.87-7.46h6.71a7.74,7.74,0,0,1,6.09-6.17c-2.57-1.87-5.49-.2-8-1.18-.37-1-.75-1.94-1.14-3-1.55,1.59-4.15,1.24-5.33,3.26-4.61-.12-9.61,1-13-3.66,2.11-2.62,5.14-.39,7.18-2.05l-1.73-1.95c2.09-2.15,3.34.22,4.19,1,3.7-.44,3.82-3.36,5.24-5.21h3.26c1.43-1.15.5-2.67.81-4.05,1.75-1,3.89-1.54,5.26-4.16H741.21c-.56-1.57-.9-2.55-1.35-3.82l-9.25,3.46c-5.66-2.12-12.57-1.8-18.79-5.75,3.41-1.85,6.92-3.25,9.67-6s3.86-7.1,8.39-8l1.16,1c4.93-1.78,8.58-6,14.14-4.57.33-2-1.92-2.39-.91-4.66a23.5,23.5,0,0,0,8.78-3.44c-4-.51-7.2-1.28-10.31.86l-1.88-1.88c.36-.74.74-1.52,1.33-2.76-4,.32-6.66,2.23-9.07,4.89-1.5-1.5-1.32-3.81-3.86-5.23,2.15-1.42,3.54-2.35,6.4-4.26-5.74-.36-9.51-1.79-13,1l-2.25-2.38a2.35,2.35,0,0,1,1.31-3c5.78-1.9,10.25-6,15.33-9l-1.21-1.21c-.11-2.3,2.61-.08,2.77-2.63l-2.08-1.94c-2.65.08-4,2.93-7.3,1.34l-2.44-4.14c-3.12,2.91-6,3.14-9.16,2.75-1.32-.6.06-2.83-2.27-3.4l-10.23,5.27c-7.35-5.49-16.71-8.48-22-16.58-.14-1.87.87-2.1,2.38-2.09,1.83,4.45,5.36,6.21,10.24,7,3.64.57,7.81,1.2,10.53,5.37.32-1.54.48-2.31.68-3.3,2-.11,4,2.65,6.27.56-.82-3.56-6.9-2.32-6.4-7.7,2.63.24,3.45,3.91,6.63,3.42,1.88-.29,4.12,1.81,6.2,2.84l2.33-4.63c-.21-2.23-2.58-2.76-3.2-4.55a1.65,1.65,0,0,1,2.2-.6c1.72,1.81,3.22,3.83,4.36,5.23,2.51-.44,4,.38,5.07-1.07.44-2.66-2.48-3.3-3.27-5.58,5-1,10.55,1.14,14.81-2.82-2.87-3.48-7.14-2.32-10.68-2.61-1.86-1.45.17-3.61-1.95-5.18-5.89,3-11.29,8-18.54,8.66-.65-2.62,2.44-2.64,2.51-5.18-4.92.36-8.21,4.87-12.87,5.06-5,.22-10.06,0-15.3,0v-8.13c2.71-.94,2.74.65,3.33,2.33.51,1.45,3.4.23,3.7,2.59,2-1.35.39-3.4,1.44-4.75,2.39-2.34,3.5,2.71,5.88.91,2.9-2.41-2.81-3.41-.73-6.16l6.13,3.05c.74-1,1.76-2.3,2.25-2.94,3.3-1.56,4.72,1.17,7.06,1.32l2.33-2.14c.4-.42,0-.66-.35-1.25-1.8-3.2-5.31-.66-7.39-2.15-2-3.71,3.62-2,3.36-5.36-.19-2.34,3.48-2.8,7.22-3-2.31-1.68-2.81-4-5.74-2.92,1-3.56,5.14-4.21,5-8.44-5.67.77-9.93,4.24-14.9,6.65-2.21,0-3.61-3.59-7.88-.23,2-4.63,5.58-5.63,5.88-8.72-2.25-4.1-4,2.29-6.46,0a11.15,11.15,0,0,1-.06-5.74c2.56-2,3.73,2.76,6.16.68,1.42-2.89-1.81-3.46-2.86-5.32,2.11-3.4,4.28-6.89,6.43-10.37-3.41-2.86-5.91,2.51-9.41.83l-.95-2.75c-.4-.55-.7-.38-1.22.23-.89,1-2,1.77-1.83,3.49.46,3.85-1.79,6.59-4.57,9.92V592.88A79.13,79.13,0,0,0,694.77,581c-1.38-1.25-2.43-.63-3.51.51-1.75,1.83-3.57,3.59-5.8,5.82-1.2-3.36-.49-6.56-.62-9.65s0-6,0-10.2c-2.4,3.88-3.82,6.57-3.43,10,.3,2.68,0,2.7-2.47,6.5-1.5-3.2-3-6.24-7.58-7.48,1.6,4.89,4.32,8.24,6.86,11.47,3.14,4,3.8,8,2.85,13-6.13-1.18-4.93-7.77-8.79-10.22-1.42.3-.74,1.65-1.2,2.67-2.79,0-4.55-3.08-8.35-2.79.85,2,2.56,2.84,3.45,4.21-1.31,2.74-5.08,2.15-6.5,5.32,4.24,1.46,9-.36,13.47,1-2.83,2.59-7.51,2.18-8.81,7.09,3,1.54,6.9.11,9,2.75,2-.91.64-3.13,2.78-3.67,2.66.08,3.21,3.29,5.84,4.28-3,5.61-2,11.44-2.24,17.63-4.6.58-8.41-1.28-10.39-4.73-1.66-2.88-5.12-4.8-5-9,0-1.43-2.26-2.95-3.52-4.47-1.76.56-3.21,1.91-5.62,1.28L650.73,607c-2,1.42-1.18,3-1.5,4.72l4.1,2.4c-2.46,3.1-5.58.42-7.59,2.69.83,4,5,5.1,6.53,8.43-2.11,1.73-5.17,2.21-8.17,3,2.24,3,6.11,3.22,7.85,6.13a6.07,6.07,0,0,0,5-1.36l2.41,2.06c.48,2-.92,2.72-2.1,4-2.18,1.31-5.18-.64-7.66.88.85,3,3.34,2.92,5.75,3,1.35,1.13.4,2.65.7,3.92.53,1.33,1.85.84,2.84,1.29.85.94.85,1.9-.28,3.16-3.58-.16-6.09-4.27-10.14-3.41-1.5,1-.65,2.51-.9,3.88-2.76,2.06-5.73,3.65-9.37,2.66-.54,3.66-4.56,3.55-5.7,6.23,5.05,3.77,8.52,4.39,14.44,2.59,1.65,1.19-.27,3.32,1.61,5,4-.45,5.29-5,8.57-6.78h3.15a1.81,1.81,0,0,1,.79,2.24,7.65,7.65,0,0,1-1.54,1.92c1.79,2.23,4.58.82,8.21-4.2,2.79-.38,1.09,2.8,3.11,3.53,4.69-1.49,5.08-5.93,5.91-11.3,1.8,3.28,1.52,5.45.58,7.57s-2.12,4.18-3.46,6.79c-2.7,2.25-6.57,1.88-10.26,1.84-1.78,1.81,2.06,1.83-.81,4.87-1.44.58-4.21,3.68-8.66.93-3.07-1.9-6.75-2.79-9.11-5.65-1.17.66-.7,1.6-.91,3-3.7-.27-6.59,1.22-7.46,5.32-4.18.33-7.46-2.37-12-3.53l-1.66,4.66Z"/><path class="cls-3" d="M187,793.8c.16-2.93,2.69-3.89,4.62-6.5-4.87-1.56-9-4-7.13-9.79l-4.82-1.7c.07-1.36-.69-2.63,1.21-3.72,6.1-1.31,8.74,6.07,14.11,7.28l2-2.92c-5.56-4.49-7.67-12.22-14.7-15.71.84-1.47,2.18-.81,3.29-1a3.25,3.25,0,0,0,1.26-3.09c0-1.14.16-2.29.25-3.37,9.29-2,18.28-4.61,27.19-2.82,1.87-2,1.92-3.32.84-4.65-3.33-2.28-4.53,2.84-8,1.66-2.49-3.14-6.81-5.51-8.88-10.74,8.2-3.35,12.15,3.27,17.21,6.23,4.56-.31,1.69-5.46,5-6.31-3-2.85-4.23.61-6.17,1.09-2.43-2.22,1.45-6.88-3.79-7.81,2.26-1.67,3.31-3.23,3.07-6.48,6.14,2,10.5-3.56,16.7-2.13.18-5.87-4.14-7.19-6.1-9.65-2.52-.51-3.39,1-4.92,2.43-1-5.66-6.62-8.11-9-12.44,3.21-3.8,6.8-1.09,9.6-2.6,1.85-2.47,0-5.39,1-7.8-2.7-2.85-4.38-1-6.15.89-3.07-2.21,1-7.13-4.6-8.32,2-.73,2.94-1.4,3.38-1.17,5.64,3,10.17,7.85,16.21,10.37.62.26.61,2.06,1,3.59h13.3l3-3.11c-7.23-3.69-16.2-4.19-23.4-11.48,9.17-4.11,15.1,1.19,21.76,3.26l4.31-3.79-7.34-7.34,2.22-2.21c-1.92-2.55-3.72-5.35-9.48-2.48l-2.45,3.41c-3.74-.1-6.52.77-9.22-.67.31-.58.47-1.42.91-1.62,5.43-2.39,11.48-3.65,15.7-8.68-4.57-2.34-9.53.16-13.18-1.23l9-9.12c2.68,1,7,5.26,10.73-1.11,2.48-4.5-.9-8.53-2.35-13.5L258,641.69c2.1-2.44,1-3.85-.57-5.4-5.15-5.19-11.17-9.78-13-17.66,6.19,1.5,6.19,1.5,14.36-1.92-1.82-4-5.05-7.45-4.45-12.31,3.83-1.69,7.22-3.91,9.38-7.62L261.89,595l6.58-6c1.54,4-5.16,7.5-1,11.54,3.3,2,4.15-4,8.17-1.83-1.47,3-3.11,6.43-1.81,9.67-1.48,3.17-5.76,4-4.74,9,5.49-.13,10.11-3.85,15.45-4.62,1.67,2.34,2.34,4.37-1.54,4.8-2.3.26-2.19,1.8-2.11,3.48,3.16,3.73,6,.36,8.88-.56a2.33,2.33,0,0,1,.53,3.17c-1.94,1.77-5.07,1.83-7,5.07v6.9c-3.77,4.17-4.82-2.17-9.08-.59l-2,4,2.58,2.59c6.05-.57,11.25-5.79,18.22-4.46-4,8.07-15,8.88-16.41,19.09,9.44-.67,17.19-5,24.41-10.32.79,1.23,1.47,1.82,1.56,2.5.54,4-5.76,4.48-4.78,8.84-8.1,1.84-8,13.19-16.74,14.28,1.17,2.64,3.48.84,4.82,1.6,4.43-1.5,5.88-6.1,10.42-7.72,3.7-1.32,6.19-6,9.21-9.22,3.7,3.6,2.08,6.18-.73,8.67-3.35,3-3.41,6,.07,9.17a21.63,21.63,0,0,1-15.15,9.12l6.69,6.69-3.37,3.71c2.23,2.23,4.51,1.56,9.3-2.75-.57-.57-1.17-1.11-1.68-1.72-.14-.16,0-.55.06-1.26h8c2.78-5.07,9.17-5.1,11.76-10.25,2,2.74,1.92,4.82.38,7.54-3.29,5.82-2.41,13.62-8.57,18.14-.13,6.22-5.3,5.52-9.17,6.61-.33,3.49,3.59.32,4.1,3.17v2.57c-2.12,1.42-2.17-1.68-3.7-1.23-4.23,7.21,3.85,10.76,4.51,16.42,8.18-3.79,17.67-3,24.34-11,3.37,7.16-.37,11.13-3.67,15-.85,1-3.73,1-3.87,1.8-1.1,6.4-8.58,8-10.28,14.21,4.39,5.28,8.21-2.16,12.31-.67,5.36-4.92,13.2-6.14,17.94-12,2.41,2.13,5.18,4.09,2.54,9.39l-13,12.18-4.09.19c-3.16,2.46-4.08,6.31-6,9.53,0,2.52,2.69,2.87,3.17,4.48l19-9.48c4,4.23,4,4.23,3.3,9.78l-2.56-2.33a2.6,2.6,0,0,0-1.11,3.06,11.79,11.79,0,0,0,2.05,2.79c-1.57,4.38-6.07,3.61-9.11,4.22-.62,2.66.15,3.94,1.68,5,.08,2.21-4.15,4.09-.66,6.6,9.73-3.15,15.79-11.66,24.23-19.11,1.92,6.67-3,10.1-1.38,14.29-1.14,1.13.38-.33-.77.79l.77-.79c4,0,1.39,5.16,4.62,5.78-2.46,4.33-8.5,3.89-10.74,7s-6.14,4.74-7,8.83h-5.14l-4.16,9.48C350.75,817.64,357,811,364,806c1.16,6.39.65,7.76-6.25,15.63V829c-4,1.75-8.2-.61-11.49,1.51-2.51,5.34,5.47,2.44,4.53,6.42-2.7,2.36-6,2.42-9.31,2.44,3.31,0,6.61-.08,9.31-2.44,5.36-.16,10.91,1.07,16.39-3.89-3.85,10.35-8.45,14.25-17.52,15.94-1.11.2-2.23-.24-3.33.75-1.68,1.52-2.66,4.09-5.5,4.08a20.69,20.69,0,0,0-6.87.77c6.72,3.63,14.82-1.2,21.72,4.56,3-6.41,10.11.39,13.93-5.16-.77,9.69-12.25,7.38-14.76,14.06-2.7,7.17-12,7-14.57,14.4h-12.6c-.71,1.78-1.64,4.12-2.27,5.72-7.95-2.1-12.31,2.61-17.8,3.45l4.73,1.75c-2.4,3-7.4-.54-8.75,3.71-1.26-3-5.37-1.48-7.18-5.39-.81,1.78-1.44,3.16-2.74,6,.12,1.68,3.83,1.39,6.19,2.85-.84,2.88-3.23.89-5,1.61-3.55-2.31-6.54-5.14-7.69-9.52-2.36,1.46-4.38,3.08-4.29,6.58H273a3.94,3.94,0,0,0-1.89,3.51c-1.36,11.46,4,22.41,2.48,33.88a37.9,37.9,0,0,0,0,5.42c-2.37,1.56-4.33.87-7,.79-1-13.39,1.55-27.25-3.79-40.42-8.28-2.12-16.34,1.65-24.69,2.58L234.05,909c-4.81-2.77-11.62-2.67-13.29-9.59a13.38,13.38,0,0,1,3.65-2,13.23,13.23,0,0,0-3.65,2c-4.1,1.09-6.33-2.57-10.2-3.21l9.95-5v-3.34h-38c.74-4.42,3.6-1.9,5.51-2.88,0-3.14,4.8-4.68,3.53-8.18-1.24-1.78-2.5-1.2-3.63-1.23-2,.93-.07,4.11-3.49,4.94-4.32-1.83-6.88-6.66-11.11-9.82-2.4-.4-5.24.71-8.94-1.38L170,866c-2.13-4.34-3.73-7.61-5.14-10.51,1.15-1.85,3-2.2,3.46-1.63,4.37,5.27,11.42,5.77,16.75,10.82l5.25-7.44c1.32.17,1-.28.2-1-2.61-2.25-4.43-5.45-8.84-5.08-1.44.13-3.08-2.1-4.51-3.17v-7.58c2.5-2.37,7.51.43,9-4.17l-8.8-10c.64-1.93,2.54-1.07,4.21-1.94,0-2.79-3.63-3.29-4.23-6.22,3.43-.27,6.53-1.36,9.94,1.06,7,5,14.2,4.34,21.15-.22-4.23-6.3-14-5.07-18.06-13.18l-4.9-.32c-1.1-5.94-5.49-7.7-10.66-7.53v-3.24c2.56-2.6,4.18-.61,5.86,1.16a5.93,5.93,0,0,1,6.35-2,6.68,6.68,0,0,0,3.69,2.75A6.89,6.89,0,0,1,187,793.8Z"/><path class="cls-3" d="M1165.74,1003.11v-7.78c2.32-3.86,3.51-8.17,7.34-10.47-.3-1-1.67-1.27-1.43-2.43,0-1.5,1.48-1.87,2.1-2.87,1.06.34,1.47,2.13,4.31.36.53-.42-2.5-.63-1.56-2.49,6.94-3.65,4.62-11.76,6.47-18.52-1.06-.93-3.46.66-4.79-1.65-.89-1.54-.06-2.73-1.43-5,2.79,1.56,4.35,2.54,6.68,1.57-1.56-1.37-1-3.66-2.92-4.74,1.9-2,2.69-.09,3.77.66.7-.69,1.39-1.39,1.91-1.91,1.4-2.56-1.39-4-1.27-6.14l3-3c-1.28-1.65-3.53-2.75-3.26-5.37-1.78.81-.43,2.86-2.22,3.08-2.67-1.78-2.67-1.78-3.39-4.54.72-2.68,4.63-3.47,4.47-6.92-2.75.27-4.35,2.8-7.15,2.53.11-2.09,2.34-2.42,2.61-3.68a2.51,2.51,0,0,0-1.24-2.69c.31-1-.67-.1.16-.6,1.19-.7,3.11,0,3.19-1.7,2.21-.66,3,2.43,5,1,.59-1.15-1.12-1.21-1.12-2.1,0-1.23,0-2.46,0-4.39l2.52-1.1c.58-3.18.83-4.87-1-6,1.54-2.11,4.29.39,5.85-1.55-1-1.74-3.45.3-4.74-2.17,2.67-1.36,4.22-4.33,7.54-4.85-.21-1.93-2.31-.38-2.62-1.94.62-1.32,2.64-1.84,2.84-4-1.9-2-4.55-2.5-7.39-3,2.32-1.83.85-4.48,1.83-6.8l3.4-.28c1.71-1.66.1-2.54-.83-3.56.52-1.07,1.73-.51,2.9-1.34-.78-2.21,1.48-3.93,1.65-6.71-.93-1.75-2-3.77-3.1-5.87.44-1.67,2.65-3.28,1.38-5.12a6.2,6.2,0,0,1-1.37-4.63c-.95-1.63-3.69.13-3.71-2.23-2.77-.11-3.06,2.9-5.59,2.95-3-.37,1-4.79-2.54-4.73.49-1.54,1.66-1,2.53-1.45.88-1.23-1-1.23-1-2-.47-1.5.81-2.15,1.51-3.08-.92-2.16-1.32-4.49-2.85-5.64-.6-2,1.33-2.36,1.32-3.79.18-1.06-.93-1.46-1.58-2.35,2.74-1.43,5.76,0,9.18-1.12l-4.6-4.6c-.3-2.42,1.08-2.28,2.58-2.41v-9.64l-5.57-2.79c-.28-1.66.37-2.54,2-2.21,1.22.27,1.86,2.66,3.7,1l-2.76-5.33c.13-1.91,2.17-2.44,3.27-4.39-2.91-1.44-.18-7.47-7.51-7.42l4.75,3.2c-.87.61-1.44,1.17-1.58,1.07-2.83-1.85-5.62-2.24-8.55.91.14-2.94-3.08-3.84-2-6.27.31-.2.59-.43.65-.39.38.31.71.68,1.24,1.21,2.9-1.73,4.19-4.6,5.53-8.07l-2.65-2.08-1,2.74h-4.87c.67.67-1.19.11-.6-.59.92-1.12,3.78-.28,3.07-3,0-.12.32-.34.49-.52l3.57-.4c.11-1.7-1.13-1-1.92-1.29-1.32-.75-.55-2.12-.83-3.65l-4.77-3.94,3.66-3.86c-1.29-2.66-4-4.55-4.73-7.57,0-2,2.27-2.37,2.81-4-.38-.61-1.13-.48-1.84-.58-2.32-.35-4,3.19-7.17.57l3.66-1.41c-1.26-3-4.28-3.69-3-6.68l1.8,1.54c1.38-.78.54-2.13.78-3.2-1.5-2.94-4.51-4.07-7.28-5.67.52-1.91,2.3-3.34.22-6.46-.1-.12-1.88,1.22-3,.37,0-2.95,3.52-1.95,4.27-4.18-.89-2.26-3.25-3.42-4.63-5.45v-4.27c-1-1.24-2.38-.38-3.67-.71l-1.37-2.89h-2.1c.05,3.7-1.2,7.44,1.08,11.18-1.46,1.66-4-.24-6,1.4,3.35.52,4.44,4,7.49,4.91H1146c-1.86,1.76-.77,2.79.48,3.93-1.44,1.68-4.65-.37-5.37,2.43l-.5.6c3.05,1.69-.27,6,2.77,7.4,2.06,1.25,4.12.34,6,.83-1,1.91-1.93,3.12-3.93,2.83a4.11,4.11,0,0,0-4.51,1.85c1.42,1.88.51,4.65,2.36,6.45-.8,1-1.87.37-2.79.57-1,1.38.28,2.2.81,3.2-.53-1-1.78-1.82-.81-3.2.08-1.51-1.49-1.81-2.52-3.73a13,13,0,0,1-1.92,6.63c.06,2.42,2.28.83,2.89,2.35,0,.42-.07,1.09-.11,1.6-1.78,1.63-2.53-.46-3.87-.77-1.66,3.4,2.6,6.19.61,9.88-1.55,1.33-3.32-.2-6-1.19,2.39,4.5,3.13,8.5.36,12.12a7.87,7.87,0,0,0,4.65,3.64l-2.7.94a8.06,8.06,0,0,0,1.15,6.61c2.17,3.49,2.41,7.79,4.31,11.51.88,1.7.15,4.22-.25,6.56-1.41-3.8-2.45-7.8-7.65-7.33-3.2,3.45,2,6.59.44,9.94-1.19.7-1.23-1.15-2.31-.76-1.4,2.48,1.3,3.11,2.24,4.55a5.28,5.28,0,0,0,0,6.6c-1.62,1.42-2.38-.63-3.59-.88l-2.51,2.62c4.39-1,6,3,10.34,3.64-3.66,1.54-6.53.5-9.19,1-1.21,1-.26,2.34-.68,3.26.51,1.68,2.42.53,3,1.8-.23,1.15.51,2.44-.53,3.53-2.56.9-3-1.83-4.59-2.69a1.82,1.82,0,0,0-.73,2.45c1.17,2.89,2.09,5.75,1.11,8.88l-2.62.94c3,3.17,4.28,7.36,7.89,9.4-2,3.48-3.13,1.07-4.38.62a1.42,1.42,0,0,0-.52,1.93c2.09,2.36,2.65,5.32,3.41,8.2h3c1.46.84.86,2.18.91,3.3s-.1,2.5,1.4,3.08c-1.8,3.47-4.55,2.55-7.65,2.31l1.81-2-2.1-2.09c-1.83.85-.07,2.7-1,3.79L1120,886.8c2.1,2.1.66,5.51,4.67,8.06,3.12.59,3.94,4.82,5.18,8.73l-1.09,1.09c3.45,4,8.83,5.86,11.67,10.57-1.28,1.48-3.18-.15-4.57.77l-3.7-3.19c-2.2,0-2.34,1.92-4.41,2.47l5.42,5.78c.26,2.15-1.74,2.77-2.69,4.09,1.18,2.2,1.85,4.74,4.25,6.09-1.68,1.8-4.11,3.15-2.72,6.34l2.42.89a6.87,6.87,0,0,0-1,6.43c.64,1,2.08-.11,2.49,1.23-1.75,3.13-4.23,2.58-6.84,1-.64,1-.6,2.43.29,2.48,2.68.14,3.37,2.61,5.14,3.75l-1.41,1.77c-.44.67,2,.82,1.58,2.16a2.26,2.26,0,0,0,.51,2.69l2,.46c.87,1.64-.39,3.9,1.76,5-.85.75-1.61,1.39-1.36,2.54,3.89,1.84,4.5,5.82,5.87,9.25,1,2.55,1.39,5.45,4.48,6.57,1.83.32,2.37,1.28,1.48,3-.43,3.24,3.52,5.28,2.78,8.15a27.58,27.58,0,0,0-1.3,8.13Z"/></g></g><g id="BG_1" data-name="BG 1"><g class="cls-4"><path class="cls-5" d="M-263.48,877c.28-5.3,4.87-7,8.37-11.76-8.82-2.83-16.35-7.24-12.93-17.75l-8.72-3.08c.11-2.46-1.26-4.76,2.19-6.75,11.05-2.36,15.83,11,25.55,13.21l3.61-5.3c-10.07-8.13-13.9-22.15-26.63-28.46,1.52-2.66,4-1.47,6-1.77,2-1.35,2.29-3.35,2.28-5.59,0-2.07.29-4.14.45-6.11,16.83-3.55,33.12-8.35,49.26-5.11,3.39-3.54,3.49-6,1.52-8.43-6-4.12-8.2,5.16-14.55,3-4.53-5.69-12.36-10-16.1-19.46,14.85-6.07,22,5.92,31.18,11.29,8.27-.56,3.06-9.9,9.06-11.44-5.46-5.16-7.67,1.1-11.18,2-4.4-4,2.62-12.46-6.86-14.14,4.1-3,6-5.85,5.56-11.75,11.13,3.68,19-6.44,30.25-3.86.33-10.64-7.5-13-11-17.49-4.58-.91-6.16,1.82-8.92,4.41-1.83-10.25-12-14.69-16.34-22.53,5.8-6.89,12.32-2,17.4-4.71,3.34-4.49,0-9.77,1.87-14.14-4.88-5.16-7.94-1.9-11.14,1.61-5.56-4,1.82-12.91-8.33-15.08,3.64-1.31,5.32-2.53,6.11-2.11,10.24,5.52,18.44,14.21,29.37,18.78,1.14.48,1.12,3.74,1.84,6.52h24.09c1.16-1.22,3.18-3.31,5.42-5.65-13.1-6.69-29.35-7.59-42.39-20.79,16.62-7.45,27.35,2.15,39.43,5.91l7.8-6.88-13.29-13.29,4-4c-3.48-4.62-6.74-9.69-17.17-4.49l-4.44,6.19c-6.77-.19-11.81,1.39-16.7-1.21.56-1.06.85-2.59,1.65-2.94,9.84-4.34,20.8-6.61,28.43-15.72-8.27-4.24-17.26.27-23.86-2.24l16.34-16.53c4.85,1.77,12.65,9.54,19.44-2,4.49-8.16-1.64-15.47-4.26-24.46l25.1,8.53c3.79-4.43,1.76-7-1-9.79-9.35-9.4-20.25-17.72-23.61-32,11.2,2.71,11.2,2.71,26-3.49-3.29-7.21-9.16-13.5-8.07-22.3,6.94-3.06,13.09-7.07,17-13.8l-3.25-3.25L-115.81,506c2.8,7.22-9.34,13.59-1.85,20.91,6,3.59,7.51-7.33,14.8-3.32-2.66,5.54-5.64,11.66-3.28,17.53-2.69,5.74-10.43,7.3-8.59,16.2,10-.22,18.32-7,28-8.36,3,4.24,4.23,7.92-2.79,8.7-4.17.46-4,3.26-3.81,6.3,5.72,6.76,10.79.65,16.07-1,2.13,1.65,2,4.76,1,5.74-3.5,3.21-9.18,3.32-12.71,9.19v12.49c-6.83,7.57-8.73-3.92-16.45-1.05-.37.72-2,4-3.7,7.23.36.35,2.42,2.41,4.68,4.68,11-1,20.38-10.49,33-8.07-7.24,14.61-27.17,16.08-29.74,34.59,17.09-1.23,31.15-9,44.22-18.71,1.44,2.23,2.67,3.31,2.84,4.53,1,7.35-10.44,8.12-8.66,16-14.69,3.34-14.52,23.91-30.34,25.88,2.11,4.77,6.3,1.52,8.73,2.88,8-2.7,10.67-11,18.88-14,6.71-2.4,11.22-10.92,16.69-16.71,6.7,6.52,3.77,11.2-1.32,15.71-6.08,5.39-6.19,10.93.13,16.61-7.1,10.23-17.25,15.08-27.45,16.54l12.12,12.11-6.12,6.73c4,4,8.19,2.82,16.86-5-1-1-2.12-2-3-3.13-.24-.28,0-1,.11-2.28h14.5c5-9.19,16.62-9.24,21.31-18.56,3.6,5,3.47,8.72.68,13.66-6,10.54-4.37,24.68-15.51,32.86-.25,11.28-9.61,10-16.63,12-.6,6.33,6.51.57,7.44,5.75v4.65c-3.85,2.56-3.93-3-6.71-2.24-7.66,13.08,7,19.5,8.18,29.75,14.81-6.87,32-5.41,44.09-19.88,6.11,13-.67,20.15-6.64,27.21-1.55,1.83-6.77,1.85-7,3.26-2,11.59-15.55,14.51-18.63,25.75,8,9.56,14.87-3.91,22.31-1.22,9.7-8.92,23.91-11.13,32.5-21.74,4.36,3.86,9.39,7.41,4.61,17L3.38,815.26l-7.4.34c-5.74,4.47-7.39,11.45-10.78,17.27-.07,4.57,4.87,5.2,5.75,8.12l34.43-17.18c7.18,7.66,7.18,7.66,6,17.72l-4.65-4.22a4.72,4.72,0,0,0-2,5.56c.69,1.88,2.44,3.39,3.71,5-2.83,7.94-11,6.55-16.5,7.65-1.13,4.82.27,7.14,3,9,.14,4-7.52,7.4-1.2,11.94,17.63-5.7,28.62-21.12,43.92-34.61,3.47,12.08-5.37,18.29-2.5,25.89-2.08,2,.69-.6-1.41,1.42l1.41-1.42c7.17,0,2.52,9.35,8.37,10.47-4.46,7.85-15.41,7.05-19.47,12.68S33,899.54,31.43,907H22.11c-2.25,5.1-4.55,10.36-7.55,17.16,18.73-3.89,30-15.88,42.7-25.07,2.1,11.59,1.17,14.06-11.33,28.33v13.42c-7.27,3.17-14.85-1.11-20.81,2.74-4.55,9.67,9.9,4.41,8.21,11.63-4.91,4.27-10.88,4.38-16.87,4.42,6,0,12-.15,16.87-4.42,9.7-.29,19.76,1.93,29.69-7C56,966.88,47.71,974,31.27,977c-2,.37-4-.43-6,1.36-3,2.76-4.82,7.42-10,7.4-4.15,0-8.3,0-12.45,1.39C15,993.74,29.67,985,42.18,995.42c5.36-11.62,18.31.71,25.24-9.35-1.39,17.56-22.19,13.38-26.74,25.48-4.89,13-21.77,12.62-26.4,26.08H-8.55c-1.28,3.24-3,7.47-4.11,10.36-14.42-3.79-22.31,4.75-32.26,6.25l8.57,3.18c-4.35,5.41-13.41-1-15.85,6.72-2.28-5.47-9.72-2.67-13-9.76-1.47,3.22-2.62,5.72-5,10.85.22,3,6.94,2.53,11.22,5.16-1.54,5.22-5.86,1.62-9,2.92-6.43-4.18-11.85-9.31-13.93-17.24-4.28,2.64-7.94,5.58-7.78,11.91h-17.84c-3.15,2.14-3.17,4.19-3.43,6.37-2.46,20.75,7.31,40.6,4.49,61.39-.46,3.43-.06,7-.06,9.82-4.29,2.81-7.83,1.57-12.7,1.43-1.76-24.27,2.81-49.38-6.86-73.25-15-3.83-29.62,3-44.74,4.68l-7.36,7.35c-8.7-5-21-4.84-24.08-17.37a24.47,24.47,0,0,1,6.62-3.55c-2.44,1.12-5,2-6.62,3.55-7.43,2-11.46-4.66-18.47-5.82l18-9v-6H-271.6c1.33-8,6.53-3.44,10-5.23,0-5.68,8.7-8.47,6.39-14.82-2.24-3.22-4.52-2.16-6.57-2.22-3.71,1.69-.13,7.43-6.32,8.94-7.84-3.31-12.46-12.06-20.14-17.78-4.34-.73-9.49,1.29-16.19-2.51l10.16-6-9.32-19c2.1-3.36,5.41-4,6.28-3,7.92,9.55,20.69,10.46,30.34,19.61l9.52-13.49c2.39.31,1.87-.5.37-1.79-4.73-4.08-8-9.87-16-9.2-2.62.22-5.58-3.81-8.18-5.75V961.54c4.54-4.3,13.61.78,16.25-7.57L-281,935.85c1.15-3.51,4.6-2,7.62-3.53,0-5.05-6.57-6-7.67-11.27,6.21-.49,11.83-2.46,18,1.93,12.64,9,25.72,7.86,38.31-.4-7.67-11.41-25.31-9.18-32.72-23.89l-8.88-.58c-2-10.76-9.94-13.94-19.31-13.64v-5.86c4.64-4.72,7.58-1.12,10.62,2.09,3-3.27,6.62-5,11.51-3.66,1.72,2.47,4.41,4.57,6.68,5C-258.79,881.22-262,879.84-263.48,877Z"/></g></g></svg>