<svg xmlns="http://www.w3.org/2000/svg" xmlns:xlink="http://www.w3.org/1999/xlink" viewBox="0 0 1920 1080"><defs><style>.cls-1{fill:none;}.cls-2{clip-path:url(#clip-path);}.cls-3{fill:#7c9885;}</style><clipPath id="clip-path"><rect class="cls-1" width="1920" height="1080"/></clipPath></defs><g id="BG_3" data-name="BG 3"><g class="cls-2"><polygon class="cls-3" points="1920 1080 0 1080 0 697 30.61 723.85 40.21 730.54 49.01 732.15 56.43 730.18 80.82 718.93 101.4 715.11 122.5 713.66 161.26 705.62 178.41 704.16 219.02 724.21 278.1 704.69 300.52 718.6 329.26 744.78 366.71 755.86 387.81 744.78 428.43 728.43 451.64 706.27 460.93 708.62 471.68 713.13 490.8 707.43 513.11 698.73 537.09 708.12 563.59 718.8 584.56 702.98 606.71 706.14 620.96 697 644.69 720.52 672.12 733.7 707.99 749.53 747.02 759.02 774.45 751.64 790.8 728.43 823.5 719.46 849.88 723.15 881.53 737.4 907.37 749.66 926.36 753.62 947.71 740.64 973.04 749.26 990.05 766 1013.4 760.34 1037.13 750.45 1062.45 739.37 1082.23 743.73 1111.9 749.26 1122.19 769.45 1148.69 776.16 1175.59 769.45 1204.08 762.32 1209.75 751.04 1212.78 747.29 1218.65 750.45 1232.96 760.34 1285.57 775.37 1322.36 801.48 1362.06 801.22 1394.76 816 1404.45 832.54 1413.75 843.42 1428.19 850.54 1441.04 847.77 1457 827.59 1475.99 821.79 1502.76 831.15 1522.93 820.21 1552.21 801.48 1582.28 816 1630.54 831.55 1687.51 822.05 1712.82 789.62 1744.47 789.62 1779.29 810.98 1816.47 798.32 1830.71 788.03 1845.75 783.29 1853.07 766 1864.74 750.85 1884.71 745.7 1901.13 744.52 1912.41 736.41 1920.02 726.7 1920 1080"/><path class="cls-3" d="M135.78,647.39h-3.51c-.35.87.59.89.73,1.42,1.32.82,2.92-.25,4.34.64l-.73.93c.34,1.28,1.82,1.08,2.56,1.85l-1,1.16c2.48.66,4-2.73,6.74-1l-3.24,2.38c1,1,1.74.8,2.15.07.71-1.28,2.37-.92,3-2,1.68.7,1.19,2.3,1.67,3.38,1.79.67,1.94-1.69,3.31-1.66.77-.13.92.69,1.7,1l3.42-1.72,1,1c.05.11.16.27.13.31-3.62,4.24-8.59,5.25-13.78,6-.85-1.64-2.5-1.92-3.76-2.76-.94.57-1.1,1.63-1.58,2.48-1.59.48-1.78-1.32-3.19-1.68-1.57,1.45-3.85.65-6.16,1a1.6,1.6,0,0,0,1.44,1.64c2.22-.28,2.61,1.36,3.28,2.69,1.76.58,2.66-.72,3.62-1.74,1.19,1.14.08,1.63-.4,2.26a4.6,4.6,0,0,1,.84,1c.17.37-.1.91.6,1.21h1.56c1.29.79-.41,3,1.64,3.48h3.1l1.53-1.52a3.87,3.87,0,0,0,2.95.71l1.48-1.87c1.12.75.28,1.83.83,2.57,1.52-.84,3.74-.28,4.5-2.36l2.54,1.21c-2.71,2.89-6.22,4-9.74,5.31-3.84,1.4-7.37.37-10.89-1.16-.29,1.79,1.2,2.17,1.89,3.53a22.42,22.42,0,0,1-4.6-.07,17.68,17.68,0,0,1-3.69-1.72c-.94,0-.86.68-.85,1.27-.6,1.16-2.06-.08-2.7,1s-2.1-.19-2.77,1.14c.48,2.39,3.92,2.09,4.44,4.22s3.14,2.69,3.14,5.44a5.34,5.34,0,0,1,4.7-1.32c.72.33,0,1.53,1.06,1.76,1.25-.11,1.93-1.53,3.33-1.53.73,0,.36.69.63,1.32h5.82l1.67-1.57a.94.94,0,0,1,.41,1.19,7,7,0,0,1-4,4.06,3.42,3.42,0,0,0-1.81,1h-8.1c-.64-1.1-2.11-.87-2.93-1.9l-2.91,1.44,1.69,1.69c-1.2,1.14-2,.27-3.17-.24s-2.33-.09-3.46-.09c-1.35,1.53-3.38,1.39-5.08,2.32,1.08,3.45,6,2.84,6.78,6.65a22.34,22.34,0,0,1,3.06,0c1,.15,1.77-.53,2.68-.76.28.8.47,1.44-.66,1.65A2,2,0,0,0,131.1,706c4.13,1.48,4.13,1.48,8.37.59,1,.47.65,1.75,1.19,2.17-2.13,2.93-5.57.69-8.42,2.17s-5.83-1.34-8.82-.7c-.71.69.2.71.23,1,.47.75-.67.78-.47,1.39,1,.65,2.25,0,3.36.35-.33,1.34-2,1.62-1.71,3.05.94,1.12,1.11-1.08,2.12-.48.64.38,1.72-.24,2.38.45,0,.45,0,.83-.11,1-.7.77-1.46,1.48-2,2-4.68,1.06-8.65-1.45-13.6-1.78l2.13,2.54c.34,1-.79,1.22-.88,2.1s1,1.23,1.48,2c.59.93,1.5.75,2.38.78,1.14,0,.14,1.84,1.42,1.79.91,0,1.8-.06,2.31.83l3.24-1.88c.68-.29.93,1.23,2,1.08a12.86,12.86,0,0,1,2.43.1c.22,1.21-.28,1.33-1,1.74-2.64,1.44-5.58,1.74-8.37,2.56-2,.57-4-.15-5.9-1L112.3,732c-1.61-2.29-4.33-.19-6.48-2.37.51,3.55,3.73,3.68,5,5.62l3,.16c.14,1.43-1.29.3-1.46,1.11.38,2,2.38,1.08,3.52,1.93l-1.89.89c1.68,1.52,2.91-.83,4.43-.43L123,740c.24,1.51-.64,2.19-1.87,2.39-2.85.44-5.66,1.34-8.61.93a11.67,11.67,0,0,0-1.67,0c-.25.67-.44,1.19-.69,1.85H99.91c1,.87,1.89,1.88,3.89,1.83-1.94.94-1.1,2.35-1.65,3.29l-1.89.65c4,1.25,7.74,2.24,11.25,4.07l1.31-.8c.65.62.17,1.41.33,2.11,1.72.77,3.37,2.51,5.13.49,1-.16,1.15.58,1.62.85a1.32,1.32,0,0,0,1.52-.64,10.45,10.45,0,0,0,7,.23c2.87-.7,5.69-2,8.73-1.2.79,1.44-.44,2.15-1.17,2.47a84.37,84.37,0,0,1-13.36,4.62c-1.83.45-3.87,1.49-5.39.64s-3.09-.48-4.58-.72c-.7.86.42.89.48,1.68H102.6c-.16,1.54,1.16.62,1.37,1.27-1.28,1.75-3.31,1.5-5.17,1.89,2.86.9,5.77.29,8.62.65-1,2.08-4,1.06-5.32,3.73,4.92-1.67,9.19-.42,13.31.69.94.79-.1,1.92.72,2.52s1.41-.18,2.05-.86c1.38.39,2.7,1.71,4.08.86,1.1.5.4,1.65,1.33,1.94,1.9-.2,3.21-2.47,5.44-1.63.19.52.38,1,.61,1.69.71-.67,1.32-1.26,1.92-1.84l1.11,1,3.57-1.81c.38.77.39,1.15-.5,1.71a83.88,83.88,0,0,1-16.18,7.55c-2.23.82-4.38.1-6.44.54-3.82-2.14-4.82-2.49-7-2.5.18.92,1.06,1.25,1.61,2-.17.14-.37.41-.56.42-.89,0-2.1.31-2.6-.15-1.49-1.36-3.09-.33-4.73-.27l6.92,2.44c-1,2.82-3.75.77-5.28,2,.93,1.08,2.27,0,3.31.64.54.57-.28.61-.4.93-.51,1.33-2.18.15-3.12,1.43h5c1,.86,0,1-.21,1.45.13,1,1.91,0,1.72,1.37.2,1.45-1.54.49-1.77,1.47,1.31.86,2.89-.07,4.24.58.39.6-.49.55-.3,1.43.64.45,1.78,0,2.89.17.17.47.35,1,.53,1.53.68.69,1.79-.28,2.44.63-1.85,2.63-5,2.78-7.55,3-2.9.24-5.49,2-8.51,1.27,1.27,1.14,2.75.44,4.81,1L106,807l4.09-2c.55,1.62-1.46,1.44-1.18,2.58s2.17,1.32,1.55,3.08c1.93.05,2.79-1.32,4.17-1.64.49.68.56,1.8,1.71,2.49,1.53-1.46,3-3.34,5.41-3.52.84,1-1.22,1.17-.55,2.2.36.55-.24,1.45.24,2,1.16.82,1.54-.57,2.44-.69.81-.28.95,1,2.14.88.79-1.23,2.32-.8,3.75-.86.09-1.8,2-1.69,3-2.81,1.39.72,2.86,1.8,4.4.24.6.9.19,1.45-.45,1.92l1,2.18c1.52-.86,3.57-1.22,4.74-.37,1.43,1,3.24-2.39,3.7,1.17,1.74-1.93,3.58-1.3,5.18-1.55,2.42-.5,3.15-2.7,4.48-4.36l1,.85c.62-.85.71-2.11,1.89-2.57.31.32.63.63,1.27,1.27.1,2.94-1.25,6-1.71,9.25h13.63c-2.13-4.19-2.06-8.62-3.11-12.65,1.22-1.47,2.73-1.91,4.05-2.59,1.17,1.1.18,2.43.79,3.48.58.5.6-.34,1.27-.45.31,1.41,1.51,2.3,2.52,3.34.71-.24.4-.95.73-1.58,2.3.56,2.13,3.55,3.68,4.18,1.36.46,1.49-.86,2.63-.7.65,1.67,2.58,2.18,3.89,3.46l.67-.66c1.1.24,1.38,1.9,2.8,1.64,1.23-.94-.19-2.61.9-3.62,2.08,0,2.38,2.66,4.32,2.74,1.42-.46,0-2,1.29-2.79.75,1,1.54,2,1.88,2.45,2.39.87,3.15-.41,4.31-1.57l1.58,2.4a2.86,2.86,0,0,1,2.27-2.64c-.19-.65-1.16-1-.81-1.82.25-.44.64-.49,1.1-.55,1.43-.18,2.47,1.75,4.09.7.08-1.27-2.3-1.47-1.25-3.4,1.57.1,3.23,1.78,5.2.46-2.6-1.42-5.45-1.56-8.59-2.68l2.28-.82c1.3-.75,2.57.5,4.07,1.12.19-.52.39-1,.57-1.52,1.46-.61,2.23,1.65,3.57.82.79-.34.58-1,.83-1.78l3.11,1.63.61-1.58,2.08-.23c.26-1.22-1.32-1.27-1.36-2.34,2.07-1.07,4,1.87,6.17.22l-5.14-2.53a6.89,6.89,0,0,1,3.64-1.95c-2-.82-3.71-.21-5.29-.52-.51-.3-.4-.77-.42-1.42-1.23-.84-3.18.35-4.35-1.17-.18-.24-1.11,0-1.66.15a15.9,15.9,0,0,1-10.11-.19c-1.45-.53-1.58-.79-1.63-3.43,1,.14,1.26,1.05,2,1.57,1.7-1.23-1.31-2.08-.3-3.19.21-.41.35-.35.65,0,1.56,1.51,2.85,3.35,5.23,4,.85-.76-.06-2.05.42-3.06.21-.42.42-.43.63,0,.66,1.28,2.26,1.23,3.14,2.21,1.76-.47,1.53-2.08,1.55-3.25,1.74-.57,2.76,1.89,4.33.38.51-1.54-1.12-1.83-1.66-2.78a1,1,0,0,1,1.09-.46,6.62,6.62,0,0,1,2.88.67c1.3.68,3.11.65,4.12-1.65-2.36.47-4.24-.64-6.31-1.21l1.75-1.88c-.25-.15-.49-.4-.74-.4-3.59,0-7.18,0-10.77,0a15.54,15.54,0,0,1-3.13,0,9.78,9.78,0,0,1-2.44-1.38c2.55-.77,4.62-3,7.83-1.48,0-1.51,1.73-1.44,2.51-2.44.58.36.9,1.29,1.88.77.4-.22.42-.65.39-1.22l-4.24-2.15H222c.82-.66.64-1.11.59-1.91-2.63.71-4.87-1.3-7.78-.83-.38-1.79-.65-3.41,1.25-4.57,1.45-.21,1.67,1.54,2.82,1.8,3.11-.49,4.12-3.14,5.58-5.35.19-1.46-1.52-.52-1.79-1.39v-1.26c2.17.32,4-1,6.17-1.25l.06-1.18c-1.47-1.18-2.19,1.25-3.63.61-1-.46-2.34.31-3.51-.42l1.79-1.92a2,2,0,0,0-2.77.11c-.88.82-2,.22-3,.38-.69-.3-.48-1-.63-1.46-2.12-1.3-3.85.9-5.83.56-2.66,1.9-5.1-.06-7.57-.54a14.39,14.39,0,0,1-5.75-2.36c-.85-.32-.3-1.61-1.35-2,.18-.47.56-.5,1-.53,1.62-.12,2.62,1.34,4.1,1.58,1.09-1.24-1.46-1.85-.47-3.14.71-.45.71.69,1.75.61l2.54-1.24-.94-1c1.58-1.17,2.48,1.08,4.07.67,1.37-.35,2.27-2.06,4-1.41l-.93-1.08a11.56,11.56,0,0,0,4.53-1.74c-1-.89-2.32,0-3.87-.77l7.17-2.87c-2-.35-3.07-.55-4.56.33-1.12.66-2.94.44-4.36.17s-2.59,1.12-4.18.91l.71-1.47c-7.91,1.21-14.92,0-19.83-3.53,1.88-.28,3.46-.72,4.16-2,1.22-.36,1.47.71,2.37.83,1,.28,1.06-2.06,2.92-.39l-1-2.07c2-1.17,2.09,1.91,3.89,1.44,1.29-.75-.25-2.46.81-3.42,1.23.57,1.76,2.68,4.22,1.17l1.08-1.08c.72-.1,1,1.08,1.8.7,1.09-.1.24-1.37,1-1.69.9-.4,1.36.25,2,.88,2-.33,3.42-2.51,5.91-1.84-.63-1.32-1.86-1.64-2-3.15.81-1,3.23.11,3.49-2.06-2.85-.23-5.54-1.26-8.5-1.19-2.7.06-5.39.3-8.22-.62s-5.89-.19-8.74-.19l-1.19-1.25c.79-2.22,2.84-1,4.14-1.6a1.31,1.31,0,0,0-.18-1.61c-3.72.41-7.06-1.64-10.65-2.77a2.07,2.07,0,0,1-1.52-2.23c2-1.21,3.6-.3,5,1.53l.84-2.28,1.32,2.27c1-.49,1.29-1.5,2.44-.8l.49,1.43h4.6l1.26-1.26.46,1.26c1.37.47,1.57-.32,1.63-1.63,1.36.11,2.8-.61,3.95.85.94-.89,1.71-2,3.13-2.21-.43-.56-1.3-.91-.58-2.19,1-.58,3.39.84,4-1.77-2.1-.2-4.31,0-5.63-2.53-.44-.82-2.32-1.34-3.9-1.21-3.78.3-7.16-1.28-10.53-2.7-.51-.22-.86-.82-1.28-1.24-.75-1.23,1.49-1.55.84-2.75-.62-.92-1.71-.07-2.26-.49s-.41-.94-.37-1.39c.9-.77,2-.18,3-.37,1.45,1.16,2.42,2.94,4.88,3.24,1.46-.6,2.72-2.13,4.18-4h3.57a4.1,4.1,0,0,1,3.23-3.28c-1.36-1-2.92-.11-4.26-.63l-.6-1.58c-.82.85-2.21.66-2.83,1.73-2.45-.06-5.11.53-6.92-1.94,1.13-1.4,2.73-.21,3.82-1.09l-.92-1c1.11-1.14,1.77.12,2.23.53,2-.24,2-1.79,2.78-2.77h1.74c.75-.61.26-1.42.43-2.15.92-.53,2.06-.82,2.79-2.21h-6.07l-.71-2-4.92,1.84c-3-1.12-6.68-1-10-3.05,1.82-1,3.68-1.73,5.15-3.21s2.05-3.77,4.45-4.24l.62.53c2.62-1,4.56-3.2,7.52-2.43.17-1-1-1.27-.49-2.48a12.6,12.6,0,0,0,4.67-1.82c-2.11-.27-3.83-.68-5.48.45l-1-1,.71-1.46a7,7,0,0,0-4.83,2.59c-.79-.79-.7-2-2-2.77l3.41-2.27c-3.05-.19-5.06-.95-6.93.53l-1.2-1.26a1.26,1.26,0,0,1,.69-1.59c3.08-1,5.46-3.16,8.15-4.79l-.64-.64c-.06-1.22,1.39,0,1.47-1.4l-1.1-1c-1.41,0-2.15,1.55-3.88.71L192,644a5.39,5.39,0,0,1-4.87,1.46c-.7-.32,0-1.5-1.2-1.8l-5.44,2.8c-3.9-2.92-8.88-4.51-11.67-8.81-.07-1,.46-1.12,1.27-1.11,1,2.36,2.85,3.29,5.44,3.7,1.93.3,4.15.63,5.6,2.85.17-.82.25-1.23.36-1.75,1.07-.06,2.11,1.41,3.33.3-.44-1.89-3.67-1.24-3.4-4.1,1.4.13,1.83,2.08,3.53,1.82,1-.15,2.18,1,3.29,1.51l1.23-2.46c-.1-1.18-1.37-1.47-1.69-2.42a.87.87,0,0,1,1.16-.32c.92,1,1.72,2,2.32,2.78,1.34-.23,2.15.2,2.7-.57.23-1.41-1.32-1.75-1.74-3,2.64-.56,5.61.6,7.87-1.5-1.53-1.85-3.8-1.23-5.68-1.39-1-.77.09-1.91-1-2.75-3.13,1.6-6,4.25-9.86,4.6-.34-1.39,1.3-1.4,1.34-2.75-2.62.19-4.36,2.59-6.84,2.69-2.67.11-5.35,0-8.14,0v-4.33c1.45-.5,1.46.35,1.77,1.24s1.82.13,2,1.38c1.05-.72.2-1.81.76-2.52,1.27-1.25,1.86,1.43,3.12.48,1.54-1.28-1.49-1.81-.38-3.28l3.25,1.63,1.2-1.57c1.76-.83,2.51.62,3.75.71l1.24-1.14c.21-.23,0-.35-.19-.66-.95-1.71-2.82-.36-3.93-1.15-1-2,1.93-1.06,1.79-2.85-.1-1.24,1.85-1.49,3.84-1.58-1.23-.89-1.49-2.11-3.05-1.55.54-1.89,2.73-2.24,2.66-4.49-3,.42-5.28,2.26-7.93,3.54-1.17,0-1.91-1.91-4.18-.12,1.08-2.46,3-3,3.12-4.63-1.19-2.19-2.12,1.21-3.43,0a5.94,5.94,0,0,1,0-3c1.36-1,2,1.47,3.27.36.76-1.53-1-1.83-1.52-2.82,1.13-1.81,2.27-3.67,3.42-5.52-1.81-1.51-3.14,1.34-5,.44-.15-.41-.33-.93-.51-1.45-.21-.3-.37-.21-.64.12-.48.55-1.08.94-1,1.85.25,2-.95,3.51-2.43,5.28v-6.25a41.8,41.8,0,0,0,4.15-6.31c-.73-.66-1.29-.33-1.86.27-.93,1-1.9,1.91-3.08,3.09-.64-1.78-.26-3.48-.33-5.12s0-3.2,0-5.42c-1.28,2.06-2,3.49-1.82,5.29.16,1.43,0,1.44-1.31,3.46-.8-1.7-1.6-3.32-4-4a19.22,19.22,0,0,0,3.64,6.1,7.89,7.89,0,0,1,1.52,6.9c-3.26-.62-2.62-4.13-4.67-5.43-.76.16-.4.88-.64,1.42-1.48,0-2.42-1.64-4.44-1.48.45,1.05,1.36,1.51,1.83,2.24-.69,1.45-2.7,1.14-3.45,2.82,2.25.78,4.76-.19,7.16.55-1.5,1.38-4,1.16-4.68,3.77,1.58.82,3.66.06,4.78,1.46,1.07-.48.34-1.66,1.48-2,1.41,0,1.7,1.75,3.1,2.27-1.58,3-1.05,6.09-1.19,9.37a5.32,5.32,0,0,1-5.52-2.51c-.89-1.53-2.72-2.55-2.64-4.77,0-.76-1.2-1.57-1.87-2.38-.94.3-1.71,1-3,.68l-2.37-2.83c-1.07.76-.63,1.57-.8,2.51l2.18,1.28c-1.3,1.64-3,.22-4,1.43.44,2.1,2.67,2.71,3.47,4.48-1.12.92-2.75,1.17-4.34,1.61,1.19,1.58,3.24,1.71,4.17,3.25a3.21,3.21,0,0,0,2.68-.72l1.28,1.1c.25,1.06-.49,1.44-1.12,2.15-1.16.69-2.75-.34-4.07.46.45,1.62,1.78,1.56,3.06,1.58.72.6.21,1.41.37,2.08s1,.45,1.51.68c.45.5.45,1-.15,1.68-1.9-.08-3.24-2.26-5.39-1.81-.8.51-.34,1.33-.48,2.06-1.46,1.1-3,1.94-5,1.42-.28,1.94-2.42,1.89-3,3.31,2.68,2,4.52,2.33,7.67,1.37.87.64-.15,1.77.85,2.64,2.15-.24,2.81-2.64,4.55-3.6h1.68a1,1,0,0,1,.42,1.19,3.88,3.88,0,0,1-.82,1c1,1.18,2.43.43,4.37-2.24,1.48-.2.57,1.5,1.65,1.88,2.49-.79,2.7-3.15,3.14-6a4.05,4.05,0,0,1,.31,4c-.51,1.13-1.13,2.22-1.84,3.61-1.44,1.2-3.49,1-5.45,1-.95,1,1.09,1-.43,2.59-.77.3-2.24,2-4.61.49-1.63-1-3.58-1.48-4.84-3-.62.36-.37.85-.48,1.58-2-.14-3.5.65-4,2.83-2.22.17-4-1.26-6.35-1.88-.24.69-.56,1.58-.88,2.48Z"/><path class="cls-3" d="M924.15,647.39h3.52c.35.87-.59.89-.73,1.42-1.32.82-2.93-.25-4.34.64l.73.93c-.34,1.28-1.82,1.08-2.56,1.85l1,1.16c-2.48.66-4-2.73-6.75-1l3.24,2.38c-1,1-1.74.8-2.14.07-.71-1.28-2.37-.92-3-2-1.68.7-1.19,2.3-1.68,3.38-1.79.67-1.94-1.69-3.31-1.66-.76-.13-.91.69-1.69,1l-3.42-1.72-1,1c0,.11-.16.27-.13.31,3.62,4.24,8.59,5.25,13.78,6,.85-1.64,2.49-1.92,3.76-2.76.94.57,1.09,1.63,1.58,2.48,1.59.48,1.77-1.32,3.19-1.68,1.56,1.45,3.85.65,6.16,1a1.6,1.6,0,0,1-1.44,1.64c-2.23-.28-2.62,1.36-3.28,2.69-1.76.58-2.66-.72-3.63-1.74-1.18,1.14-.07,1.63.4,2.26a4.9,4.9,0,0,0-.84,1c-.16.37.11.91-.59,1.21h-1.56c-1.29.79.4,3-1.64,3.48h-3.11L913.25,669a3.88,3.88,0,0,1-3,.71l-1.47-1.87c-1.12.75-.28,1.83-.84,2.57-1.52-.84-3.74-.28-4.49-2.36L901,669.24c2.71,2.89,6.22,4,9.74,5.31,3.83,1.4,7.36.37,10.89-1.16.29,1.79-1.2,2.17-1.89,3.53a22.33,22.33,0,0,0,4.59-.07,17.22,17.22,0,0,0,3.69-1.72c.95,0,.87.68.86,1.27.6,1.16,2.06-.08,2.7,1s2.1-.19,2.77,1.14c-.49,2.39-3.92,2.09-4.44,4.22s-3.15,2.69-3.15,5.44a5.33,5.33,0,0,0-4.7-1.32c-.72.33,0,1.53-1,1.76-1.25-.11-1.93-1.53-3.33-1.53-.74,0-.36.69-.64,1.32h-5.82l-1.66-1.57a.93.93,0,0,0-.41,1.19,7,7,0,0,0,4,4.06,3.38,3.38,0,0,1,1.81,1H923c.64-1.1,2.1-.87,2.93-1.9l2.91,1.44-1.69,1.69c1.19,1.14,2,.27,3.16-.24s2.34-.09,3.47-.09c1.35,1.53,3.38,1.39,5.08,2.32-1.08,3.45-6,2.84-6.78,6.65a22.34,22.34,0,0,0-3.06,0c-1,.15-1.77-.53-2.68-.76-.28.8-.47,1.44.66,1.65a2,2,0,0,1,1.84,2.08c-4.13,1.48-4.13,1.48-8.37.59-1,.47-.65,1.75-1.19,2.17,2.13,2.93,5.57.69,8.41,2.17s5.84-1.34,8.83-.7c.71.69-.21.71-.23,1-.48.75.67.78.46,1.39-1,.65-2.25,0-3.36.35.34,1.34,2,1.62,1.72,3.05-.94,1.12-1.12-1.08-2.12-.48-.65.38-1.72-.24-2.38.45,0,.45,0,.83.11,1,.69.77,1.45,1.48,1.95,2,4.68,1.06,8.64-1.45,13.6-1.78l-2.14,2.54c-.34,1,.8,1.22.88,2.1s-1,1.23-1.48,2c-.58.93-1.49.75-2.37.78-1.15,0-.14,1.84-1.43,1.79-.9,0-1.79-.06-2.31.83l-3.23-1.88c-.69-.29-.93,1.23-2,1.08a13,13,0,0,0-2.44.1c-.21,1.21.28,1.33,1,1.74,2.64,1.44,5.58,1.74,8.37,2.56,2,.57,4-.15,5.9-1l2.53,2.27c1.61-2.29,4.33-.19,6.48-2.37-.51,3.55-3.73,3.68-5,5.62l-3,.16c-.14,1.43,1.29.3,1.45,1.11-.37,2-2.38,1.08-3.51,1.93l1.89.89c-1.69,1.52-2.92-.83-4.44-.43L937,740c-.24,1.51.64,2.19,1.87,2.39,2.85.44,5.66,1.34,8.61.93a11.53,11.53,0,0,1,1.66,0c.26.67.45,1.19.69,1.85H960c-1,.87-1.89,1.88-3.89,1.83,1.94.94,1.1,2.35,1.65,3.29l1.89.65c-4,1.25-7.74,2.24-11.26,4.07l-1.31-.8c-.64.62-.16,1.41-.32,2.11-1.73.77-3.37,2.51-5.14.49-.95-.16-1.14.58-1.61.85a1.34,1.34,0,0,1-1.53-.64,10.42,10.42,0,0,1-7,.23c-2.87-.7-5.69-2-8.73-1.2-.79,1.44.43,2.15,1.17,2.47a84,84,0,0,0,13.36,4.62c1.83.45,3.87,1.49,5.39.64s3.09-.48,4.58-.72c.7.86-.42.89-.48,1.68h10.52c.17,1.54-1.15.62-1.37,1.27,1.29,1.75,3.32,1.5,5.18,1.89-2.87.9-5.78.29-8.63.65,1,2.08,4,1.06,5.33,3.73-4.92-1.67-9.19-.42-13.31.69-.94.79.1,1.92-.72,2.52s-1.41-.18-2-.86c-1.39.39-2.71,1.71-4.08.86-1.1.5-.4,1.65-1.33,1.94-1.9-.2-3.21-2.47-5.45-1.63-.18.52-.37,1-.6,1.69-.71-.67-1.32-1.26-1.92-1.84l-1.11,1-3.57-1.81c-.38.77-.39,1.15.49,1.71a84,84,0,0,0,16.19,7.55c2.23.82,4.38.1,6.43.54,3.83-2.14,4.83-2.49,7-2.5-.17.92-1.06,1.25-1.61,2,.18.14.37.41.57.42.89,0,2.1.31,2.59-.15,1.5-1.36,3.1-.33,4.74-.27l-6.92,2.44c1,2.82,3.74.77,5.28,2-.93,1.08-2.27,0-3.31.64-.54.57.28.61.4.93.51,1.33,2.17.15,3.12,1.43h-5c-1,.86,0,1,.2,1.45-.12,1-1.91,0-1.71,1.37-.2,1.45,1.53.49,1.77,1.47-1.31.86-2.89-.07-4.24.58-.39.6.49.55.3,1.43-.64.45-1.78,0-2.9.17-.16.47-.34,1-.52,1.53-.68.69-1.8-.28-2.44.63,1.85,2.63,5,2.78,7.55,3,2.9.24,5.48,2,8.51,1.27-1.28,1.14-2.76.44-4.81,1L953.94,807l-4.09-2c-.54,1.62,1.47,1.44,1.18,2.58s-2.16,1.32-1.54,3.08c-1.93.05-2.8-1.32-4.18-1.64-.48.68-.56,1.8-1.71,2.49-1.52-1.46-2.94-3.34-5.4-3.52-.84,1,1.22,1.17.55,2.2-.36.55.24,1.45-.24,2-1.17.82-1.54-.57-2.44-.69-.82-.28-1,1-2.15.88-.79-1.23-2.32-.8-3.74-.86-.09-1.8-2-1.69-3-2.81-1.38.72-2.85,1.8-4.39.24-.6.9-.19,1.45.44,1.92l-.94,2.18c-1.53-.86-3.58-1.22-4.74-.37-1.44,1-3.24-2.39-3.7,1.17-1.74-1.93-3.58-1.3-5.18-1.55-2.42-.5-3.15-2.7-4.48-4.36l-1,.85c-.61-.85-.7-2.11-1.88-2.57l-1.27,1.27c-.1,2.94,1.25,6,1.71,9.25H888.16c2.14-4.19,2.07-8.62,3.12-12.65-1.22-1.47-2.73-1.91-4.06-2.59-1.16,1.1-.18,2.43-.78,3.48-.58.5-.6-.34-1.28-.45-.3,1.41-1.5,2.3-2.51,3.34-.72-.24-.4-.95-.73-1.58-2.31.56-2.13,3.55-3.68,4.18-1.36.46-1.5-.86-2.64-.7-.64,1.67-2.58,2.18-3.88,3.46l-.67-.66c-1.11.24-1.38,1.9-2.8,1.64-1.23-.94.18-2.61-.9-3.62-2.08,0-2.38,2.66-4.32,2.74-1.43-.46,0-2-1.29-2.79L859.86,813c-2.39.87-3.15-.41-4.31-1.57l-1.58,2.4a2.87,2.87,0,0,0-2.27-2.64c.19-.65,1.15-1,.8-1.82-.25-.44-.64-.49-1.09-.55-1.44-.18-2.48,1.75-4.09.7-.09-1.27,2.3-1.47,1.25-3.4-1.57.1-3.23,1.78-5.2.46,2.6-1.42,5.44-1.56,8.59-2.68l-2.28-.82c-1.3-.75-2.57.5-4.07,1.12-.2-.52-.39-1-.57-1.52-1.46-.61-2.24,1.65-3.57.82-.79-.34-.58-1-.83-1.78l-3.12,1.63-.6-1.58-2.09-.23c-.25-1.22,1.33-1.27,1.37-2.34-2.07-1.07-4,1.87-6.17.22l5.13-2.53a6.81,6.81,0,0,0-3.64-1.95c2-.82,3.72-.21,5.3-.52.5-.3.4-.77.42-1.42,1.23-.84,3.18.35,4.35-1.17.18-.24,1.11,0,1.66.15a15.9,15.9,0,0,0,10.11-.19c1.45-.53,1.58-.79,1.62-3.43-.94.14-1.25,1.05-2,1.57-1.7-1.23,1.31-2.08.29-3.19-.21-.41-.34-.35-.64,0-1.56,1.51-2.86,3.35-5.24,4-.84-.76.07-2.05-.41-3.06-.21-.42-.43-.43-.63,0-.66,1.28-2.26,1.23-3.15,2.21-1.76-.47-1.52-2.08-1.55-3.25-1.74-.57-2.75,1.89-4.33.38-.51-1.54,1.13-1.83,1.66-2.78a1,1,0,0,0-1.09-.46,6.57,6.57,0,0,0-2.87.67c-1.3.68-3.11.65-4.13-1.65,2.37.47,4.24-.64,6.32-1.21l-1.76-1.88c.26-.15.5-.4.74-.4,3.59,0,7.19,0,10.78,0a15.54,15.54,0,0,0,3.13,0,10,10,0,0,0,2.44-1.38c-2.56-.77-4.62-3-7.84-1.48,0-1.51-1.72-1.44-2.51-2.44-.58.36-.89,1.29-1.88.77-.39-.22-.42-.65-.38-1.22l4.24-2.15H837.9c-.83-.66-.64-1.11-.59-1.91,2.62.71,4.87-1.3,7.78-.83.38-1.79.65-3.41-1.25-4.57-1.45-.21-1.67,1.54-2.83,1.8-3.1-.49-4.12-3.14-5.58-5.35-.18-1.46,1.53-.52,1.79-1.39v-1.26c-2.16.32-4-1-6.17-1.25l0-1.18c1.47-1.18,2.19,1.25,3.63.61,1-.46,2.34.31,3.51-.42l-1.79-1.92a2,2,0,0,1,2.77.11c.87.82,2,.22,3,.38.68-.3.47-1,.63-1.46,2.12-1.3,3.85.9,5.83.56,2.66,1.9,5.1-.06,7.57-.54a14.51,14.51,0,0,0,5.75-2.36c.85-.32.3-1.61,1.35-2-.18-.47-.56-.5-1-.53-1.62-.12-2.62,1.34-4.1,1.58-1.1-1.24,1.45-1.85.47-3.14-.71-.45-.71.69-1.76.61l-2.53-1.24.94-1c-1.58-1.17-2.48,1.08-4.07.67-1.38-.35-2.27-2.06-4-1.41l.92-1.08a11.58,11.58,0,0,1-4.52-1.74c1-.89,2.32,0,3.86-.77l-7.17-2.87c2-.35,3.08-.55,4.57.33,1.11.66,2.93.44,4.35.17s2.59,1.12,4.19.91c-.31-.63-.5-1-.71-1.47,7.91,1.21,14.91,0,19.82-3.53-1.87-.28-3.46-.72-4.15-2-1.22-.36-1.47.71-2.37.83-1,.28-1.07-2.06-2.92-.39l1-2.07c-1.95-1.17-2.08,1.91-3.88,1.44-1.29-.75.24-2.46-.82-3.42-1.22.57-1.75,2.68-4.21,1.17L854,728.27c-.72-.1-.95,1.08-1.8.7-1.09-.1-.25-1.37-1-1.69-.9-.4-1.35.25-2,.88-2-.33-3.42-2.51-5.91-1.84.63-1.32,1.86-1.64,2-3.15-.8-1-3.22.11-3.48-2.06,2.85-.23,5.54-1.26,8.5-1.19,2.7.06,5.38.3,8.22-.62,2.68-.88,5.88-.19,8.74-.19l1.19-1.25c-.79-2.22-2.85-1-4.14-1.6a1.31,1.31,0,0,1,.18-1.61c3.72.41,7.06-1.64,10.65-2.77a2.07,2.07,0,0,0,1.52-2.23c-2-1.21-3.6-.3-5,1.53l-.84-2.28c-.55.93-1,1.67-1.33,2.27-1-.49-1.29-1.5-2.44-.8l-.48,1.43H862l-1.26-1.26-.47,1.26c-1.36.47-1.57-.32-1.62-1.63-1.36.11-2.81-.61-4,.85-.93-.89-1.7-2-3.12-2.21.43-.56,1.29-.91.58-2.19-1-.58-3.39.84-4-1.77,2.1-.2,4.31,0,5.64-2.53.44-.82,2.32-1.34,3.9-1.21,3.78.3,7.16-1.28,10.53-2.7.51-.22.86-.82,1.28-1.24.75-1.23-1.49-1.55-.84-2.75.62-.92,1.71-.07,2.25-.49s.42-.94.38-1.39c-.91-.77-2-.18-3-.37-1.44,1.16-2.41,2.94-4.87,3.24-1.46-.6-2.73-2.13-4.18-4h-3.57a4.09,4.09,0,0,0-3.24-3.28c1.37-1,2.92-.11,4.26-.63l.61-1.58c.82.85,2.2.66,2.83,1.73,2.45-.06,5.11.53,6.92-1.94-1.13-1.4-2.74-.21-3.82-1.09l.92-1c-1.11-1.14-1.78.12-2.23.53-2-.24-2-1.79-2.78-2.77H857.4c-.75-.61-.26-1.42-.43-2.15-.92-.53-2.06-.82-2.79-2.21h6.06l.72-2,4.92,1.84c3-1.12,6.67-1,10-3.05-1.81-1-3.67-1.73-5.14-3.21s-2.05-3.77-4.46-4.24l-.61.53c-2.62-1-4.56-3.2-7.52-2.43-.17-1,1-1.27.49-2.48a12.6,12.6,0,0,1-4.67-1.82c2.11-.27,3.83-.68,5.48.45l1-1-.71-1.46a7,7,0,0,1,4.82,2.59c.8-.79.7-2,2.05-2.77l-3.4-2.27c3-.19,5.06-.95,6.93.53l1.2-1.26a1.26,1.26,0,0,0-.7-1.59c-3.07-1-5.45-3.16-8.15-4.79l.65-.64c.06-1.22-1.39,0-1.47-1.4l1.1-1c1.41,0,2.14,1.55,3.88.71l1.3-2.2a5.38,5.38,0,0,0,4.86,1.46c.71-.32,0-1.5,1.21-1.8l5.44,2.8c3.9-2.92,8.88-4.51,11.67-8.81.07-1-.47-1.12-1.27-1.11-1,2.36-2.85,3.29-5.44,3.7-1.94.3-4.15.63-5.6,2.85-.17-.82-.25-1.23-.36-1.75-1.07-.06-2.11,1.41-3.33.3.43-1.89,3.66-1.24,3.4-4.1-1.4.13-1.84,2.08-3.53,1.82-1-.15-2.18,1-3.29,1.51l-1.24-2.46c.11-1.18,1.37-1.47,1.7-2.42a.88.88,0,0,0-1.17-.32c-.91,1-1.71,2-2.31,2.78-1.34-.23-2.15.2-2.7-.57-.23-1.41,1.32-1.75,1.74-3-2.64-.56-5.61.6-7.87-1.5,1.52-1.85,3.8-1.23,5.67-1.39,1-.77-.08-1.91,1-2.75,3.13,1.6,6,4.25,9.85,4.6.35-1.39-1.29-1.4-1.33-2.75,2.61.19,4.36,2.59,6.84,2.69,2.67.11,5.35,0,8.13,0v-4.33c-1.44-.5-1.45.35-1.77,1.24s-1.81.13-2,1.38c-1-.72-.2-1.81-.76-2.52-1.27-1.25-1.86,1.43-3.13.48-1.54-1.28,1.5-1.81.39-3.28l-3.25,1.63-1.2-1.57c-1.76-.83-2.51.62-3.75.71l-1.24-1.14c-.21-.23,0-.35.18-.66,1-1.71,2.83-.36,3.93-1.15,1-2-1.93-1.06-1.78-2.85.1-1.24-1.85-1.49-3.84-1.58,1.23-.89,1.49-2.11,3-1.55-.55-1.89-2.73-2.24-2.66-4.49,3,.42,5.28,2.26,7.92,3.54,1.18,0,1.92-1.91,4.19-.12-1.08-2.46-3-3-3.13-4.63,1.2-2.19,2.13,1.21,3.44,0a5.94,5.94,0,0,0,0-3c-1.36-1-2,1.47-3.28.36-.75-1.53,1-1.83,1.52-2.82l-3.41-5.52c1.81-1.51,3.14,1.34,5,.44l.5-1.45c.22-.3.37-.21.65.12.47.55,1.08.94,1,1.85-.24,2,1,3.51,2.44,5.28v-6.25a41.82,41.82,0,0,1-4.16-6.31c.74-.66,1.3-.33,1.87.27.93,1,1.9,1.91,3.08,3.09.64-1.78.26-3.48.33-5.12s0-3.2,0-5.42c1.27,2.06,2,3.49,1.82,5.29-.16,1.43,0,1.44,1.31,3.46.8-1.7,1.6-3.32,4-4a19.05,19.05,0,0,1-3.65,6.1,7.92,7.92,0,0,0-1.51,6.9c3.26-.62,2.62-4.13,4.67-5.43.76.16.39.88.64,1.42,1.48,0,2.42-1.64,4.44-1.48-.46,1.05-1.36,1.51-1.84,2.24.7,1.45,2.7,1.14,3.46,2.82-2.25.78-4.77-.19-7.16.55,1.5,1.38,4,1.16,4.68,3.77-1.58.82-3.66.06-4.78,1.46-1.07-.48-.34-1.66-1.48-2-1.41,0-1.71,1.75-3.11,2.27,1.59,3,1.06,6.09,1.2,9.37a5.32,5.32,0,0,0,5.52-2.51c.88-1.53,2.72-2.55,2.64-4.77,0-.76,1.2-1.57,1.87-2.38.94.3,1.71,1,3,.68l2.37-2.83c1.06.76.62,1.57.79,2.51L907,613.18c1.3,1.64,3,.22,4,1.43-.44,2.1-2.67,2.71-3.47,4.48,1.12.92,2.74,1.17,4.34,1.61-1.19,1.58-3.24,1.71-4.17,3.25a3.21,3.21,0,0,1-2.68-.72l-1.28,1.1c-.26,1.06.49,1.44,1.11,2.15,1.16.69,2.76-.34,4.08.46-.45,1.62-1.78,1.56-3.06,1.58-.72.6-.21,1.41-.37,2.08s-1,.45-1.51.68c-.45.5-.45,1,.15,1.68,1.9-.08,3.24-2.26,5.39-1.81.79.51.34,1.33.47,2.06,1.47,1.1,3,1.94,5,1.42.28,1.94,2.42,1.89,3,3.31-2.68,2-4.52,2.33-7.67,1.37-.88.64.14,1.77-.85,2.64-2.15-.24-2.82-2.64-4.56-3.6h-1.67a1,1,0,0,0-.42,1.19,3.88,3.88,0,0,0,.82,1c-1,1.18-2.44.43-4.37-2.24-1.48-.2-.58,1.5-1.65,1.88-2.49-.79-2.7-3.15-3.14-6a4.05,4.05,0,0,0-.31,4c.51,1.13,1.12,2.22,1.84,3.61,1.43,1.2,3.49,1,5.45,1,.95,1-1.09,1,.43,2.59.77.3,2.24,2,4.6.49,1.63-1,3.59-1.48,4.85-3,.62.36.37.85.48,1.58,2-.14,3.5.65,4,2.83,2.22.17,4-1.26,6.36-1.88.24.69.56,1.58.88,2.48Z"/><path class="cls-3" d="M480.19,753.15c.1-1.84,1.68-2.44,2.89-4.07-3.05-1-5.65-2.5-4.47-6.14l-3-1.06c0-.85-.44-1.65.75-2.33,3.83-.82,5.48,3.8,8.84,4.56l1.25-1.83c-3.48-2.81-4.81-7.66-9.21-9.84.53-.92,1.37-.51,2.06-.61a2,2,0,0,0,.79-1.93c0-.72.1-1.44.16-2.12,5.82-1.23,11.45-2.88,17-1.76,1.17-1.23,1.21-2.09.53-2.92-2.09-1.43-2.84,1.78-5,1-1.56-2-4.27-3.46-5.56-6.73,5.13-2.1,7.61,2,10.78,3.9,2.86-.19,1.06-3.42,3.13-4-1.89-1.78-2.65.39-3.86.69-1.53-1.4.9-4.31-2.37-4.89a4,4,0,0,0,1.92-4.07c3.84,1.28,6.57-2.22,10.46-1.33.11-3.68-2.6-4.5-3.82-6-1.58-.31-2.13.63-3.08,1.53-.64-3.55-4.15-5.08-5.66-7.79,2-2.39,4.26-.69,6-1.63,1.16-1.55,0-3.38.65-4.89-1.69-1.78-2.75-.66-3.85.55-1.93-1.38.63-4.46-2.89-5.21,1.26-.45,1.84-.87,2.12-.73,3.54,1.91,6.38,4.92,10.15,6.5.4.16.39,1.29.64,2.25h8.33l1.87-1.95c-4.53-2.32-10.14-2.63-14.66-7.19,5.75-2.58,9.46.74,13.64,2l2.7-2.38-4.6-4.59,1.39-1.39c-1.21-1.6-2.33-3.35-5.94-1.55l-1.54,2.13c-2.34-.06-4.08.49-5.77-.41.19-.37.29-.9.57-1,3.4-1.5,7.19-2.29,9.83-5.44-2.86-1.46-6,.1-8.25-.77l5.65-5.71c1.68.61,4.38,3.3,6.72-.7,1.56-2.82-.56-5.34-1.47-8.45l8.68,3c1.31-1.53.61-2.42-.36-3.39-3.23-3.25-7-6.13-8.16-11.06,3.87.94,3.87.94,9-1.2-1.14-2.5-3.16-4.67-2.79-7.72a11.85,11.85,0,0,0,5.88-4.77l-1.12-1.12,4.12-3.75c1,2.49-3.23,4.7-.64,7.23,2.07,1.24,2.59-2.54,5.11-1.15-.91,1.91-2,4-1.13,6.06-.93,2-3.61,2.53-3,5.6,3.44-.07,6.33-2.4,9.68-2.89,1.05,1.47,1.46,2.74-1,3-1.45.16-1.38,1.13-1.33,2.18,2,2.34,3.74.22,5.56-.35a1.45,1.45,0,0,1,.34,2c-1.22,1.11-3.18,1.15-4.4,3.18V654c-2.36,2.62-3-1.35-5.69-.37-.13.25-.7,1.38-1.28,2.5l1.62,1.62c3.79-.35,7.05-3.62,11.42-2.79-2.51,5.06-9.4,5.56-10.28,12,5.91-.42,10.77-3.12,15.29-6.47.49.77.92,1.15,1,1.57.33,2.54-3.61,2.81-3,5.54-5.08,1.15-5,8.27-10.49,8.95.73,1.65,2.18.52,3,1,2.78-.93,3.69-3.81,6.53-4.83,2.32-.83,3.88-3.77,5.77-5.78,2.31,2.26,1.3,3.88-.46,5.44-2.1,1.86-2.14,3.78,0,5.74a13.56,13.56,0,0,1-9.49,5.72l4.19,4.19-2.12,2.32c1.4,1.4,2.83,1,5.83-1.72-.36-.36-.73-.7-1-1.08-.09-.1,0-.35,0-.79h5c1.74-3.18,5.74-3.2,7.37-6.42A3.79,3.79,0,0,1,564,685c-2.06,3.65-1.51,8.54-5.36,11.37-.09,3.89-3.33,3.46-5.75,4.14-.21,2.19,2.25.2,2.57,2v1.61c-1.33.88-1.36-1.06-2.32-.78-2.65,4.52,2.41,6.74,2.83,10.29,5.12-2.38,11.07-1.87,15.24-6.88,2.11,4.49-.23,7-2.29,9.41-.54.63-2.34.64-2.43,1.13-.69,4-5.38,5-6.44,8.9,2.75,3.31,5.14-1.35,7.71-.42,3.36-3.08,8.27-3.85,11.24-7.51,1.51,1.33,3.24,2.56,1.59,5.88l-8.13,7.62-2.56.12c-2,1.55-2.56,4-3.73,6,0,1.57,1.69,1.79,2,2.8l11.9-5.94c2.49,2.65,2.49,2.65,2.07,6.13l-1.6-1.46a1.62,1.62,0,0,0-.7,1.92,7.54,7.54,0,0,0,1.29,1.74c-1,2.75-3.81,2.27-5.71,2.65-.39,1.67.09,2.47,1.05,3.12,0,1.38-2.6,2.56-.41,4.13,6.09-2,9.89-7.3,15.18-12,1.2,4.18-1.85,6.33-.86,9-.72.7.23-.21-.49.49l.49-.49c2.48,0,.87,3.23,2.89,3.62-1.54,2.71-5.33,2.43-6.73,4.38s-3.85,3-4.38,5.53h-3.22c-.77,1.77-1.57,3.59-2.61,5.94,6.48-1.35,10.36-5.49,14.77-8.67.72,4,.4,4.86-3.92,9.8v4.64c-2.51,1.09-5.14-.39-7.2.94-1.57,3.35,3.43,1.53,2.84,4-1.69,1.48-3.76,1.52-5.83,1.53,2.07,0,4.14-.05,5.83-1.53,3.36-.1,6.83.67,10.27-2.43-2.42,6.48-5.29,8.92-11,10-.7.13-1.39-.15-2.08.47-1.06,1-1.67,2.56-3.45,2.56a12.71,12.71,0,0,0-4.31.48c4.22,2.27,9.29-.75,13.61,2.86,1.86-4,6.33.24,8.73-3.24-.48,6.08-7.67,4.63-9.25,8.81-1.69,4.49-7.52,4.37-9.12,9h-7.9c-.44,1.12-1,2.58-1.42,3.58-5-1.31-7.71,1.64-11.15,2.16l3,1.1c-1.5,1.87-4.63-.33-5.48,2.33-.79-1.9-3.36-.93-4.5-3.38L547,818.21c.07,1.06,2.4.88,3.88,1.79-.54,1.8-2,.56-3.12,1-2.22-1.45-4.1-3.22-4.82-6-1.47.91-2.74,1.93-2.69,4.12h-6.16a2.47,2.47,0,0,0-1.19,2.2c-.85,7.17,2.53,14,1.55,21.22a24.25,24.25,0,0,0,0,3.4c-1.48,1-2.7.54-4.39.49-.61-8.39,1-17.07-2.37-25.32-5.19-1.33-10.24,1-15.47,1.61l-2.54,2.55c-3-1.74-7.28-1.68-8.33-6a8.83,8.83,0,0,1,2.29-1.23,8.39,8.39,0,0,0-2.29,1.23c-2.57.68-4-1.61-6.39-2l6.23-3.13v-2.09H477.38c.46-2.77,2.26-1.19,3.45-1.81,0-2,3-2.93,2.21-5.13-.77-1.11-1.56-.74-2.27-.76-1.28.58,0,2.57-2.19,3.09-2.7-1.15-4.3-4.17-7-6.15-1.5-.25-3.28.44-5.6-.87l3.52-2.07c-1.33-2.72-2.34-4.76-3.22-6.58.72-1.16,1.87-1.38,2.17-1,2.73,3.3,7.15,3.62,10.49,6.78,1.28-1.82,2.28-3.24,3.29-4.66.82.1.64-.17.13-.62-1.64-1.41-2.78-3.41-5.54-3.18-.91.07-1.93-1.32-2.83-2v-4.75c1.57-1.48,4.7.27,5.62-2.61l-5.51-6.27c.4-1.21,1.59-.67,2.63-1.22,0-1.75-2.27-2.06-2.65-3.9,2.15-.17,4.09-.85,6.23.67,4.37,3.11,8.89,2.72,13.25-.14-2.65-3.94-8.75-3.17-11.31-8.26l-3.07-.2c-.69-3.72-3.44-4.82-6.68-4.71v-2c1.6-1.63,2.62-.39,3.67.72a3.71,3.71,0,0,1,4-1.26,4.16,4.16,0,0,0,2.31,1.72A4.29,4.29,0,0,1,480.19,753.15Z"/><path class="cls-3" d="M972.68,811.83c.1-1.83,1.68-2.43,2.89-4.06-3.05-1-5.65-2.5-4.47-6.14l-3-1.06c0-.85-.44-1.65.75-2.34,3.83-.81,5.48,3.81,8.84,4.57l1.25-1.83c-3.48-2.81-4.81-7.66-9.21-9.84.53-.92,1.37-.51,2.06-.61a2,2,0,0,0,.79-1.94c0-.71.1-1.43.16-2.11,5.82-1.23,11.45-2.89,17-1.76,1.17-1.23,1.21-2.09.53-2.92-2.09-1.43-2.84,1.78-5,1-1.56-2-4.27-3.45-5.56-6.73,5.13-2.09,7.61,2,10.78,3.91,2.86-.19,1.06-3.43,3.13-4-1.89-1.78-2.65.39-3.86.68-1.53-1.39.9-4.3-2.37-4.88a4,4,0,0,0,1.92-4.07c3.84,1.27,6.57-2.22,10.46-1.33.11-3.68-2.6-4.5-3.82-6.05-1.58-.31-2.13.63-3.08,1.52-.64-3.54-4.15-5.07-5.66-7.79,2-2.38,4.26-.68,6-1.62,1.16-1.56,0-3.38.65-4.89-1.69-1.78-2.75-.66-3.85.55-1.93-1.38.63-4.46-2.89-5.21,1.26-.45,1.85-.87,2.12-.73,3.54,1.91,6.38,4.92,10.15,6.5.4.16.39,1.29.64,2.25h8.33l1.87-2c-4.53-2.31-10.14-2.62-14.66-7.18,5.75-2.58,9.46.74,13.64,2l2.7-2.38-4.6-4.59,1.39-1.39c-1.21-1.6-2.33-3.35-5.94-1.56,0,.08-.92,1.29-1.54,2.14-2.34-.06-4.08.48-5.77-.42.2-.36.29-.89.57-1,3.4-1.5,7.19-2.29,9.83-5.44-2.86-1.46-6,.1-8.25-.77l5.65-5.72c1.68.62,4.38,3.3,6.72-.69,1.56-2.82-.56-5.34-1.47-8.45l8.68,2.95c1.31-1.54.61-2.42-.36-3.39-3.23-3.25-7-6.13-8.16-11.06,3.87.94,3.87.94,9-1.21-1.14-2.49-3.16-4.66-2.79-7.71a11.91,11.91,0,0,0,5.88-4.77l-1.12-1.12,4.12-3.75c1,2.49-3.23,4.69-.64,7.23,2.07,1.24,2.59-2.54,5.11-1.15-.91,1.91-2,4-1.13,6.06-.93,2-3.61,2.52-3,5.6,3.44-.08,6.33-2.4,9.68-2.89,1,1.47,1.46,2.74-1,3-1.45.16-1.38,1.13-1.32,2.18,2,2.33,3.73.22,5.55-.35a1.45,1.45,0,0,1,.34,2c-1.22,1.11-3.18,1.15-4.4,3.18v4.32c-2.36,2.62-3-1.36-5.69-.37-.13.25-.7,1.38-1.28,2.5l1.62,1.62c3.79-.35,7-3.62,11.42-2.79-2.51,5.05-9.4,5.56-10.28,12,5.91-.42,10.77-3.12,15.29-6.47.49.77.92,1.15,1,1.57.33,2.54-3.61,2.81-3,5.54-5.08,1.15-5,8.26-10.49,9,.73,1.65,2.18.52,3,1,2.78-.93,3.69-3.81,6.53-4.83,2.32-.83,3.88-3.77,5.77-5.78,2.31,2.26,1.3,3.88-.46,5.44-2.1,1.86-2.14,3.78,0,5.74a13.59,13.59,0,0,1-9.49,5.72l4.19,4.18-2.12,2.33c1.4,1.4,2.83,1,5.83-1.72-.36-.36-.73-.7-1.05-1.08-.09-.1,0-.35,0-.79h5c1.74-3.18,5.74-3.2,7.37-6.42a3.79,3.79,0,0,1,.23,4.72c-2.06,3.65-1.51,8.54-5.36,11.36-.09,3.9-3.33,3.47-5.75,4.15-.21,2.19,2.25.2,2.57,2v1.61c-1.33.88-1.36-1.06-2.32-.78-2.65,4.52,2.41,6.74,2.83,10.29,5.12-2.38,11.07-1.87,15.24-6.88,2.11,4.49-.23,7-2.29,9.41-.54.63-2.34.64-2.43,1.13-.69,4-5.38,5-6.44,8.9,2.75,3.31,5.14-1.35,7.71-.42,3.36-3.09,8.27-3.85,11.24-7.52,1.51,1.34,3.24,2.56,1.59,5.88l-8.13,7.63-2.56.12c-2,1.55-2.56,4-3.73,6,0,1.58,1.69,1.8,2,2.81l11.9-5.94c2.49,2.65,2.49,2.65,2.07,6.13l-1.6-1.46a1.62,1.62,0,0,0-.7,1.92,7.54,7.54,0,0,0,1.29,1.74c-1,2.75-3.81,2.27-5.71,2.65a2.54,2.54,0,0,0,1,3.12c0,1.38-2.6,2.56-.41,4.13,6.09-2,9.89-7.3,15.18-12,1.2,4.18-1.85,6.33-.86,9-.72.7.24-.21-.49.49l.49-.49c2.48,0,.87,3.23,2.89,3.61-1.54,2.72-5.33,2.44-6.73,4.39s-3.85,3-4.37,5.53h-3.23c-.77,1.77-1.57,3.58-2.61,5.94,6.48-1.35,10.36-5.5,14.77-8.67.72,4,.4,4.86-3.92,9.79v4.64c-2.51,1.1-5.14-.38-7.2,1-1.57,3.35,3.43,1.53,2.84,4-1.69,1.48-3.76,1.52-5.83,1.53,2.07,0,4.14,0,5.83-1.53,3.36-.1,6.83.67,10.27-2.44-2.42,6.49-5.29,8.93-11,10-.7.13-1.39-.15-2.08.47-1.06,1-1.67,2.56-3.45,2.55a13,13,0,0,0-4.31.49c4.22,2.27,9.29-.75,13.61,2.85,1.86-4,6.33.25,8.73-3.23-.48,6.07-7.67,4.63-9.25,8.81-1.69,4.49-7.52,4.36-9.12,9h-7.9c-.44,1.12-1,2.58-1.42,3.58-5-1.31-7.71,1.64-11.15,2.16l3,1.1c-1.5,1.87-4.63-.33-5.48,2.33-.79-1.9-3.36-.93-4.5-3.38l-1.71,3.75c.07,1.06,2.4.88,3.88,1.79-.54,1.8-2,.56-3.12,1-2.22-1.45-4.1-3.22-4.82-6-1.47.92-2.74,1.93-2.69,4.12h-6.16a2.49,2.49,0,0,0-1.19,2.21c-.85,7.17,2.53,14,1.55,21.22a24.25,24.25,0,0,0,0,3.4c-1.48,1-2.7.54-4.39.49-.61-8.39,1-17.07-2.37-25.32-5.19-1.33-10.24,1-15.47,1.61l-2.54,2.54c-3-1.73-7.28-1.67-8.33-6a8.54,8.54,0,0,1,2.29-1.23,8.39,8.39,0,0,0-2.29,1.23c-2.57.68-4-1.61-6.38-2l6.22-3.13v-2.1H969.87c.46-2.77,2.26-1.19,3.45-1.8,0-2,3-2.93,2.21-5.13-.77-1.11-1.56-.74-2.27-.77-1.28.59,0,2.58-2.19,3.1-2.7-1.15-4.3-4.17-7-6.15-1.5-.25-3.28.44-5.6-.87l3.52-2.07c-1.33-2.72-2.34-4.76-3.22-6.58.72-1.16,1.87-1.38,2.17-1,2.73,3.3,7.15,3.62,10.49,6.78,1.28-1.82,2.28-3.24,3.29-4.66.82.1.64-.18.13-.62-1.64-1.41-2.78-3.42-5.54-3.18-.91.07-1.93-1.32-2.83-2v-4.75c1.57-1.48,4.7.27,5.62-2.61l-5.51-6.27c.4-1.21,1.59-.67,2.63-1.22,0-1.75-2.27-2.06-2.65-3.9,2.15-.17,4.09-.85,6.23.67,4.37,3.1,8.89,2.72,13.25-.14-2.65-3.94-8.75-3.17-11.31-8.26l-3.07-.2c-.69-3.72-3.44-4.82-6.68-4.71v-2c1.6-1.64,2.62-.39,3.67.72a3.74,3.74,0,0,1,4-1.27,4.18,4.18,0,0,0,2.31,1.73A4.31,4.31,0,0,1,972.68,811.83Z"/><path class="cls-3" d="M1709.09,830.88c-.1-1.83-1.68-2.43-2.89-4.06,3-1,5.65-2.51,4.47-6.14l3-1.06c0-.86.43-1.65-.76-2.34-3.82-.82-5.48,3.81-8.84,4.57-.39-.59-.66-1-1.25-1.84,3.49-2.81,4.81-7.65,9.21-9.84-.52-.92-1.36-.5-2.06-.61a2,2,0,0,1-.79-1.93,20.72,20.72,0,0,0-.16-2.11c-5.82-1.23-11.45-2.89-17-1.77-1.17-1.22-1.2-2.08-.52-2.91,2.08-1.43,2.83,1.78,5,1,1.56-2,4.27-3.45,5.57-6.73-5.14-2.1-7.62,2.05-10.79,3.9-2.85-.19-1-3.42-3.13-3.95,1.89-1.78,2.65.38,3.87.68,1.52-1.39-.91-4.31,2.37-4.89a4,4,0,0,1-1.92-4.06c-3.85,1.27-6.58-2.23-10.46-1.34-.12-3.67,2.59-4.49,3.82-6,1.58-.32,2.12.63,3.08,1.52.63-3.54,4.14-5.08,5.65-7.79-2-2.38-4.26-.68-6-1.62-1.15-1.56,0-3.38-.65-4.89,1.69-1.79,2.75-.66,3.86.55,1.92-1.38-.63-4.46,2.88-5.21-1.26-.45-1.84-.88-2.12-.73-3.53,1.91-6.37,4.91-10.15,6.49-.4.17-.39,1.3-.64,2.26h-8.33l-1.87-2c4.53-2.31,10.15-2.62,14.66-7.19-5.75-2.57-9.46.75-13.63,2l-2.7-2.38,4.59-4.6-1.39-1.38c1.21-1.6,2.34-3.36,5.94-1.56l1.54,2.14c2.34-.06,4.08.48,5.77-.42-.19-.36-.29-.89-.57-1-3.4-1.5-7.19-2.29-9.83-5.44,2.86-1.46,6,.1,8.25-.77l-5.65-5.72c-1.68.61-4.37,3.3-6.72-.69-1.55-2.82.56-5.35,1.47-8.46l-8.67,3c-1.32-1.53-.61-2.41.35-3.38,3.23-3.25,7-6.13,8.16-11.06-3.87.94-3.87.94-9-1.21,1.14-2.49,3.17-4.67,2.79-7.71a12,12,0,0,1-5.88-4.77l1.12-1.13-4.12-3.75c-1,2.5,3.23,4.7.65,7.23-2.07,1.25-2.6-2.53-5.12-1.15.92,1.92,2,4,1.13,6.07.93,2,3.61,2.52,3,5.6-3.44-.08-6.33-2.41-9.68-2.89-1,1.46-1.46,2.74,1,3,1.44.16,1.37,1.12,1.32,2.17-2,2.34-3.74.23-5.56-.35a1.45,1.45,0,0,0-.33,2c1.21,1.11,3.17,1.15,4.39,3.18v4.32c2.36,2.61,3-1.36,5.69-.37l1.28,2.5-1.62,1.62c-3.79-.36-7-3.63-11.41-2.79,2.5,5,9.39,5.56,10.28,12-5.91-.43-10.77-3.12-15.29-6.47-.5.77-.93,1.14-1,1.57-.34,2.54,3.6,2.81,3,5.54,5.08,1.15,5,8.26,10.49,8.94-.73,1.65-2.18.53-3,1-2.77-.93-3.69-3.82-6.53-4.83-2.31-.83-3.87-3.78-5.77-5.78-2.31,2.26-1.3,3.87.46,5.43,2.1,1.87,2.14,3.78,0,5.75a13.54,13.54,0,0,0,9.49,5.71l-4.19,4.19,2.11,2.33c-1.4,1.4-2.83,1-5.83-1.73a13.51,13.51,0,0,0,1.06-1.08c.08-.1,0-.34,0-.79h-5c-1.74-3.17-5.74-3.19-7.36-6.41a3.79,3.79,0,0,0-.24,4.72c2.06,3.64,1.51,8.53,5.37,11.36.08,3.9,3.32,3.46,5.74,4.15.21,2.18-2.24.19-2.57,2v1.61c1.33.89,1.36-1,2.32-.77,2.65,4.52-2.41,6.74-2.82,10.28-5.13-2.37-11.08-1.87-15.25-6.87-2.11,4.48.23,7,2.3,9.41.53.63,2.34.64,2.42,1.13.69,4,5.38,5,6.44,8.9-2.75,3.3-5.14-1.35-7.71-.42-3.36-3.09-8.27-3.85-11.24-7.52-1.51,1.33-3.24,2.56-1.59,5.88l8.13,7.63,2.56.12c2,1.54,2.56,4,3.73,6,0,1.58-1.68,1.8-2,2.81l-11.9-5.94c-2.48,2.65-2.48,2.65-2.07,6.12l1.61-1.46a1.65,1.65,0,0,1,.69,1.93,7.5,7.5,0,0,1-1.28,1.74c1,2.75,3.8,2.27,5.7,2.65.39,1.66-.09,2.47-1,3.12,0,1.38,2.6,2.56.41,4.13-6.09-2-9.89-7.31-15.18-12-1.2,4.18,1.86,6.33.87,9,.71.71-.24-.21.48.49l-.48-.49c-2.48,0-.88,3.23-2.9,3.62,1.54,2.72,5.33,2.44,6.73,4.39s3.85,3,4.38,5.53h3.22c.78,1.76,1.57,3.58,2.61,5.94-6.48-1.35-10.36-5.5-14.76-8.67-.73,4-.41,4.86,3.91,9.79v4.64c2.52,1.1,5.14-.38,7.2,1,1.57,3.34-3.43,1.52-2.84,4,1.7,1.48,3.76,1.51,5.83,1.53-2.07,0-4.13,0-5.83-1.53-3.35-.1-6.83.67-10.27-2.44,2.42,6.49,5.3,8.93,11,10,.7.13,1.4-.15,2.09.48,1,1,1.66,2.56,3.44,2.55a13.23,13.23,0,0,1,4.31.48c-4.22,2.28-9.29-.74-13.61,2.86-1.85-4-6.33.25-8.73-3.23.48,6.07,7.67,4.63,9.25,8.81,1.69,4.49,7.53,4.36,9.13,9H1621c.44,1.12,1,2.58,1.42,3.58,5-1.31,7.71,1.64,11.16,2.16l-3,1.1c1.51,1.87,4.64-.34,5.48,2.32.79-1.89,3.36-.92,4.5-3.37.51,1.11.9,2,1.72,3.75-.08,1-2.4.87-3.88,1.78.53,1.81,2,.56,3.11,1,2.23-1.44,4.1-3.21,4.82-6,1.48.92,2.74,1.93,2.69,4.12h6.17a2.47,2.47,0,0,1,1.18,2.2c.85,7.18-2.53,14-1.55,21.23a24.1,24.1,0,0,1,0,3.39c1.48,1,2.71.55,4.39.5.61-8.39-1-17.08,2.37-25.33,5.19-1.32,10.24,1,15.47,1.62l2.55,2.54c3-1.73,7.27-1.67,8.32-6a8.24,8.24,0,0,0-2.29-1.23,8,8,0,0,1,2.29,1.23c2.57.68,4-1.62,6.39-2l-6.23-3.12v-2.1h23.82c-.46-2.77-2.26-1.19-3.45-1.8,0-2-3-2.93-2.21-5.13.77-1.11,1.56-.75,2.27-.77,1.28.59,0,2.57,2.19,3.09,2.71-1.14,4.31-4.17,7-6.15,1.5-.25,3.28.45,5.6-.86l-3.51-2.07,3.22-6.58c-.73-1.16-1.87-1.38-2.17-1-2.74,3.3-7.16,3.61-10.49,6.78l-3.3-4.67c-.82.11-.64-.17-.12-.61,1.63-1.42,2.78-3.42,5.54-3.19.9.08,1.93-1.31,2.82-2V860.1c-1.57-1.49-4.7.27-5.61-2.62l5.5-6.26c-.39-1.22-1.59-.68-2.63-1.22,0-1.75,2.27-2.07,2.65-3.9-2.15-.17-4.09-.85-6.23.67-4.37,3.1-8.89,2.72-13.24-.14,2.65-4,8.74-3.18,11.31-8.26l3.07-.2c.69-3.72,3.43-4.82,6.67-4.72v-2c-1.6-1.63-2.62-.38-3.67.73a3.73,3.73,0,0,0-4-1.27,4.15,4.15,0,0,1-2.31,1.73A4.31,4.31,0,0,0,1709.09,830.88Z"/><path class="cls-3" d="M1415.92,830.88c.09-1.83,1.68-2.43,2.89-4.06-3-1-5.65-2.51-4.47-6.14l-3-1.06c0-.86-.43-1.65.76-2.34,3.82-.82,5.47,3.81,8.84,4.57.39-.59.66-1,1.24-1.84-3.48-2.81-4.8-7.65-9.2-9.84.52-.92,1.36-.5,2.06-.61a2,2,0,0,0,.79-1.93c0-.71.1-1.43.15-2.11,5.82-1.23,11.45-2.89,17-1.77,1.18-1.22,1.21-2.08.53-2.91-2.08-1.43-2.84,1.78-5,1-1.57-2-4.27-3.45-5.57-6.73,5.14-2.1,7.62,2.05,10.78,3.9,2.86-.19,1.06-3.42,3.14-3.95-1.89-1.78-2.65.38-3.87.68-1.52-1.39.91-4.31-2.37-4.89a4,4,0,0,0,1.92-4.06c3.85,1.27,6.58-2.23,10.46-1.34.11-3.67-2.59-4.49-3.82-6-1.58-.32-2.12.63-3.08,1.52-.63-3.54-4.15-5.08-5.65-7.79,2-2.38,4.26-.68,6-1.62,1.15-1.56,0-3.38.64-4.89-1.69-1.79-2.74-.66-3.85.55-1.92-1.38.63-4.46-2.88-5.21,1.26-.45,1.84-.88,2.11-.73,3.54,1.91,6.38,4.91,10.16,6.49.39.17.38,1.3.63,2.26h8.33l1.88-2c-4.53-2.31-10.15-2.62-14.66-7.19,5.75-2.57,9.46.75,13.63,2l2.7-2.38-4.59-4.6,1.38-1.38c-1.2-1.6-2.33-3.36-5.93-1.56-.06.07-.93,1.29-1.54,2.14-2.34-.06-4.08.48-5.77-.42.19-.36.29-.89.57-1,3.4-1.5,7.19-2.29,9.83-5.44-2.86-1.46-6,.1-8.25-.77l5.65-5.72c1.67.61,4.37,3.3,6.72-.69,1.55-2.82-.57-5.35-1.48-8.46l8.68,3c1.32-1.53.61-2.41-.35-3.38-3.23-3.25-7-6.13-8.17-11.06,3.88.94,3.88.94,9-1.21-1.14-2.49-3.17-4.67-2.79-7.71a12,12,0,0,0,5.88-4.77l-1.13-1.13,4.12-3.75c1,2.5-3.23,4.7-.64,7.23,2.07,1.25,2.6-2.53,5.12-1.15-.92,1.92-2,4-1.14,6.07-.92,2-3.6,2.52-3,5.6,3.44-.08,6.33-2.41,9.67-2.89,1,1.46,1.47,2.74-1,3-1.44.16-1.37,1.12-1.32,2.17,2,2.34,3.73.23,5.56-.35a1.46,1.46,0,0,1,.33,2c-1.21,1.11-3.17,1.15-4.4,3.18v4.32c-2.36,2.61-3-1.36-5.68-.37-.13.25-.71,1.37-1.28,2.5.12.12.83.84,1.62,1.62,3.79-.36,7-3.63,11.41-2.79-2.5,5-9.39,5.56-10.28,12,5.91-.43,10.77-3.12,15.29-6.47.5.77.92,1.14,1,1.57.34,2.54-3.61,2.81-3,5.54-5.08,1.15-5,8.26-10.49,8.94.73,1.65,2.18.53,3,1,2.78-.93,3.69-3.82,6.53-4.83,2.32-.83,3.88-3.78,5.77-5.78,2.32,2.26,1.31,3.87-.45,5.43-2.1,1.87-2.14,3.78,0,5.75a13.54,13.54,0,0,1-9.49,5.71l4.19,4.19-2.11,2.33c1.39,1.4,2.83,1,5.82-1.73-.35-.35-.73-.69-1-1.08-.08-.1,0-.34,0-.79h5c1.74-3.17,5.75-3.19,7.37-6.41a3.77,3.77,0,0,1,.23,4.72c-2,3.64-1.5,8.53-5.36,11.36-.08,3.9-3.32,3.46-5.75,4.15-.2,2.18,2.25.19,2.57,2v1.61c-1.33.89-1.35-1-2.31-.77-2.65,4.52,2.41,6.74,2.82,10.28,5.12-2.37,11.07-1.87,15.25-6.87,2.11,4.48-.23,7-2.3,9.41-.53.63-2.34.64-2.42,1.13-.69,4-5.38,5-6.45,8.9,2.75,3.3,5.15-1.35,7.72-.42,3.35-3.09,8.26-3.85,11.23-7.52,1.51,1.33,3.25,2.56,1.6,5.88l-8.14,7.63-2.55.12c-2,1.54-2.56,4-3.73,6,0,1.58,1.68,1.8,2,2.81l11.91-5.94c2.48,2.65,2.48,2.65,2.07,6.12l-1.61-1.46a1.65,1.65,0,0,0-.69,1.93,7.5,7.5,0,0,0,1.28,1.74c-1,2.75-3.8,2.27-5.7,2.65-.39,1.66.09,2.47,1,3.12,0,1.38-2.6,2.56-.42,4.13,6.1-2,9.9-7.31,15.19-12,1.2,4.18-1.86,6.33-.87,9-.72.71.24-.21-.48.49l.48-.49c2.48,0,.87,3.23,2.9,3.62-1.55,2.72-5.33,2.44-6.73,4.39s-3.85,3-4.38,5.53h-3.22c-.78,1.76-1.58,3.58-2.61,5.94,6.47-1.35,10.36-5.5,14.76-8.67.73,4,.41,4.86-3.91,9.79v4.64c-2.52,1.1-5.14-.38-7.2,1-1.57,3.34,3.42,1.52,2.84,4-1.7,1.48-3.76,1.51-5.84,1.53,2.08,0,4.14,0,5.84-1.53,3.35-.1,6.83.67,10.26-2.44-2.41,6.49-5.29,8.93-11,10-.69.13-1.39-.15-2.08.48-1,1-1.67,2.56-3.45,2.55a13.17,13.17,0,0,0-4.3.48c4.21,2.28,9.28-.74,13.61,2.86,1.85-4,6.33.25,8.72-3.23-.48,6.07-7.67,4.63-9.24,8.81-1.69,4.49-7.53,4.36-9.13,9h-7.89c-.45,1.12-1,2.58-1.42,3.58-5-1.31-7.72,1.64-11.16,2.16l3,1.1c-1.5,1.87-4.63-.34-5.48,2.32-.78-1.89-3.36-.92-4.49-3.37l-1.72,3.75c.08,1,2.4.87,3.88,1.78-.53,1.81-2,.56-3.11,1-2.23-1.44-4.1-3.21-4.82-6-1.48.92-2.74,1.93-2.69,4.12h-6.17a2.45,2.45,0,0,0-1.18,2.2c-.85,7.18,2.52,14,1.55,21.23a24.1,24.1,0,0,0,0,3.39c-1.48,1-2.71.55-4.39.5-.61-8.39,1-17.08-2.38-25.33-5.18-1.32-10.24,1-15.46,1.62l-2.55,2.54c-3-1.73-7.28-1.67-8.32-6a8.24,8.24,0,0,1,2.29-1.23,8,8,0,0,0-2.29,1.23c-2.57.68-4-1.62-6.39-2l6.23-3.12v-2.1h-23.82c.46-2.77,2.25-1.19,3.45-1.8,0-2,3-2.93,2.21-5.13-.78-1.11-1.57-.75-2.27-.77-1.29.59,0,2.57-2.19,3.09-2.71-1.14-4.31-4.17-7-6.15-1.5-.25-3.28.45-5.6-.86l3.51-2.07-3.22-6.58c.73-1.16,1.87-1.38,2.17-1,2.74,3.3,7.15,3.61,10.49,6.78,1.28-1.82,2.29-3.24,3.29-4.67.83.11.65-.17.13-.61-1.63-1.42-2.78-3.42-5.54-3.19-.9.08-1.93-1.31-2.83-2V860.1c1.57-1.49,4.71.27,5.62-2.62-1.81-2.06-3.66-4.17-5.51-6.26.4-1.22,1.59-.68,2.64-1.22,0-1.75-2.27-2.07-2.65-3.9,2.15-.17,4.09-.85,6.23.67,4.37,3.1,8.89,2.72,13.24-.14-2.65-4-8.75-3.18-11.31-8.26l-3.07-.2c-.69-3.72-3.44-4.82-6.68-4.72v-2c1.61-1.63,2.62-.38,3.68.73a3.73,3.73,0,0,1,4-1.27,4.16,4.16,0,0,0,2.3,1.73A4.29,4.29,0,0,1,1415.92,830.88Z"/><path class="cls-3" d="M828.87,861.92V856.7c1.56-2.59,2.36-5.49,4.93-7-.2-.7-1.12-.85-1-1.63,0-1,1-1.25,1.41-1.92.71.22,1,1.42,2.9.24.35-.28-1.68-.42-1-1.68,4.66-2.45,3.1-7.9,4.34-12.44-.71-.63-2.32.45-3.21-1.1-.6-1,0-1.84-1-3.33,1.87,1,2.92,1.71,4.48,1.05-1-.92-.67-2.46-2-3.18,1.28-1.34,1.81-.06,2.53.44l1.29-1.28c.94-1.72-.94-2.71-.86-4.12l2-2c-.86-1.1-2.37-1.85-2.19-3.61-1.2.54-.29,1.93-1.5,2.07-1.79-1.2-1.79-1.2-2.27-3,.48-1.8,3.11-2.33,3-4.65-1.85.18-2.92,1.89-4.8,1.7.07-1.4,1.57-1.62,1.75-2.47a1.69,1.69,0,0,0-.83-1.81c.21-.66-.45-.06.11-.4.79-.47,2.08,0,2.14-1.14,1.48-.44,2,1.63,3.37.65.39-.77-.76-.82-.76-1.41,0-.82,0-1.65,0-3l1.69-.74c.39-2.14.56-3.27-.65-4,1-1.42,2.88.26,3.93-1-.7-1.18-2.32.2-3.18-1.46,1.79-.91,2.82-2.91,5.06-3.26-.14-1.3-1.56-.26-1.76-1.3.41-.89,1.77-1.24,1.91-2.7-1.28-1.33-3.06-1.68-5-2,1.56-1.23.57-3,1.23-4.57l2.29-.19c1.14-1.11.06-1.7-.56-2.39.35-.71,1.16-.34,1.94-.9-.52-1.48,1-2.64,1.11-4.51-.62-1.17-1.33-2.53-2.08-3.94.3-1.12,1.78-2.2.93-3.44a4.15,4.15,0,0,1-.92-3.11c-.64-1.1-2.48.09-2.49-1.5-1.87-.07-2.06,2-3.76,2-2-.26.68-3.22-1.71-3.18.33-1,1.12-.68,1.7-1,.6-.83-.69-.83-.68-1.36-.31-1,.55-1.45,1-2.07-.62-1.45-.89-3-1.92-3.79-.4-1.36.9-1.59.89-2.55.12-.71-.63-1-1.06-1.58,1.84-1,3.87,0,6.17-.75l-3.09-3.09c-.21-1.62.72-1.53,1.73-1.62v-6.47l-3.74-1.88c-.19-1.12.25-1.71,1.31-1.48.82.18,1.25,1.79,2.48.63-.6-1.17-1.21-2.35-1.85-3.57.09-1.29,1.45-1.65,2.2-3-2-1-.12-5-5.05-5l3.19,2.15c-.58.41-1,.78-1.06.72-1.9-1.25-3.78-1.51-5.74.61.09-2-2.07-2.58-1.35-4.22.21-.12.4-.28.43-.25a9.79,9.79,0,0,1,.84.81c1.94-1.16,2.81-3.09,3.71-5.42l-1.78-1.4-.66,1.84h-3.27c.45.45-.8.08-.4-.4.62-.75,2.53-.19,2.06-2,0-.08.21-.23.33-.35l2.4-.27c.07-1.14-.76-.7-1.29-.86-.89-.51-.37-1.43-.56-2.46l-3.2-2.65L836,704.1c-.88-1.79-2.7-3.06-3.18-5.09,0-1.36,1.52-1.59,1.89-2.72-.26-.4-.76-.32-1.24-.39-1.56-.23-2.7,2.15-4.82.39l2.46-.95c-.85-2-2.87-2.48-2-4.49l1.21,1c.93-.52.36-1.43.52-2.15-1-2-3-2.74-4.89-3.81.35-1.28,1.55-2.24.15-4.34-.07-.08-1.26.82-2,.25,0-2,2.36-1.32,2.87-2.81-.61-1.52-2.19-2.3-3.11-3.66V672.5c-.71-.83-1.61-.26-2.47-.48l-.92-1.94h-1.41c0,2.48-.81,5,.72,7.51-1,1.12-2.71-.16-4,.94,2.25.35,3,2.71,5,3.3h-5.17c-1.25,1.18-.51,1.88.32,2.64-1,1.13-3.12-.25-3.6,1.63l-.33.4c2,1.14-.19,4,1.85,5,1.39.84,2.77.24,4.07.56-.66,1.29-1.3,2.1-2.64,1.9a2.77,2.77,0,0,0-3,1.25c1,1.26.34,3.12,1.58,4.34-.53.69-1.25.24-1.87.37-.65.93.19,1.48.55,2.16-.36-.68-1.2-1.23-.55-2.16,0-1-1-1.21-1.69-2.5a8.88,8.88,0,0,1-1.29,4.46c0,1.62,1.53.55,1.94,1.57,0,.28,0,.73-.07,1.08-1.2,1.09-1.7-.31-2.6-.52-1.12,2.28,1.74,4.16.4,6.64-1,.89-2.23-.14-4-.8,1.6,3,2.1,5.71.24,8.14A5.26,5.26,0,0,0,808,720.4l-1.82.64a5.4,5.4,0,0,0,.77,4.44c1.46,2.34,1.62,5.23,2.9,7.73.59,1.14.1,2.84-.17,4.41-.95-2.56-1.65-5.24-5.14-4.92-2.15,2.31,1.35,4.42.29,6.67-.79.47-.82-.77-1.54-.51-.95,1.67.87,2.09,1.5,3.06a3.55,3.55,0,0,0,0,4.43c-1.09,1-1.6-.42-2.41-.59l-1.68,1.76c2.94-.66,4,2,6.94,2.45-2.46,1-4.39.33-6.18.69-.81.66-.17,1.57-.45,2.19.34,1.13,1.62.35,2,1.21-.15.77.35,1.63-.35,2.37-1.72.6-2-1.23-3.09-1.81a1.24,1.24,0,0,0-.49,1.65c.79,1.94,1.41,3.86.75,6l-1.76.64c2,2.12,2.88,4.94,5.3,6.31-1.34,2.34-2.1.72-2.94.42a1,1,0,0,0-.35,1.3c1.4,1.58,1.78,3.57,2.29,5.5h2c1,.56.58,1.47.62,2.22s-.07,1.68.94,2.07c-1.21,2.33-3.06,1.71-5.14,1.55l1.21-1.35-1.4-1.4c-1.24.57-.05,1.81-.7,2.54l-1.76,1.76c1.41,1.4.44,3.7,3.14,5.41,2.09.4,2.65,3.24,3.48,5.87l-.73.73c2.31,2.7,5.93,3.93,7.83,7.1-.85,1-2.13-.1-3.06.52l-2.49-2.15c-1.48,0-1.57,1.29-3,1.66l3.65,3.89c.17,1.44-1.17,1.86-1.81,2.74.79,1.48,1.24,3.19,2.86,4.09-1.13,1.22-2.77,2.12-1.83,4.26l1.63.6a4.63,4.63,0,0,0-.64,4.33c.43.65,1.39-.08,1.67.82-1.18,2.1-2.84,1.73-4.6.7-.43.67-.4,1.63.2,1.66,1.8.1,2.26,1.76,3.45,2.52l-.94,1.19c-.3.45,1.32.55,1,1.45a1.53,1.53,0,0,0,.35,1.81l1.34.31c.58,1.1-.27,2.62,1.18,3.37-.57.5-1.08.93-.91,1.7,2.61,1.24,3,3.91,3.94,6.21.68,1.72.93,3.67,3,4.42,1.23.21,1.59.86,1,2-.29,2.18,2.37,3.55,1.87,5.47a18.94,18.94,0,0,0-.88,5.46Z"/><path class="cls-3" d="M1393.28,909.39v-5.22c1.56-2.6,2.36-5.49,4.93-7-.2-.7-1.12-.85-1-1.63,0-1,1-1.25,1.41-1.93.71.23,1,1.43,2.9.24.35-.28-1.68-.41-1-1.67,4.66-2.45,3.11-7.9,4.34-12.44-.71-.63-2.32.45-3.21-1.1-.6-1,0-1.84-1-3.33,1.87,1,2.92,1.71,4.48,1.05-1-.92-.66-2.46-2-3.18,1.28-1.35,1.81-.06,2.53.44l1.29-1.28c.94-1.72-.94-2.71-.86-4.12l2-2c-.86-1.1-2.37-1.85-2.19-3.61-1.2.54-.29,1.93-1.5,2.07-1.79-1.2-1.79-1.2-2.27-3,.48-1.8,3.11-2.33,3-4.65-1.85.18-2.92,1.88-4.8,1.7.07-1.4,1.57-1.62,1.75-2.47a1.69,1.69,0,0,0-.83-1.81c.21-.66-.45-.06.11-.4.79-.47,2.08,0,2.14-1.14,1.48-.44,2,1.63,3.37.65.39-.77-.76-.82-.76-1.41v-3l1.69-.74c.39-2.14.56-3.27-.65-4,1-1.41,2.88.27,3.93-1-.7-1.17-2.32.21-3.18-1.45,1.79-.91,2.83-2.92,5.06-3.26-.14-1.3-1.55-.26-1.76-1.3.42-.89,1.77-1.24,1.91-2.7-1.28-1.33-3.06-1.68-5-2,1.56-1.23.57-3,1.23-4.57l2.29-.19c1.14-1.11.06-1.7-.56-2.39.35-.72,1.16-.34,1.94-.9-.52-1.48,1-2.64,1.11-4.51-.62-1.17-1.33-2.53-2.08-3.94.3-1.12,1.78-2.2.93-3.44a4.15,4.15,0,0,1-.92-3.11c-.64-1.1-2.48.08-2.49-1.5-1.86-.07-2.06,2-3.76,2-2-.25.68-3.21-1.71-3.17.33-1,1.12-.68,1.7-1,.6-.83-.68-.83-.68-1.36-.31-1,.55-1.45,1-2.07-.62-1.45-.89-3-1.92-3.79-.39-1.36.9-1.59.89-2.55.12-.71-.62-1-1.06-1.58,1.84-1,3.87,0,6.17-.75l-3.09-3.09c-.21-1.63.72-1.53,1.73-1.62v-6.47l-3.74-1.88c-.19-1.12.25-1.71,1.31-1.48.82.17,1.25,1.78,2.48.63l-1.85-3.58c.09-1.28,1.46-1.64,2.2-3-2-1-.12-5-5.05-5l3.19,2.15c-.58.41-1,.78-1.06.72-1.9-1.25-3.77-1.51-5.74.61.09-2-2.07-2.58-1.35-4.22.21-.13.4-.28.43-.26.26.21.48.46.84.82,1.94-1.16,2.81-3.09,3.71-5.43l-1.78-1.39c-.2.57-.41,1.15-.65,1.84h-3.28c.45.45-.8.08-.4-.4.62-.75,2.54-.19,2.06-2,0-.08.21-.23.33-.35l2.4-.27c.07-1.14-.76-.7-1.29-.87-.89-.5-.37-1.42-.56-2.45l-3.2-2.65,2.46-2.59c-.87-1.79-2.7-3-3.18-5.08,0-1.36,1.52-1.59,1.89-2.72-.26-.4-.76-.32-1.24-.39-1.56-.23-2.7,2.15-4.82.39l2.46-1c-.85-2-2.87-2.48-2-4.49l1.2,1c.93-.52.36-1.42.52-2.14-1-2-3-2.74-4.89-3.81.36-1.29,1.55-2.24.15-4.34-.06-.08-1.26.82-2,.25,0-2,2.36-1.32,2.87-2.81-.61-1.52-2.18-2.3-3.11-3.66V720c-.71-.82-1.61-.25-2.47-.47l-.92-1.94h-1.41c0,2.48-.81,5,.72,7.51-1,1.11-2.71-.16-4,.94,2.25.35,3,2.71,5,3.3H1380c-1.25,1.18-.52,1.88.31,2.64-1,1.13-3.12-.25-3.6,1.63l-.33.4c2,1.14-.19,4,1.85,5,1.39.84,2.77.23,4.07.56-.66,1.29-1.3,2.1-2.64,1.9a2.76,2.76,0,0,0-3,1.25c.95,1.26.34,3.12,1.59,4.33-.54.7-1.26.25-1.88.38-.65.93.19,1.48.55,2.16-.36-.68-1.2-1.23-.55-2.16.05-1-1-1.21-1.69-2.5a8.88,8.88,0,0,1-1.29,4.46c0,1.62,1.53.55,1.94,1.57,0,.28,0,.73-.07,1.08-1.2,1.09-1.7-.31-2.6-.52-1.12,2.28,1.74,4.16.41,6.64-1,.89-2.23-.14-4-.8,1.61,3,2.1,5.71.24,8.14a5.26,5.26,0,0,0,3.13,2.44l-1.82.63a5.42,5.42,0,0,0,.77,4.45c1.46,2.34,1.62,5.23,2.9,7.73.59,1.14.1,2.84-.17,4.41-.95-2.56-1.65-5.24-5.14-4.92-2.15,2.31,1.35,4.42.29,6.67-.79.47-.82-.77-1.54-.51-.94,1.67.87,2.09,1.5,3.06a3.55,3.55,0,0,0,0,4.43c-1.08,1-1.59-.42-2.41-.59l-1.68,1.76c2.94-.66,4,2,6.94,2.45-2.46,1-4.39.33-6.18.69-.81.66-.17,1.57-.45,2.19.35,1.13,1.62.35,2,1.21-.15.77.35,1.63-.35,2.37-1.72.6-2-1.23-3.09-1.81a1.24,1.24,0,0,0-.49,1.65c.79,1.94,1.41,3.86.75,6l-1.76.63c2,2.13,2.88,4.95,5.3,6.32-1.34,2.33-2.1.72-2.94.42a1,1,0,0,0-.35,1.3c1.4,1.58,1.78,3.57,2.29,5.5h2c1,.56.58,1.47.62,2.22s-.07,1.68.94,2.07c-1.21,2.33-3.06,1.71-5.14,1.55l1.21-1.35c-.47-.47-.93-.94-1.4-1.4-1.24.57,0,1.81-.7,2.54l-1.76,1.76c1.41,1.4.44,3.7,3.14,5.41,2.09.4,2.65,3.24,3.48,5.87l-.73.73c2.31,2.7,5.93,3.93,7.83,7.1-.85,1-2.13-.1-3.06.52l-2.49-2.15c-1.48,0-1.57,1.29-3,1.66l3.65,3.89c.17,1.44-1.17,1.86-1.81,2.74.79,1.48,1.24,3.19,2.86,4.09-1.13,1.22-2.76,2.12-1.83,4.26l1.63.6a4.61,4.61,0,0,0-.64,4.32c.43.66,1.39-.07,1.67.83-1.18,2.1-2.84,1.73-4.6.7-.43.66-.4,1.63.2,1.66,1.8.09,2.26,1.76,3.45,2.52l-.94,1.19c-.3.45,1.32.55,1,1.45a1.54,1.54,0,0,0,.35,1.81l1.34.31c.58,1.1-.27,2.62,1.18,3.36-.57.51-1.08.94-.91,1.71,2.61,1.24,3,3.91,3.94,6.21.68,1.72.93,3.67,3,4.42,1.23.21,1.59.86,1,2-.28,2.18,2.37,3.55,1.87,5.47a18.6,18.6,0,0,0-.87,5.46Z"/><path class="cls-3" d="M352.89,798.51v-5.22c1.55-2.6,2.35-5.5,4.93-7-.2-.7-1.12-.85-1-1.63,0-1,1-1.26,1.41-1.93.71.23,1,1.43,2.89.24.36-.28-1.68-.42-1-1.67,4.65-2.46,3.1-7.9,4.34-12.44-.71-.63-2.32.44-3.22-1.11-.59-1,0-1.84-.95-3.33,1.87,1,2.92,1.71,4.48,1.06-1-.92-.67-2.46-2-3.19,1.27-1.34,1.81-.06,2.53.45l1.29-1.29c.93-1.72-.94-2.7-.86-4.12l2-2c-.86-1.11-2.37-1.85-2.18-3.61-1.21.54-.29,1.92-1.5,2.07-1.79-1.2-1.79-1.2-2.28-3,.49-1.8,3.11-2.33,3-4.65-1.85.18-2.93,1.88-4.8,1.7.07-1.4,1.56-1.63,1.75-2.47a1.69,1.69,0,0,0-.84-1.81c.21-.66-.45-.07.11-.4.8-.48,2.09,0,2.15-1.15,1.48-.44,2,1.63,3.36.65.4-.77-.75-.81-.76-1.4v-3l1.69-.74c.39-2.13.56-3.26-.65-4,1-1.42,2.88.26,3.93-1-.7-1.17-2.32.2-3.18-1.46,1.79-.91,2.83-2.91,5.07-3.26-.15-1.29-1.56-.25-1.76-1.3.41-.89,1.77-1.24,1.9-2.7-1.27-1.33-3.05-1.67-5-2,1.55-1.23.57-3,1.23-4.57l2.28-.18c1.15-1.12.07-1.71-.56-2.39.36-.72,1.17-.35,1.95-.91-.52-1.48,1-2.64,1.11-4.5-.62-1.18-1.34-2.53-2.08-4,.3-1.12,1.78-2.2.93-3.44a4.1,4.1,0,0,1-.93-3.11c-.63-1.09-2.47.09-2.49-1.5-1.86-.07-2.05,2-3.75,2-2-.25.68-3.22-1.71-3.18.33-1,1.11-.68,1.7-1,.59-.82-.69-.82-.68-1.36-.31-1,.54-1.44,1-2.07-.62-1.45-.88-3-1.91-3.79-.4-1.35.9-1.58.89-2.54.12-.72-.63-1-1.07-1.58,1.85-1,3.88,0,6.17-.75l-3.09-3.1c-.2-1.62.73-1.53,1.74-1.62v-6.47l-3.74-1.87c-.19-1.12.24-1.71,1.3-1.49.82.18,1.25,1.79,2.49.64-.61-1.17-1.22-2.35-1.85-3.58.09-1.29,1.45-1.64,2.2-3-2-1-.13-5-5.05-5l3.19,2.16c-.59.4-1,.78-1.06.71-1.91-1.24-3.78-1.5-5.75.61.1-2-2.07-2.58-1.35-4.21.21-.13.4-.29.44-.26.25.21.48.45.83.81,1.95-1.16,2.82-3.09,3.72-5.42l-1.78-1.39c-.21.57-.41,1.14-.66,1.83h-3.28c.46.45-.79.08-.4-.39.62-.75,2.54-.19,2.06-2,0-.08.22-.23.34-.34l2.39-.27c.08-1.14-.75-.7-1.29-.87-.89-.5-.36-1.42-.56-2.45l-3.2-2.65,2.46-2.59c-.87-1.79-2.69-3.06-3.18-5.09,0-1.35,1.53-1.59,1.89-2.72-.25-.4-.76-.31-1.24-.38-1.56-.23-2.69,2.14-4.81.38l2.45-1c-.84-2-2.87-2.47-2-4.49l1.21,1c.92-.52.36-1.43.52-2.15-1-2-3-2.73-4.89-3.81.35-1.28,1.54-2.24.15-4.34-.07-.08-1.26.82-2,.25,0-2,2.37-1.31,2.87-2.81-.6-1.52-2.18-2.29-3.11-3.66v-2.87c-.71-.83-1.6-.25-2.47-.47-.29-.61-.61-1.29-.91-2h-1.41c0,2.49-.82,5,.72,7.52-1,1.11-2.71-.17-4,.93,2.25.35,3,2.72,5,3.3h-5.17c-1.25,1.18-.51,1.88.32,2.64-1,1.14-3.12-.24-3.61,1.63l-.33.41c2.05,1.14-.18,4,1.86,5,1.38.84,2.77.23,4.07.56-.66,1.28-1.3,2.1-2.65,1.9a2.77,2.77,0,0,0-3,1.24c1,1.26.35,3.13,1.59,4.34-.54.69-1.26.25-1.87.38-.66.93.18,1.48.54,2.15-.36-.67-1.2-1.22-.54-2.15,0-1-1-1.22-1.69-2.51a8.74,8.74,0,0,1-1.3,4.46c0,1.62,1.54.55,1.94,1.57,0,.29,0,.74-.07,1.08-1.19,1.09-1.7-.31-2.6-.52-1.11,2.28,1.75,4.16.41,6.64-1,.9-2.23-.13-4-.79,1.61,3,2.1,5.7.25,8.14A5.28,5.28,0,0,0,332,657l-1.81.63a5.39,5.39,0,0,0,.77,4.44c1.45,2.35,1.61,5.24,2.9,7.73.58,1.15.1,2.84-.17,4.42-.95-2.56-1.65-5.25-5.15-4.93-2.14,2.31,1.36,4.43.3,6.68-.8.47-.83-.78-1.55-.52-.94,1.67.87,2.1,1.5,3.06a3.55,3.55,0,0,0,0,4.43c-1.09,1-1.6-.42-2.41-.59l-1.69,1.77c2.95-.67,4,2,6.95,2.44-2.46,1-4.39.33-6.18.7-.81.65-.17,1.56-.46,2.18.35,1.13,1.63.36,2,1.21-.15.78.34,1.64-.35,2.37-1.72.61-2-1.22-3.09-1.8a1.21,1.21,0,0,0-.49,1.64c.79,1.94,1.4,3.86.74,6l-1.76.63c2,2.13,2.88,4.95,5.31,6.31-1.34,2.34-2.1.72-2.95.42a1,1,0,0,0-.35,1.3c1.41,1.58,1.79,3.57,2.29,5.51h2c1,.56.58,1.46.61,2.22s-.07,1.67.94,2.06c-1.21,2.33-3.05,1.71-5.14,1.56l1.22-1.36-1.41-1.4c-1.23.58-.05,1.81-.7,2.55l-1.75,1.75c1.41,1.41.44,3.7,3.13,5.41,2.1.4,2.65,3.24,3.49,5.87l-.74.74c2.32,2.69,5.93,3.93,7.84,7.1-.86,1-2.14-.11-3.07.51l-2.48-2.14c-1.48,0-1.58,1.29-3,1.66L331,743.4c.17,1.44-1.18,1.86-1.81,2.75.79,1.47,1.24,3.18,2.85,4.09-1.13,1.21-2.76,2.11-1.83,4.26l1.63.6a4.63,4.63,0,0,0-.64,4.32c.43.66,1.4-.08,1.68.82-1.18,2.1-2.85,1.74-4.6.7-.43.67-.4,1.63.19,1.67,1.8.09,2.27,1.75,3.46,2.52l-.95,1.19c-.29.45,1.32.54,1.06,1.45a1.54,1.54,0,0,0,.34,1.81c.46.1.91.2,1.34.31.59,1.1-.26,2.62,1.18,3.36-.57.51-1.08.93-.91,1.71,2.61,1.23,3,3.91,3.94,6.21.69,1.72.94,3.67,3,4.42,1.23.21,1.6.86,1,2-.29,2.18,2.36,3.55,1.87,5.48a18.5,18.5,0,0,0-.88,5.46Z"/></g></g></svg>