<?xml version="1.0" encoding="UTF-8" standalone="no"?>
<!DOCTYPE svg PUBLIC "-//W3C//DTD SVG 1.1//EN" "http://www.w3.org/Graphics/SVG/1.1/DTD/svg11.dtd">
<svg width="100%" height="100%" viewBox="0 0 1920 1080" version="1.1" xmlns="http://www.w3.org/2000/svg" xmlns:xlink="http://www.w3.org/1999/xlink" xml:space="preserve" xmlns:serif="http://www.serif.com/" style="fill-rule:evenodd;clip-rule:evenodd;stroke-linejoin:round;stroke-miterlimit:2;">
    <g id="BG_3">
        <g>
            <clipPath id="_clip1">
                <rect x="0" y="0" width="1920" height="1080"/>
            </clipPath>
            <g clip-path="url(#_clip1)">
                <path d="M1920,1080L0,1080L0,697L30.61,723.85L40.21,730.54L49.01,732.15L56.43,730.18L80.82,718.93L101.4,715.11L122.5,713.66L161.26,705.62L178.41,704.16L219.02,724.21L278.1,704.69L300.52,718.6L329.26,744.78L366.71,755.86L387.81,744.78L428.43,728.43L451.64,706.27L460.93,708.62L471.68,713.13L490.8,707.43L513.11,698.73L537.09,708.12L563.59,718.8L584.56,702.98L606.71,706.14L620.96,697L644.69,720.52L672.12,733.7L707.99,749.53L747.02,759.02L774.45,751.64L790.8,728.43L823.5,719.46L849.88,723.15L881.53,737.4L907.37,749.66L926.36,753.62L947.71,740.64L973.04,749.26L990.05,766L1013.4,760.34L1037.13,750.45L1062.45,739.37L1082.23,743.73L1111.9,749.26L1122.19,769.45L1148.69,776.16L1175.59,769.45L1204.08,762.32L1209.75,751.04L1212.78,747.29L1218.65,750.45L1232.96,760.34L1285.57,775.37L1322.36,801.48L1362.06,801.22L1394.76,816L1404.45,832.54L1413.75,843.42L1428.19,850.54L1441.04,847.77L1457,827.59L1475.99,821.79L1502.76,831.15L1522.93,820.21L1552.21,801.48L1582.28,816L1630.54,831.55L1687.51,822.05L1712.82,789.62L1744.47,789.62L1779.29,810.98L1816.47,798.32L1830.71,788.03L1845.75,783.29L1853.07,766L1864.74,750.85L1884.71,745.7L1901.13,744.52L1912.41,736.41L1920.02,726.7L1920,1080Z" style="fill:rgb(160,212,238);fill-rule:nonzero;"/>
                <path d="M135.78,647.39L132.27,647.39C131.92,648.26 132.86,648.28 133,648.81C134.32,649.63 135.92,648.56 137.34,649.45L136.61,650.38C136.95,651.66 138.43,651.46 139.17,652.23L138.17,653.39C140.65,654.05 142.17,650.66 144.91,652.39L141.67,654.77C142.67,655.77 143.41,655.57 143.82,654.84C144.53,653.56 146.19,653.92 146.82,652.84C148.5,653.54 148.01,655.14 148.49,656.22C150.28,656.89 150.43,654.53 151.8,654.56C152.57,654.43 152.72,655.25 153.5,655.56L156.92,653.84L157.92,654.84C157.97,654.95 158.08,655.11 158.05,655.15C154.43,659.39 149.46,660.4 144.27,661.15C143.42,659.51 141.77,659.23 140.51,658.39C139.57,658.96 139.41,660.02 138.93,660.87C137.34,661.35 137.15,659.55 135.74,659.19C134.17,660.64 131.89,659.84 129.58,660.19C129.555,661.025 130.188,661.747 131.02,661.83C133.24,661.55 133.63,663.19 134.3,664.52C136.06,665.1 136.96,663.8 137.92,662.78C139.11,663.92 138,664.41 137.52,665.04C137.846,665.332 138.129,665.668 138.36,666.04C138.53,666.41 138.26,666.95 138.96,667.25L140.52,667.25C141.81,668.04 140.11,670.25 142.16,670.73L145.26,670.73L146.79,669.21C147.635,669.838 148.701,670.095 149.74,669.92L151.22,668.05C152.34,668.8 151.5,669.88 152.05,670.62C153.57,669.78 155.79,670.34 156.55,668.26L159.09,669.47C156.38,672.36 152.87,673.47 149.35,674.78C145.51,676.18 141.98,675.15 138.46,673.62C138.17,675.41 139.66,675.79 140.35,677.15C138.818,677.284 137.277,677.261 135.75,677.08C134.458,676.651 133.22,676.074 132.06,675.36C131.12,675.36 131.2,676.04 131.21,676.63C130.61,677.79 129.15,676.55 128.51,677.63C127.87,678.71 126.41,677.44 125.74,678.77C126.22,681.16 129.66,680.86 130.18,682.99C130.7,685.12 133.32,685.68 133.32,688.43C134.581,687.259 136.334,686.766 138.02,687.11C138.74,687.44 138.02,688.64 139.08,688.87C140.33,688.76 141.01,687.34 142.41,687.34C143.14,687.34 142.77,688.03 143.04,688.66L148.86,688.66L150.53,687.09C150.949,687.322 151.127,687.839 150.94,688.28C150.243,690.139 148.788,691.616 146.94,692.34C146.248,692.479 145.616,692.828 145.13,693.34L137.03,693.34C136.39,692.24 134.92,692.47 134.1,691.44L131.19,692.88L132.88,694.57C131.68,695.71 130.88,694.84 129.71,694.33C128.54,693.82 127.38,694.24 126.25,694.24C124.9,695.77 122.87,695.63 121.17,696.56C122.25,700.01 127.17,699.4 127.95,703.21C128.969,703.14 129.991,703.14 131.01,703.21C132.01,703.36 132.78,702.68 133.69,702.45C133.97,703.25 134.16,703.89 133.03,704.1C131.996,704.135 131.151,704.967 131.1,706C135.23,707.48 135.23,707.48 139.47,706.59C140.47,707.06 140.12,708.34 140.66,708.76C138.53,711.69 135.09,709.45 132.24,710.93C129.39,712.41 126.41,709.59 123.42,710.23C122.71,710.92 123.62,710.94 123.65,711.23C124.12,711.98 122.98,712.01 123.18,712.62C124.18,713.27 125.43,712.62 126.54,712.97C126.21,714.31 124.54,714.59 124.83,716.02C125.77,717.14 125.94,714.94 126.95,715.54C127.59,715.92 128.67,715.3 129.33,715.99C129.33,716.44 129.33,716.82 129.22,716.99C128.52,717.76 127.76,718.47 127.22,718.99C122.54,720.05 118.57,717.54 113.62,717.21L115.75,719.75C116.09,720.75 114.96,720.97 114.87,721.85C114.78,722.73 115.87,723.08 116.35,723.85C116.94,724.78 117.85,724.6 118.73,724.63C119.87,724.63 118.87,726.47 120.15,726.42C121.06,726.42 121.95,726.36 122.46,727.25L125.7,725.37C126.38,725.08 126.63,726.6 127.7,726.45C128.511,726.406 129.325,726.44 130.13,726.55C130.35,727.76 129.85,727.88 129.13,728.29C126.49,729.73 123.55,730.03 120.76,730.85C118.76,731.42 116.76,730.7 114.86,729.85L112.3,732C110.69,729.71 107.97,731.81 105.82,729.63C106.33,733.18 109.55,733.31 110.82,735.25L113.82,735.41C113.96,736.84 112.53,735.71 112.36,736.52C112.74,738.52 114.74,737.6 115.88,738.45L113.99,739.34C115.67,740.86 116.9,738.51 118.42,738.91L123,740C123.24,741.51 122.36,742.19 121.13,742.39C118.28,742.83 115.47,743.73 112.52,743.32C111.964,743.28 111.406,743.28 110.85,743.32C110.6,743.99 110.41,744.51 110.16,745.17L99.91,745.17C100.91,746.04 101.8,747.05 103.8,747C101.86,747.94 102.7,749.35 102.15,750.29L100.26,750.94C104.26,752.19 108,753.18 111.51,755.01L112.82,754.21C113.47,754.83 112.99,755.62 113.15,756.32C114.87,757.09 116.52,758.83 118.28,756.81C119.28,756.65 119.43,757.39 119.9,757.66C120.492,757.828 121.126,757.561 121.42,757.02C123.657,757.899 126.13,757.981 128.42,757.25C131.29,756.55 134.11,755.25 137.15,756.05C137.94,757.49 136.71,758.2 135.98,758.52C131.664,760.431 127.195,761.976 122.62,763.14C120.79,763.59 118.75,764.63 117.23,763.78C115.71,762.93 114.14,763.3 112.65,763.06C111.95,763.92 113.07,763.95 113.13,764.74L102.6,764.74C102.44,766.28 103.76,765.36 103.97,766.01C102.69,767.76 100.66,767.51 98.8,767.9C101.66,768.8 104.57,768.19 107.42,768.55C106.42,770.63 103.42,769.61 102.1,772.28C107.02,770.61 111.29,771.86 115.41,772.97C116.35,773.76 115.31,774.89 116.13,775.49C116.95,776.09 117.54,775.31 118.18,774.63C119.56,775.02 120.88,776.34 122.26,775.49C123.36,775.99 122.66,777.14 123.59,777.43C125.49,777.23 126.8,774.96 129.03,775.8C129.22,776.32 129.41,776.8 129.64,777.49C130.35,776.82 130.96,776.23 131.56,775.65L132.67,776.65L136.24,774.84C136.62,775.61 136.63,775.99 135.74,776.55C130.631,779.635 125.207,782.166 119.56,784.1C117.33,784.92 115.18,784.2 113.12,784.64C109.3,782.5 108.3,782.15 106.12,782.14C106.3,783.06 107.18,783.39 107.73,784.14C107.56,784.28 107.36,784.55 107.17,784.56C106.28,784.56 105.07,784.87 104.57,784.41C103.08,783.05 101.48,784.08 99.84,784.14L106.76,786.58C105.76,789.4 103.01,787.35 101.48,788.58C102.41,789.66 103.75,788.58 104.79,789.22C105.33,789.79 104.51,789.83 104.39,790.15C103.88,791.48 102.21,790.3 101.27,791.58L106.27,791.58C107.27,792.44 106.27,792.58 106.06,793.03C106.19,794.03 107.97,793.03 107.78,794.4C107.98,795.85 106.24,794.89 106.01,795.87C107.32,796.73 108.9,795.8 110.25,796.45C110.64,797.05 109.76,797 109.95,797.88C110.59,798.33 111.73,797.88 112.84,798.05C113.01,798.52 113.19,799.05 113.37,799.58C114.05,800.27 115.16,799.3 115.81,800.21C113.96,802.84 110.81,802.99 108.26,803.21C105.36,803.45 102.77,805.21 99.75,804.48C101.02,805.62 102.5,804.92 104.56,805.48L106,807L110.09,805C110.64,806.62 108.63,806.44 108.91,807.58C109.19,808.72 111.08,808.9 110.46,810.66C112.39,810.71 113.25,809.34 114.63,809.02C115.12,809.7 115.19,810.82 116.34,811.51C117.87,810.05 119.34,808.17 121.75,807.99C122.59,808.99 120.53,809.16 121.2,810.19C121.56,810.74 120.96,811.64 121.44,812.19C122.6,813.01 122.98,811.62 123.88,811.5C124.69,811.22 124.83,812.5 126.02,812.38C126.81,811.15 128.34,811.58 129.77,811.52C129.86,809.72 131.77,809.83 132.77,808.71C134.16,809.43 135.63,810.51 137.17,808.95C137.77,809.85 137.36,810.4 136.72,810.87L137.72,813.05C139.24,812.19 141.29,811.83 142.46,812.68C143.89,813.68 145.7,810.29 146.16,813.85C147.9,811.92 149.74,812.55 151.34,812.3C153.76,811.8 154.49,809.6 155.82,807.94L156.82,808.79C157.44,807.94 157.53,806.68 158.71,806.22C159.02,806.54 159.34,806.85 159.98,807.49C160.08,810.43 158.73,813.49 158.27,816.74L171.9,816.74C169.77,812.55 169.84,808.12 168.79,804.09C170.01,802.62 171.52,802.18 172.84,801.5C174.01,802.6 173.02,803.93 173.63,804.98C174.21,805.48 174.23,804.64 174.9,804.53C175.21,805.94 176.41,806.83 177.42,807.87C178.13,807.63 177.82,806.92 178.15,806.29C180.45,806.85 180.28,809.84 181.83,810.47C183.19,810.93 183.32,809.61 184.46,809.77C185.11,811.44 187.04,811.95 188.35,813.23L189.02,812.57C190.12,812.81 190.4,814.47 191.82,814.21C193.05,813.27 191.63,811.6 192.72,810.59C194.8,810.59 195.1,813.25 197.04,813.33C198.46,812.87 197.04,811.33 198.33,810.54C199.08,811.54 199.87,812.54 200.21,812.99C202.6,813.86 203.36,812.58 204.52,811.42L206.1,813.82C206.172,812.532 207.107,811.444 208.37,811.18C208.18,810.53 207.21,810.18 207.56,809.36C207.81,808.92 208.2,808.87 208.66,808.81C210.09,808.63 211.13,810.56 212.75,809.51C212.83,808.24 210.45,808.04 211.5,806.11C213.07,806.21 214.73,807.89 216.7,806.57C214.1,805.15 211.25,805.01 208.11,803.89L210.39,803.07C211.69,802.32 212.96,803.57 214.46,804.19C214.65,803.67 214.85,803.19 215.03,802.67C216.49,802.06 217.26,804.32 218.6,803.49C219.39,803.15 219.18,802.49 219.43,801.71L222.54,803.34L223.15,801.76L225.23,801.53C225.49,800.31 223.91,800.26 223.87,799.19C225.94,798.12 227.87,801.06 230.04,799.41L224.9,796.88C225.885,795.873 227.156,795.193 228.54,794.93C226.54,794.11 224.83,794.72 223.25,794.41C222.74,794.11 222.85,793.64 222.83,792.99C221.6,792.15 219.65,793.34 218.48,791.82C218.3,791.58 217.37,791.82 216.82,791.97C213.52,793.008 209.969,792.942 206.71,791.78C205.26,791.25 205.13,790.99 205.08,788.35C206.08,788.49 206.34,789.4 207.08,789.92C208.78,788.69 205.77,787.84 206.78,786.73C206.99,786.32 207.13,786.38 207.43,786.73C208.99,788.24 210.28,790.08 212.66,790.73C213.51,789.97 212.6,788.68 213.08,787.67C213.29,787.25 213.5,787.24 213.71,787.67C214.37,788.95 215.97,788.9 216.85,789.88C218.61,789.41 218.38,787.8 218.4,786.63C220.14,786.06 221.16,788.52 222.73,787.01C223.24,785.47 221.61,785.18 221.07,784.23C221.293,783.856 221.736,783.669 222.16,783.77C223.158,783.773 224.143,784.002 225.04,784.44C226.34,785.12 228.15,785.09 229.16,782.79C226.8,783.26 224.92,782.15 222.85,781.58L224.6,779.7C224.35,779.55 224.11,779.3 223.86,779.3L213.09,779.3C212.049,779.405 211.001,779.405 209.96,779.3C209.085,778.96 208.263,778.495 207.52,777.92C210.07,777.15 212.14,774.92 215.35,776.44C215.35,774.93 217.08,775 217.86,774C218.44,774.36 218.76,775.29 219.74,774.77C220.14,774.55 220.16,774.12 220.13,773.55L215.89,771.4L222,771.4C222.82,770.74 222.64,770.29 222.59,769.49C219.96,770.2 217.72,768.19 214.81,768.66C214.43,766.87 214.16,765.25 216.06,764.09C217.51,763.88 217.73,765.63 218.88,765.89C221.99,765.4 223,762.75 224.46,760.54C224.65,759.08 222.94,760.02 222.67,759.15L222.67,757.89C224.84,758.21 226.67,756.89 228.84,756.64L228.9,755.46C227.43,754.28 226.71,756.71 225.27,756.07C224.27,755.61 222.93,756.38 221.76,755.65L223.55,753.73C222.752,753.021 221.52,753.07 220.78,753.84C219.9,754.66 218.78,754.06 217.78,754.22C217.09,753.92 217.3,753.22 217.15,752.76C215.03,751.46 213.3,753.66 211.32,753.32C208.66,755.22 206.22,753.26 203.75,752.78C201.684,752.422 199.722,751.616 198,750.42C197.15,750.1 197.7,748.81 196.65,748.42C196.83,747.95 197.21,747.92 197.65,747.89C199.27,747.77 200.27,749.23 201.75,749.47C202.84,748.23 200.29,747.62 201.28,746.33C201.99,745.88 201.99,747.02 203.03,746.94L205.57,745.7L204.63,744.7C206.21,743.53 207.11,745.78 208.7,745.37C210.07,745.02 210.97,743.31 212.7,743.96L211.77,742.88C213.386,742.627 214.93,742.034 216.3,741.14C215.3,740.25 213.98,741.14 212.43,740.37L219.6,737.5C217.6,737.15 216.53,736.95 215.04,737.83C213.92,738.49 212.1,738.27 210.68,738C209.26,737.73 208.09,739.12 206.5,738.91L207.21,737.44C199.3,738.65 192.29,737.44 187.38,733.91C189.26,733.63 190.84,733.19 191.54,731.91C192.76,731.55 193.01,732.62 193.91,732.74C194.91,733.02 194.97,730.68 196.83,732.35L195.83,730.28C197.83,729.11 197.92,732.19 199.72,731.72C201.01,730.97 199.47,729.26 200.53,728.3C201.76,728.87 202.29,730.98 204.75,729.47L205.83,728.39C206.55,728.29 206.83,729.47 207.63,729.09C208.72,728.99 207.87,727.72 208.63,727.4C209.53,727 209.99,727.65 210.63,728.28C212.63,727.95 214.05,725.77 216.54,726.44C215.91,725.12 214.68,724.8 214.54,723.29C215.35,722.29 217.77,723.4 218.03,721.23C215.18,721 212.49,719.97 209.53,720.04C206.83,720.1 204.14,720.34 201.31,719.42C198.48,718.5 195.42,719.23 192.57,719.23L191.38,717.98C192.17,715.76 194.22,716.98 195.52,716.38C195.838,715.868 195.763,715.199 195.34,714.77C191.62,715.18 188.28,713.13 184.69,712C183.706,711.736 183.056,710.782 183.17,709.77C185.17,708.56 186.77,709.47 188.17,711.3L189.01,709.02L190.33,711.29C191.33,710.8 191.62,709.79 192.77,710.49L193.26,711.92L197.86,711.92L199.12,710.66L199.58,711.92C200.95,712.39 201.15,711.6 201.21,710.29C202.57,710.4 204.01,709.68 205.16,711.14C206.1,710.25 206.87,709.14 208.29,708.93C207.86,708.37 206.99,708.02 207.71,706.74C208.71,706.16 211.1,707.58 211.71,704.97C209.61,704.77 207.4,704.97 206.08,702.44C205.64,701.62 203.76,701.1 202.18,701.23C198.4,701.53 195.02,699.95 191.65,698.53C191.14,698.31 190.79,697.71 190.37,697.29C189.62,696.06 191.86,695.74 191.21,694.54C190.59,693.62 189.5,694.47 188.95,694.05C188.4,693.63 188.54,693.11 188.58,692.66C189.48,691.89 190.58,692.48 191.58,692.29C193.03,693.45 194,695.23 196.46,695.53C197.92,694.93 199.18,693.4 200.64,691.53L204.21,691.53C204.513,689.882 205.797,688.578 207.44,688.25C206.08,687.25 204.52,688.14 203.18,687.62L202.58,686.04C201.76,686.89 200.37,686.7 199.75,687.77C197.3,687.71 194.64,688.3 192.83,685.83C193.96,684.43 195.56,685.62 196.65,684.74L195.73,683.74C196.84,682.6 197.5,683.86 197.96,684.27C199.96,684.03 199.96,682.48 200.74,681.5L202.48,681.5C203.23,680.89 202.74,680.08 202.91,679.35C203.83,678.82 204.97,678.53 205.7,677.14L199.63,677.14L198.92,675.14L194,676.98C191,675.86 187.32,675.98 184,673.93C185.82,672.93 187.68,672.2 189.15,670.72C190.62,669.24 191.2,666.95 193.6,666.48L194.22,667.01C196.84,666.01 198.78,663.81 201.74,664.58C201.91,663.58 200.74,663.31 201.25,662.1C202.913,661.812 204.501,661.193 205.92,660.28C203.81,660.01 202.09,659.6 200.44,660.73L199.44,659.73L200.15,658.27C198.256,658.441 196.511,659.377 195.32,660.86C194.53,660.07 194.62,658.86 193.32,658.09L196.73,655.82C193.68,655.63 191.67,654.87 189.8,656.35L188.6,655.09C188.372,654.464 188.678,653.761 189.29,653.5C192.37,652.5 194.75,650.34 197.44,648.71L196.8,648.07C196.74,646.85 198.19,648.07 198.27,646.67L197.17,645.67C195.76,645.67 195.02,647.22 193.29,646.38L192,644C190.724,645.269 188.894,645.817 187.13,645.46C186.43,645.14 187.13,643.96 185.93,643.66L180.49,646.46C176.59,643.54 171.61,641.95 168.82,637.65C168.75,636.65 169.28,636.53 170.09,636.54C171.09,638.9 172.94,639.83 175.53,640.24C177.46,640.54 179.68,640.87 181.13,643.09C181.3,642.27 181.38,641.86 181.49,641.34C182.56,641.28 183.6,642.75 184.82,641.64C184.38,639.75 181.15,640.4 181.42,637.54C182.82,637.67 183.25,639.62 184.95,639.36C185.95,639.21 187.13,640.36 188.24,640.87L189.47,638.41C189.37,637.23 188.1,636.94 187.78,635.99C188.017,635.592 188.532,635.45 188.94,635.67C189.86,636.67 190.66,637.67 191.26,638.45C192.6,638.22 193.41,638.65 193.96,637.88C194.19,636.47 192.64,636.13 192.22,634.88C194.86,634.32 197.83,635.48 200.09,633.38C198.56,631.53 196.29,632.15 194.41,631.99C193.41,631.22 194.5,630.08 193.41,629.24C190.28,630.84 187.41,633.49 183.55,633.84C183.21,632.45 184.85,632.44 184.89,631.09C182.27,631.28 180.53,633.68 178.05,633.78C175.38,633.89 172.7,633.78 169.91,633.78L169.91,629.45C171.36,628.95 171.37,629.8 171.68,630.69C171.99,631.58 173.5,630.82 173.68,632.07C174.73,631.35 173.88,630.26 174.44,629.55C175.71,628.3 176.3,630.98 177.56,630.03C179.1,628.75 176.07,628.22 177.18,626.75L180.43,628.38L181.63,626.81C183.39,625.98 184.14,627.43 185.38,627.52L186.62,626.38C186.83,626.15 186.62,626.03 186.43,625.72C185.48,624.01 183.61,625.36 182.5,624.57C181.5,622.57 184.43,623.51 184.29,621.72C184.19,620.48 186.14,620.23 188.13,620.14C186.9,619.25 186.64,618.03 185.08,618.59C185.62,616.7 187.81,616.35 187.74,614.1C184.74,614.52 182.46,616.36 179.81,617.64C178.64,617.64 177.9,615.73 175.63,617.52C176.71,615.06 178.63,614.52 178.75,612.89C177.56,610.7 176.63,614.1 175.32,612.89C175.063,611.907 175.063,610.873 175.32,609.89C176.68,608.89 177.32,611.36 178.59,610.25C179.35,608.72 177.59,608.42 177.07,607.43C178.2,605.62 179.34,603.76 180.49,601.91C178.68,600.4 177.35,603.25 175.49,602.35C175.34,601.94 175.16,601.42 174.98,600.9C174.77,600.6 174.61,600.69 174.34,601.02C173.86,601.57 173.26,601.96 173.34,602.87C173.59,604.87 172.39,606.38 170.91,608.15L170.91,601.9C172.481,599.926 173.87,597.814 175.06,595.59C174.33,594.93 173.77,595.26 173.2,595.86C172.27,596.86 171.3,597.77 170.12,598.95C169.48,597.17 169.86,595.47 169.79,593.83C169.72,592.19 169.79,590.63 169.79,588.41C168.51,590.47 167.79,591.9 167.97,593.7C168.13,595.13 167.97,595.14 166.66,597.16C165.86,595.46 165.06,593.84 162.66,593.16C163.484,595.402 164.718,597.471 166.3,599.26C167.865,601.19 168.429,603.751 167.82,606.16C164.56,605.54 165.2,602.03 163.15,600.73C162.39,600.89 162.75,601.61 162.51,602.15C161.03,602.15 160.09,600.51 158.07,600.67C158.52,601.72 159.43,602.18 159.9,602.91C159.21,604.36 157.2,604.05 156.45,605.73C158.7,606.51 161.21,605.54 163.61,606.28C162.11,607.66 159.61,607.44 158.93,610.05C160.51,610.87 162.59,610.11 163.71,611.51C164.78,611.03 164.05,609.85 165.19,609.51C166.6,609.51 166.89,611.26 168.29,611.78C166.71,614.78 167.24,617.87 167.1,621.15C164.922,621.546 162.714,620.542 161.58,618.64C160.69,617.11 158.86,616.09 158.94,613.87C158.94,613.11 157.74,612.3 157.07,611.49C156.13,611.79 155.36,612.49 154.07,612.17L151.7,609.34C150.63,610.1 151.07,610.91 150.9,611.85L153.08,613.13C151.78,614.77 150.08,613.35 149.08,614.56C149.52,616.66 151.75,617.27 152.55,619.04C151.43,619.96 149.8,620.21 148.21,620.65C149.4,622.23 151.45,622.36 152.38,623.9C153.336,624.078 154.322,623.813 155.06,623.18L156.34,624.28C156.59,625.34 155.85,625.72 155.22,626.43C154.06,627.12 152.47,626.09 151.15,626.89C151.6,628.51 152.93,628.45 154.21,628.47C154.93,629.07 154.42,629.88 154.58,630.55C154.74,631.22 155.58,631 156.09,631.23C156.54,631.73 156.54,632.23 155.94,632.91C154.04,632.83 152.7,630.65 150.55,631.1C149.75,631.61 150.21,632.43 150.07,633.16C148.61,634.26 147.07,635.1 145.07,634.58C144.79,636.52 142.65,636.47 142.07,637.89C144.75,639.89 146.59,640.22 149.74,639.26C150.61,639.9 149.59,641.03 150.59,641.9C152.74,641.66 153.4,639.26 155.14,638.3L156.82,638.3C157.223,638.546 157.399,639.046 157.24,639.49C157.025,639.867 156.747,640.205 156.42,640.49C157.42,641.67 158.85,640.92 160.79,638.25C162.27,638.05 161.36,639.75 162.44,640.13C164.93,639.34 165.14,636.98 165.58,634.13C166.382,635.313 166.5,636.837 165.89,638.13C165.38,639.26 164.76,640.35 164.05,641.74C162.61,642.94 160.56,642.74 158.6,642.74C157.65,643.74 159.69,643.74 158.17,645.33C157.4,645.63 155.93,647.33 153.56,645.82C151.93,644.82 149.98,644.34 148.72,642.82C148.1,643.18 148.35,643.67 148.24,644.4C146.24,644.26 144.74,645.05 144.24,647.23C142.02,647.4 140.24,645.97 137.89,645.35C137.65,646.04 137.33,646.93 137.01,647.83L135.78,647.39Z" style="fill:rgb(160,212,238);fill-rule:nonzero;"/>
                <path d="M924.15,647.39L927.67,647.39C928.02,648.26 927.08,648.28 926.94,648.81C925.62,649.63 924.01,648.56 922.6,649.45L923.33,650.38C922.99,651.66 921.51,651.46 920.77,652.23L921.77,653.39C919.29,654.05 917.77,650.66 915.02,652.39L918.26,654.77C917.26,655.77 916.52,655.57 916.12,654.84C915.41,653.56 913.75,653.92 913.12,652.84C911.44,653.54 911.93,655.14 911.44,656.22C909.65,656.89 909.5,654.53 908.13,654.56C907.37,654.43 907.22,655.25 906.44,655.56L903.02,653.84L902.02,654.84C902.02,654.95 901.86,655.11 901.89,655.15C905.51,659.39 910.48,660.4 915.67,661.15C916.52,659.51 918.16,659.23 919.43,658.39C920.37,658.96 920.52,660.02 921.01,660.87C922.6,661.35 922.78,659.55 924.2,659.19C925.76,660.64 928.05,659.84 930.36,660.19C930.385,661.025 929.752,661.747 928.92,661.83C926.69,661.55 926.3,663.19 925.64,664.52C923.88,665.1 922.98,663.8 922.01,662.78C920.83,663.92 921.94,664.41 922.41,665.04C922.087,665.334 921.804,665.671 921.57,666.04C921.41,666.41 921.68,666.95 920.98,667.25L919.42,667.25C918.13,668.04 919.82,670.25 917.78,670.73L914.67,670.73L913.25,669C912.391,669.641 911.305,669.898 910.25,669.71L908.78,667.84C907.66,668.59 908.5,669.67 907.94,670.41C906.42,669.57 904.2,670.13 903.45,668.05L901,669.24C903.71,672.13 907.22,673.24 910.74,674.55C914.57,675.95 918.1,674.92 921.63,673.39C921.92,675.18 920.43,675.56 919.74,676.92C921.268,677.054 922.806,677.031 924.33,676.85C925.624,676.425 926.862,675.847 928.02,675.13C928.97,675.13 928.89,675.81 928.88,676.4C929.48,677.56 930.94,676.32 931.58,677.4C932.22,678.48 933.68,677.21 934.35,678.54C933.86,680.93 930.43,680.63 929.91,682.76C929.39,684.89 926.76,685.45 926.76,688.2C925.5,687.027 923.747,686.535 922.06,686.88C921.34,687.21 922.06,688.41 921.06,688.64C919.81,688.53 919.13,687.11 917.73,687.11C916.99,687.11 917.37,687.8 917.09,688.43L911.27,688.43L909.61,686.86C909.187,687.089 909.008,687.609 909.2,688.05C909.897,689.909 911.352,691.386 913.2,692.11C913.893,692.246 914.526,692.596 915.01,693.11L923,693.11C923.64,692.01 925.1,692.24 925.93,691.21L928.84,692.65L927.15,694.34C928.34,695.48 929.15,694.61 930.31,694.1C931.47,693.59 932.65,694.01 933.78,694.01C935.13,695.54 937.16,695.4 938.86,696.33C937.78,699.78 932.86,699.17 932.08,702.98C931.061,702.91 930.039,702.91 929.02,702.98C928.02,703.13 927.25,702.45 926.34,702.22C926.06,703.02 925.87,703.66 927,703.87C928.067,703.955 928.886,704.881 928.84,705.95C924.71,707.43 924.71,707.43 920.47,706.54C919.47,707.01 919.82,708.29 919.28,708.71C921.41,711.64 924.85,709.4 927.69,710.88C930.53,712.36 933.53,709.54 936.52,710.18C937.23,710.87 936.31,710.89 936.29,711.18C935.81,711.93 936.96,711.96 936.75,712.57C935.75,713.22 934.5,712.57 933.39,712.92C933.73,714.26 935.39,714.54 935.11,715.97C934.17,717.09 933.99,714.89 932.99,715.49C932.34,715.87 931.27,715.25 930.61,715.94C930.61,716.39 930.61,716.77 930.72,716.94C931.41,717.71 932.17,718.42 932.67,718.94C937.35,720 941.31,717.49 946.27,717.16L944.13,719.7C943.79,720.7 944.93,720.92 945.01,721.8C945.09,722.68 944.01,723.03 943.53,723.8C942.95,724.73 942.04,724.55 941.16,724.58C940.01,724.58 941.02,726.42 939.73,726.37C938.83,726.37 937.94,726.31 937.42,727.2L934.19,725.32C933.5,725.03 933.26,726.55 932.19,726.4C931.375,726.357 930.558,726.39 929.75,726.5C929.54,727.71 930.03,727.83 930.75,728.24C933.39,729.68 936.33,729.98 939.12,730.8C941.12,731.37 943.12,730.65 945.02,729.8L947.55,732.07C949.16,729.78 951.88,731.88 954.03,729.7C953.52,733.25 950.3,733.38 949.03,735.32L946.03,735.48C945.89,736.91 947.32,735.78 947.48,736.59C947.11,738.59 945.1,737.67 943.97,738.52L945.86,739.41C944.17,740.93 942.94,738.58 941.42,738.98L937,740C936.76,741.51 937.64,742.19 938.87,742.39C941.72,742.83 944.53,743.73 947.48,743.32C948.033,743.28 948.587,743.28 949.14,743.32C949.4,743.99 949.59,744.51 949.83,745.17L960,745.17C959,746.04 958.11,747.05 956.11,747C958.05,747.94 957.21,749.35 957.76,750.29L959.65,750.94C955.65,752.19 951.91,753.18 948.39,755.01L947.08,754.21C946.44,754.83 946.92,755.62 946.76,756.32C945.03,757.09 943.39,758.83 941.62,756.81C940.67,756.65 940.48,757.39 940.01,757.66C939.415,757.825 938.78,757.559 938.48,757.02C936.244,757.902 933.769,757.983 931.48,757.25C928.61,756.55 925.79,755.25 922.75,756.05C921.96,757.49 923.18,758.2 923.92,758.52C928.236,760.433 932.705,761.978 937.28,763.14C939.11,763.59 941.15,764.63 942.67,763.78C944.19,762.93 945.76,763.3 947.25,763.06C947.95,763.92 946.83,763.95 946.77,764.74L957.29,764.74C957.46,766.28 956.14,765.36 955.92,766.01C957.21,767.76 959.24,767.51 961.1,767.9C958.23,768.8 955.32,768.19 952.47,768.55C953.47,770.63 956.47,769.61 957.8,772.28C952.88,770.61 948.61,771.86 944.49,772.97C943.55,773.76 944.59,774.89 943.77,775.49C942.95,776.09 942.36,775.31 941.77,774.63C940.38,775.02 939.06,776.34 937.69,775.49C936.59,775.99 937.29,777.14 936.36,777.43C934.46,777.23 933.15,774.96 930.91,775.8C930.73,776.32 930.54,776.8 930.31,777.49C929.6,776.82 928.99,776.23 928.39,775.65L927.28,776.65L923.71,774.84C923.33,775.61 923.32,775.99 924.2,776.55C929.313,779.635 934.74,782.166 940.39,784.1C942.62,784.92 944.77,784.2 946.82,784.64C950.65,782.5 951.65,782.15 953.82,782.14C953.65,783.06 952.76,783.39 952.21,784.14C952.39,784.28 952.58,784.55 952.78,784.56C953.67,784.56 954.88,784.87 955.37,784.41C956.87,783.05 958.47,784.08 960.11,784.14L953.19,786.58C954.19,789.4 956.93,787.35 958.47,788.58C957.54,789.66 956.2,788.58 955.16,789.22C954.62,789.79 955.44,789.83 955.56,790.15C956.07,791.48 957.73,790.3 958.68,791.58L953.68,791.58C952.68,792.44 953.68,792.58 953.88,793.03C953.76,794.03 951.97,793.03 952.17,794.4C951.97,795.85 953.7,794.89 953.94,795.87C952.63,796.73 951.05,795.8 949.7,796.45C949.31,797.05 950.19,797 950,797.88C949.36,798.33 948.22,797.88 947.1,798.05C946.94,798.52 946.76,799.05 946.58,799.58C945.9,800.27 944.78,799.3 944.14,800.21C945.99,802.84 949.14,802.99 951.69,803.21C954.59,803.45 957.17,805.21 960.2,804.48C958.92,805.62 957.44,804.92 955.39,805.48L953.94,807L949.85,805C949.31,806.62 951.32,806.44 951.03,807.58C950.74,808.72 948.87,808.9 949.49,810.66C947.56,810.71 946.69,809.34 945.31,809.02C944.83,809.7 944.75,810.82 943.6,811.51C942.08,810.05 940.66,808.17 938.2,807.99C937.36,808.99 939.42,809.16 938.75,810.19C938.39,810.74 938.99,811.64 938.51,812.19C937.34,813.01 936.97,811.62 936.07,811.5C935.25,811.22 935.07,812.5 933.92,812.38C933.13,811.15 931.6,811.58 930.18,811.52C930.09,809.72 928.18,809.83 927.18,808.71C925.8,809.43 924.33,810.51 922.79,808.95C922.19,809.85 922.6,810.4 923.23,810.87L922.29,813.05C920.76,812.19 918.71,811.83 917.55,812.68C916.11,813.68 914.31,810.29 913.85,813.85C912.11,811.92 910.27,812.55 908.67,812.3C906.25,811.8 905.52,809.6 904.19,807.94L903.19,808.79C902.58,807.94 902.49,806.68 901.31,806.22L900.04,807.49C899.94,810.43 901.29,813.49 901.75,816.74L888.16,816.74C890.3,812.55 890.23,808.12 891.28,804.09C890.06,802.62 888.55,802.18 887.22,801.5C886.06,802.6 887.04,803.93 886.44,804.98C885.86,805.48 885.84,804.64 885.16,804.53C884.86,805.94 883.66,806.83 882.65,807.87C881.93,807.63 882.25,806.92 881.92,806.29C879.61,806.85 879.79,809.84 878.24,810.47C876.88,810.93 876.74,809.61 875.6,809.77C874.96,811.44 873.02,811.95 871.72,813.23L871.05,812.57C869.94,812.81 869.67,814.47 868.25,814.21C867.02,813.27 868.43,811.6 867.35,810.59C865.27,810.59 864.97,813.25 863.03,813.33C861.6,812.87 863.03,811.33 861.74,810.54L859.86,813C857.47,813.87 856.71,812.59 855.55,811.43L853.97,813.83C853.895,812.543 852.961,811.457 851.7,811.19C851.89,810.54 852.85,810.19 852.5,809.37C852.25,808.93 851.86,808.88 851.41,808.82C849.97,808.64 848.93,810.57 847.32,809.52C847.23,808.25 849.62,808.05 848.57,806.12C847,806.22 845.34,807.9 843.37,806.58C845.97,805.16 848.81,805.02 851.96,803.9L849.68,803.08C848.38,802.33 847.11,803.58 845.61,804.2C845.41,803.68 845.22,803.2 845.04,802.68C843.58,802.07 842.8,804.33 841.47,803.5C840.68,803.16 840.89,802.5 840.64,801.72L837.52,803.35L836.92,801.77L834.83,801.54C834.58,800.32 836.16,800.27 836.2,799.2C834.13,798.13 832.2,801.07 830.03,799.42L835.16,796.89C834.178,795.879 832.906,795.198 831.52,794.94C833.52,794.12 835.24,794.73 836.82,794.42C837.32,794.12 837.22,793.65 837.24,793C838.47,792.16 840.42,793.35 841.59,791.83C841.77,791.59 842.7,791.83 843.25,791.98C846.55,793.018 850.101,792.952 853.36,791.79C854.81,791.26 854.94,791 854.98,788.36C854.04,788.5 853.73,789.41 852.98,789.93C851.28,788.7 854.29,787.85 853.27,786.74C853.06,786.33 852.93,786.39 852.63,786.74C851.07,788.25 849.77,790.09 847.39,790.74C846.55,789.98 847.46,788.69 846.98,787.68C846.77,787.26 846.55,787.25 846.35,787.68C845.69,788.96 844.09,788.91 843.2,789.89C841.44,789.42 841.68,787.81 841.65,786.64C839.91,786.07 838.9,788.53 837.32,787.02C836.81,785.48 838.45,785.19 838.98,784.24C838.757,783.866 838.314,783.679 837.89,783.78C836.895,783.783 835.914,784.012 835.02,784.45C833.72,785.13 831.91,785.1 830.89,782.8C833.26,783.27 835.13,782.16 837.21,781.59L835.45,779.71C835.71,779.56 835.95,779.31 836.19,779.31L846.97,779.31C848.011,779.415 849.059,779.415 850.1,779.31C850.974,778.967 851.795,778.502 852.54,777.93C849.98,777.16 847.92,774.93 844.7,776.45C844.7,774.94 842.98,775.01 842.19,774.01C841.61,774.37 841.3,775.3 840.31,774.78C839.92,774.56 839.89,774.13 839.93,773.56L844.17,771.41L837.9,771.41C837.07,770.75 837.26,770.3 837.31,769.5C839.93,770.21 842.18,768.2 845.09,768.67C845.47,766.88 845.74,765.26 843.84,764.1C842.39,763.89 842.17,765.64 841.01,765.9C837.91,765.41 836.89,762.76 835.43,760.55C835.25,759.09 836.96,760.03 837.22,759.16L837.22,757.9C835.06,758.22 833.22,756.9 831.05,756.65L831.05,755.47C832.52,754.29 833.24,756.72 834.68,756.08C835.68,755.62 837.02,756.39 838.19,755.66L836.4,753.74C837.198,753.031 838.43,753.08 839.17,753.85C840.04,754.67 841.17,754.07 842.17,754.23C842.85,753.93 842.64,753.23 842.8,752.77C844.92,751.47 846.65,753.67 848.63,753.33C851.29,755.23 853.73,753.27 856.2,752.79C858.265,752.428 860.226,751.623 861.95,750.43C862.8,750.11 862.25,748.82 863.3,748.43C863.12,747.96 862.74,747.93 862.3,747.9C860.68,747.78 859.68,749.24 858.2,749.48C857.1,748.24 859.65,747.63 858.67,746.34C857.96,745.89 857.96,747.03 856.91,746.95L854.38,745.71L855.32,744.71C853.74,743.54 852.84,745.79 851.25,745.38C849.87,745.03 848.98,743.32 847.25,743.97L848.17,742.89C846.558,742.635 845.017,742.042 843.65,741.15C844.65,740.26 845.97,741.15 847.51,740.38L840.34,737.51C842.34,737.16 843.42,736.96 844.91,737.84C846.02,738.5 847.84,738.28 849.26,738.01C850.68,737.74 851.85,739.13 853.45,738.92C853.14,738.29 852.95,737.92 852.74,737.45C860.65,738.66 867.65,737.45 872.56,733.92C870.69,733.64 869.1,733.2 868.41,731.92C867.19,731.56 866.94,732.63 866.04,732.75C865.04,733.03 864.97,730.69 863.12,732.36L864.12,730.29C862.17,729.12 862.04,732.2 860.24,731.73C858.95,730.98 860.48,729.27 859.42,728.31C858.2,728.88 857.67,730.99 855.21,729.48L854,728.27C853.28,728.17 853.05,729.35 852.2,728.97C851.11,728.87 851.95,727.6 851.2,727.28C850.3,726.88 849.85,727.53 849.2,728.16C847.2,727.83 845.78,725.65 843.29,726.32C843.92,725 845.15,724.68 845.29,723.17C844.49,722.17 842.07,723.28 841.81,721.11C844.66,720.88 847.35,719.85 850.31,719.92C853.01,719.98 855.69,720.22 858.53,719.3C861.21,718.42 864.41,719.11 867.27,719.11L868.46,717.86C867.67,715.64 865.61,716.86 864.32,716.26C864.002,715.748 864.077,715.079 864.5,714.65C868.22,715.06 871.56,713.01 875.15,711.88C876.134,711.616 876.784,710.662 876.67,709.65C874.67,708.44 873.07,709.35 871.67,711.18L870.83,708.9C870.28,709.83 869.83,710.57 869.5,711.17C868.5,710.68 868.21,709.67 867.06,710.37L866.58,711.8L862,711.8L860.74,710.54L860.27,711.8C858.91,712.27 858.7,711.48 858.65,710.17C857.29,710.28 855.84,709.56 854.65,711.02C853.72,710.13 852.95,709.02 851.53,708.81C851.96,708.25 852.82,707.9 852.11,706.62C851.11,706.04 848.72,707.46 848.11,704.85C850.21,704.65 852.42,704.85 853.75,702.32C854.19,701.5 856.07,700.98 857.65,701.11C861.43,701.41 864.81,699.83 868.18,698.41C868.69,698.19 869.04,697.59 869.46,697.17C870.21,695.94 867.97,695.62 868.62,694.42C869.24,693.5 870.33,694.35 870.87,693.93C871.41,693.51 871.29,692.99 871.25,692.54C870.34,691.77 869.25,692.36 868.25,692.17C866.81,693.33 865.84,695.11 863.38,695.41C861.92,694.81 860.65,693.28 859.2,691.41L855.63,691.41C855.328,689.758 854.038,688.452 852.39,688.13C853.76,687.13 855.31,688.02 856.65,687.5L857.26,685.92C858.08,686.77 859.46,686.58 860.09,687.65C862.54,687.59 865.2,688.18 867.01,685.71C865.88,684.31 864.27,685.5 863.19,684.62L864.11,683.62C863,682.48 862.33,683.74 861.88,684.15C859.88,683.91 859.88,682.36 859.1,681.38L857.4,681.38C856.65,680.77 857.14,679.96 856.97,679.23C856.05,678.7 854.91,678.41 854.18,677.02L860.24,677.02L860.96,675.02L865.88,676.86C868.88,675.74 872.55,675.86 875.88,673.81C874.07,672.81 872.21,672.08 870.74,670.6C869.27,669.12 868.69,666.83 866.28,666.36L865.67,666.89C863.05,665.89 861.11,663.69 858.15,664.46C857.98,663.46 859.15,663.19 858.64,661.98C856.977,661.692 855.389,661.073 853.97,660.16C856.08,659.89 857.8,659.48 859.45,660.61L860.45,659.61L859.74,658.15C861.631,658.324 863.372,659.259 864.56,660.74C865.36,659.95 865.26,658.74 866.61,657.97L863.21,655.7C866.21,655.51 868.27,654.75 870.14,656.23L871.34,654.97C871.566,654.342 871.256,653.637 870.64,653.38C867.57,652.38 865.19,650.22 862.49,648.59L863.14,647.95C863.2,646.73 861.75,647.95 861.67,646.55L862.77,645.55C864.18,645.55 864.91,647.1 866.65,646.26L867.95,644.06C869.223,645.327 871.049,645.876 872.81,645.52C873.52,645.2 872.81,644.02 874.02,643.72L879.46,646.52C883.36,643.6 888.34,642.01 891.13,637.71C891.2,636.71 890.66,636.59 889.86,636.6C888.86,638.96 887.01,639.89 884.42,640.3C882.48,640.6 880.27,640.93 878.82,643.15C878.65,642.33 878.57,641.92 878.46,641.4C877.39,641.34 876.35,642.81 875.13,641.7C875.56,639.81 878.79,640.46 878.53,637.6C877.13,637.73 876.69,639.68 875,639.42C874,639.27 872.82,640.42 871.71,640.93L870.47,638.47C870.58,637.29 871.84,637 872.17,636.05C871.929,635.651 871.411,635.509 871,635.73C870.09,636.73 869.29,637.73 868.69,638.51C867.35,638.28 866.54,638.71 865.99,637.94C865.76,636.53 867.31,636.19 867.73,634.94C865.09,634.38 862.12,635.54 859.86,633.44C861.38,631.59 863.66,632.21 865.53,632.05C866.53,631.28 865.45,630.14 866.53,629.3C869.66,630.9 872.53,633.55 876.38,633.9C876.73,632.51 875.09,632.5 875.05,631.15C877.66,631.34 879.41,633.74 881.89,633.84C884.56,633.95 887.24,633.84 890.02,633.84L890.02,629.51C888.58,629.01 888.57,629.86 888.25,630.75C887.93,631.64 886.44,630.88 886.25,632.13C885.25,631.41 886.05,630.32 885.49,629.61C884.22,628.36 883.63,631.04 882.36,630.09C880.82,628.81 883.86,628.28 882.75,626.81L879.5,628.44L878.3,626.87C876.54,626.04 875.79,627.49 874.55,627.58L873.31,626.44C873.1,626.21 873.31,626.09 873.49,625.78C874.49,624.07 876.32,625.42 877.42,624.63C878.42,622.63 875.49,623.57 875.64,621.78C875.74,620.54 873.79,620.29 871.8,620.2C873.03,619.31 873.29,618.09 874.8,618.65C874.25,616.76 872.07,616.41 872.14,614.16C875.14,614.58 877.42,616.42 880.06,617.7C881.24,617.7 881.98,615.79 884.25,617.58C883.17,615.12 881.25,614.58 881.12,612.95C882.32,610.76 883.25,614.16 884.56,612.95C884.817,611.967 884.817,610.933 884.56,609.95C883.2,608.95 882.56,611.42 881.28,610.31C880.53,608.78 882.28,608.48 882.8,607.49L879.39,601.97C881.2,600.46 882.53,603.31 884.39,602.41L884.89,600.96C885.11,600.66 885.26,600.75 885.54,601.08C886.01,601.63 886.62,602.02 886.54,602.93C886.3,604.93 887.54,606.44 888.98,608.21L888.98,601.96C887.406,599.987 886.013,597.875 884.82,595.65C885.56,594.99 886.12,595.32 886.69,595.92C887.62,596.92 888.59,597.83 889.77,599.01C890.41,597.23 890.03,595.53 890.1,593.89C890.17,592.25 890.1,590.69 890.1,588.47C891.37,590.53 892.1,591.96 891.92,593.76C891.76,595.19 891.92,595.2 893.23,597.22C894.03,595.52 894.83,593.9 897.23,593.22C896.407,595.464 895.169,597.534 893.58,599.32C892.023,601.254 891.464,603.812 892.07,606.22C895.33,605.6 894.69,602.09 896.74,600.79C897.5,600.95 897.13,601.67 897.38,602.21C898.86,602.21 899.8,600.57 901.82,600.73C901.36,601.78 900.46,602.24 899.98,602.97C900.68,604.42 902.68,604.11 903.44,605.79C901.19,606.57 898.67,605.6 896.28,606.34C897.78,607.72 900.28,607.5 900.96,610.11C899.38,610.93 897.3,610.17 896.18,611.57C895.11,611.09 895.84,609.91 894.7,609.57C893.29,609.57 892.99,611.32 891.59,611.84C893.18,614.84 892.65,617.93 892.79,621.21C894.968,621.606 897.176,620.602 898.31,618.7C899.19,617.17 901.03,616.15 900.95,613.93C900.95,613.17 902.15,612.36 902.82,611.55C903.76,611.85 904.53,612.55 905.82,612.23L908.19,609.4C909.25,610.16 908.81,610.97 908.98,611.91L907,613.18C908.3,614.82 910,613.4 911,614.61C910.56,616.71 908.33,617.32 907.53,619.09C908.65,620.01 910.27,620.26 911.87,620.7C910.68,622.28 908.63,622.41 907.7,623.95C906.744,624.128 905.758,623.863 905.02,623.23L903.74,624.33C903.48,625.39 904.23,625.77 904.85,626.48C906.01,627.17 907.61,626.14 908.93,626.94C908.48,628.56 907.15,628.5 905.87,628.52C905.15,629.12 905.66,629.93 905.5,630.6C905.34,631.27 904.5,631.05 903.99,631.28C903.54,631.78 903.54,632.28 904.14,632.96C906.04,632.88 907.38,630.7 909.53,631.15C910.32,631.66 909.87,632.48 910,633.21C911.47,634.31 913,635.15 915,634.63C915.28,636.57 917.42,636.52 918,637.94C915.32,639.94 913.48,640.27 910.33,639.31C909.45,639.95 910.47,641.08 909.48,641.95C907.33,641.71 906.66,639.31 904.92,638.35L903.25,638.35C902.847,638.596 902.671,639.096 902.83,639.54C903.045,639.917 903.323,640.255 903.65,640.54C902.65,641.72 901.21,640.97 899.28,638.3C897.8,638.1 898.7,639.8 897.63,640.18C895.14,639.39 894.93,637.03 894.49,634.18C893.688,635.363 893.57,636.887 894.18,638.18C894.69,639.31 895.3,640.4 896.02,641.79C897.45,642.99 899.51,642.79 901.47,642.79C902.42,643.79 900.38,643.79 901.9,645.38C902.67,645.68 904.14,647.38 906.5,645.87C908.13,644.87 910.09,644.39 911.35,642.87C911.97,643.23 911.72,643.72 911.83,644.45C913.83,644.31 915.33,645.1 915.83,647.28C918.05,647.45 919.83,646.02 922.19,645.4C922.43,646.09 922.75,646.98 923.07,647.88L924.15,647.39Z" style="fill:rgb(160,212,238);fill-rule:nonzero;"/>
                <path d="M480.19,753.15C480.29,751.31 481.87,750.71 483.08,749.08C480.03,748.08 477.43,746.58 478.61,742.94L475.61,741.88C475.61,741.03 475.17,740.23 476.36,739.55C480.19,738.73 481.84,743.35 485.2,744.11L486.45,742.28C482.97,739.47 481.64,734.62 477.24,732.44C477.77,731.52 478.61,731.93 479.3,731.83C479.904,731.386 480.209,730.639 480.09,729.9C480.09,729.18 480.19,728.46 480.25,727.78C486.07,726.55 491.7,724.9 497.25,726.02C498.42,724.79 498.46,723.93 497.78,723.1C495.69,721.67 494.94,724.88 492.78,724.1C491.22,722.1 488.51,720.64 487.22,717.37C492.35,715.27 494.83,719.37 498,721.27C500.86,721.08 499.06,717.85 501.13,717.27C499.24,715.49 498.48,717.66 497.27,717.96C495.74,716.56 498.17,713.65 494.9,713.07C496.312,712.238 497.076,710.619 496.82,709C500.66,710.28 503.39,706.78 507.28,707.67C507.39,703.99 504.68,703.17 503.46,701.67C501.88,701.36 501.33,702.3 500.38,703.2C499.74,699.65 496.23,698.12 494.72,695.41C496.72,693.02 498.98,694.72 500.72,693.78C501.88,692.23 500.72,690.4 501.37,688.89C499.68,687.11 498.62,688.23 497.52,689.44C495.59,688.06 498.15,684.98 494.63,684.23C495.89,683.78 496.47,683.36 496.75,683.5C500.29,685.41 503.13,688.42 506.9,690C507.3,690.16 507.29,691.29 507.54,692.25L515.87,692.25L517.74,690.3C513.21,687.98 507.6,687.67 503.08,683.11C508.83,680.53 512.54,683.85 516.72,685.11L519.42,682.73L514.82,678.14L516.21,676.75C515,675.15 513.88,673.4 510.27,675.2L508.73,677.33C506.39,677.27 504.65,677.82 502.96,676.92C503.15,676.55 503.25,676.02 503.53,675.92C506.93,674.42 510.72,673.63 513.36,670.48C510.5,669.02 507.36,670.58 505.11,669.71L510.76,664C512.44,664.61 515.14,667.3 517.48,663.3C519.04,660.48 516.92,657.96 516.01,654.85L524.69,657.85C526,656.32 525.3,655.43 524.33,654.46C521.1,651.21 517.33,648.33 516.17,643.4C520.04,644.34 520.04,644.34 525.17,642.2C524.03,639.7 522.01,637.53 522.38,634.48C524.808,633.576 526.875,631.9 528.26,629.71L527.14,628.59L531.26,624.84C532.26,627.33 528.03,629.54 530.62,632.07C532.69,633.31 533.21,629.53 535.73,630.92C534.82,632.83 533.73,634.92 534.6,636.98C533.67,638.98 530.99,639.51 531.6,642.58C535.04,642.51 537.93,640.18 541.28,639.69C542.33,641.16 542.74,642.43 540.28,642.69C538.83,642.85 538.9,643.82 538.95,644.87C540.95,647.21 542.69,645.09 544.51,644.52C545.144,644.98 545.297,645.876 544.85,646.52C543.63,647.63 541.67,647.67 540.45,649.7L540.45,654C538.09,656.62 537.45,652.65 534.76,653.63C534.63,653.88 534.06,655.01 533.48,656.13L535.1,657.75C538.89,657.4 542.15,654.13 546.52,654.96C544.01,660.02 537.12,660.52 536.24,666.96C542.15,666.54 547.01,663.84 551.53,660.49C552.02,661.26 552.45,661.64 552.53,662.06C552.86,664.6 548.92,664.87 549.53,667.6C544.45,668.75 544.53,675.87 539.04,676.55C539.77,678.2 541.22,677.07 542.04,677.55C544.82,676.62 545.73,673.74 548.57,672.72C550.89,671.89 552.45,668.95 554.34,666.94C556.65,669.2 555.64,670.82 553.88,672.38C551.78,674.24 551.74,676.16 553.88,678.12C551.677,681.289 548.222,683.372 544.39,683.84L548.58,688.03L546.46,690.35C547.86,691.75 549.29,691.35 552.29,688.63C551.93,688.27 551.56,687.93 551.29,687.55C551.2,687.45 551.29,687.2 551.29,686.76L556.29,686.76C558.03,683.58 562.03,683.56 563.66,680.34C564.827,681.626 564.968,683.558 564,685C561.94,688.65 562.49,693.54 558.64,696.37C558.55,700.26 555.31,699.83 552.89,700.51C552.68,702.7 555.14,700.71 555.46,702.51L555.46,704.12C554.13,705 554.1,703.06 553.14,703.34C550.49,707.86 555.55,710.08 555.97,713.63C561.09,711.25 567.04,711.76 571.21,706.75C573.32,711.24 570.98,713.75 568.92,716.16C568.38,716.79 566.58,716.8 566.49,717.29C565.8,721.29 561.11,722.29 560.05,726.19C562.8,729.5 565.19,724.84 567.76,725.77C571.12,722.69 576.03,721.92 579,718.26C580.51,719.59 582.24,720.82 580.59,724.14L572.46,731.76L569.9,731.88C567.9,733.43 567.34,735.88 566.17,737.88C566.17,739.45 567.86,739.67 568.17,740.68L580.07,734.74C582.56,737.39 582.56,737.39 582.14,740.87L580.54,739.41C579.884,739.802 579.59,740.608 579.84,741.33C580.184,741.969 580.619,742.555 581.13,743.07C580.13,745.82 577.32,745.34 575.42,745.72C575.03,747.39 575.51,748.19 576.47,748.84C576.47,750.22 573.87,751.4 576.06,752.97C582.15,750.97 585.95,745.67 591.24,740.97C592.44,745.15 589.39,747.3 590.38,749.97C589.66,750.67 590.61,749.76 589.89,750.46L590.38,749.97C592.86,749.97 591.25,753.2 593.27,753.59C591.73,756.3 587.94,756.02 586.54,757.97C585.14,759.92 582.69,760.97 582.16,763.5L578.94,763.5C578.17,765.27 577.37,767.09 576.33,769.44C582.81,768.09 586.69,763.95 591.1,760.77C591.82,764.77 591.5,765.63 587.18,770.57L587.18,775.21C584.67,776.3 582.04,774.82 579.98,776.15C578.41,779.5 583.41,777.68 582.82,780.15C581.13,781.63 579.06,781.67 576.99,781.68C579.06,781.68 581.13,781.63 582.82,780.15C586.18,780.05 589.65,780.82 593.09,777.72C590.67,784.2 587.8,786.64 582.09,787.72C581.39,787.85 580.7,787.57 580.01,788.19C578.95,789.19 578.34,790.75 576.56,790.75C575.106,790.662 573.649,790.824 572.25,791.23C576.47,793.5 581.54,790.48 585.86,794.09C587.72,790.09 592.19,794.33 594.59,790.85C594.11,796.93 586.92,795.48 585.34,799.66C583.65,804.15 577.82,804.03 576.22,808.66L568.32,808.66C567.88,809.78 567.32,811.24 566.9,812.24C561.9,810.93 559.19,813.88 555.75,814.4L558.75,815.5C557.25,817.37 554.12,815.17 553.27,817.83C552.48,815.93 549.91,816.9 548.77,814.45L547,818.21C547.07,819.27 549.4,819.09 550.88,820C550.34,821.8 548.88,820.56 547.76,821C545.54,819.55 543.66,817.78 542.94,815C541.47,815.91 540.2,816.93 540.25,819.12L534.09,819.12C533.325,819.583 532.869,820.426 532.9,821.32C532.05,828.49 535.43,835.32 534.45,842.54C534.37,843.672 534.37,844.808 534.45,845.94C532.97,846.94 531.75,846.48 530.06,846.43C529.45,838.04 531.06,829.36 527.69,821.11C522.5,819.78 517.45,822.11 512.22,822.72L509.68,825.27C506.68,823.53 502.4,823.59 501.35,819.27C502.048,818.749 502.82,818.335 503.64,818.04C502.817,818.329 502.045,818.744 501.35,819.27C498.78,819.95 497.35,817.66 494.96,817.27L501.19,814.14L501.19,812.05L477.38,812.05C477.84,809.28 479.64,810.86 480.83,810.24C480.83,808.24 483.83,807.31 483.04,805.11C482.27,804 481.48,804.37 480.77,804.35C479.49,804.93 480.77,806.92 478.58,807.44C475.88,806.29 474.28,803.27 471.58,801.29C470.08,801.04 468.3,801.73 465.98,800.42L469.5,798.35C468.17,795.63 467.16,793.59 466.28,791.77C467,790.61 468.15,790.39 468.45,790.77C471.18,794.07 475.6,794.39 478.94,797.55C480.22,795.73 481.22,794.31 482.23,792.89C483.05,792.99 482.87,792.72 482.36,792.27C480.72,790.86 479.58,788.86 476.82,789.09C475.91,789.16 474.89,787.77 473.99,787.09L473.99,782.34C475.56,780.86 478.69,782.61 479.61,779.73L474.1,773.46C474.5,772.25 475.69,772.79 476.73,772.24C476.73,770.49 474.46,770.18 474.08,768.34C476.23,768.17 478.17,767.49 480.31,769.01C484.68,772.12 489.2,771.73 493.56,768.87C490.91,764.93 484.81,765.7 482.25,760.61L479.18,760.41C478.49,756.69 475.74,755.59 472.5,755.7L472.5,753.7C474.1,752.07 475.12,753.31 476.17,754.42C477.113,753.217 478.708,752.715 480.17,753.16C480.711,753.99 481.53,754.6 482.48,754.88C481.541,754.583 480.732,753.972 480.19,753.15Z" style="fill:rgb(160,212,238);fill-rule:nonzero;"/>
                <path d="M972.68,811.83C972.78,810 974.36,809.4 975.57,807.77C972.52,806.77 969.92,805.27 971.1,801.63L968.1,800.57C968.1,799.72 967.66,798.92 968.85,798.23C972.68,797.42 974.33,802.04 977.69,802.8L978.94,800.97C975.46,798.16 974.13,793.31 969.73,791.13C970.26,790.21 971.1,790.62 971.79,790.52C972.397,790.075 972.703,789.323 972.58,788.58C972.58,787.87 972.68,787.15 972.74,786.47C978.56,785.24 984.19,783.58 989.74,784.71C990.91,783.48 990.95,782.62 990.27,781.79C988.18,780.36 987.43,783.57 985.27,782.79C983.71,780.79 981,779.34 979.71,776.06C984.84,773.97 987.32,778.06 990.49,779.97C993.35,779.78 991.55,776.54 993.62,775.97C991.73,774.19 990.97,776.36 989.76,776.65C988.23,775.26 990.66,772.35 987.39,771.77C988.802,770.938 989.566,769.319 989.31,767.7C993.15,768.97 995.88,765.48 999.77,766.37C999.88,762.69 997.17,761.87 995.95,760.32C994.37,760.01 993.82,760.95 992.87,761.84C992.23,758.3 988.72,756.77 987.21,754.05C989.21,751.67 991.47,753.37 993.21,752.43C994.37,750.87 993.21,749.05 993.86,747.54C992.17,745.76 991.11,746.88 990.01,748.09C988.08,746.71 990.64,743.63 987.12,742.88C988.38,742.43 988.97,742.01 989.24,742.15C992.78,744.06 995.62,747.07 999.39,748.65C999.79,748.81 999.78,749.94 1000.03,750.9L1008.36,750.9L1010.23,748.9C1005.7,746.59 1000.09,746.28 995.57,741.72C1001.32,739.14 1005.03,742.46 1009.21,743.72L1011.91,741.34L1007.31,736.75L1008.7,735.36C1007.49,733.76 1006.37,732.01 1002.76,733.8C1002.76,733.88 1001.84,735.09 1001.22,735.94C998.88,735.88 997.14,736.42 995.45,735.52C995.65,735.16 995.74,734.63 996.02,734.52C999.42,733.02 1003.21,732.23 1005.85,729.08C1002.99,727.62 999.85,729.18 997.6,728.31L1003.25,722.59C1004.93,723.21 1007.63,725.89 1009.97,721.9C1011.53,719.08 1009.41,716.56 1008.5,713.45L1017.18,716.4C1018.49,714.86 1017.79,713.98 1016.82,713.01C1013.59,709.76 1009.82,706.88 1008.66,701.95C1012.53,702.89 1012.53,702.89 1017.66,700.74C1016.52,698.25 1014.5,696.08 1014.87,693.03C1017.3,692.122 1019.36,690.447 1020.75,688.26L1019.63,687.14L1023.75,683.39C1024.75,685.88 1020.52,688.08 1023.11,690.62C1025.18,691.86 1025.7,688.08 1028.22,689.47C1027.31,691.38 1026.22,693.47 1027.09,695.53C1026.16,697.53 1023.48,698.05 1024.09,701.13C1027.53,701.05 1030.42,698.73 1033.77,698.24C1034.77,699.71 1035.23,700.98 1032.77,701.24C1031.32,701.4 1031.39,702.37 1031.45,703.42C1033.45,705.75 1035.18,703.64 1037,703.07C1037.63,703.53 1037.79,704.426 1037.34,705.07C1036.12,706.18 1034.16,706.22 1032.94,708.25L1032.94,712.57C1030.58,715.19 1029.94,711.21 1027.25,712.2C1027.12,712.45 1026.55,713.58 1025.97,714.7L1027.59,716.32C1031.38,715.97 1034.59,712.7 1039.01,713.53C1036.5,718.58 1029.61,719.09 1028.73,725.53C1034.64,725.11 1039.5,722.41 1044.02,719.06C1044.51,719.83 1044.94,720.21 1045.02,720.63C1045.35,723.17 1041.41,723.44 1042.02,726.17C1036.94,727.32 1037.02,734.43 1031.53,735.17C1032.26,736.82 1033.71,735.69 1034.53,736.17C1037.31,735.24 1038.22,732.36 1041.06,731.34C1043.38,730.51 1044.94,727.57 1046.83,725.56C1049.14,727.82 1048.13,729.44 1046.37,731C1044.27,732.86 1044.23,734.78 1046.37,736.74C1044.16,739.907 1040.71,741.988 1036.88,742.46L1041.07,746.64L1038.95,748.97C1040.35,750.37 1041.78,749.97 1044.78,747.25C1044.42,746.89 1044.05,746.55 1043.73,746.17C1043.64,746.07 1043.73,745.82 1043.73,745.38L1048.73,745.38C1050.47,742.2 1054.47,742.18 1056.1,738.96C1057.26,740.282 1057.36,742.251 1056.33,743.68C1054.27,747.33 1054.82,752.22 1050.97,755.04C1050.88,758.94 1047.64,758.51 1045.22,759.19C1045.01,761.38 1047.47,759.39 1047.79,761.19L1047.79,762.8C1046.46,763.68 1046.43,761.74 1045.47,762.02C1042.82,766.54 1047.88,768.76 1048.3,772.31C1053.42,769.93 1059.37,770.44 1063.54,765.43C1065.65,769.92 1063.31,772.43 1061.25,774.84C1060.71,775.47 1058.91,775.48 1058.82,775.97C1058.13,779.97 1053.44,780.97 1052.38,784.87C1055.13,788.18 1057.52,783.52 1060.09,784.45C1063.45,781.36 1068.36,780.6 1071.33,776.93C1072.84,778.27 1074.57,779.49 1072.92,782.81L1064.79,790.44L1062.23,790.56C1060.23,792.11 1059.67,794.56 1058.5,796.56C1058.5,798.14 1060.19,798.36 1060.5,799.37L1072.4,793.43C1074.89,796.08 1074.89,796.08 1074.47,799.56L1072.87,798.1C1072.21,798.492 1071.92,799.298 1072.17,800.02C1072.51,800.659 1072.95,801.245 1073.46,801.76C1072.46,804.51 1069.65,804.03 1067.75,804.41C1067.28,805.55 1067.7,806.875 1068.75,807.53C1068.75,808.91 1066.15,810.09 1068.34,811.66C1074.43,809.66 1078.23,804.36 1083.52,799.66C1084.72,803.84 1081.67,805.99 1082.66,808.66C1081.94,809.36 1082.9,808.45 1082.17,809.15L1082.66,808.66C1085.14,808.66 1083.53,811.89 1085.55,812.27C1084.01,814.99 1080.22,814.71 1078.82,816.66C1077.42,818.61 1074.97,819.66 1074.45,822.19L1071.22,822.19C1070.45,823.96 1069.65,825.77 1068.61,828.13C1075.09,826.78 1078.97,822.63 1083.38,819.46C1084.1,823.46 1083.78,824.32 1079.46,829.25L1079.46,833.89C1076.95,834.99 1074.32,833.51 1072.26,834.89C1070.69,838.24 1075.69,836.42 1075.1,838.89C1073.41,840.37 1071.34,840.41 1069.27,840.42C1071.34,840.42 1073.41,840.42 1075.1,838.89C1078.46,838.79 1081.93,839.56 1085.37,836.45C1082.95,842.94 1080.08,845.38 1074.37,846.45C1073.67,846.58 1072.98,846.3 1072.29,846.92C1071.23,847.92 1070.62,849.48 1068.84,849.47C1067.39,849.391 1065.93,849.556 1064.53,849.96C1068.75,852.23 1073.82,849.21 1078.14,852.81C1080,848.81 1084.47,853.06 1086.87,849.58C1086.39,855.65 1079.2,854.21 1077.62,858.39C1075.93,862.88 1070.1,862.75 1068.5,867.39L1060.6,867.39C1060.16,868.51 1059.6,869.97 1059.18,870.97C1054.18,869.66 1051.47,872.61 1048.03,873.13L1051.03,874.23C1049.53,876.1 1046.4,873.9 1045.55,876.56C1044.76,874.66 1042.19,875.63 1041.05,873.18L1039.34,876.93C1039.41,877.99 1041.74,877.81 1043.22,878.72C1042.68,880.52 1041.22,879.28 1040.1,879.72C1037.88,878.27 1036,876.5 1035.28,873.72C1033.81,874.64 1032.54,875.65 1032.59,877.84L1026.43,877.84C1025.66,878.308 1025.21,879.154 1025.24,880.05C1024.39,887.22 1027.77,894.05 1026.79,901.27C1026.71,902.402 1026.71,903.538 1026.79,904.67C1025.31,905.67 1024.09,905.21 1022.4,905.16C1021.79,896.77 1023.4,888.09 1020.03,879.84C1014.84,878.51 1009.79,880.84 1004.56,881.45L1002.02,883.99C999.02,882.26 994.74,882.32 993.69,877.99C994.386,877.466 995.158,877.051 995.98,876.76C995.157,877.049 994.385,877.464 993.69,877.99C991.12,878.67 989.69,876.38 987.31,875.99L993.53,872.86L993.53,870.76L969.87,870.76C970.33,867.99 972.13,869.57 973.32,868.96C973.32,866.96 976.32,866.03 975.53,863.83C974.76,862.72 973.97,863.09 973.26,863.06C971.98,863.65 973.26,865.64 971.07,866.16C968.37,865.01 966.77,861.99 964.07,860.01C962.57,859.76 960.79,860.45 958.47,859.14L961.99,857.07C960.66,854.35 959.65,852.31 958.77,850.49C959.49,849.33 960.64,849.11 960.94,849.49C963.67,852.79 968.09,853.11 971.43,856.27C972.71,854.45 973.71,853.03 974.72,851.61C975.54,851.71 975.36,851.43 974.85,850.99C973.21,849.58 972.07,847.57 969.31,847.81C968.4,847.88 967.38,846.49 966.48,845.81L966.48,841.06C968.05,839.58 971.18,841.33 972.1,838.45L966.59,832.18C966.99,830.97 968.18,831.51 969.22,830.96C969.22,829.21 966.95,828.9 966.57,827.06C968.72,826.89 970.66,826.21 972.8,827.73C977.17,830.83 981.69,830.45 986.05,827.59C983.4,823.65 977.3,824.42 974.74,819.33L971.67,819.13C970.98,815.41 968.23,814.31 964.99,814.42L964.99,812.42C966.59,810.78 967.61,812.03 968.66,813.14C969.606,811.941 971.196,811.436 972.66,811.87C973.2,812.702 974.019,813.316 974.97,813.6C974.026,813.292 973.216,812.666 972.68,811.83Z" style="fill:rgb(160,212,238);fill-rule:nonzero;"/>
                <path d="M1709.09,830.88C1708.99,829.05 1707.41,828.45 1706.2,826.82C1709.2,825.82 1711.85,824.31 1710.67,820.68L1713.67,819.62C1713.67,818.76 1714.1,817.97 1712.91,817.28C1709.09,816.46 1707.43,821.09 1704.07,821.85C1703.68,821.26 1703.41,820.85 1702.82,820.01C1706.31,817.2 1707.63,812.36 1712.03,810.17C1711.51,809.25 1710.67,809.67 1709.97,809.56C1709.37,809.116 1709.06,808.369 1709.18,807.63C1709.16,806.924 1709.11,806.22 1709.02,805.52C1703.2,804.29 1697.57,802.63 1692.02,803.75C1690.85,802.53 1690.82,801.67 1691.5,800.84C1693.58,799.41 1694.33,802.62 1696.5,801.84C1698.06,799.84 1700.77,798.39 1702.07,795.11C1696.93,793.01 1694.45,797.16 1691.28,799.01C1688.43,798.82 1690.28,795.59 1688.15,795.06C1690.04,793.28 1690.8,795.44 1692.02,795.74C1693.54,794.35 1691.11,791.43 1694.39,790.85C1692.98,790.019 1692.22,788.405 1692.47,786.79C1688.62,788.06 1685.89,784.56 1682.01,785.45C1681.89,781.78 1684.6,780.96 1685.83,779.45C1687.41,779.13 1687.95,780.08 1688.91,780.97C1689.54,777.43 1693.05,775.89 1694.56,773.18C1692.56,770.8 1690.3,772.5 1688.56,771.56C1687.41,770 1688.56,768.18 1687.91,766.67C1689.6,764.88 1690.66,766.01 1691.77,767.22C1693.69,765.84 1691.14,762.76 1694.65,762.01C1693.39,761.56 1692.81,761.13 1692.53,761.28C1689,763.19 1686.16,766.19 1682.38,767.77C1681.98,767.94 1681.99,769.07 1681.74,770.03L1673.41,770.03L1671.54,768.03C1676.07,765.72 1681.69,765.41 1686.2,760.84C1680.45,758.27 1676.74,761.59 1672.57,762.84L1669.87,760.46L1674.46,755.86L1673.07,754.48C1674.28,752.88 1675.41,751.12 1679.01,752.92L1680.55,755.06C1682.89,755 1684.63,755.54 1686.32,754.64C1686.13,754.28 1686.03,753.75 1685.75,753.64C1682.35,752.14 1678.56,751.35 1675.92,748.2C1678.78,746.74 1681.92,748.3 1684.17,747.43L1678.52,741.71C1676.84,742.32 1674.15,745.01 1671.8,741.02C1670.25,738.2 1672.36,735.67 1673.27,732.56L1664.6,735.56C1663.28,734.03 1663.99,733.15 1664.95,732.18C1668.18,728.93 1671.95,726.05 1673.11,721.12C1669.24,722.06 1669.24,722.06 1664.11,719.91C1665.25,717.42 1667.28,715.24 1666.9,712.2C1664.48,711.286 1662.41,709.613 1661.02,707.43L1662.14,706.3L1658.02,702.55C1657.02,705.05 1661.25,707.25 1658.67,709.78C1656.6,711.03 1656.07,707.25 1653.55,708.63C1654.47,710.55 1655.55,712.63 1654.68,714.7C1655.61,716.7 1658.29,717.22 1657.68,720.3C1654.24,720.22 1651.35,717.89 1648,717.41C1647,718.87 1646.54,720.15 1649,720.41C1650.44,720.57 1650.37,721.53 1650.32,722.58C1648.32,724.92 1646.58,722.81 1644.76,722.23C1644.13,722.693 1643.98,723.588 1644.43,724.23C1645.64,725.34 1647.6,725.38 1648.82,727.41L1648.82,731.73C1651.18,734.34 1651.82,730.37 1654.51,731.36L1655.79,733.86L1654.17,735.48C1650.38,735.12 1647.17,731.85 1642.76,732.69C1645.26,737.69 1652.15,738.25 1653.04,744.69C1647.13,744.26 1642.27,741.57 1637.75,738.22C1637.25,738.99 1636.82,739.36 1636.75,739.79C1636.41,742.33 1640.35,742.6 1639.75,745.33C1644.83,746.48 1644.75,753.59 1650.24,754.27C1649.51,755.92 1648.06,754.8 1647.24,755.27C1644.47,754.34 1643.55,751.45 1640.71,750.44C1638.4,749.61 1636.84,746.66 1634.94,744.66C1632.63,746.92 1633.64,748.53 1635.4,750.09C1637.5,751.96 1637.54,753.87 1635.4,755.84C1637.6,759.008 1641.06,761.087 1644.89,761.55L1640.7,765.74L1642.81,768.07C1641.41,769.47 1639.98,769.07 1636.98,766.34C1637.35,766 1637.71,765.64 1638.04,765.26C1638.12,765.16 1638.04,764.92 1638.04,764.47L1633.04,764.47C1631.3,761.3 1627.3,761.28 1625.68,758.06C1624.51,759.38 1624.41,761.348 1625.44,762.78C1627.5,766.42 1626.95,771.31 1630.81,774.14C1630.89,778.04 1634.13,777.6 1636.55,778.29C1636.76,780.47 1634.31,778.48 1633.98,780.29L1633.98,781.9C1635.31,782.79 1635.34,780.9 1636.3,781.13C1638.95,785.65 1633.89,787.87 1633.48,791.41C1628.35,789.04 1622.4,789.54 1618.23,784.54C1616.12,789.02 1618.46,791.54 1620.53,793.95C1621.06,794.58 1622.87,794.59 1622.95,795.08C1623.64,799.08 1628.33,800.08 1629.39,803.98C1626.64,807.28 1624.25,802.63 1621.68,803.56C1618.32,800.47 1613.41,799.71 1610.44,796.04C1608.93,797.37 1607.2,798.6 1608.85,801.92L1616.98,809.55L1619.54,809.67C1621.54,811.21 1622.1,813.67 1623.27,815.67C1623.27,817.25 1621.59,817.47 1621.27,818.48L1609.37,812.54C1606.89,815.19 1606.89,815.19 1607.3,818.66L1608.91,817.2C1609.56,817.604 1609.85,818.407 1609.6,819.13C1609.26,819.769 1608.83,820.355 1608.32,820.87C1609.32,823.62 1612.12,823.14 1614.02,823.52C1614.41,825.18 1613.93,825.99 1613.02,826.64C1613.02,828.02 1615.62,829.2 1613.43,830.77C1607.34,828.77 1603.54,823.46 1598.25,818.77C1597.05,822.95 1600.11,825.1 1599.12,827.77C1599.83,828.48 1598.88,827.56 1599.6,828.26L1599.12,827.77C1596.64,827.77 1598.24,831 1596.22,831.39C1597.76,834.11 1601.55,833.83 1602.95,835.78C1604.35,837.73 1606.8,838.78 1607.33,841.31L1610.55,841.31C1611.33,843.07 1612.12,844.89 1613.16,847.25C1606.68,845.9 1602.8,841.75 1598.4,838.58C1597.67,842.58 1597.99,843.44 1602.31,848.37L1602.31,853.01C1604.83,854.11 1607.45,852.63 1609.51,854.01C1611.08,857.35 1606.08,855.53 1606.67,858.01C1608.37,859.49 1610.43,859.52 1612.5,859.54C1610.43,859.54 1608.37,859.54 1606.67,858.01C1603.32,857.91 1599.84,858.68 1596.4,855.57C1598.82,862.06 1601.7,864.5 1607.4,865.57C1608.1,865.7 1608.8,865.42 1609.49,866.05C1610.49,867.05 1611.15,868.61 1612.93,868.6C1614.38,868.522 1615.84,868.684 1617.24,869.08C1613.02,871.36 1607.95,868.34 1603.63,871.94C1601.78,867.94 1597.3,872.19 1594.9,868.71C1595.38,874.78 1602.57,873.34 1604.15,877.52C1605.84,882.01 1611.68,881.88 1613.28,886.52L1621,886.52C1621.44,887.64 1622,889.1 1622.42,890.1C1627.42,888.79 1630.13,891.74 1633.58,892.26L1630.58,893.36C1632.09,895.23 1635.22,893.02 1636.06,895.68C1636.85,893.79 1639.42,894.76 1640.56,892.31C1641.07,893.42 1641.46,894.31 1642.28,896.06C1642.2,897.06 1639.88,896.93 1638.4,897.84C1638.93,899.65 1640.4,898.4 1641.51,898.84C1643.74,897.4 1645.61,895.63 1646.33,892.84C1647.81,893.76 1649.07,894.77 1649.02,896.96L1655.19,896.96C1655.95,897.425 1656.4,898.268 1656.37,899.16C1657.22,906.34 1653.84,913.16 1654.82,920.39C1654.9,921.519 1654.9,922.651 1654.82,923.78C1656.3,924.78 1657.53,924.33 1659.21,924.28C1659.82,915.89 1658.21,907.2 1661.58,898.95C1666.77,897.63 1671.82,899.95 1677.05,900.57L1679.6,903.11C1682.6,901.38 1686.87,901.44 1687.92,897.11C1687.23,896.581 1686.45,896.166 1685.63,895.88C1686.45,896.162 1687.23,896.578 1687.92,897.11C1690.49,897.79 1691.92,895.49 1694.31,895.11L1688.08,891.99L1688.08,889.89L1711.9,889.89C1711.44,887.12 1709.64,888.7 1708.45,888.09C1708.45,886.09 1705.45,885.16 1706.24,882.96C1707.01,881.85 1707.8,882.21 1708.51,882.19C1709.79,882.78 1708.51,884.76 1710.7,885.28C1713.41,884.14 1715.01,881.11 1717.7,879.13C1719.2,878.88 1720.98,879.58 1723.3,878.27L1719.79,876.2L1723.01,869.62C1722.28,868.46 1721.14,868.24 1720.84,868.62C1718.1,871.92 1713.68,872.23 1710.35,875.4L1707.05,870.73C1706.23,870.84 1706.41,870.56 1706.93,870.12C1708.56,868.7 1709.71,866.7 1712.47,866.93C1713.37,867.01 1714.4,865.62 1715.29,864.93L1715.29,860.1C1713.72,858.61 1710.59,860.37 1709.68,857.48L1715.18,851.22C1714.79,850 1713.59,850.54 1712.55,850C1712.55,848.25 1714.82,847.93 1715.2,846.1C1713.05,845.93 1711.11,845.25 1708.97,846.77C1704.6,849.87 1700.08,849.49 1695.73,846.63C1698.38,842.63 1704.47,843.45 1707.04,838.37L1710.11,838.17C1710.8,834.45 1713.54,833.35 1716.78,833.45L1716.78,831.45C1715.18,829.82 1714.16,831.07 1713.11,832.18C1712.17,830.978 1710.57,830.473 1709.11,830.91C1708.57,831.744 1707.75,832.358 1706.8,832.64C1707.74,832.334 1708.55,831.712 1709.09,830.88Z" style="fill:rgb(160,212,238);fill-rule:nonzero;"/>
                <path d="M1415.92,830.88C1416.01,829.05 1417.6,828.45 1418.81,826.82C1415.81,825.82 1413.16,824.31 1414.34,820.68L1411.34,819.62C1411.34,818.76 1410.91,817.97 1412.1,817.28C1415.92,816.46 1417.57,821.09 1420.94,821.85C1421.33,821.26 1421.6,820.85 1422.18,820.01C1418.7,817.2 1417.38,812.36 1412.98,810.17C1413.5,809.25 1414.34,809.67 1415.04,809.56C1415.64,809.116 1415.95,808.369 1415.83,807.63C1415.83,806.92 1415.93,806.2 1415.98,805.52C1421.8,804.29 1427.43,802.63 1432.98,803.75C1434.16,802.53 1434.19,801.67 1433.51,800.84C1431.43,799.41 1430.67,802.62 1428.51,801.84C1426.94,799.84 1424.24,798.39 1422.94,795.11C1428.08,793.01 1430.56,797.16 1433.72,799.01C1436.58,798.82 1434.78,795.59 1436.86,795.06C1434.97,793.28 1434.21,795.44 1432.99,795.74C1431.47,794.35 1433.9,791.43 1430.62,790.85C1432.03,790.019 1432.79,788.405 1432.54,786.79C1436.39,788.06 1439.12,784.56 1443,785.45C1443.11,781.78 1440.41,780.96 1439.18,779.45C1437.6,779.13 1437.06,780.08 1436.1,780.97C1435.47,777.43 1431.95,775.89 1430.45,773.18C1432.45,770.8 1434.71,772.5 1436.45,771.56C1437.6,770 1436.45,768.18 1437.09,766.67C1435.4,764.88 1434.35,766.01 1433.24,767.22C1431.32,765.84 1433.87,762.76 1430.36,762.01C1431.62,761.56 1432.2,761.13 1432.47,761.28C1436.01,763.19 1438.85,766.19 1442.63,767.77C1443.02,767.94 1443.01,769.07 1443.26,770.03L1451.59,770.03L1453.47,768.03C1448.94,765.72 1443.32,765.41 1438.81,760.84C1444.56,758.27 1448.27,761.59 1452.44,762.84L1455.14,760.46L1450.55,755.86L1451.93,754.48C1450.73,752.88 1449.6,751.12 1446,752.92C1445.94,752.99 1445.07,754.21 1444.46,755.06C1442.12,755 1440.38,755.54 1438.69,754.64C1438.88,754.28 1438.98,753.75 1439.26,753.64C1442.66,752.14 1446.45,751.35 1449.09,748.2C1446.23,746.74 1443.09,748.3 1440.84,747.43L1446.49,741.71C1448.16,742.32 1450.86,745.01 1453.21,741.02C1454.76,738.2 1452.64,735.67 1451.73,732.56L1460.41,735.56C1461.73,734.03 1461.02,733.15 1460.06,732.18C1456.83,728.93 1453.06,726.05 1451.89,721.12C1455.77,722.06 1455.77,722.06 1460.89,719.91C1459.75,717.42 1457.72,715.24 1458.1,712.2C1460.52,711.286 1462.59,709.613 1463.98,707.43L1462.85,706.3L1466.97,702.55C1467.97,705.05 1463.74,707.25 1466.33,709.78C1468.4,711.03 1468.93,707.25 1471.45,708.63C1470.53,710.55 1469.45,712.63 1470.31,714.7C1469.39,716.7 1466.71,717.22 1467.31,720.3C1470.75,720.22 1473.64,717.89 1476.98,717.41C1477.98,718.87 1478.45,720.15 1475.98,720.41C1474.54,720.57 1474.61,721.53 1474.66,722.58C1476.66,724.92 1478.39,722.81 1480.22,722.23C1480.85,722.696 1480.99,723.587 1480.55,724.23C1479.34,725.34 1477.38,725.38 1476.15,727.41L1476.15,731.73C1473.79,734.34 1473.15,730.37 1470.47,731.36C1470.34,731.61 1469.76,732.73 1469.19,733.86C1469.31,733.98 1470.02,734.7 1470.81,735.48C1474.6,735.12 1477.81,731.85 1482.22,732.69C1479.72,737.69 1472.83,738.25 1471.94,744.69C1477.85,744.26 1482.71,741.57 1487.23,738.22C1487.73,738.99 1488.15,739.36 1488.23,739.79C1488.57,742.33 1484.62,742.6 1485.23,745.33C1480.15,746.48 1480.23,753.59 1474.74,754.27C1475.47,755.92 1476.92,754.8 1477.74,755.27C1480.52,754.34 1481.43,751.45 1484.27,750.44C1486.59,749.61 1488.15,746.66 1490.04,744.66C1492.36,746.92 1491.35,748.53 1489.59,750.09C1487.49,751.96 1487.45,753.87 1489.59,755.84C1487.39,759.008 1483.93,761.087 1480.1,761.55L1484.29,765.74L1482.18,768.07C1483.57,769.47 1485.01,769.07 1488,766.34C1487.65,765.99 1487.27,765.65 1487,765.26C1486.92,765.16 1487,764.92 1487,764.47L1492,764.47C1493.74,761.3 1497.75,761.28 1499.37,758.06C1500.54,759.379 1500.64,761.353 1499.6,762.78C1497.6,766.42 1498.1,771.31 1494.24,774.14C1494.16,778.04 1490.92,777.6 1488.49,778.29C1488.29,780.47 1490.74,778.48 1491.06,780.29L1491.06,781.9C1489.73,782.79 1489.71,780.9 1488.75,781.13C1486.1,785.65 1491.16,787.87 1491.57,791.41C1496.69,789.04 1502.64,789.54 1506.82,784.54C1508.93,789.02 1506.59,791.54 1504.52,793.95C1503.99,794.58 1502.18,794.59 1502.1,795.08C1501.41,799.08 1496.72,800.08 1495.65,803.98C1498.4,807.28 1500.8,802.63 1503.37,803.56C1506.72,800.47 1511.63,799.71 1514.6,796.04C1516.11,797.37 1517.85,798.6 1516.2,801.92L1508.06,809.55L1505.51,809.67C1503.51,811.21 1502.95,813.67 1501.78,815.67C1501.78,817.25 1503.46,817.47 1503.78,818.48L1515.69,812.54C1518.17,815.19 1518.17,815.19 1517.76,818.66L1516.15,817.2C1515.5,817.604 1515.21,818.407 1515.46,819.13C1515.8,819.769 1516.23,820.355 1516.74,820.87C1515.74,823.62 1512.94,823.14 1511.04,823.52C1510.65,825.18 1511.13,825.99 1512.04,826.64C1512.04,828.02 1509.44,829.2 1511.62,830.77C1517.72,828.77 1521.52,823.46 1526.81,818.77C1528.01,822.95 1524.95,825.1 1525.94,827.77C1525.22,828.48 1526.18,827.56 1525.46,828.26L1525.94,827.77C1528.42,827.77 1526.81,831 1528.84,831.39C1527.29,834.11 1523.51,833.83 1522.11,835.78C1520.71,837.73 1518.26,838.78 1517.73,841.31L1514.51,841.31C1513.73,843.07 1512.93,844.89 1511.9,847.25C1518.37,845.9 1522.26,841.75 1526.66,838.58C1527.39,842.58 1527.07,843.44 1522.75,848.37L1522.75,853.01C1520.23,854.11 1517.61,852.63 1515.55,854.01C1513.98,857.35 1518.97,855.53 1518.39,858.01C1516.69,859.49 1514.63,859.52 1512.55,859.54C1514.63,859.54 1516.69,859.54 1518.39,858.01C1521.74,857.91 1525.22,858.68 1528.65,855.57C1526.24,862.06 1523.36,864.5 1517.65,865.57C1516.96,865.7 1516.26,865.42 1515.57,866.05C1514.57,867.05 1513.9,868.61 1512.12,868.6C1510.67,868.522 1509.22,868.684 1507.82,869.08C1512.03,871.36 1517.1,868.34 1521.43,871.94C1523.28,867.94 1527.76,872.19 1530.15,868.71C1529.67,874.78 1522.48,873.34 1520.91,877.52C1519.22,882.01 1513.38,881.88 1511.78,886.52L1503.89,886.52C1503.44,887.64 1502.89,889.1 1502.47,890.1C1497.47,888.79 1494.75,891.74 1491.31,892.26L1494.31,893.36C1492.81,895.23 1489.68,893.02 1488.83,895.68C1488.05,893.79 1485.47,894.76 1484.34,892.31L1482.62,896.06C1482.7,897.06 1485.02,896.93 1486.5,897.84C1485.97,899.65 1484.5,898.4 1483.39,898.84C1481.16,897.4 1479.29,895.63 1478.57,892.84C1477.09,893.76 1475.83,894.77 1475.88,896.96L1469.71,896.96C1468.95,897.422 1468.49,898.267 1468.53,899.16C1467.68,906.34 1471.05,913.16 1470.08,920.39C1470,921.519 1470,922.651 1470.08,923.78C1468.6,924.78 1467.37,924.33 1465.69,924.28C1465.08,915.89 1466.69,907.2 1463.31,898.95C1458.13,897.63 1453.07,899.95 1447.85,900.57L1445.3,903.11C1442.3,901.38 1438.02,901.44 1436.98,897.11C1437.67,896.581 1438.45,896.166 1439.27,895.88C1438.44,896.162 1437.67,896.578 1436.98,897.11C1434.41,897.79 1432.98,895.49 1430.59,895.11L1436.82,891.99L1436.82,889.89L1413,889.89C1413.46,887.12 1415.25,888.7 1416.45,888.09C1416.45,886.09 1419.45,885.16 1418.66,882.96C1417.88,881.85 1417.09,882.21 1416.39,882.19C1415.1,882.78 1416.39,884.76 1414.2,885.28C1411.49,884.14 1409.89,881.11 1407.2,879.13C1405.7,878.88 1403.92,879.58 1401.6,878.27L1405.11,876.2L1401.89,869.62C1402.62,868.46 1403.76,868.24 1404.06,868.62C1406.8,871.92 1411.21,872.23 1414.55,875.4C1415.83,873.58 1416.84,872.16 1417.84,870.73C1418.67,870.84 1418.49,870.56 1417.97,870.12C1416.34,868.7 1415.19,866.7 1412.43,866.93C1411.53,867.01 1410.5,865.62 1409.6,864.93L1409.6,860.1C1411.17,858.61 1414.31,860.37 1415.22,857.48C1413.41,855.42 1411.56,853.31 1409.71,851.22C1410.11,850 1411.3,850.54 1412.35,850C1412.35,848.25 1410.08,847.93 1409.7,846.1C1411.85,845.93 1413.79,845.25 1415.93,846.77C1420.3,849.87 1424.82,849.49 1429.17,846.63C1426.52,842.63 1420.42,843.45 1417.86,838.37L1414.79,838.17C1414.1,834.45 1411.35,833.35 1408.11,833.45L1408.11,831.45C1409.72,829.82 1410.73,831.07 1411.79,832.18C1412.73,830.978 1414.33,830.473 1415.79,830.91C1416.33,831.742 1417.14,832.355 1418.09,832.64C1417.19,832.312 1416.43,831.692 1415.92,830.88Z" style="fill:rgb(160,212,238);fill-rule:nonzero;"/>
                <path d="M828.87,861.92L828.87,856.7C830.43,854.11 831.23,851.21 833.8,849.7C833.6,849 832.68,848.85 832.8,848.07C832.8,847.07 833.8,846.82 834.21,846.15C834.92,846.37 835.21,847.57 837.11,846.39C837.46,846.11 835.43,845.97 836.11,844.71C840.77,842.26 839.21,836.81 840.45,832.27C839.74,831.64 838.13,832.72 837.24,831.17C836.64,830.17 837.24,829.33 836.24,827.84C838.11,828.84 839.16,829.55 840.72,828.89C839.72,827.97 840.05,826.43 838.72,825.71C840,824.37 840.53,825.65 841.25,826.15L842.54,824.87C843.48,823.15 841.6,822.16 841.68,820.75L843.68,818.75C842.82,817.65 841.31,816.9 841.49,815.14C840.29,815.68 841.2,817.07 839.99,817.21C838.2,816.01 838.2,816.01 837.72,814.21C838.2,812.41 840.83,811.88 840.72,809.56C838.87,809.74 837.8,811.45 835.92,811.26C835.99,809.86 837.49,809.64 837.67,808.79C837.815,808.072 837.479,807.338 836.84,806.98C837.05,806.32 836.39,806.92 836.95,806.58C837.74,806.11 839.03,806.58 839.09,805.44C840.57,805 841.09,807.07 842.46,806.09C842.85,805.32 841.7,805.27 841.7,804.68L841.7,801.68L843.39,800.94C843.78,798.8 843.95,797.67 842.74,796.94C843.74,795.52 845.62,797.2 846.67,795.94C845.97,794.76 844.35,796.14 843.49,794.48C845.28,793.57 846.31,791.57 848.55,791.22C848.41,789.92 846.99,790.96 846.79,789.92C847.2,789.03 848.56,788.68 848.7,787.22C847.42,785.89 845.64,785.54 843.7,785.22C845.26,783.99 844.27,782.22 844.93,780.65L847.22,780.46C848.36,779.35 847.28,778.76 846.66,778.07C847.01,777.36 847.82,777.73 848.6,777.17C848.08,775.69 849.6,774.53 849.71,772.66C849.09,771.49 848.38,770.13 847.63,768.72C847.93,767.6 849.41,766.52 848.56,765.28C847.844,764.411 847.512,763.288 847.64,762.17C847,761.07 845.16,762.26 845.15,760.67C843.28,760.6 843.09,762.67 841.39,762.67C839.39,762.41 842.07,759.45 839.68,759.49C840.01,758.49 840.8,758.81 841.38,758.49C841.98,757.66 840.69,757.66 840.7,757.13C840.39,756.13 841.25,755.68 841.7,755.06C841.08,753.61 840.81,752.06 839.78,751.27C839.38,749.91 840.68,749.68 840.67,748.72C840.79,748.01 840.04,747.72 839.61,747.14C841.45,746.14 843.48,747.14 845.78,746.39L842.69,743.3C842.48,741.68 843.41,741.77 844.42,741.68L844.42,735.21L840.68,733.33C840.49,732.21 840.93,731.62 841.99,731.85C842.81,732.03 843.24,733.64 844.47,732.48C843.87,731.31 843.26,730.13 842.62,728.91C842.71,727.62 844.07,727.26 844.82,725.91C842.82,724.91 844.7,720.91 839.77,720.91L842.96,723.06C842.38,723.47 841.96,723.84 841.9,723.78C840,722.53 838.12,722.27 836.16,724.39C836.25,722.39 834.09,721.81 834.81,720.17C835.02,720.05 835.21,719.89 835.24,719.92C835.536,720.173 835.816,720.444 836.08,720.73C838.02,719.57 838.89,717.64 839.79,715.31L838.01,713.91L837.35,715.75L834.08,715.75C834.53,716.2 833.28,715.83 833.68,715.35C834.3,714.6 836.21,715.16 835.74,713.35C835.74,713.27 835.95,713.12 836.07,713L838.47,712.73C838.54,711.59 837.71,712.03 837.18,711.87C836.29,711.36 836.81,710.44 836.62,709.41L833.42,706.76L836,704.1C835.12,702.31 833.3,701.04 832.82,699.01C832.82,697.65 834.34,697.42 834.71,696.29C834.45,695.89 833.95,695.97 833.47,695.9C831.91,695.67 830.77,698.05 828.65,696.29L831.11,695.34C830.26,693.34 828.24,692.86 829.11,690.85L830.32,691.85C831.25,691.33 830.68,690.42 830.84,689.7C829.84,687.7 827.84,686.96 825.95,685.89C826.3,684.61 827.5,683.65 826.1,681.55C826.03,681.47 824.84,682.37 824.1,681.8C824.1,679.8 826.46,680.48 826.97,678.99C826.36,677.47 824.78,676.69 823.86,675.33L823.86,672.5C823.15,671.67 822.25,672.24 821.39,672.02L820.47,670.08L819.06,670.08C819.06,672.56 818.25,675.08 819.78,677.59C818.78,678.71 817.07,677.43 815.78,678.53C818.03,678.88 818.78,681.24 820.78,681.83L815.61,681.83C814.36,683.01 815.1,683.71 815.93,684.47C814.93,685.6 812.81,684.22 812.33,686.1L812,686.5C814,687.64 811.81,690.5 813.85,691.5C815.24,692.34 816.62,691.74 817.92,692.06C817.26,693.35 816.62,694.16 815.28,693.96C814.118,693.685 812.903,694.191 812.28,695.21C813.28,696.47 812.62,698.33 813.86,699.55C813.33,700.24 812.61,699.79 811.99,699.92C811.34,700.85 812.18,701.4 812.54,702.08C812.18,701.4 811.34,700.85 811.99,699.92C811.99,698.92 810.99,698.71 810.3,697.42C810.273,698.995 809.828,700.534 809.01,701.88C809.01,703.5 810.54,702.43 810.95,703.45C810.95,703.73 810.95,704.18 810.88,704.53C809.68,705.62 809.18,704.22 808.28,704.01C807.16,706.29 810.02,708.17 808.68,710.65C807.68,711.54 806.45,710.51 804.68,709.85C806.28,712.85 806.78,715.56 804.92,717.99C805.599,719.159 806.702,720.022 808,720.4L806.18,721.04C805.778,722.561 806.059,724.184 806.95,725.48C808.41,727.82 808.57,730.71 809.85,733.21C810.44,734.35 809.95,736.05 809.68,737.62C808.73,735.06 808.03,732.38 804.54,732.7C802.39,735.01 805.89,737.12 804.83,739.37C804.04,739.84 804.01,738.6 803.29,738.86C802.34,740.53 804.16,740.95 804.79,741.92C803.759,743.211 803.759,745.059 804.79,746.35C803.7,747.35 803.19,745.93 802.38,745.76L800.7,747.52C803.64,746.86 804.7,749.52 807.64,749.97C805.18,750.97 803.25,750.3 801.46,750.66C800.65,751.32 801.29,752.23 801.01,752.85C801.35,753.98 802.63,753.2 803.01,754.06C802.86,754.83 803.36,755.69 802.66,756.43C800.94,757.03 800.66,755.2 799.57,754.62C798.993,754.947 798.775,755.681 799.08,756.27C799.87,758.21 800.49,760.13 799.83,762.27L798.07,762.91C800.07,765.03 800.95,767.85 803.37,769.22C802.03,771.56 801.27,769.94 800.43,769.64C799.998,769.917 799.845,770.484 800.08,770.94C801.48,772.52 801.86,774.51 802.37,776.44L804.37,776.44C805.37,777 804.95,777.91 804.99,778.66C805.03,779.41 804.92,780.34 805.93,780.73C804.72,783.06 802.87,782.44 800.79,782.28L802,780.93L800.6,779.53C799.36,780.1 800.55,781.34 799.9,782.07L798.14,783.83C799.55,785.23 798.58,787.53 801.28,789.24C803.37,789.64 803.93,792.48 804.76,795.11L804.03,795.84C806.34,798.54 809.96,799.77 811.86,802.94C811.01,803.94 809.73,802.84 808.8,803.46L806.31,801.31C804.83,801.31 804.74,802.6 803.31,802.97L806.96,806.86C807.13,808.3 805.79,808.72 805.15,809.6C805.94,811.08 806.39,812.79 808.01,813.69C806.88,814.91 805.24,815.81 806.18,817.95L807.81,818.55C806.886,819.794 806.645,821.422 807.17,822.88C807.6,823.53 808.56,822.8 808.84,823.7C807.66,825.8 806,825.43 804.24,824.4C803.81,825.07 803.84,826.03 804.44,826.06C806.24,826.16 806.7,827.82 807.89,828.58L806.95,829.77C806.65,830.22 808.27,830.32 807.95,831.22C807.65,831.832 807.794,832.574 808.3,833.03L809.64,833.34C810.22,834.44 809.37,835.96 810.82,836.71C810.25,837.21 809.74,837.64 809.91,838.41C812.52,839.65 812.91,842.32 813.85,844.62C814.53,846.34 814.78,848.29 816.85,849.04C818.08,849.25 818.44,849.9 817.85,851.04C817.56,853.22 820.22,854.59 819.72,856.51C819.161,858.277 818.865,860.117 818.84,861.97L828.87,861.92Z" style="fill:rgb(160,212,238);fill-rule:nonzero;"/>
                <path d="M1393.28,909.39L1393.28,904.17C1394.84,901.57 1395.64,898.68 1398.21,897.17C1398.01,896.47 1397.09,896.32 1397.21,895.54C1397.21,894.54 1398.21,894.29 1398.62,893.61C1399.33,893.84 1399.62,895.04 1401.52,893.85C1401.87,893.57 1399.84,893.44 1400.52,892.18C1405.18,889.73 1403.63,884.28 1404.86,879.74C1404.15,879.11 1402.54,880.19 1401.65,878.64C1401.05,877.64 1401.65,876.8 1400.65,875.31C1402.52,876.31 1403.57,877.02 1405.13,876.36C1404.13,875.44 1404.47,873.9 1403.13,873.18C1404.41,871.83 1404.94,873.12 1405.66,873.62L1406.95,872.34C1407.89,870.62 1406.01,869.63 1406.09,868.22L1408.09,866.22C1407.23,865.12 1405.72,864.37 1405.9,862.61C1404.7,863.15 1405.61,864.54 1404.4,864.68C1402.61,863.48 1402.61,863.48 1402.13,861.68C1402.61,859.88 1405.24,859.35 1405.13,857.03C1403.28,857.21 1402.21,858.91 1400.33,858.73C1400.4,857.33 1401.9,857.11 1402.08,856.26C1402.23,855.542 1401.89,854.808 1401.25,854.45C1401.46,853.79 1400.8,854.39 1401.36,854.05C1402.15,853.58 1403.44,854.05 1403.5,852.91C1404.98,852.47 1405.5,854.54 1406.87,853.56C1407.26,852.79 1406.11,852.74 1406.11,852.15L1406.11,849.15L1407.8,848.41C1408.19,846.27 1408.36,845.14 1407.15,844.41C1408.15,843 1410.03,844.68 1411.08,843.41C1410.38,842.24 1408.76,843.62 1407.9,841.96C1409.69,841.05 1410.73,839.04 1412.96,838.7C1412.82,837.4 1411.41,838.44 1411.2,837.4C1411.62,836.51 1412.97,836.16 1413.11,834.7C1411.83,833.37 1410.05,833.02 1408.11,832.7C1409.67,831.47 1408.68,829.7 1409.34,828.13L1411.63,827.94C1412.77,826.83 1411.69,826.24 1411.07,825.55C1411.42,824.83 1412.23,825.21 1413.01,824.65C1412.49,823.17 1414.01,822.01 1414.12,820.14C1413.5,818.97 1412.79,817.61 1412.04,816.2C1412.34,815.08 1413.82,814 1412.97,812.76C1412.25,811.891 1411.92,810.768 1412.05,809.65C1411.41,808.55 1409.57,809.73 1409.56,808.15C1407.7,808.08 1407.5,810.15 1405.8,810.15C1403.8,809.9 1406.48,806.94 1404.09,806.98C1404.42,805.98 1405.21,806.3 1405.79,805.98C1406.39,805.15 1405.11,805.15 1405.11,804.62C1404.8,803.62 1405.66,803.17 1406.11,802.55C1405.49,801.1 1405.22,799.55 1404.19,798.76C1403.8,797.4 1405.09,797.17 1405.08,796.21C1405.2,795.5 1404.46,795.21 1404.02,794.63C1405.86,793.63 1407.89,794.63 1410.19,793.88L1407.1,790.79C1406.89,789.16 1407.82,789.26 1408.83,789.17L1408.83,782.7L1405.09,780.82C1404.9,779.7 1405.34,779.11 1406.4,779.34C1407.22,779.51 1407.65,781.12 1408.88,779.97L1407.03,776.39C1407.12,775.11 1408.49,774.75 1409.23,773.39C1407.23,772.39 1409.11,768.39 1404.18,768.39L1407.37,770.54C1406.79,770.95 1406.37,771.32 1406.31,771.26C1404.41,770.01 1402.54,769.75 1400.57,771.87C1400.66,769.87 1398.5,769.29 1399.22,767.65C1399.43,767.52 1399.62,767.37 1399.65,767.39C1399.91,767.6 1400.13,767.85 1400.49,768.21C1402.43,767.05 1403.3,765.12 1404.2,762.78L1402.42,761.39C1402.22,761.96 1402.01,762.54 1401.77,763.23L1398.49,763.23C1398.94,763.68 1397.69,763.31 1398.09,762.83C1398.71,762.08 1400.63,762.64 1400.15,760.83C1400.15,760.75 1400.36,760.6 1400.48,760.48L1402.88,760.21C1402.95,759.07 1402.12,759.51 1401.59,759.34C1400.7,758.84 1401.22,757.92 1401.03,756.89L1397.83,754.24L1400.29,751.65C1399.42,749.86 1397.59,748.65 1397.11,746.57C1397.11,745.21 1398.63,744.98 1399,743.85C1398.74,743.45 1398.24,743.53 1397.76,743.46C1396.2,743.23 1395.06,745.61 1392.94,743.85L1395.4,742.85C1394.55,740.85 1392.53,740.37 1393.4,738.36L1394.6,739.36C1395.53,738.84 1394.96,737.94 1395.12,737.22C1394.12,735.22 1392.12,734.48 1390.23,733.41C1390.59,732.12 1391.78,731.17 1390.38,729.07C1390.32,728.99 1389.12,729.89 1388.38,729.32C1388.38,727.32 1390.74,728 1391.25,726.51C1390.64,724.99 1389.07,724.21 1388.14,722.85L1388.14,720C1387.43,719.18 1386.53,719.75 1385.67,719.53L1384.75,717.59L1383.34,717.59C1383.34,720.07 1382.53,722.59 1384.06,725.1C1383.06,726.21 1381.35,724.94 1380.06,726.04C1382.31,726.39 1383.06,728.75 1385.06,729.34L1380,729.34C1378.75,730.52 1379.48,731.22 1380.31,731.98C1379.31,733.11 1377.19,731.73 1376.71,733.61L1376.38,734.01C1378.38,735.15 1376.19,738.01 1378.23,739.01C1379.62,739.85 1381,739.24 1382.3,739.57C1381.64,740.86 1381,741.67 1379.66,741.47C1378.5,741.192 1377.28,741.699 1376.66,742.72C1377.61,743.98 1377,745.84 1378.25,747.05C1377.71,747.75 1376.99,747.3 1376.37,747.43C1375.72,748.36 1376.56,748.91 1376.92,749.59C1376.56,748.91 1375.72,748.36 1376.37,747.43C1376.42,746.43 1375.37,746.22 1374.68,744.93C1374.65,746.505 1374.21,748.044 1373.39,749.39C1373.39,751.01 1374.92,749.94 1375.33,750.96C1375.33,751.24 1375.33,751.69 1375.26,752.04C1374.06,753.13 1373.56,751.73 1372.66,751.52C1371.54,753.8 1374.4,755.68 1373.07,758.16C1372.07,759.05 1370.84,758.02 1369.07,757.36C1370.68,760.36 1371.17,763.07 1369.31,765.5C1369.99,766.69 1371.12,767.567 1372.44,767.94L1370.62,768.57C1370.22,770.094 1370.5,771.72 1371.39,773.02C1372.85,775.36 1373.01,778.25 1374.29,780.75C1374.88,781.89 1374.39,783.59 1374.12,785.16C1373.17,782.6 1372.47,779.92 1368.98,780.24C1366.83,782.55 1370.33,784.66 1369.27,786.91C1368.48,787.38 1368.45,786.14 1367.73,786.4C1366.79,788.07 1368.6,788.49 1369.23,789.46C1368.2,790.751 1368.2,792.599 1369.23,793.89C1368.15,794.89 1367.64,793.47 1366.82,793.3L1365.14,795.06C1368.08,794.4 1369.14,797.06 1372.08,797.51C1369.62,798.51 1367.69,797.84 1365.9,798.2C1365.09,798.86 1365.73,799.77 1365.45,800.39C1365.8,801.52 1367.07,800.74 1367.45,801.6C1367.3,802.37 1367.8,803.23 1367.1,803.97C1365.38,804.57 1365.1,802.74 1364.01,802.16C1363.43,802.487 1363.21,803.221 1363.52,803.81C1364.31,805.75 1364.93,807.67 1364.27,809.81L1362.51,810.44C1364.51,812.57 1365.39,815.39 1367.81,816.76C1366.47,819.09 1365.71,817.48 1364.87,817.18C1364.44,817.457 1364.29,818.024 1364.52,818.48C1365.92,820.06 1366.3,822.05 1366.81,823.98L1368.81,823.98C1369.81,824.54 1369.39,825.45 1369.43,826.2C1369.47,826.95 1369.36,827.88 1370.37,828.27C1369.16,830.6 1367.31,829.98 1365.23,829.82L1366.44,828.47C1365.97,828 1365.51,827.53 1365.04,827.07C1363.8,827.64 1365.04,828.88 1364.34,829.61L1362.58,831.37C1363.99,832.77 1363.02,835.07 1365.72,836.78C1367.81,837.18 1368.37,840.02 1369.2,842.65L1368.47,843.38C1370.78,846.08 1374.4,847.31 1376.3,850.48C1375.45,851.48 1374.17,850.38 1373.24,851L1370.75,848.85C1369.27,848.85 1369.18,850.14 1367.75,850.51L1371.4,854.4C1371.57,855.84 1370.23,856.26 1369.59,857.14C1370.38,858.62 1370.83,860.33 1372.45,861.23C1371.32,862.45 1369.69,863.35 1370.62,865.49L1372.25,866.09C1371.33,867.33 1371.09,868.955 1371.61,870.41C1372.04,871.07 1373,870.34 1373.28,871.24C1372.1,873.34 1370.44,872.97 1368.68,871.94C1368.25,872.6 1368.28,873.57 1368.88,873.6C1370.68,873.69 1371.14,875.36 1372.33,876.12L1371.39,877.31C1371.09,877.76 1372.71,877.86 1372.39,878.76C1372.09,879.372 1372.24,880.112 1372.74,880.57L1374.08,880.88C1374.66,881.98 1373.81,883.5 1375.26,884.24C1374.69,884.75 1374.18,885.18 1374.35,885.95C1376.96,887.19 1377.35,889.86 1378.29,892.16C1378.97,893.88 1379.22,895.83 1381.29,896.58C1382.52,896.79 1382.88,897.44 1382.29,898.58C1382.01,900.76 1384.66,902.13 1384.16,904.05C1383.6,905.816 1383.31,907.657 1383.29,909.51L1393.28,909.39Z" style="fill:rgb(160,212,238);fill-rule:nonzero;"/>
                <path d="M352.89,798.51L352.89,793.29C354.44,790.69 355.24,787.79 357.82,786.29C357.62,785.59 356.7,785.44 356.82,784.66C356.82,783.66 357.82,783.4 358.23,782.73C358.94,782.96 359.23,784.16 361.12,782.97C361.48,782.69 359.44,782.55 360.12,781.3C364.77,778.84 363.22,773.4 364.46,768.86C363.75,768.23 362.14,769.3 361.24,767.75C360.65,766.75 361.24,765.91 360.29,764.42C362.16,765.42 363.21,766.13 364.77,765.48C363.77,764.56 364.1,763.02 362.77,762.29C364.04,760.95 364.58,762.23 365.3,762.74L366.59,761.45C367.52,759.73 365.65,758.75 365.73,757.33L367.73,755.33C366.87,754.22 365.36,753.48 365.55,751.72C364.34,752.26 365.26,753.64 364.05,753.79C362.26,752.59 362.26,752.59 361.77,750.79C362.26,748.99 364.88,748.46 364.77,746.14C362.92,746.32 361.84,748.02 359.97,747.84C360.04,746.44 361.53,746.21 361.72,745.37C361.864,744.65 361.523,743.915 360.88,743.56C361.09,742.9 360.43,743.49 360.99,743.16C361.79,742.68 363.08,743.16 363.14,742.01C364.62,741.57 365.14,743.64 366.5,742.66C366.9,741.89 365.75,741.85 365.74,741.26L365.74,738.26L367.43,737.52C367.82,735.39 367.99,734.26 366.78,733.52C367.78,732.1 369.66,733.78 370.71,732.52C370.01,731.35 368.39,732.72 367.53,731.06C369.32,730.15 370.36,728.15 372.6,727.8C372.45,726.51 371.04,727.55 370.84,726.5C371.25,725.61 372.61,725.26 372.74,723.8C371.47,722.47 369.69,722.13 367.74,721.8C369.29,720.57 368.31,718.8 368.97,717.23L371.25,717.05C372.4,715.93 371.32,715.34 370.69,714.66C371.05,713.94 371.86,714.31 372.64,713.75C372.12,712.27 373.64,711.11 373.75,709.25C373.13,708.07 372.41,706.72 371.67,705.25C371.97,704.13 373.45,703.05 372.6,701.81C371.876,700.946 371.539,699.82 371.67,698.7C371.04,697.61 369.2,698.79 369.18,697.2C367.32,697.13 367.13,699.2 365.43,699.2C363.43,698.95 366.11,695.98 363.72,696.02C364.05,695.02 364.83,695.34 365.42,695.02C366.01,694.2 364.73,694.2 364.74,693.66C364.43,692.66 365.28,692.22 365.74,691.59C365.12,690.14 364.86,688.59 363.83,687.8C363.43,686.45 364.73,686.22 364.72,685.26C364.84,684.54 364.09,684.26 363.65,683.68C365.5,682.68 367.53,683.68 369.82,682.93L366.73,679.83C366.53,678.21 367.46,678.3 368.47,678.21L368.47,671.74L364.73,669.87C364.54,668.75 364.97,668.16 366.03,668.38C366.85,668.56 367.28,670.17 368.52,669.02C367.91,667.85 367.3,666.67 366.67,665.44C366.76,664.15 368.12,663.8 368.87,662.44C366.87,661.44 368.74,657.44 363.82,657.44L367.01,659.6C366.42,660 366.01,660.38 365.95,660.31C364.04,659.07 362.17,658.81 360.2,660.92C360.3,658.92 358.13,658.34 358.85,656.71C359.06,656.58 359.25,656.42 359.29,656.45C359.54,656.66 359.77,656.9 360.12,657.26C362.07,656.1 362.94,654.17 363.84,651.84L362.06,650.45C361.85,651.02 361.65,651.59 361.4,652.28L358.12,652.28C358.58,652.73 357.33,652.36 357.72,651.89C358.34,651.14 360.26,651.7 359.78,649.89C359.78,649.81 360,649.66 360.12,649.55L362.51,649.28C362.59,648.14 361.76,648.58 361.22,648.41C360.33,647.91 360.86,646.99 360.66,645.96L357.46,643.31L359.92,640.72C359.05,638.93 357.23,637.66 356.74,635.63C356.74,634.28 358.27,634.04 358.63,632.91C358.38,632.51 357.87,632.6 357.39,632.53C355.83,632.3 354.7,634.67 352.58,632.91L355.03,631.91C354.19,629.91 352.16,629.44 353.03,627.42L354.24,628.42C355.16,627.9 354.6,626.99 354.76,626.27C353.76,624.27 351.76,623.54 349.87,622.46C350.22,621.18 351.41,620.22 350.02,618.12C349.95,618.04 348.76,618.94 348.02,618.37C348.02,616.37 350.39,617.06 350.89,615.56C350.29,614.04 348.71,613.27 347.78,611.9L347.78,609.03C347.07,608.2 346.18,608.78 345.31,608.56C345.02,607.95 344.7,607.27 344.4,606.56L342.99,606.56C342.99,609.05 342.17,611.56 343.71,614.08C342.71,615.19 341,613.91 339.71,615.01C341.96,615.36 342.71,617.73 344.71,618.31L339.54,618.31C338.29,619.49 339.03,620.19 339.86,620.95C338.86,622.09 336.74,620.71 336.25,622.58L335.92,622.99C337.97,624.13 335.74,626.99 337.78,627.99C339.16,628.83 340.55,628.22 341.85,628.55C341.19,629.83 340.55,630.65 339.2,630.45C338.04,630.173 336.826,630.675 336.2,631.69C337.2,632.95 336.55,634.82 337.79,636.03C337.25,636.72 336.53,636.28 335.92,636.41C335.26,637.34 336.1,637.89 336.46,638.56C336.1,637.89 335.26,637.34 335.92,636.41C335.92,635.41 334.92,635.19 334.23,633.9C334.207,635.477 333.758,637.018 332.93,638.36C332.93,639.98 334.47,638.91 334.87,639.93C334.87,640.22 334.87,640.67 334.8,641.01C333.61,642.1 333.1,640.7 332.2,640.49C331.09,642.77 333.95,644.65 332.61,647.13C331.61,648.03 330.38,647 328.61,646.34C330.22,649.34 330.71,652.04 328.86,654.48C329.532,655.701 330.662,656.608 332,657L330.19,657.63C329.786,659.151 330.068,660.774 330.96,662.07C332.41,664.42 332.57,667.31 333.86,669.8C334.44,670.95 333.96,672.64 333.69,674.22C332.74,671.66 332.04,668.97 328.54,669.29C326.4,671.6 329.9,673.72 328.84,675.97C328.04,676.44 328.01,675.19 327.29,675.45C326.35,677.12 328.16,677.55 328.79,678.51C327.759,679.801 327.759,681.649 328.79,682.94C327.7,683.94 327.19,682.52 326.38,682.35L324.69,684.12C327.64,683.45 328.69,686.12 331.64,686.56C329.18,687.56 327.25,686.89 325.46,687.26C324.65,687.91 325.29,688.82 325,689.44C325.35,690.57 326.63,689.8 327,690.65C326.85,691.43 327.34,692.29 326.65,693.02C324.93,693.63 324.65,691.8 323.56,691.22C323.169,691.431 322.925,691.841 322.925,692.285C322.925,692.486 322.975,692.683 323.07,692.86C323.86,694.8 324.47,696.72 323.81,698.86L322.05,699.49C324.05,701.62 324.93,704.44 327.36,705.8C326.02,708.14 325.26,706.52 324.41,706.22C323.978,706.497 323.825,707.064 324.06,707.52C325.47,709.1 325.85,711.09 326.35,713.03L328.35,713.03C329.35,713.59 328.93,714.49 328.96,715.25C328.99,716.01 328.89,716.92 329.9,717.31C328.69,719.64 326.85,719.02 324.76,718.87L325.98,717.51L324.57,716.11C323.34,716.69 324.52,717.92 323.87,718.66L322.12,720.41C323.53,721.82 322.56,724.11 325.25,725.82C327.35,726.22 327.9,729.06 328.74,731.69L328,732.43C330.32,735.12 333.93,736.36 335.84,739.53C334.98,740.53 333.7,739.42 332.77,740.04L330.29,737.9C328.81,737.9 328.71,739.19 327.29,739.56L331,743.4C331.17,744.84 329.82,745.26 329.19,746.15C329.98,747.62 330.43,749.33 332.04,750.24C330.91,751.45 329.28,752.35 330.21,754.5L331.84,755.1C330.919,756.341 330.679,757.965 331.2,759.42C331.63,760.08 332.6,759.34 332.88,760.24C331.7,762.34 330.03,761.98 328.28,760.94C327.85,761.61 327.88,762.57 328.47,762.61C330.27,762.7 330.74,764.36 331.93,765.13L330.98,766.32C330.69,766.77 332.3,766.86 332.04,767.77C331.741,768.38 331.88,769.12 332.38,769.58C332.84,769.68 333.29,769.78 333.72,769.89C334.31,770.99 333.46,772.51 334.9,773.25C334.33,773.76 333.82,774.18 333.99,774.96C336.6,776.19 336.99,778.87 337.93,781.17C338.62,782.89 338.87,784.84 340.93,785.59C342.16,785.8 342.53,786.45 341.93,787.59C341.64,789.77 344.29,791.14 343.8,793.07C343.235,794.836 342.938,796.676 342.92,798.53L352.89,798.51Z" style="fill:rgb(160,212,238);fill-rule:nonzero;"/>
            </g>
        </g>
    </g>
</svg>
