<svg xmlns="http://www.w3.org/2000/svg" xmlns:xlink="http://www.w3.org/1999/xlink" viewBox="0 0 1920 1080"><defs><style>.cls-1{fill:none;}.cls-2{clip-path:url(#clip-path);}.cls-3{fill:#fee3ac;}.cls-4{clip-path:url(#clip-path-2);}.cls-5{fill:#fedc97;}.cls-6{clip-path:url(#clip-path-3);}.cls-7{fill:#033f63;}</style><clipPath id="clip-path"><rect class="cls-1" width="1920" height="1080"/></clipPath><clipPath id="clip-path-2"><polygon class="cls-1" points="1920 1080 0 1080 -0.14 427.51 32.49 422.1 61.57 412.8 145.64 394.21 159.29 388.77 174.02 383.82 184.5 380.17 191.33 378.38 207.85 371.56 217.93 368.89 221.1 365.53 225.06 363.35 241.18 358.41 248.36 354.91 250.8 351.15 253.44 351.48 261.62 348.85 266.76 346.01 274.9 341.2 289.64 334.93 296.96 331.37 300.29 331.41 305.79 330.02 309.84 328.49 314.61 329.13 321.53 325.97 323.43 324.06 326.63 324.43 329.35 323.69 332.13 322.98 334.6 322.28 336.42 322.47 338.75 320.47 340.32 320.63 341.41 318.3 343 318.45 344.97 315.37 346.31 315.48 349.08 317.46 352.54 318.35 355.41 317.36 358.08 315.49 362.92 315.88 366.48 315.48 370.54 313.21 373.8 310.74 377.26 311.53 382.41 310.44 387.45 309.45 389.53 306.48 391.11 307.67 393.67 305.52 397.83 304.5 399.22 299.86 403.27 296.4 408.62 294.22 416.63 291.55 422.26 289.08 426.12 286.25 429.68 286.26 431.96 284.13 434.97 282.16 436.65 282.15 437.2 278.3 438.38 276.57 438.98 275.38 440.17 273.75 441.75 273.06 444.76 272.21 447.33 271.08 449.42 269.8 452.63 269.69 454.01 268.06 456.58 266.95 461.59 266.76 465.55 264.58 468.71 265.04 471.29 263.53 472.41 264.32 474.78 262.34 476.23 264.65 477.62 263.59 481.37 262.27 483.68 259.8 487.54 259.01 489.71 255.85 493.47 254.76 496.34 252.48 498.22 251 501.19 250.01 503.34 248.82 506.13 248.63 509.5 247.34 512.95 246.14 518.1 245.76 522.33 243.98 529.57 243.42 534.32 239.4 539.33 237.55 542.9 236.17 545 238.6 547.04 237.55 550.01 240.71 552.78 240.19 559.44 238.01 563.26 238.54 569.33 235.97 574.27 235.18 577.18 233.13 584.83 227.6 587.59 227.33 589.07 225.87 591.68 225.62 594.71 224.16 600.01 221.19 605.92 218.76 616.34 212.82 627.22 208.54 628.6 203.26 630.01 200.32 632.36 200.63 633.27 199.29 635.31 199.01 641.13 199.44 643.73 197.92 648.05 197.33 652.51 194 657.42 193.31 658.3 192.2 661.18 191.79 661.96 189.81 667.84 188.96 670.01 186.91 679.84 180.52 685.31 176.63 691.37 171.94 696.12 168.38 700.19 166.04 702.05 165.17 704.84 164 706.18 161.69 708.25 161.07 710.79 159.38 712.98 157.54 715.25 157.13 716 155 718 154 721 155 724.17 152.88 729 152 731 150 732 149 734 147 735 144 737 143 741.51 143.35 744 142 743.99 138.59 747 138 749 136 752 137 754 134 756 130 758 130 761 127 763 124 769 120 772 115 775 114 777 113 779 112 783 110 788 106 790 105 792.49 99.35 795.49 98.16 799 98 800 95 805 89 811 87 817 86 822 84 830 79 832 76 833 74 835 74 838 72 847 68 853.66 64.51 860 62 883 55 912 56 941 57 968 62 985 68 1001 73 1007 76 1022 75 1039 73 1058 72 1064 73 1068 75 1076 75 1089 77 1105.19 82.18 1121.13 87.29 1134.19 93.75 1143.15 99.55 1152.27 101.73 1169.31 105.8 1180.87 110.36 1188.38 113.66 1194.58 117.88 1202.63 121.97 1205.92 125.26 1209.09 125.92 1211.59 124.87 1216.34 124.74 1220.03 124.74 1224.38 123.29 1226.89 122.23 1230.45 121.04 1231.24 118.67 1235.13 117.68 1239.38 117.68 1254.77 118.27 1267.37 119.17 1279.64 120.85 1288.74 121.64 1296.45 122.13 1300.6 125.1 1306.04 127.57 1310.7 128.74 1315.49 129.95 1318.01 132.62 1321.13 133.39 1322.26 135.88 1322.46 137.96 1324.38 138.42 1323.85 140.03 1320.68 142.5 1323.06 143.99 1325.43 145.77 1326.22 150.42 1330.18 152.69 1332.45 154.57 1332.85 159.02 1336.41 160.41 1338.29 163.47 1339.87 165.55 1340.96 172.57 1342.54 174.55 1344.91 175.24 1346.59 173.07 1349.36 171.48 1351.93 171.29 1353.12 168.02 1355 169.21 1355.3 172.18 1356.38 171.19 1357.16 171.34 1357.67 172.87 1365.09 175.14 1369.24 179.5 1373.2 180.98 1376.46 183.94 1379.23 185.03 1380.71 186.02 1382.59 183.06 1384.37 180.19 1385.86 181.08 1387.84 180.68 1389.69 181.79 1391.1 181.28 1392.19 183.35 1393.47 184.24 1394.76 185.1 1396.12 184.28 1398.45 184.34 1400.36 180.19 1402.14 179.63 1404.78 180.15 1407.02 181.93 1409.49 182.72 1410.25 184.14 1411.47 184.67 1413.32 183.78 1414.42 183.99 1415.49 185.07 1416.75 187.11 1418.63 187.47 1420.37 187.01 1420.97 185.3 1422.28 185.55 1422.29 186.78 1423.53 186.65 1425.25 186.75 1426.08 187.24 1426.6 189.15 1428.12 189.68 1429.21 190.64 1430.89 190.04 1433.59 189.55 1438.21 189.02 1439.3 189.81 1441.47 189.22 1442.72 188.36 1444.47 188.46 1446.32 187.08 1447.37 187.04 1448.78 187.64 1449.65 187.69 1450.18 186.53 1451.97 186.2 1453.64 186.32 1454.3 187.03 1455.06 187.75 1456.63 187.79 1457.53 189.24 1458.71 189.02 1460.28 189.04 1461.32 190.06 1461.57 191.31 1462.75 191.55 1463.18 192.76 1465.98 192.55 1466.51 192.83 1466.76 194.28 1467.8 194.48 1469.03 194 1469.13 191.67 1470.12 191.24 1471.93 192.35 1473.13 193.12 1473.26 194.56 1476.72 194.6 1480.56 194.71 1482.1 196.09 1484.04 197.22 1485.65 197.72 1487.69 198.11 1488.39 199.91 1489.39 201.24 1491.24 200.76 1492.95 202.64 1493.34 204.07 1495.51 204.1 1497.52 205.01 1499.47 205.73 1501.5 206.09 1502.21 207.65 1505.21 208.41 1508.33 208.37 1511.81 207.96 1513.03 209.05 1514.28 211.34 1516.11 211.66 1518.48 210.4 1519.32 209.49 1520.02 208.3 1520.86 208.3 1521.35 209.51 1521.9 210.35 1523.01 211.14 1524.12 210.3 1525.11 210.06 1526.31 210.87 1526.91 210.98 1529.24 210.77 1532.38 210.55 1534.9 209.16 1536.61 207.29 1538.26 206.62 1539.62 206.67 1542.68 207.91 1544.2 209.16 1545.93 209.86 1549.92 210.78 1552.72 211.49 1555.65 212.16 1558.64 214.18 1561.01 215.22 1564.3 216.06 1568.31 217.05 1569.76 217.6 1571.64 218.83 1573.74 219.43 1576.84 219.98 1578.08 220.2 1580.35 220.39 1583.34 220.04 1585.86 219.92 1595.03 220.24 1603.14 219.85 1613.82 219.25 1624.96 219.07 1639.84 218.46 1652.3 217.77 1663.39 216.95 1671.78 216.68 1676.4 215.8 1683.29 215.26 1693.11 214.54 1697.86 213.62 1707.29 210.25 1718.66 206.3 1722.81 206 1728.94 204.02 1734.48 203.33 1736.46 205.01 1737.35 206.4 1739.33 208.57 1741.11 206.79 1742.59 208.57 1742.89 211.04 1744.67 209.96 1745.76 212.23 1746.75 215.89 1746.15 220.74 1749.02 222.02 1750.88 223.4 1753.92 225.34 1756.34 227.81 1759.46 230.58 1761.53 232.16 1764.99 233.79 1768.31 234.93 1772.02 236.51 1775.82 237.94 1778.25 239.07 1781.26 238.69 1783.98 237.94 1787.49 237.85 1797.55 237.29 1806.45 236.36 1810.12 235.75 1813.26 235.22 1817.07 235.37 1821.62 235.84 1827.42 235.84 1831.7 236.23 1832.63 234.98 1833.94 236.1 1841 236.43 1845.09 236.96 1850.36 236.96 1854.19 236.43 1858.28 237.22 1862.03 237.22 1867.44 238.6 1875.55 240.32 1882.34 241.9 1889.26 243.48 1896.32 244.01 1900.67 243.15 1907.66 244.41 1912.34 243.55 1916.23 243.75 1920.06 242.23 1920.52 270.58 1920 1080"/></clipPath><clipPath id="clip-path-3"><rect class="cls-1" x="-1930" y="-1100" width="1920" height="1080"/></clipPath></defs><g id="BG_6" data-name="BG 6"><g class="cls-2"><polygon class="cls-3" points="1920 1080 0 1080 -0.14 427.51 32.49 422.1 61.57 412.8 145.64 394.21 159.29 388.77 174.02 383.82 184.5 380.17 191.33 378.38 207.85 371.56 217.93 368.89 221.1 365.53 225.06 363.35 241.18 358.41 248.36 354.91 250.8 351.15 253.44 351.48 261.62 348.85 266.76 346.01 274.9 341.2 289.64 334.93 296.96 331.37 300.29 331.41 305.79 330.02 309.84 328.49 314.61 329.13 321.53 325.97 323.43 324.06 326.63 324.43 329.35 323.69 332.13 322.98 334.6 322.28 336.42 322.47 338.75 320.47 340.32 320.63 341.41 318.3 343 318.45 344.97 315.37 346.31 315.48 349.08 317.46 352.54 318.35 355.41 317.36 358.08 315.49 362.92 315.88 366.48 315.48 370.54 313.21 373.8 310.74 377.26 311.53 382.41 310.44 387.45 309.45 389.53 306.48 391.11 307.67 393.67 305.52 397.83 304.5 399.22 299.86 403.27 296.4 408.62 294.22 416.63 291.55 422.26 289.08 426.12 286.25 429.68 286.26 431.96 284.13 434.97 282.16 436.65 282.15 437.2 278.3 438.38 276.57 438.98 275.38 440.17 273.75 441.75 273.06 444.76 272.21 447.33 271.08 449.42 269.8 452.63 269.69 454.01 268.06 456.58 266.95 461.59 266.76 465.55 264.58 468.71 265.04 471.29 263.53 472.41 264.32 474.78 262.34 476.23 264.65 477.62 263.59 481.37 262.27 483.68 259.8 487.54 259.01 489.71 255.85 493.47 254.76 496.34 252.48 498.22 251 501.19 250.01 503.34 248.82 506.13 248.63 509.5 247.34 512.95 246.14 518.1 245.76 522.33 243.98 529.57 243.42 534.32 239.4 539.33 237.55 542.9 236.17 545 238.6 547.04 237.55 550.01 240.71 552.78 240.19 559.44 238.01 563.26 238.54 569.33 235.97 574.27 235.18 577.18 233.13 584.83 227.6 587.59 227.33 589.07 225.87 591.68 225.62 594.71 224.16 600.01 221.19 605.92 218.76 616.34 212.82 627.22 208.54 628.6 203.26 630.01 200.32 632.36 200.63 633.27 199.29 635.31 199.01 641.13 199.44 643.73 197.92 648.05 197.33 652.51 194 657.42 193.31 658.3 192.2 661.18 191.79 661.96 189.81 667.84 188.96 670.01 186.91 679.84 180.52 685.31 176.63 691.37 171.94 696.12 168.38 700.19 166.04 702.05 165.17 704.84 164 706.18 161.69 708.25 161.07 710.79 159.38 712.98 157.54 715.25 157.13 716 155 718 154 721 155 724.17 152.88 729 152 731 150 732 149 734 147 735 144 737 143 741.51 143.35 744 142 743.99 138.59 747 138 749 136 752 137 754 134 756 130 758 130 761 127 763 124 769 120 772 115 775 114 777 113 779 112 783 110 788 106 790 105 792.49 99.35 795.49 98.16 799 98 800 95 805 89 811 87 817 86 822 84 830 79 832 76 833 74 835 74 838 72 847 68 853.66 64.51 860 62 883 55 912 56 941 57 968 62 985 68 1001 73 1007 76 1022 75 1039 73 1058 72 1064 73 1068 75 1076 75 1089 77 1105.19 82.18 1121.13 87.29 1134.19 93.75 1143.15 99.55 1152.27 101.73 1169.31 105.8 1180.87 110.36 1188.38 113.66 1194.58 117.88 1202.63 121.97 1205.92 125.26 1209.09 125.92 1211.59 124.87 1216.34 124.74 1220.03 124.74 1224.38 123.29 1226.89 122.23 1230.45 121.04 1231.24 118.67 1235.13 117.68 1239.38 117.68 1254.77 118.27 1267.37 119.17 1279.64 120.85 1288.74 121.64 1296.45 122.13 1300.6 125.1 1306.04 127.57 1310.7 128.74 1315.49 129.95 1318.01 132.62 1321.13 133.39 1322.26 135.88 1322.46 137.96 1324.38 138.42 1323.85 140.03 1320.68 142.5 1323.06 143.99 1325.43 145.77 1326.22 150.42 1330.18 152.69 1332.45 154.57 1332.85 159.02 1336.41 160.41 1338.29 163.47 1339.87 165.55 1340.96 172.57 1342.54 174.55 1344.91 175.24 1346.59 173.07 1349.36 171.48 1351.93 171.29 1353.12 168.02 1355 169.21 1355.3 172.18 1356.38 171.19 1357.16 171.34 1357.67 172.87 1365.09 175.14 1369.24 179.5 1373.2 180.98 1376.46 183.94 1379.23 185.03 1380.71 186.02 1382.59 183.06 1384.37 180.19 1385.86 181.08 1387.84 180.68 1389.69 181.79 1391.1 181.28 1392.19 183.35 1393.47 184.24 1394.76 185.1 1396.12 184.28 1398.45 184.34 1400.36 180.19 1402.14 179.63 1404.78 180.15 1407.02 181.93 1409.49 182.72 1410.25 184.14 1411.47 184.67 1413.32 183.78 1414.42 183.99 1415.49 185.07 1416.75 187.11 1418.63 187.47 1420.37 187.01 1420.97 185.3 1422.28 185.55 1422.29 186.78 1423.53 186.65 1425.25 186.75 1426.08 187.24 1426.6 189.15 1428.12 189.68 1429.21 190.64 1430.89 190.04 1433.59 189.55 1438.21 189.02 1439.3 189.81 1441.47 189.22 1442.72 188.36 1444.47 188.46 1446.32 187.08 1447.37 187.04 1448.78 187.64 1449.65 187.69 1450.18 186.53 1451.97 186.2 1453.64 186.32 1454.3 187.03 1455.06 187.75 1456.63 187.79 1457.53 189.24 1458.71 189.02 1460.28 189.04 1461.32 190.06 1461.57 191.31 1462.75 191.55 1463.18 192.76 1465.98 192.55 1466.51 192.83 1466.76 194.28 1467.8 194.48 1469.03 194 1469.13 191.67 1470.12 191.24 1471.93 192.35 1473.13 193.12 1473.26 194.56 1476.72 194.6 1480.56 194.71 1482.1 196.09 1484.04 197.22 1485.65 197.72 1487.69 198.11 1488.39 199.91 1489.39 201.24 1491.24 200.76 1492.95 202.64 1493.34 204.07 1495.51 204.1 1497.52 205.01 1499.47 205.73 1501.5 206.09 1502.21 207.65 1505.21 208.41 1508.33 208.37 1511.81 207.96 1513.03 209.05 1514.28 211.34 1516.11 211.66 1518.48 210.4 1519.32 209.49 1520.02 208.3 1520.86 208.3 1521.35 209.51 1521.9 210.35 1523.01 211.14 1524.12 210.3 1525.11 210.06 1526.31 210.87 1526.91 210.98 1529.24 210.77 1532.38 210.55 1534.9 209.16 1536.61 207.29 1538.26 206.62 1539.62 206.67 1542.68 207.91 1544.2 209.16 1545.93 209.86 1549.92 210.78 1552.72 211.49 1555.65 212.16 1558.64 214.18 1561.01 215.22 1564.3 216.06 1568.31 217.05 1569.76 217.6 1571.64 218.83 1573.74 219.43 1576.84 219.98 1578.08 220.2 1580.35 220.39 1583.34 220.04 1585.86 219.92 1595.03 220.24 1603.14 219.85 1613.82 219.25 1624.96 219.07 1639.84 218.46 1652.3 217.77 1663.39 216.95 1671.78 216.68 1676.4 215.8 1683.29 215.26 1693.11 214.54 1697.86 213.62 1707.29 210.25 1718.66 206.3 1722.81 206 1728.94 204.02 1734.48 203.33 1736.46 205.01 1737.35 206.4 1739.33 208.57 1741.11 206.79 1742.59 208.57 1742.89 211.04 1744.67 209.96 1745.76 212.23 1746.75 215.89 1746.15 220.74 1749.02 222.02 1750.88 223.4 1753.92 225.34 1756.34 227.81 1759.46 230.58 1761.53 232.16 1764.99 233.79 1768.31 234.93 1772.02 236.51 1775.82 237.94 1778.25 239.07 1781.26 238.69 1783.98 237.94 1787.49 237.85 1797.55 237.29 1806.45 236.36 1810.12 235.75 1813.26 235.22 1817.07 235.37 1821.62 235.84 1827.42 235.84 1831.7 236.23 1832.63 234.98 1833.94 236.1 1841 236.43 1845.09 236.96 1850.36 236.96 1854.19 236.43 1858.28 237.22 1862.03 237.22 1867.44 238.6 1875.55 240.32 1882.34 241.9 1889.26 243.48 1896.32 244.01 1900.67 243.15 1907.66 244.41 1912.34 243.55 1916.23 243.75 1920.06 242.23 1920.52 270.58 1920 1080"/><g class="cls-4"><polygon class="cls-5" points="813.97 79.93 830.99 89.86 830.99 100.38 841.3 107.67 835.33 119.94 849.71 115.56 839.4 133.08 807.11 188.28 809.83 197.62 784.87 226.83 854.86 182.15 888.5 194.12 914.54 174.55 914.54 157.61 956.86 119.94 985.08 109.72 1010.85 128.41 1033.09 165.21 1012.21 192.37 1054.26 195.87 1024.68 223.61 1061.04 303.34 1039.33 227.7 1084.91 202.59 1139.17 309.18 1288.19 364.47 1164.85 266.74 1159.79 182.24 1117.1 135.52 1208.26 215.73 1222 260.51 1248.04 213.78 1295.07 203.66 1251.52 154.3 1213.32 110.98 1050.32 55 816.88 17.92 813.97 79.93"/><polygon class="cls-5" points="1731.18 201.32 1551.94 224.16 1530.32 213.62 1323.02 241.57 1530.85 227.33 1556.16 244.21 1752.9 211.23 1731.18 201.32"/></g><polygon class="cls-5" points="817.7 221 808.21 246.32 734.36 284.3 822.45 252.65 817.7 221"/><polygon class="cls-5" points="369.84 362.89 417.22 354.45 564.76 271.37 417.22 349.04 369.84 362.89"/></g></g><g id="BG_1" data-name="BG 1"><g class="cls-6"><path class="cls-7" d="M-253.48-223c.28-5.3,4.87-7,8.37-11.76-8.82-2.83-16.35-7.24-12.93-17.75l-8.72-3.08c.11-2.46-1.26-4.76,2.19-6.75,11-2.36,15.83,11,25.55,13.21l3.61-5.3c-10.07-8.13-13.9-22.15-26.63-28.46,1.52-2.66,4-1.47,6-1.77,2-1.35,2.29-3.35,2.28-5.59,0-2.07.29-4.14.45-6.11,16.83-3.55,33.12-8.35,49.26-5.11,3.39-3.54,3.49-6,1.52-8.43-6-4.12-8.2,5.16-14.55,3-4.53-5.69-12.36-10-16.1-19.46,14.85-6.07,22,5.92,31.18,11.29,8.27-.56,3.06-9.9,9.06-11.44-5.46-5.16-7.67,1.1-11.18,2-4.4-4,2.62-12.46-6.86-14.14,4.1-3,6-5.85,5.56-11.75,11.13,3.68,19-6.44,30.25-3.86.33-10.64-7.5-13-11-17.49-4.58-.91-6.16,1.82-8.92,4.41-1.83-10.25-12-14.69-16.34-22.53,5.8-6.89,12.32-2,17.4-4.71,3.34-4.49,0-9.77,1.87-14.14-4.88-5.16-7.94-1.9-11.14,1.61-5.56-4,1.82-12.91-8.33-15.08,3.64-1.31,5.32-2.53,6.11-2.11,10.24,5.52,18.44,14.21,29.37,18.78,1.14.48,1.12,3.74,1.84,6.52h24.09c1.16-1.22,3.18-3.31,5.42-5.65-13.1-6.69-29.35-7.59-42.39-20.79,16.62-7.45,27.35,2.15,39.43,5.91l7.8-6.88-13.29-13.29,4-4c-3.48-4.62-6.74-9.69-17.17-4.49l-4.44,6.19c-6.77-.19-11.81,1.39-16.7-1.21.56-1.06.85-2.59,1.65-2.94,9.84-4.34,20.8-6.61,28.43-15.72-8.27-4.24-17.26.27-23.86-2.24l16.34-16.53c4.85,1.77,12.65,9.54,19.44-2,4.49-8.16-1.64-15.47-4.26-24.46l25.1,8.53c3.79-4.43,1.76-7-1-9.79-9.35-9.4-20.25-17.72-23.61-32,11.2,2.71,11.2,2.71,26-3.49-3.29-7.21-9.16-13.5-8.07-22.3,6.94-3.06,13.09-7.07,17-13.8l-3.25-3.25L-105.81-594c2.8,7.22-9.34,13.59-1.85,20.91,6,3.59,7.51-7.33,14.8-3.32-2.66,5.54-5.64,11.66-3.28,17.53-2.69,5.74-10.43,7.3-8.59,16.2,10-.22,18.32-7,28-8.36,3,4.24,4.23,7.92-2.79,8.7-4.17.46-4,3.26-3.81,6.3,5.72,6.76,10.79.65,16.07-1,2.13,1.65,2,4.76,1,5.74-3.5,3.21-9.18,3.32-12.71,9.19v12.49c-6.83,7.57-8.73-3.92-16.45-1-.37.72-2,4-3.7,7.23l4.68,4.68c11-1,20.38-10.49,33-8.07-7.24,14.61-27.17,16.08-29.74,34.59,17.09-1.23,31.15-9,44.22-18.71,1.44,2.23,2.67,3.31,2.84,4.53,1,7.35-10.44,8.12-8.66,16-14.69,3.34-14.52,23.91-30.34,25.88,2.11,4.77,6.3,1.52,8.73,2.88,8-2.7,10.67-11,18.88-14,6.71-2.4,11.22-10.92,16.69-16.71,6.7,6.52,3.77,11.2-1.32,15.71-6.08,5.39-6.19,10.93.13,16.61-7.1,10.23-17.25,15.08-27.45,16.54l12.12,12.11-6.12,6.73c4,4,8.19,2.82,16.86-5-1-1-2.12-2-3-3.13-.24-.28,0-1,.11-2.28h14.5c5-9.19,16.62-9.24,21.31-18.56,3.6,5,3.47,8.72.68,13.66-6,10.54-4.37,24.68-15.51,32.86-.25,11.28-9.61,10-16.63,12-.6,6.33,6.51.57,7.44,5.75v4.65c-3.85,2.56-3.93-3.05-6.71-2.24-7.66,13.08,7,19.5,8.18,29.75,14.81-6.87,32-5.41,44.09-19.88,6.11,13-.67,20.15-6.64,27.21-1.55,1.83-6.77,1.85-7,3.26-2,11.59-15.55,14.51-18.63,25.75,8,9.56,14.87-3.91,22.31-1.22,9.7-8.92,23.91-11.13,32.5-21.74,4.36,3.86,9.39,7.41,4.61,17L13.38-284.74,6-284.4C.24-279.93-1.41-272.95-4.8-267.13-4.87-262.56.07-261.93,1-259l34.43-17.18c7.18,7.66,7.18,7.66,6,17.72l-4.65-4.22a4.72,4.72,0,0,0-2,5.56c.69,1.88,2.44,3.39,3.71,5-2.83,7.94-11,6.55-16.5,7.65-1.13,4.82.27,7.14,3,9,.14,4-7.52,7.4-1.2,11.94,17.63-5.7,28.62-21.12,43.92-34.61,3.47,12.08-5.37,18.29-2.5,25.89-2.08,2,.69-.6-1.41,1.42l1.41-1.42c7.17,0,2.52,9.35,8.37,10.47-4.46,7.85-15.41,7.05-19.47,12.68S43-200.46,41.43-193H32.11c-2.25,5.1-4.55,10.36-7.55,17.16,18.73-3.89,30-15.88,42.7-25.07,2.1,11.59,1.17,14.06-11.33,28.33v13.42c-7.27,3.17-14.85-1.11-20.81,2.74-4.55,9.67,9.9,4.41,8.21,11.63-4.91,4.27-10.88,4.38-16.87,4.42,6,0,12-.15,16.87-4.42,9.7-.29,19.76,1.93,29.69-7.05C66-133.12,57.71-126,41.27-123c-2,.37-4-.43-6,1.36-3.05,2.76-4.82,7.42-10,7.4-4.15,0-8.3,0-12.45,1.39C25-106.26,39.67-115,52.18-104.58c5.36-11.62,18.31.71,25.24-9.35C76-96.37,55.23-100.55,50.68-88.45c-4.89,13-21.77,12.62-26.4,26.08H1.45C.17-59.13-1.52-54.9-2.66-52-17.08-55.8-25-47.26-34.92-45.76l8.57,3.18c-4.35,5.41-13.41-1-15.85,6.72-2.28-5.47-9.72-2.67-13-9.76-1.47,3.22-2.62,5.72-5,10.85.22,3.05,6.94,2.53,11.22,5.16-1.54,5.22-5.86,1.62-9,2.92C-64.39-30.87-69.81-36-71.89-43.93c-4.28,2.64-7.94,5.58-7.78,11.91H-97.51c-3.15,2.14-3.17,4.19-3.43,6.37C-103.4-4.9-93.63,15-96.45,35.74c-.46,3.43-.06,7-.06,9.82-4.29,2.81-7.83,1.57-12.7,1.43-1.76-24.27,2.81-49.38-6.86-73.25-15-3.83-29.62,3-44.74,4.68l-7.36,7.35c-8.7-5-21-4.84-24.08-17.37a24.47,24.47,0,0,1,6.62-3.55c-2.44,1.12-5,2-6.62,3.55-7.43,2-11.46-4.66-18.47-5.82l18-9v-6.05H-261.6c1.33-8,6.53-3.44,10-5.23,0-5.68,8.7-8.47,6.39-14.82-2.24-3.22-4.52-2.16-6.57-2.22-3.71,1.69-.13,7.43-6.32,8.94-7.84-3.31-12.46-12.06-20.14-17.78-4.34-.73-9.49,1.29-16.19-2.51l10.16-6-9.32-19c2.1-3.36,5.41-4,6.28-3,7.92,9.55,20.69,10.46,30.34,19.61l9.52-13.49c2.39.31,1.87-.5.37-1.79-4.73-4.08-8-9.87-16-9.2-2.62.22-5.58-3.81-8.18-5.75v-13.73c4.54-4.3,13.61.78,16.25-7.57L-271-164.15c1.15-3.51,4.6-1.95,7.62-3.53,0-5-6.57-6-7.67-11.27,6.21-.49,11.83-2.46,18,1.93,12.64,9,25.72,7.86,38.31-.4-7.67-11.41-25.31-9.18-32.72-23.89l-8.88-.58c-2-10.76-9.94-13.94-19.31-13.64v-5.86c4.64-4.72,7.58-1.12,10.62,2.09,3-3.27,6.62-5,11.51-3.66,1.72,2.47,4.41,4.57,6.68,5C-248.79-218.78-252-220.16-253.48-223Z"/></g></g></svg>