<?xml version="1.0" encoding="UTF-8" standalone="no"?>
<!DOCTYPE svg PUBLIC "-//W3C//DTD SVG 1.1//EN" "http://www.w3.org/Graphics/SVG/1.1/DTD/svg11.dtd">
<svg width="100%" height="100%" viewBox="0 0 1920 1080" version="1.1" xmlns="http://www.w3.org/2000/svg" xmlns:xlink="http://www.w3.org/1999/xlink" xml:space="preserve" xmlns:serif="http://www.serif.com/" style="fill-rule:evenodd;clip-rule:evenodd;stroke-linejoin:round;stroke-miterlimit:2;">
    <g id="BG_6">
        <g>
            <clipPath id="_clip1">
                <rect x="0" y="0" width="1920" height="1080"/>
            </clipPath>
            <g clip-path="url(#_clip1)">
                <path d="M1920,1080L0,1080L-0.14,427.51L32.49,422.1L61.57,412.8L145.64,394.21L159.29,388.77L174.02,383.82L184.5,380.17L191.33,378.38L207.85,371.56L217.93,368.89L221.1,365.53L225.06,363.35L241.18,358.41L248.36,354.91L250.8,351.15L253.44,351.48L261.62,348.85L266.76,346.01L274.9,341.2L289.64,334.93L296.96,331.37L300.29,331.41L305.79,330.02L309.84,328.49L314.61,329.13L321.53,325.97L323.43,324.06L326.63,324.43L329.35,323.69L332.13,322.98L334.6,322.28L336.42,322.47L338.75,320.47L340.32,320.63L341.41,318.3L343,318.45L344.97,315.37L346.31,315.48L349.08,317.46L352.54,318.35L355.41,317.36L358.08,315.49L362.92,315.88L366.48,315.48L370.54,313.21L373.8,310.74L377.26,311.53L382.41,310.44L387.45,309.45L389.53,306.48L391.11,307.67L393.67,305.52L397.83,304.5L399.22,299.86L403.27,296.4L408.62,294.22L416.63,291.55L422.26,289.08L426.12,286.25L429.68,286.26L431.96,284.13L434.97,282.16L436.65,282.15L437.2,278.3L438.38,276.57L438.98,275.38L440.17,273.75L441.75,273.06L444.76,272.21L447.33,271.08L449.42,269.8L452.63,269.69L454.01,268.06L456.58,266.95L461.59,266.76L465.55,264.58L468.71,265.04L471.29,263.53L472.41,264.32L474.78,262.34L476.23,264.65L477.62,263.59L481.37,262.27L483.68,259.8L487.54,259.01L489.71,255.85L493.47,254.76L496.34,252.48L498.22,251L501.19,250.01L503.34,248.82L506.13,248.63L509.5,247.34L512.95,246.14L518.1,245.76L522.33,243.98L529.57,243.42L534.32,239.4L539.33,237.55L542.9,236.17L545,238.6L547.04,237.55L550.01,240.71L552.78,240.19L559.44,238.01L563.26,238.54L569.33,235.97L574.27,235.18L577.18,233.13L584.83,227.6L587.59,227.33L589.07,225.87L591.68,225.62L594.71,224.16L600.01,221.19L605.92,218.76L616.34,212.82L627.22,208.54L628.6,203.26L630.01,200.32L632.36,200.63L633.27,199.29L635.31,199.01L641.13,199.44L643.73,197.92L648.05,197.33L652.51,194L657.42,193.31L658.3,192.2L661.18,191.79L661.96,189.81L667.84,188.96L670.01,186.91L679.84,180.52L685.31,176.63L691.37,171.94L696.12,168.38L700.19,166.04L702.05,165.17L704.84,164L706.18,161.69L708.25,161.07L710.79,159.38L712.98,157.54L715.25,157.13L716,155L718,154L721,155L724.17,152.88L729,152L734,147L735,144L737,143L741.51,143.35L744,142L743.99,138.59L747,138L749,136L752,137L754,134L756,130L758,130L761,127L763,124L769,120L772,115L775,114L783,110L788,106L790,105L792.49,99.35L795.49,98.16L799,98L800,95L805,89L811,87L817,86L822,84L830,79L832,76L833,74L835,74L838,72L847,68L853.66,64.51L860,62L883,55L941,57L968,62L985,68L1001,73L1007,76L1022,75L1039,73L1058,72L1064,73L1068,75L1076,75L1089,77L1105.19,82.18L1121.13,87.29L1134.19,93.75L1143.15,99.55L1152.27,101.73L1169.31,105.8L1180.87,110.36L1188.38,113.66L1194.58,117.88L1202.63,121.97L1205.92,125.26L1209.09,125.92L1211.59,124.87L1216.34,124.74L1220.03,124.74L1224.38,123.29L1226.89,122.23L1230.45,121.04L1231.24,118.67L1235.13,117.68L1239.38,117.68L1254.77,118.27L1267.37,119.17L1279.64,120.85L1288.74,121.64L1296.45,122.13L1300.6,125.1L1306.04,127.57L1310.7,128.74L1315.49,129.95L1318.01,132.62L1321.13,133.39L1322.26,135.88L1322.46,137.96L1324.38,138.42L1323.85,140.03L1320.68,142.5L1323.06,143.99L1325.43,145.77L1326.22,150.42L1330.18,152.69L1332.45,154.57L1332.85,159.02L1336.41,160.41L1338.29,163.47L1339.87,165.55L1340.96,172.57L1342.54,174.55L1344.91,175.24L1346.59,173.07L1349.36,171.48L1351.93,171.29L1353.12,168.02L1355,169.21L1355.3,172.18L1356.38,171.19L1357.16,171.34L1357.67,172.87L1365.09,175.14L1369.24,179.5L1373.2,180.98L1376.46,183.94L1379.23,185.03L1380.71,186.02L1382.59,183.06L1384.37,180.19L1385.86,181.08L1387.84,180.68L1389.69,181.79L1391.1,181.28L1392.19,183.35L1393.47,184.24L1394.76,185.1L1396.12,184.28L1398.45,184.34L1400.36,180.19L1402.14,179.63L1404.78,180.15L1407.02,181.93L1409.49,182.72L1410.25,184.14L1411.47,184.67L1413.32,183.78L1414.42,183.99L1415.49,185.07L1416.75,187.11L1418.63,187.47L1420.37,187.01L1420.97,185.3L1422.28,185.55L1422.29,186.78L1423.53,186.65L1425.25,186.75L1426.08,187.24L1426.6,189.15L1428.12,189.68L1429.21,190.64L1430.89,190.04L1433.59,189.55L1438.21,189.02L1439.3,189.81L1441.47,189.22L1442.72,188.36L1444.47,188.46L1446.32,187.08L1447.37,187.04L1448.78,187.64L1449.65,187.69L1450.18,186.53L1451.97,186.2L1453.64,186.32L1454.3,187.03L1455.06,187.75L1456.63,187.79L1457.53,189.24L1458.71,189.02L1460.28,189.04L1461.32,190.06L1461.57,191.31L1462.75,191.55L1463.18,192.76L1465.98,192.55L1466.51,192.83L1466.76,194.28L1467.8,194.48L1469.03,194L1469.13,191.67L1470.12,191.24L1471.93,192.35L1473.13,193.12L1473.26,194.56L1476.72,194.6L1480.56,194.71L1482.1,196.09L1484.04,197.22L1485.65,197.72L1487.69,198.11L1488.39,199.91L1489.39,201.24L1491.24,200.76L1492.95,202.64L1493.34,204.07L1495.51,204.1L1497.52,205.01L1499.47,205.73L1501.5,206.09L1502.21,207.65L1505.21,208.41L1508.33,208.37L1511.81,207.96L1513.03,209.05L1514.28,211.34L1516.11,211.66L1518.48,210.4L1519.32,209.49L1520.02,208.3L1520.86,208.3L1521.35,209.51L1521.9,210.35L1523.01,211.14L1524.12,210.3L1525.11,210.06L1526.31,210.87L1526.91,210.98L1529.24,210.77L1532.38,210.55L1534.9,209.16L1536.61,207.29L1538.26,206.62L1539.62,206.67L1542.68,207.91L1544.2,209.16L1545.93,209.86L1549.92,210.78L1552.72,211.49L1555.65,212.16L1558.64,214.18L1561.01,215.22L1564.3,216.06L1568.31,217.05L1569.76,217.6L1571.64,218.83L1573.74,219.43L1578.08,220.2L1580.35,220.39L1583.34,220.04L1585.86,219.92L1595.03,220.24L1603.14,219.85L1613.82,219.25L1624.96,219.07L1639.84,218.46L1652.3,217.77L1663.39,216.95L1671.78,216.68L1676.4,215.8L1683.29,215.26L1693.11,214.54L1697.86,213.62L1707.29,210.25L1718.66,206.3L1722.81,206L1728.94,204.02L1734.48,203.33L1736.46,205.01L1737.35,206.4L1739.33,208.57L1741.11,206.79L1742.59,208.57L1742.89,211.04L1744.67,209.96L1745.76,212.23L1746.75,215.89L1746.15,220.74L1749.02,222.02L1750.88,223.4L1753.92,225.34L1756.34,227.81L1759.46,230.58L1761.53,232.16L1764.99,233.79L1768.31,234.93L1772.02,236.51L1775.82,237.94L1778.25,239.07L1781.26,238.69L1783.98,237.94L1787.49,237.85L1797.55,237.29L1806.45,236.36L1810.12,235.75L1813.26,235.22L1817.07,235.37L1821.62,235.84L1827.42,235.84L1831.7,236.23L1832.63,234.98L1833.94,236.1L1841,236.43L1845.09,236.96L1850.36,236.96L1854.19,236.43L1858.28,237.22L1862.03,237.22L1867.44,238.6L1875.55,240.32L1882.34,241.9L1889.26,243.48L1896.32,244.01L1900.67,243.15L1907.66,244.41L1912.34,243.55L1916.23,243.75L1920.06,242.23L1920.52,270.58L1920,1080Z" style="fill:rgb(47,149,200);fill-rule:nonzero;"/>
                <g>
                    <clipPath id="_clip2">
                        <path d="M1920,1080L0,1080L-0.14,427.51L32.49,422.1L61.57,412.8L145.64,394.21L159.29,388.77L174.02,383.82L184.5,380.17L191.33,378.38L207.85,371.56L217.93,368.89L221.1,365.53L225.06,363.35L241.18,358.41L248.36,354.91L250.8,351.15L253.44,351.48L261.62,348.85L266.76,346.01L274.9,341.2L289.64,334.93L296.96,331.37L300.29,331.41L305.79,330.02L309.84,328.49L314.61,329.13L321.53,325.97L323.43,324.06L326.63,324.43L329.35,323.69L332.13,322.98L334.6,322.28L336.42,322.47L338.75,320.47L340.32,320.63L341.41,318.3L343,318.45L344.97,315.37L346.31,315.48L349.08,317.46L352.54,318.35L355.41,317.36L358.08,315.49L362.92,315.88L366.48,315.48L370.54,313.21L373.8,310.74L377.26,311.53L382.41,310.44L387.45,309.45L389.53,306.48L391.11,307.67L393.67,305.52L397.83,304.5L399.22,299.86L403.27,296.4L408.62,294.22L416.63,291.55L422.26,289.08L426.12,286.25L429.68,286.26L431.96,284.13L434.97,282.16L436.65,282.15L437.2,278.3L438.38,276.57L438.98,275.38L440.17,273.75L441.75,273.06L444.76,272.21L447.33,271.08L449.42,269.8L452.63,269.69L454.01,268.06L456.58,266.95L461.59,266.76L465.55,264.58L468.71,265.04L471.29,263.53L472.41,264.32L474.78,262.34L476.23,264.65L477.62,263.59L481.37,262.27L483.68,259.8L487.54,259.01L489.71,255.85L493.47,254.76L496.34,252.48L498.22,251L501.19,250.01L503.34,248.82L506.13,248.63L509.5,247.34L512.95,246.14L518.1,245.76L522.33,243.98L529.57,243.42L534.32,239.4L539.33,237.55L542.9,236.17L545,238.6L547.04,237.55L550.01,240.71L552.78,240.19L559.44,238.01L563.26,238.54L569.33,235.97L574.27,235.18L577.18,233.13L584.83,227.6L587.59,227.33L589.07,225.87L591.68,225.62L594.71,224.16L600.01,221.19L605.92,218.76L616.34,212.82L627.22,208.54L628.6,203.26L630.01,200.32L632.36,200.63L633.27,199.29L635.31,199.01L641.13,199.44L643.73,197.92L648.05,197.33L652.51,194L657.42,193.31L658.3,192.2L661.18,191.79L661.96,189.81L667.84,188.96L670.01,186.91L679.84,180.52L685.31,176.63L691.37,171.94L696.12,168.38L700.19,166.04L702.05,165.17L704.84,164L706.18,161.69L708.25,161.07L710.79,159.38L712.98,157.54L715.25,157.13L716,155L718,154L721,155L724.17,152.88L729,152L734,147L735,144L737,143L741.51,143.35L744,142L743.99,138.59L747,138L749,136L752,137L754,134L756,130L758,130L761,127L763,124L769,120L772,115L775,114L783,110L788,106L790,105L792.49,99.35L795.49,98.16L799,98L800,95L805,89L811,87L817,86L822,84L830,79L832,76L833,74L835,74L838,72L847,68L853.66,64.51L860,62L883,55L941,57L968,62L985,68L1001,73L1007,76L1022,75L1039,73L1058,72L1064,73L1068,75L1076,75L1089,77L1105.19,82.18L1121.13,87.29L1134.19,93.75L1143.15,99.55L1152.27,101.73L1169.31,105.8L1180.87,110.36L1188.38,113.66L1194.58,117.88L1202.63,121.97L1205.92,125.26L1209.09,125.92L1211.59,124.87L1216.34,124.74L1220.03,124.74L1224.38,123.29L1226.89,122.23L1230.45,121.04L1231.24,118.67L1235.13,117.68L1239.38,117.68L1254.77,118.27L1267.37,119.17L1279.64,120.85L1288.74,121.64L1296.45,122.13L1300.6,125.1L1306.04,127.57L1310.7,128.74L1315.49,129.95L1318.01,132.62L1321.13,133.39L1322.26,135.88L1322.46,137.96L1324.38,138.42L1323.85,140.03L1320.68,142.5L1323.06,143.99L1325.43,145.77L1326.22,150.42L1330.18,152.69L1332.45,154.57L1332.85,159.02L1336.41,160.41L1338.29,163.47L1339.87,165.55L1340.96,172.57L1342.54,174.55L1344.91,175.24L1346.59,173.07L1349.36,171.48L1351.93,171.29L1353.12,168.02L1355,169.21L1355.3,172.18L1356.38,171.19L1357.16,171.34L1357.67,172.87L1365.09,175.14L1369.24,179.5L1373.2,180.98L1376.46,183.94L1379.23,185.03L1380.71,186.02L1382.59,183.06L1384.37,180.19L1385.86,181.08L1387.84,180.68L1389.69,181.79L1391.1,181.28L1392.19,183.35L1393.47,184.24L1394.76,185.1L1396.12,184.28L1398.45,184.34L1400.36,180.19L1402.14,179.63L1404.78,180.15L1407.02,181.93L1409.49,182.72L1410.25,184.14L1411.47,184.67L1413.32,183.78L1414.42,183.99L1415.49,185.07L1416.75,187.11L1418.63,187.47L1420.37,187.01L1420.97,185.3L1422.28,185.55L1422.29,186.78L1423.53,186.65L1425.25,186.75L1426.08,187.24L1426.6,189.15L1428.12,189.68L1429.21,190.64L1430.89,190.04L1433.59,189.55L1438.21,189.02L1439.3,189.81L1441.47,189.22L1442.72,188.36L1444.47,188.46L1446.32,187.08L1447.37,187.04L1448.78,187.64L1449.65,187.69L1450.18,186.53L1451.97,186.2L1453.64,186.32L1454.3,187.03L1455.06,187.75L1456.63,187.79L1457.53,189.24L1458.71,189.02L1460.28,189.04L1461.32,190.06L1461.57,191.31L1462.75,191.55L1463.18,192.76L1465.98,192.55L1466.51,192.83L1466.76,194.28L1467.8,194.48L1469.03,194L1469.13,191.67L1470.12,191.24L1471.93,192.35L1473.13,193.12L1473.26,194.56L1476.72,194.6L1480.56,194.71L1482.1,196.09L1484.04,197.22L1485.65,197.72L1487.69,198.11L1488.39,199.91L1489.39,201.24L1491.24,200.76L1492.95,202.64L1493.34,204.07L1495.51,204.1L1497.52,205.01L1499.47,205.73L1501.5,206.09L1502.21,207.65L1505.21,208.41L1508.33,208.37L1511.81,207.96L1513.03,209.05L1514.28,211.34L1516.11,211.66L1518.48,210.4L1519.32,209.49L1520.02,208.3L1520.86,208.3L1521.35,209.51L1521.9,210.35L1523.01,211.14L1524.12,210.3L1525.11,210.06L1526.31,210.87L1526.91,210.98L1529.24,210.77L1532.38,210.55L1534.9,209.16L1536.61,207.29L1538.26,206.62L1539.62,206.67L1542.68,207.91L1544.2,209.16L1545.93,209.86L1549.92,210.78L1552.72,211.49L1555.65,212.16L1558.64,214.18L1561.01,215.22L1564.3,216.06L1568.31,217.05L1569.76,217.6L1571.64,218.83L1573.74,219.43L1578.08,220.2L1580.35,220.39L1583.34,220.04L1585.86,219.92L1595.03,220.24L1603.14,219.85L1613.82,219.25L1624.96,219.07L1639.84,218.46L1652.3,217.77L1663.39,216.95L1671.78,216.68L1676.4,215.8L1683.29,215.26L1693.11,214.54L1697.86,213.62L1707.29,210.25L1718.66,206.3L1722.81,206L1728.94,204.02L1734.48,203.33L1736.46,205.01L1737.35,206.4L1739.33,208.57L1741.11,206.79L1742.59,208.57L1742.89,211.04L1744.67,209.96L1745.76,212.23L1746.75,215.89L1746.15,220.74L1749.02,222.02L1750.88,223.4L1753.92,225.34L1756.34,227.81L1759.46,230.58L1761.53,232.16L1764.99,233.79L1768.31,234.93L1772.02,236.51L1775.82,237.94L1778.25,239.07L1781.26,238.69L1783.98,237.94L1787.49,237.85L1797.55,237.29L1806.45,236.36L1810.12,235.75L1813.26,235.22L1817.07,235.37L1821.62,235.84L1827.42,235.84L1831.7,236.23L1832.63,234.98L1833.94,236.1L1841,236.43L1845.09,236.96L1850.36,236.96L1854.19,236.43L1858.28,237.22L1862.03,237.22L1867.44,238.6L1875.55,240.32L1882.34,241.9L1889.26,243.48L1896.32,244.01L1900.67,243.15L1907.66,244.41L1912.34,243.55L1916.23,243.75L1920.06,242.23L1920.52,270.58L1920,1080Z"/>
                    </clipPath>
                    <g clip-path="url(#_clip2)">
                        <path d="M813.97,79.93L830.99,89.86L830.99,100.38L841.3,107.67L835.33,119.94L849.71,115.56L839.4,133.08L807.11,188.28L809.83,197.62L784.87,226.83L854.86,182.15L888.5,194.12L914.54,174.55L914.54,157.61L956.86,119.94L985.08,109.72L1010.85,128.41L1033.09,165.21L1012.21,192.37L1054.26,195.87L1024.68,223.61L1061.04,303.34L1039.33,227.7L1084.91,202.59L1139.17,309.18L1288.19,364.47L1164.85,266.74L1159.79,182.24L1117.1,135.52L1208.26,215.73L1222,260.51L1248.04,213.78L1295.07,203.66L1251.52,154.3L1213.32,110.98L1050.32,55L816.88,17.92L813.97,79.93Z" style="fill:rgb(84,175,221);fill-rule:nonzero;"/>
                        <path d="M1731.18,201.32L1551.94,224.16L1530.32,213.62L1323.02,241.57L1530.85,227.33L1556.16,244.21L1752.9,211.23L1731.18,201.32Z" style="fill:rgb(84,175,221);fill-rule:nonzero;"/>
                    </g>
                </g>
                <path d="M817.7,221L808.21,246.32L734.36,284.3L822.45,252.65L817.7,221Z" style="fill:rgb(84,175,221);fill-rule:nonzero;"/>
                <path d="M369.84,362.89L417.22,354.45L564.76,271.37L417.22,349.04L369.84,362.89Z" style="fill:rgb(84,175,221);fill-rule:nonzero;"/>
            </g>
        </g>
    </g>
    <g id="BG_1">
    </g>
</svg>
