<?xml version="1.0" encoding="UTF-8" standalone="no"?>
<!DOCTYPE svg PUBLIC "-//W3C//DTD SVG 1.1//EN" "http://www.w3.org/Graphics/SVG/1.1/DTD/svg11.dtd">
<svg width="100%" height="100%" viewBox="0 0 1920 1080" version="1.1" xmlns="http://www.w3.org/2000/svg" xmlns:xlink="http://www.w3.org/1999/xlink" xml:space="preserve" xmlns:serif="http://www.serif.com/" style="fill-rule:evenodd;clip-rule:evenodd;stroke-linejoin:round;stroke-miterlimit:2;">
    <g id="BG_2">
        <g>
            <path d="M1920,1080L0,1080L0,850L89,815L158,838L233,858L291,846L313,833L352,854L371,837L397,827L425,849L454,852L496,873L546,865L576,852L589,843L620,846L666,854L690,844L704,818L726,797L738.25,772.41L746,766L762.98,773L792,794L842,810L859,826L880,834L897,853L923,857L943,864L976,873L1003,888L1039,883L1058,873L1077.92,863.6L1094,869L1104,880L1123,887L1135,881L1165,898L1179,914L1196,923L1207,912L1213,904L1223,897L1234,901L1243,902L1248,911L1255,917L1267,911L1279,909L1295,910L1330,923L1352,937L1384,937L1400,926L1427,919L1451,924L1478,939L1502.53,934.49L1540.82,940.26L1573,949L1622,947L1666,935L1716,937L1758,928L1789,906L1827,896L1849,879L1861,859L1880,855L1897,859L1911,850L1920,850L1920,1080Z" style="fill:rgb(210,234,246);fill-rule:nonzero;"/>
            <path d="M621,678.53L614.38,678.53C613.73,680.16 615.5,680.19 615.76,681.19C618.25,682.74 621.26,680.72 623.93,682.41L622.55,684.14C623.2,686.57 625.98,686.19 627.37,687.64L625.37,689.81C630.02,691.06 632.88,684.67 638.05,687.81L632,692.31C633.91,694.12 635.27,693.82 636,692.45C637.34,690.04 640.46,690.71 641.61,688.62C644.77,689.94 643.85,692.96 644.76,695C648.13,696.26 648.41,691.81 650.99,691.87C652.43,691.63 652.71,693.17 654.18,693.71L660.62,690.48L662.42,692.28C662.51,692.48 662.73,692.79 662.67,692.87C655.86,700.87 646.5,702.74 636.74,704.05C635.14,700.98 632.04,700.45 629.66,698.87C627.9,699.94 627.6,701.94 626.66,703.54C623.66,704.44 623.32,701.06 620.66,700.37C617.72,703.09 613.43,701.59 609.07,702.17C609.07,704.05 610.71,705.38 611.79,705.24C615.97,704.71 616.7,707.81 617.95,710.31C621.27,711.39 622.95,708.95 624.78,707.04C627,709.17 624.92,710.11 624.02,711.29C624.642,711.84 625.178,712.481 625.61,713.19C625.91,713.89 625.41,714.89 626.73,715.46L629.66,715.46C632.08,716.94 628.9,721.06 632.75,722.02L638.59,722.02L641.45,719.15C643.05,720.327 645.059,720.81 647.02,720.49L649.8,716.96C651.9,718.38 650.32,720.42 651.37,721.8C654.23,720.22 658.37,721.27 659.83,717.37L664.6,719.64C659.5,725.07 652.89,727.23 646.28,729.64C639.06,732.26 632.42,730.33 625.79,727.45C625.24,730.83 628.04,731.54 629.34,734.1C626.15,734.1 623.34,734.54 620.7,733.97C618.06,733.4 615.99,731.81 613.7,730.72C611.93,730.81 612.08,732 612.09,733.12C610.97,735.3 608.22,732.97 607.02,734.94C605.82,736.91 603.02,734.57 601.8,737.08C602.71,741.59 609.18,741.02 610.16,745.03C611.14,749.04 616.08,750.09 616.07,755.26C618.441,753.048 621.745,752.122 624.92,752.78C626.27,753.4 624.84,755.66 626.92,756.08C629.27,755.88 630.56,753.21 633.19,753.21C634.57,753.15 633.86,754.51 634.38,755.7L645.38,755.7L648.51,752.7C649.297,753.134 649.631,754.103 649.28,754.93C647.73,758.38 645.43,761.31 641.78,762.57C640.44,763.03 639.22,763.34 638.38,764.45L623.13,764.45C621.92,762.39 619.13,762.82 617.61,760.87L612.14,763.6L615.32,766.78C613.06,768.92 611.48,767.29 609.32,766.32C607.47,765.48 604.93,766.15 602.8,766.15C600.26,769.04 596.44,768.78 593.24,770.52C595.24,777 604.61,775.86 605.99,783.04C607.908,782.91 609.832,782.91 611.75,783.04C613.75,783.32 615.08,782.04 616.8,781.61C617.32,783.12 617.68,784.31 615.56,784.71C613.44,785.11 612.08,786.28 612.1,788.62C619.87,791.42 619.87,791.42 627.85,789.74C629.73,790.62 629.06,793.02 630.08,793.82C626.08,799.33 619.6,795.12 614.25,797.9C609.17,800.53 603.25,795.38 597.64,796.59C596.31,797.88 598.03,797.93 598.07,798.43C598.97,799.85 596.81,799.89 597.2,801.05C599.05,802.26 601.43,801.12 603.52,801.71C602.9,804.22 599.81,804.71 600.29,807.45C602.06,809.56 602.4,805.45 604.29,806.53C605.51,807.26 607.53,806.09 608.78,807.38C608.7,808.23 608.85,808.95 608.56,809.28C607.26,810.74 605.83,812.08 604.9,813.01C596.09,815.01 588.63,810.28 579.31,809.66L583.31,814.44C583.94,816.32 581.81,816.74 581.65,818.38C581.55,820.18 583.58,820.71 584.43,822.06C585.54,823.82 587.25,823.48 588.9,823.54C591.06,823.61 589.17,826.99 591.58,826.9C593.28,826.83 594.96,826.79 595.93,828.45L602.01,824.92C603.31,824.38 603.77,827.24 605.69,826.92C607.219,826.832 608.753,826.892 610.27,827.1C610.68,829.39 609.74,829.62 608.27,830.39C603.27,833.09 597.76,833.65 592.52,835.19C588.83,836.27 585.02,834.9 581.42,833.19L576.66,837.47C573.66,833.16 568.51,837.09 564.46,833.01C565.46,839.69 571.46,839.93 573.84,843.57L579.58,843.87C579.84,846.56 577.15,844.45 576.84,845.97C577.54,849.74 581.32,847.97 583.46,849.6L580,851.44C583.17,854.31 585.48,849.89 588.34,850.64L596.8,852.86C597.24,855.69 595.6,856.99 593.28,857.35C587.91,858.18 582.63,859.88 577.08,859.1C576.034,859.03 574.986,859.03 573.94,859.1C573.47,860.38 573.11,861.35 572.65,862.58L553.44,862.58C555.39,864.22 557,866.12 560.76,866.03C557.12,867.8 558.7,870.45 557.66,872.22L554.1,873.45C561.6,875.8 568.67,877.67 575.28,881.11L577.74,879.59C578.95,880.77 578.06,882.26 578.36,883.59C581.61,885.04 584.7,888.32 588.02,884.52C589.81,884.22 590.18,885.61 591.02,886.11C592.138,886.424 593.334,885.919 593.89,884.9C598.24,886.9 602.58,886.44 607.05,885.35C612.45,884.02 617.75,881.63 623.48,883.09C624.97,885.79 622.66,887.09 621.28,887.72C613.159,891.32 604.749,894.231 596.14,896.42C592.69,897.26 588.86,899.22 586,897.63C582.9,895.91 580.18,896.73 577.37,896.28C576.06,897.9 578.17,897.96 578.28,899.44L558.48,899.44C558.16,902.33 560.65,900.6 561.05,901.83C558.63,905.11 554.81,904.65 551.32,905.38C556.71,907.08 562.18,905.93 567.55,906.61C565.69,910.52 560.08,908.61 557.55,913.61C566.81,910.47 574.84,912.82 582.55,914.91C584.31,916.39 582.36,918.53 583.9,919.66C585.68,920.52 586.54,919.31 587.75,918.03C590.36,918.77 592.84,921.26 595.44,919.66C597.5,920.59 596.18,922.77 597.94,923.3C601.51,922.94 603.94,918.65 608.18,920.24L609.32,923.42L612.93,919.96L615.02,921.87L621.74,918.47C622.45,919.91 622.47,920.63 620.81,921.69C611.24,927.69 600.92,932.02 590.35,935.9C586.16,937.43 582.11,936.09 578.24,936.9C571.05,932.9 569.16,932.2 565.09,932.2C565.41,933.93 567.09,934.55 568.09,935.98C567.75,936.23 567.39,936.75 567.02,936.76C565.36,936.76 563.02,937.35 562.14,936.49C559.33,933.92 556.32,935.85 553.23,935.97L566.23,940.56C564.3,945.86 559.18,942.01 556.3,944.36C558.05,946.36 560.57,944.44 562.53,945.57C563.53,946.64 562.01,946.73 561.78,947.33C560.78,949.82 557.68,947.61 555.91,950.02L565.26,950.02C567.07,951.63 565.18,951.93 564.87,952.75C565.1,954.61 568.47,952.66 568.1,955.33C568.47,958.05 565.21,956.24 564.77,958.08C567.24,959.71 570.21,957.95 572.77,959.17C573.51,960.31 571.85,960.17 572.21,961.87C573.42,962.72 575.55,961.87 577.66,962.19C577.96,963.08 578.3,964.06 578.66,965.06C579.93,966.37 582.03,964.55 583.25,966.26C579.77,971.2 573.8,971.47 569.04,971.87C563.58,972.33 558.72,975.65 553.04,974.27C555.45,976.41 558.23,975.1 562.04,976.21L564.79,978.95L572.48,975.13C573.48,978.19 569.73,977.85 570.26,979.99C571.04,981.86 574.34,982.48 573.16,985.79C576.8,985.88 578.43,983.3 581.02,982.7C581.94,983.97 582.08,986.08 584.24,987.38C587.11,984.63 589.78,981.1 594.41,980.76C595.99,982.59 592.12,982.95 593.41,984.9C594.08,985.9 592.96,987.64 593.86,988.71C596.05,990.27 596.76,987.65 598.45,987.41C599.98,986.9 600.25,989.41 602.45,989.08C603.93,986.76 606.81,987.56 609.45,987.46C609.61,984.07 613.2,984.28 615,982.17C617.61,983.53 620.38,985.55 623.27,982.63C624.41,984.32 623.63,985.36 622.44,986.23C623.05,987.64 623.63,988.99 624.22,990.34C627.08,988.72 630.94,988.04 633.14,989.64C635.84,991.64 639.23,985.13 640.14,991.85C643.41,988.21 646.87,989.39 649.88,988.93C654.43,987.98 655.81,983.85 658.31,980.71L660.16,982.33C661.32,980.73 661.49,978.33 663.71,977.48L666.11,979.88C666.29,985.41 663.74,991.06 662.88,997.28L688.54,997.28C684.54,989.39 684.66,981.06 682.69,973.49C684.98,970.71 687.82,969.88 690.31,968.6C692.51,970.67 690.65,973.19 691.78,975.16C692.87,976.09 692.92,974.52 694.19,974.3C694.77,976.95 697.02,978.63 698.92,980.59C700.27,980.13 699.67,978.8 700.29,977.59C704.63,978.66 704.29,984.27 707.21,985.47C709.78,986.33 710.03,983.84 712.21,984.14C713.42,987.28 717.07,988.25 719.52,990.66L720.78,989.41C722.86,989.86 723.38,992.98 726.06,992.51C728.36,990.74 725.71,987.6 727.75,985.69C731.67,985.64 732.22,990.69 735.88,990.84C738.56,989.98 735.88,987.08 738.3,985.6L741.83,990.2C746.34,991.84 747.76,989.42 749.96,987.2L752.96,991.71C753.6,988.47 755.08,987.27 757.23,986.71C756.87,985.5 755.06,984.93 755.72,983.3C756.19,982.47 756.93,982.38 757.79,982.3C760.48,981.96 762.44,985.59 765.47,983.6C765.64,981.21 761.15,980.85 763.12,977.21C766.12,977.4 769.21,980.55 772.91,978.07C768.02,975.39 762.66,975.13 756.74,973.07L761.03,971.53C763.48,970.1 765.87,972.46 768.7,973.62C769.06,972.62 769.43,971.68 769.77,970.77C772.52,969.61 773.97,973.86 776.48,972.31C777.97,971.67 777.57,970.39 778.04,968.95L784,972L785.13,969L789.06,968.57C789.54,966.27 786.57,966.18 786.5,964.15C790.39,962.15 794.02,967.69 798.1,964.57L788.44,959.81C790.295,957.917 792.686,956.636 795.29,956.14C791.57,954.6 788.29,955.75 785.29,955.14C784.34,954.57 784.54,953.68 784.5,952.46C782.18,950.88 778.5,953.13 776.33,950.26C775.98,949.81 774.23,950.26 773.2,950.54C766.2,952.47 760.2,952.38 754.2,950.18C751.47,949.18 751.2,948.69 751.2,943.72C752.97,944 753.56,945.72 754.95,946.72C758.14,944.41 752.49,942.82 754.39,940.72C754.79,939.95 755.04,940.07 755.61,940.62C758.54,943.47 760.98,946.93 765.46,948.15C767.04,946.72 765.33,944.3 766.24,942.39C766.63,941.61 767.04,941.59 767.43,942.39C768.66,944.81 771.68,944.71 773.34,946.56C776.65,945.68 776.21,942.64 776.26,940.44C779.53,939.37 781.45,944 784.4,941.16C785.4,938.27 782.28,937.71 781.28,935.93C781.715,935.271 782.501,934.929 783.28,935.06C785.156,935.066 787.007,935.501 788.69,936.33C791.14,937.59 794.54,937.55 796.45,933.21C792,934.1 788.45,932.01 784.57,930.94L787.87,927.4C787.4,927.13 786.94,926.65 786.48,926.65L766.21,926.65C764.249,926.816 762.275,926.786 760.32,926.56C758.86,926.25 757.6,925.06 755.72,923.96C760.53,922.51 764.42,918.38 770.47,921.18C770.41,918.34 773.71,918.47 775.19,916.58C776.28,917.26 776.88,919.02 778.73,918.03C779.48,917.63 779.52,916.81 779.46,915.73L771.46,911.73L783.28,911.73C784.82,910.49 784.48,909.64 784.38,908.13C779.44,909.47 775.22,905.68 769.74,906.56C769.02,903.2 768.52,900.14 772.1,897.96C774.82,897.58 775.24,900.87 777.41,901.35C783.25,900.42 785.17,895.44 787.91,891.29C788.26,888.55 785.04,890.29 784.54,888.67L784.54,886.31C788.61,886.9 792.04,884.45 796.16,883.96C796.16,883.22 796.22,882.46 796.26,881.73C793.49,879.52 792.13,884.08 789.42,882.87C787.51,882.02 785.03,883.46 782.83,882.09L786.19,878.48C784.39,877.19 782.71,877.07 780.98,878.68C779.25,880.29 777.24,879.09 775.41,879.39C774.12,878.84 774.51,877.55 774.22,876.66C770.22,874.2 766.98,878.34 763.22,877.66C758.22,881.25 753.63,877.55 748.97,876.66C745.083,875.985 741.391,874.47 738.15,872.22C736.56,871.62 737.59,869.22 735.62,868.52C735.96,867.64 736.62,867.59 737.5,867.52C740.5,867.29 742.44,870.04 745.21,870.52C747.27,868.19 742.48,867.03 744.33,864.61C745.67,863.75 745.67,865.9 747.63,865.76L752.41,863.41L750.63,861.41C753.63,859.22 755.3,863.41 758.29,862.68C760.88,862.01 762.56,858.8 765.81,860.03C765.32,859.45 764.81,858.87 764.08,858.03C767.08,857.26 770.08,856.73 772.59,854.77C770.72,853.09 768.23,854.77 765.32,853.32L778.81,847.92C775.14,847.26 773.02,846.92 770.22,848.53C768.12,849.77 764.7,849.37 762.02,848.86C759.16,848.32 757.16,850.97 754.15,850.57C754.72,849.38 755.15,848.57 755.49,847.81C740.61,850.08 727.42,847.81 718.18,841.16C721.72,840.63 724.69,839.8 726,837.38C728.3,836.7 728.77,838.71 730.46,838.94C732.41,839.47 732.46,835.07 735.96,838.21C734.83,835.86 734.45,835.09 734.08,834.32C737.77,832.12 738.01,837.91 741.4,837.02C743.82,835.6 740.93,832.39 742.93,830.58C745.24,831.65 746.23,835.58 750.86,832.79L752.86,830.79C754.22,830.61 754.64,832.79 756.25,832.12C758.3,831.92 756.71,829.54 758.1,828.93C759.8,828.17 760.65,829.4 761.78,830.6C765.59,829.97 768.21,825.87 772.91,827.13C771.72,824.63 769.4,824.04 769.17,821.19C770.68,819.33 775.24,821.41 775.73,817.33C770.36,816.9 765.3,814.94 759.73,815.08C754.65,815.2 749.6,815.65 744.27,813.91C739.21,812.26 733.19,813.56 727.82,813.56L725.57,811.2C727.06,807.04 730.93,809.2 733.37,808.2C733.947,807.241 733.807,806.005 733.03,805.2C726.03,805.96 719.74,802.11 713.03,799.99C711.181,799.487 709.961,797.695 710.17,795.79C713.99,793.5 716.94,795.21 719.6,798.66C720.11,797.26 720.47,796.29 721.18,794.38L723.67,798.65C725.57,797.73 726.1,795.82 728.26,797.14C728.42,797.62 728.76,798.6 729.18,799.83L737.83,799.83L740.2,797.46L741.07,799.84C743.64,800.71 744.07,799.22 744.14,796.77C746.7,796.98 749.41,795.61 751.57,798.37C753.33,796.69 754.78,794.59 757.45,794.2C756.65,793.15 755.02,792.49 756.36,790.09C758.36,788.99 762.74,791.67 763.94,786.75C759.94,786.38 755.83,786.69 753.33,782C752.51,780.45 748.97,779.48 746,779.72C738.89,780.28 732.53,777.32 726.18,774.64C725.18,774.23 724.57,773.1 723.77,772.3C722.37,769.99 726.58,769.4 725.36,767.13C724.18,765.4 722.14,766.99 721.11,766.2C720.08,765.41 720.34,764.45 720.41,763.6C722.11,762.15 724.16,763.26 726.06,762.89C728.78,765.08 730.61,768.43 735.23,769C737.98,767.86 740.36,765 743.1,761.54L749.81,761.54C750.388,758.439 752.807,755.989 755.9,755.37C753.33,753.5 750.41,755.17 747.9,754.19C747.53,753.19 747.15,752.25 746.76,751.19C745.21,752.78 742.61,752.43 741.43,754.45C736.82,754.33 731.82,755.45 728.43,750.79C730.54,748.17 733.57,750.4 735.61,748.74L733.88,746.79C735.97,744.64 737.22,747.01 738.07,747.79C741.77,747.35 741.89,744.43 743.31,742.58L746.57,742.58C748,741.43 747.07,739.91 747.38,738.53C749.13,737.53 751.27,736.99 752.64,734.37L741.21,734.37C740.65,732.8 740.31,731.82 739.86,730.55L730.61,734.01C724.95,731.89 718.04,732.21 711.82,728.26C715.23,726.41 718.74,725.01 721.49,722.26C724.24,719.51 725.35,715.16 729.88,714.26L731.04,715.26C735.97,713.48 739.62,709.26 745.18,710.69C745.51,708.69 743.26,708.3 744.27,706.03C747.399,705.488 750.386,704.318 753.05,702.59C749.05,702.08 745.85,701.31 742.74,703.45L740.86,701.57C741.22,700.83 741.6,700.05 742.19,698.81C738.19,699.13 735.53,701.04 733.12,703.7C731.62,702.2 731.8,699.89 729.26,698.47C731.41,697.05 732.8,696.12 735.66,694.21C729.92,693.85 726.15,692.42 722.66,695.21L720.41,692.83C719.967,691.648 720.551,690.308 721.72,689.83C727.5,687.93 731.97,683.83 737.05,680.83L735.84,679.62C735.73,677.32 738.45,679.54 738.61,676.99L736.53,675.05C733.88,675.13 732.53,677.98 729.23,676.39L726.79,672.25C723.67,675.16 720.79,675.39 717.63,675C716.31,674.4 717.69,672.17 715.36,671.6L705.13,676.87C697.78,671.38 688.42,668.39 683.13,660.29C682.99,658.42 684,658.19 685.51,658.2C687.34,662.65 690.87,664.41 695.75,665.2C699.39,665.77 703.56,666.4 706.28,670.57C706.6,669.03 706.76,668.26 706.96,667.27C708.96,667.16 710.96,669.92 713.23,667.83C712.41,664.27 706.33,665.51 706.83,660.13C709.46,660.37 710.28,664.04 713.46,663.55C715.34,663.26 717.58,665.36 719.66,666.39L721.99,661.76C721.78,659.53 719.41,659 718.79,657.21C719.242,656.458 720.219,656.192 720.99,656.61C722.71,658.42 724.21,660.44 725.35,661.84C727.86,661.4 729.35,662.22 730.42,660.77C730.86,658.11 727.94,657.47 727.15,655.19C732.15,654.19 737.7,656.33 741.96,652.37C739.09,648.89 734.82,650.05 731.28,649.76C729.42,648.31 731.45,646.15 729.33,644.58C723.44,647.58 718.04,652.58 710.79,653.24C710.14,650.62 713.23,650.6 713.3,648.06C708.38,648.42 705.09,652.93 700.43,653.12C695.43,653.34 690.37,653.12 685.13,653.12L685.13,644.99C687.84,644.05 687.87,645.64 688.46,647.32C688.97,648.77 691.86,647.55 692.16,649.91C694.16,648.56 692.55,646.51 693.6,645.16C695.99,642.82 697.1,647.87 699.48,646.07C702.38,643.66 696.67,642.66 698.75,639.91L704.88,642.96C705.62,641.96 706.64,640.66 707.13,640.02C710.43,638.46 711.85,641.19 714.19,641.34L716.52,639.2C716.92,638.78 716.52,638.54 716.17,637.95C714.37,634.75 710.86,637.29 708.78,635.8C706.78,632.09 712.4,633.8 712.14,630.44C711.95,628.1 715.62,627.64 719.36,627.44C717.05,625.76 716.55,623.44 713.62,624.52C714.62,620.96 718.76,620.31 718.62,616.08C712.95,616.85 708.69,620.32 703.72,622.73C701.51,622.73 700.11,619.14 695.84,622.5C697.84,617.87 701.42,616.87 701.72,613.78C699.47,609.68 697.72,616.07 695.26,613.78C694.739,611.905 694.719,609.926 695.2,608.04C697.76,606.04 698.93,610.8 701.36,608.72C702.78,605.83 699.55,605.26 698.5,603.4C700.61,600 702.78,596.51 704.93,593.03C701.52,590.17 699.02,595.54 695.52,593.86L694.57,591.11C694.17,590.56 693.87,590.73 693.35,591.34C692.46,592.34 691.35,593.11 691.52,594.83C691.98,598.68 689.73,601.42 686.95,604.75L686.95,592.88C689.908,589.163 692.525,585.187 694.77,581C693.39,579.75 692.34,580.37 691.26,581.51C689.51,583.34 687.69,585.1 685.46,587.33C684.26,583.97 684.97,580.77 684.84,577.68C684.71,574.59 684.84,571.68 684.84,567.48C682.44,571.36 681.02,574.05 681.41,577.48C681.71,580.16 681.41,580.18 678.94,583.98C677.44,580.78 675.94,577.74 671.36,576.5C672.96,581.39 675.68,584.74 678.22,587.97C681.36,591.97 682.02,595.97 681.07,600.97C674.94,599.79 676.14,593.2 672.28,590.75C670.86,591.05 671.54,592.4 671.08,593.42C668.29,593.42 666.53,590.34 662.73,590.63C663.58,592.63 665.29,593.47 666.18,594.84C664.87,597.58 661.1,596.99 659.68,600.16C663.92,601.62 668.68,599.8 673.15,601.16C670.32,603.75 665.64,603.34 664.34,608.25C667.34,609.79 671.24,608.36 673.34,611C675.34,610.09 673.98,607.87 676.12,607.33C678.78,607.41 679.33,610.62 681.96,611.61C678.96,617.22 679.96,623.05 679.72,629.24C675.12,629.82 671.31,627.96 669.33,624.51C667.67,621.63 664.21,619.71 664.33,615.51C664.33,614.08 662.07,612.56 660.81,611.04C659.05,611.6 657.6,612.95 655.19,612.32L650.73,607C648.73,608.42 649.55,610 649.23,611.72L653.33,614.12C650.87,617.22 647.75,614.54 645.74,616.81C646.57,620.81 650.74,621.91 652.27,625.24C650.16,626.97 647.1,627.45 644.1,628.24C646.34,631.24 650.21,631.46 651.95,634.37C653.735,634.686 655.571,634.187 656.95,633.01L659.36,635.07C659.84,637.07 658.44,637.79 657.26,639.07C655.08,640.38 652.08,638.43 649.6,639.95C650.45,642.95 652.94,642.87 655.35,642.95C656.7,644.08 655.75,645.6 656.05,646.87C656.58,648.2 657.9,647.71 658.89,648.16C659.74,649.1 659.74,650.06 658.61,651.32C655.03,651.16 652.52,647.05 648.47,647.91C646.97,648.91 647.82,650.42 647.57,651.79C644.81,653.85 641.84,655.44 638.2,654.45C637.66,658.11 633.64,658 632.5,660.68C637.55,664.45 641.02,665.07 646.94,663.27C648.59,664.46 646.67,666.59 648.55,668.27C652.55,667.82 653.84,663.27 657.12,661.49L660.27,661.49C661.051,661.933 661.39,662.895 661.06,663.73C660.654,664.449 660.134,665.097 659.52,665.65C661.31,667.88 664.1,666.47 667.73,661.45C670.52,661.07 668.82,664.25 670.84,664.98C675.53,663.49 675.92,659.05 676.75,653.68C678.55,656.96 678.27,659.13 677.33,661.25C676.39,663.37 675.21,665.43 673.87,668.04C671.17,670.29 667.3,669.92 663.61,669.88C661.83,671.69 665.67,671.71 662.8,674.75C661.36,675.33 658.59,678.43 654.14,675.68C651.07,673.78 647.39,672.89 645.03,670.03C643.86,670.69 644.33,671.63 644.12,673.03C640.42,672.76 637.53,674.25 636.66,678.35C632.48,678.68 629.2,675.98 624.66,674.82L623,679.48L621,678.53Z" style="fill:rgb(210,234,246);fill-rule:nonzero;"/>
            <path d="M187,793.8C187.16,790.87 189.69,789.91 191.62,787.3C186.75,785.74 182.62,783.3 184.49,777.51L179.67,775.81C179.74,774.45 178.98,773.18 180.88,772.09C186.98,770.78 189.62,778.16 194.99,779.37L196.99,776.45C191.43,771.96 189.32,764.23 182.29,760.74C183.13,759.27 184.47,759.93 185.58,759.74C186.536,759.022 187.021,757.832 186.84,756.65C186.84,755.51 187,754.36 187.09,753.28C196.38,751.28 205.37,748.67 214.28,750.46C216.15,748.46 216.2,747.14 215.12,745.81C211.79,743.53 210.59,748.65 207.12,747.47C204.63,744.33 200.31,741.96 198.24,736.73C206.44,733.38 210.39,740 215.45,742.96C220.01,742.65 217.14,737.5 220.45,736.65C217.45,733.8 216.22,737.26 214.28,737.74C211.85,735.52 215.73,730.86 210.49,729.93C212.75,728.26 213.8,726.7 213.56,723.45C219.7,725.45 224.06,719.89 230.26,721.32C230.44,715.45 226.12,714.13 224.16,711.67C221.64,711.16 220.77,712.67 219.24,714.1C218.24,708.44 212.62,705.99 210.24,701.66C213.45,697.86 217.04,700.57 219.84,699.06C221.69,696.59 219.84,693.67 220.84,691.26C218.14,688.41 216.46,690.26 214.69,692.15C211.62,689.94 215.69,685.02 210.09,683.83C212.09,683.1 213.03,682.43 213.47,682.66C219.11,685.66 223.64,690.51 229.68,693.03C230.3,693.29 230.29,695.09 230.68,696.62L243.98,696.62L246.98,693.51C239.75,689.82 230.78,689.32 223.58,682.03C232.75,677.92 238.68,683.22 245.34,685.29L249.65,681.5L242.31,674.16L244.53,671.95C242.61,669.4 240.81,666.6 235.05,669.47L232.6,672.88C228.86,672.78 226.08,673.65 223.38,672.21C223.69,671.63 223.85,670.79 224.29,670.59C229.72,668.2 235.77,666.94 239.99,661.91C235.42,659.57 230.46,662.07 226.81,660.68L235.81,651.56C238.49,652.56 242.81,656.82 246.54,650.45C249.02,645.95 245.64,641.92 244.19,636.95L258,641.69C260.1,639.25 259,637.84 257.43,636.29C252.28,631.1 246.26,626.51 244.43,618.63C250.62,620.13 250.62,620.13 258.79,616.71C256.97,612.71 253.74,609.26 254.34,604.4C258.17,602.71 261.56,600.49 263.72,596.78L261.89,595L268.47,589C270.01,593 263.31,596.5 267.47,600.54C270.77,602.54 271.62,596.54 275.64,598.71C274.17,601.71 272.53,605.14 273.83,608.38C272.35,611.55 268.07,612.38 269.09,617.38C274.58,617.25 279.2,613.53 284.54,612.76C286.21,615.1 286.88,617.13 283,617.56C280.7,617.82 280.81,619.36 280.89,621.04C284.05,624.77 286.89,621.4 289.77,620.48C290.758,621.222 290.993,622.627 290.3,623.65C288.36,625.42 285.23,625.48 283.3,628.72L283.3,635.62C279.53,639.79 278.48,633.45 274.22,635.03L272.22,639.03L274.8,641.62C280.85,641.05 286.05,635.83 293.02,637.16C289.02,645.23 278.02,646.04 276.61,656.25C286.05,655.58 293.8,651.25 301.02,645.93C301.81,647.16 302.49,647.75 302.58,648.43C303.12,652.43 296.82,652.91 297.8,657.27C289.7,659.11 289.8,670.46 281.06,671.55C282.23,674.19 284.54,672.39 285.88,673.15C290.31,671.65 291.76,667.05 296.3,665.43C300,664.11 302.49,659.43 305.51,656.21C309.21,659.81 307.59,662.39 304.78,664.88C301.43,667.88 301.37,670.88 304.85,674.05C301.332,679.107 295.816,682.428 289.7,683.17L296.39,689.86L293.02,693.57C295.25,695.8 297.53,695.13 302.32,690.82C301.75,690.25 301.15,689.71 300.64,689.1C300.5,688.94 300.64,688.55 300.7,687.84L308.7,687.84C311.48,682.77 317.87,682.74 320.46,677.59C322.46,680.33 322.38,682.41 320.84,685.13C317.55,690.95 318.43,698.75 312.27,703.27C312.14,709.49 306.97,708.79 303.1,709.88C302.77,713.37 306.69,710.2 307.2,713.05L307.2,715.62C305.08,717.04 305.03,713.94 303.5,714.39C299.27,721.6 307.35,725.15 308.01,730.81C316.19,727.02 325.68,727.81 332.35,719.81C335.72,726.97 331.98,730.94 328.68,734.81C327.83,735.81 324.95,735.81 324.81,736.61C323.71,743.01 316.23,744.61 314.53,750.82C318.92,756.1 322.74,748.66 326.84,750.15C332.2,745.23 340.04,744.01 344.78,738.15C347.19,740.28 349.96,742.24 347.32,747.54L334.32,759.72L330.23,759.91C327.07,762.37 326.15,766.22 324.23,769.44C324.23,771.96 326.92,772.31 327.4,773.92L346.4,764.44C350.4,768.67 350.4,768.67 349.7,774.22L347.14,771.89C346.102,772.521 345.638,773.8 346.03,774.95C346.572,775.976 347.263,776.916 348.08,777.74C346.51,782.12 342.01,781.35 338.97,781.96C338.35,784.62 339.12,785.9 340.65,786.96C340.73,789.17 336.5,791.05 339.99,793.56C349.72,790.41 355.78,781.9 364.22,774.45C366.14,781.12 361.22,784.55 362.84,788.74C361.7,789.87 363.22,788.41 362.07,789.53L362.84,788.74C366.84,788.74 364.23,793.9 367.46,794.52C365,798.85 358.96,798.41 356.72,801.52C354.48,804.63 350.58,806.26 349.72,810.35L344.58,810.35L340.42,819.83C350.75,817.64 357,811 364,806C365.16,812.39 364.65,813.76 357.75,821.63L357.75,829C353.75,830.75 349.55,828.39 346.26,830.51C343.75,835.85 351.73,832.95 350.79,836.93C348.09,839.29 344.79,839.35 341.48,839.37C344.79,839.37 348.09,839.29 350.79,836.93C356.15,836.77 361.7,838 367.18,833.04C363.33,843.39 358.73,847.29 349.66,848.98C348.55,849.18 347.43,848.74 346.33,849.73C344.65,851.25 343.67,853.82 340.83,853.81C338.513,853.68 336.191,853.94 333.96,854.58C340.68,858.21 348.78,853.38 355.68,859.14C358.68,852.73 365.79,859.53 369.61,853.98C368.84,863.67 357.36,861.36 354.85,868.04C352.15,875.21 342.85,875.04 340.28,882.44L327.68,882.44C326.97,884.22 326.04,886.56 325.41,888.16C317.46,886.06 313.1,890.77 307.61,891.61L312.34,893.36C309.94,896.36 304.94,892.82 303.59,897.07C302.33,894.07 298.22,895.59 296.41,891.68C295.6,893.46 294.97,894.84 293.67,897.68C293.79,899.36 297.5,899.07 299.86,900.53C299.02,903.41 296.63,901.42 294.86,902.14C291.31,899.83 288.32,897 287.17,892.62C284.81,894.08 282.79,895.7 282.88,899.2L273,899.2C271.783,899.94 271.058,901.286 271.11,902.71C269.75,914.17 275.11,925.12 273.59,936.59C273.461,938.394 273.461,940.206 273.59,942.01C271.22,943.57 269.26,942.88 266.59,942.8C265.59,929.41 268.14,915.55 262.8,902.38C254.52,900.26 246.46,904.03 238.11,904.96L234.05,909C229.24,906.23 222.43,906.33 220.76,899.41C221.865,898.557 223.096,897.882 224.41,897.41C223.095,897.88 221.864,898.555 220.76,899.41C216.66,900.5 214.43,896.84 210.56,896.2L220.51,891.2L220.51,887.86L182.51,887.86C183.25,883.44 186.11,885.96 188.02,884.98C188.02,881.84 192.82,880.3 191.55,876.8C190.31,875.02 189.05,875.6 187.92,875.57C185.92,876.5 187.85,879.68 184.43,880.51C180.11,878.68 177.55,873.85 173.32,870.69C170.92,870.29 168.08,871.4 164.38,869.31L170,866C167.87,861.66 166.27,858.39 164.86,855.49C166.01,853.64 167.86,853.29 168.32,853.86C172.69,859.13 179.74,859.63 185.07,864.68L190.32,857.24C191.64,857.41 191.32,856.96 190.52,856.24C187.91,853.99 186.09,850.79 181.68,851.16C180.24,851.29 178.6,849.06 177.17,847.99L177.17,840.41C179.67,838.04 184.68,840.84 186.17,836.24L177.37,826.24C178.01,824.31 179.91,825.17 181.58,824.3C181.58,821.51 177.95,821.01 177.35,818.08C180.78,817.81 183.88,816.72 187.29,819.14C194.29,824.14 201.49,823.48 208.44,818.92C204.21,812.62 194.44,813.85 190.38,805.74L185.48,805.42C184.38,799.48 179.99,797.72 174.82,797.89L174.82,794.65C177.38,792.05 179,794.04 180.68,795.81C182.184,793.91 184.708,793.115 187.03,793.81C187.895,795.134 189.203,796.109 190.72,796.56C189.199,796.097 187.884,795.121 187,793.8Z" style="fill:rgb(210,234,246);fill-rule:nonzero;"/>
            <path d="M1165.74,1003.11L1165.74,995.33C1168.06,991.47 1169.25,987.16 1173.08,984.86C1172.78,983.86 1171.41,983.59 1171.65,982.43C1171.65,980.93 1173.13,980.56 1173.75,979.56C1174.81,979.9 1175.22,981.69 1178.06,979.92C1178.59,979.5 1175.56,979.29 1176.5,977.43C1183.44,973.78 1181.12,965.67 1182.97,958.91C1181.91,957.98 1179.51,959.57 1178.18,957.26C1177.29,955.72 1178.12,954.53 1176.75,952.26C1179.54,953.82 1181.1,954.8 1183.43,953.83C1181.87,952.46 1182.43,950.17 1180.51,949.09C1182.41,947.09 1183.2,949 1184.28,949.75C1184.98,949.06 1185.67,948.36 1186.19,947.84C1187.59,945.28 1184.8,943.84 1184.92,941.7L1187.92,938.7C1186.64,937.05 1184.39,935.95 1184.66,933.33C1182.88,934.14 1184.23,936.19 1182.44,936.41C1179.77,934.63 1179.77,934.63 1179.05,931.87C1179.77,929.19 1183.68,928.4 1183.52,924.95C1180.77,925.22 1179.17,927.75 1176.37,927.48C1176.48,925.39 1178.71,925.06 1178.98,923.8C1179.2,922.732 1178.69,921.64 1177.74,921.11C1178.05,920.11 1177.07,921.01 1177.9,920.51C1179.09,919.81 1181.01,920.51 1181.09,918.81C1183.3,918.15 1184.09,921.24 1186.09,919.81C1186.68,918.66 1184.97,918.6 1184.97,917.71L1184.97,913.32L1187.49,912.22C1188.07,909.04 1188.32,907.35 1186.49,906.22C1188.03,904.11 1190.78,906.61 1192.34,904.67C1191.34,902.93 1188.89,904.97 1187.6,902.5C1190.27,901.14 1191.82,898.17 1195.14,897.65C1194.93,895.72 1192.83,897.27 1192.52,895.71C1193.14,894.39 1195.16,893.87 1195.36,891.71C1193.46,889.71 1190.81,889.21 1187.97,888.71C1190.29,886.88 1188.82,884.23 1189.8,881.91L1193.2,881.63C1194.91,879.97 1193.3,879.09 1192.37,878.07C1192.89,877 1194.1,877.56 1195.27,876.73C1194.49,874.52 1196.75,872.8 1196.92,870.02C1195.99,868.27 1194.92,866.25 1193.82,864.15C1194.26,862.48 1196.47,860.87 1195.2,859.03C1194.14,857.736 1193.64,856.064 1193.83,854.4C1192.88,852.77 1190.14,854.53 1190.12,852.17C1187.35,852.06 1187.06,855.07 1184.53,855.12C1181.53,854.75 1185.53,850.33 1181.99,850.39C1182.48,848.85 1183.65,849.39 1184.52,848.94C1185.4,847.71 1183.52,847.71 1183.52,846.94C1183.05,845.44 1184.33,844.79 1185.03,843.86C1184.11,841.7 1183.71,839.37 1182.18,838.22C1181.58,836.22 1183.51,835.86 1183.5,834.43C1183.68,833.37 1182.57,832.97 1181.92,832.08C1184.66,830.65 1187.68,832.08 1191.1,830.96L1186.5,826.36C1186.2,823.94 1187.58,824.08 1189.08,823.95L1189.08,814.31L1183.51,811.52C1183.23,809.86 1183.88,808.98 1185.51,809.31C1186.73,809.58 1187.37,811.97 1189.21,810.31L1186.45,804.98C1186.58,803.07 1188.62,802.54 1189.72,800.59C1186.81,799.15 1189.54,793.12 1182.21,793.17L1186.96,796.37C1186.09,796.98 1185.52,797.54 1185.38,797.44C1182.55,795.59 1179.76,795.2 1176.83,798.35C1176.97,795.41 1173.75,794.51 1174.83,792.08C1175.14,791.88 1175.42,791.65 1175.48,791.69C1175.86,792 1176.19,792.37 1176.72,792.9C1179.62,791.17 1180.91,788.3 1182.25,784.83L1179.6,782.75L1178.6,785.49L1173.73,785.49C1174.4,786.16 1172.54,785.6 1173.13,784.9C1174.05,783.78 1176.91,784.62 1176.2,781.9C1176.2,781.78 1176.52,781.56 1176.69,781.38L1180.26,780.98C1180.37,779.28 1179.13,779.98 1178.34,779.69C1177.02,778.94 1177.79,777.57 1177.51,776.04L1172.74,772.1L1176.4,768.24C1175.11,765.58 1172.4,763.69 1171.67,760.67C1171.67,758.67 1173.94,758.3 1174.48,756.67C1174.1,756.06 1173.35,756.19 1172.64,756.09C1170.32,755.74 1168.64,759.28 1165.47,756.66L1169.13,755.25C1167.87,752.25 1164.85,751.56 1166.13,748.57L1167.93,750.11C1169.31,749.33 1168.47,747.98 1168.71,746.91C1167.21,743.97 1164.2,742.84 1161.43,741.24C1161.95,739.33 1163.73,737.9 1161.65,734.78C1161.55,734.66 1159.77,736 1158.65,735.15C1158.65,732.2 1162.17,733.2 1162.92,730.97C1162.03,728.71 1159.67,727.55 1158.29,725.52L1158.29,721.25C1157.29,720.01 1155.91,720.87 1154.62,720.54L1153.25,717.65L1151.15,717.65C1151.2,721.35 1149.95,725.09 1152.23,728.83C1150.77,730.49 1148.23,728.59 1146.23,730.23C1149.58,730.75 1150.67,734.23 1153.72,735.14L1146,735.14C1144.14,736.9 1145.23,737.93 1146.48,739.07C1145.04,740.75 1141.83,738.7 1141.11,741.5L1140.61,742.1C1143.66,743.79 1140.34,748.1 1143.38,749.5C1145.44,750.75 1147.5,749.84 1149.38,750.33C1148.38,752.24 1147.45,753.45 1145.45,753.16C1143.71,752.724 1141.87,753.476 1140.94,755.01C1142.36,756.89 1141.45,759.66 1143.3,761.46C1142.5,762.46 1141.43,761.83 1140.51,762.03C1139.51,763.41 1140.79,764.23 1141.32,765.23C1140.79,764.23 1139.54,763.41 1140.51,762.03C1140.59,760.52 1139.02,760.22 1137.99,758.3C1137.96,760.642 1137.3,762.934 1136.07,764.93C1136.13,767.35 1138.35,765.76 1138.96,767.28C1138.96,767.7 1138.89,768.37 1138.85,768.88C1137.07,770.51 1136.32,768.42 1134.98,768.11C1133.32,771.51 1137.58,774.3 1135.59,777.99C1134.04,779.32 1132.27,777.79 1129.59,776.8C1131.98,781.3 1132.72,785.3 1129.95,788.92C1130.97,790.69 1132.64,791.996 1134.6,792.56L1131.9,793.5C1131.31,795.765 1131.73,798.18 1133.05,800.11C1135.22,803.6 1135.46,807.9 1137.36,811.62C1138.24,813.32 1137.51,815.84 1137.11,818.18C1135.7,814.38 1134.66,810.38 1129.46,810.85C1126.26,814.3 1131.46,817.44 1129.9,820.79C1128.71,821.49 1128.67,819.64 1127.59,820.03C1126.19,822.51 1128.89,823.14 1129.83,824.58C1128.29,826.502 1128.29,829.258 1129.83,831.18C1128.21,832.6 1127.45,830.55 1126.24,830.3L1123.73,832.92C1128.12,831.92 1129.73,835.92 1134.07,836.56C1130.41,838.1 1127.54,837.06 1124.88,837.56C1123.67,838.56 1124.62,839.9 1124.2,840.82C1124.71,842.5 1126.62,841.35 1127.2,842.62C1126.97,843.77 1127.71,845.06 1126.67,846.15C1124.11,847.05 1123.67,844.32 1122.08,843.46C1121.21,843.936 1120.88,845.037 1121.35,845.91C1122.52,848.8 1123.44,851.66 1122.46,854.79L1119.84,855.73C1122.84,858.9 1124.12,863.09 1127.73,865.13C1125.73,868.61 1124.6,866.2 1123.35,865.75C1122.68,866.139 1122.45,867.007 1122.83,867.68C1124.92,870.04 1125.48,873 1126.24,875.88L1129.24,875.88C1130.7,876.72 1130.1,878.06 1130.15,879.18C1130.2,880.3 1130.05,881.68 1131.55,882.26C1129.75,885.73 1127,884.81 1123.9,884.57L1125.71,882.57L1123.61,880.48C1121.78,881.33 1123.54,883.18 1122.61,884.27L1120,886.8C1122.1,888.9 1120.66,892.31 1124.67,894.86C1127.79,895.45 1128.61,899.68 1129.85,903.59L1128.76,904.68C1132.21,908.68 1137.59,910.54 1140.43,915.25C1139.15,916.73 1137.25,915.1 1135.86,916.02L1132.16,912.83C1129.96,912.83 1129.82,914.75 1127.75,915.3L1133.17,921.08C1133.43,923.23 1131.43,923.85 1130.48,925.17C1131.66,927.37 1132.33,929.91 1134.73,931.26C1133.05,933.06 1130.62,934.41 1132.01,937.6L1134.43,938.49C1133.04,940.328 1132.66,942.747 1133.43,944.92C1134.07,945.92 1135.51,944.81 1135.92,946.15C1134.17,949.28 1131.69,948.73 1129.08,947.15C1128.44,948.15 1128.48,949.58 1129.37,949.63C1132.05,949.77 1132.74,952.24 1134.51,953.38L1133.1,955.15C1132.66,955.82 1135.1,955.97 1134.68,957.31C1134.23,958.217 1134.44,959.322 1135.19,960L1137.19,960.46C1138.06,962.1 1136.8,964.36 1138.95,965.46C1138.1,966.21 1137.34,966.85 1137.59,968C1141.48,969.84 1142.09,973.82 1143.46,977.25C1144.46,979.8 1144.85,982.7 1147.94,983.82C1149.77,984.14 1150.31,985.1 1149.42,986.82C1148.99,990.06 1152.94,992.1 1152.2,994.97C1151.36,997.6 1150.92,1000.34 1150.9,1003.1L1165.74,1003.11Z" style="fill:rgb(210,234,246);fill-rule:nonzero;"/>
        </g>
    </g>
    <g id="BG_1">
    </g>
</svg>
