<svg xmlns="http://www.w3.org/2000/svg" xmlns:xlink="http://www.w3.org/1999/xlink" viewBox="0 0 1920 1080"><defs><style>.cls-1{fill:none;}.cls-2{clip-path:url(#clip-path);}.cls-3{fill:#00765d;}.cls-4{clip-path:url(#clip-path-2);}</style><clipPath id="clip-path"><rect class="cls-1" x="1940" width="1920" height="1080"/></clipPath><clipPath id="clip-path-2"><rect class="cls-1" width="1920" height="1080"/></clipPath></defs><title>bird2</title><g id="BG_1" data-name="BG 1"><g class="cls-2"><path class="cls-3" d="M2079.39,569.35H2090c1.05,2.61-1.79,2.66-2.21,4.26-4,2.49-8.81-.75-13.09,2l2.22,2.77c-1,3.89-5.5,3.27-7.73,5.6l3.13,3.49c-7.46,2-12-8.24-20.33-3.16l9.77,7.16c-3.07,2.9-5.25,2.42-6.46.22-2.14-3.87-7.15-2.78-9-6.13-5.07,2.11-3.6,7-5,10.21-5.41,2-5.86-5.1-10-5-2.31-.4-2.75,2.07-5.11,2.93l-10.31-5.17-2.89,2.9c-.14.31-.49.81-.39.93,10.9,12.78,25.89,15.82,41.54,17.92,2.55-4.93,7.52-5.77,11.33-8.3,2.83,1.7,3.3,4.92,4.76,7.47,4.79,1.46,5.36-4,9.63-5.07,4.71,4.36,11.59,1.95,18.58,2.88-.08,3-2.63,5.15-4.36,4.93-6.7-.86-7.88,4.11-9.88,8.12-5.32,1.73-8-2.18-10.93-5.24-3.56,3.41-.23,4.91,1.21,6.8-.88,1-2,1.89-2.54,3s.32,2.73-1.79,3.63h-4.7c-3.89,2.38,1.21,9-5,10.51h-9.35l-4.59-4.59c-2.45,1.49-5,2.84-8.92,2.14-1.21-1.55-2.87-3.65-4.45-5.65-3.37,2.27-.83,5.54-2.51,7.75-4.58-2.53-11.27-.84-13.56-7.09l-7.64,3.63c8.16,8.7,18.75,12.17,29.34,16,11.57,4.2,22.22,1.1,32.84-3.5.88,5.4-3.6,6.54-5.69,10.64,5.12,0,9.66.72,13.85-.21,4-.87,7.54-3.45,11.13-5.2,2.83.15,2.59,2.06,2.57,3.84,1.8,3.49,6.21-.23,8.13,2.93s6.34-.6,8.36,3.42c-1.46,7.22-11.82,6.32-13.39,12.74s-9.48,8.11-9.48,16.38c-4.58-4.12-9.2-4.67-14.16-4-2.18,1,.11,4.61-3.19,5.28-3.76-.32-5.82-4.59-10-4.6-2.21-.09-1.07,2.08-1.9,4h-17.55l-5-4.74a2.84,2.84,0,0,0-1.23,3.58c2.49,5.52,6.17,10.22,12,12.24,2.14.74,4.09,1.23,5.45,3h24.43c1.93-3.3,6.35-2.61,8.84-5.73l8.77,4.36c-1.73,1.73-3.33,3.32-5.1,5.1,3.61,3.42,6.14.82,9.55-.73,3-1.35,7-.28,10.44-.28,4.07,4.63,10.19,4.21,15.33,7-3.27,10.39-18.23,8.56-20.44,20.06-3,0-6.18-.34-9.23.09s-5.34-1.6-8.08-2.3c-.84,2.42-1.42,4.32,2,5s5.58,2.51,5.54,6.27c-12.44,4.47-12.44,4.47-25.23,1.78-3,1.42-1.95,5.26-3.57,6.54,6.42,8.82,16.78,2.08,25.36,6.53,8.14,4.23,17.59-4,26.61-2.08,2.13,2.05-.62,2.13-.7,2.94-1.43,2.27,2,2.33,1.4,4.2-3,1.94-6.78.11-10.12,1.06,1,4,5.94,4.86,5.17,9.18-2.84,3.38-3.37-3.27-6.39-1.46-2,1.16-5.19-.71-7.19,1.36.13,1.36-.12,2.52.35,3,2.09,2.34,4.38,4.49,5.87,6,14.11,3.19,26.06-4.38,41-5.38l-6.44,7.66c-1,3,2.4,3.7,2.65,6.33.16,2.87-3.1,3.72-4.46,5.89-1.76,2.81-4.52,2.27-7.16,2.36-3.45.12-.43,5.54-4.29,5.39-2.72-.11-5.41-.18-7,2.49l-9.74-5.66c-2.08-.87-2.82,3.71-5.89,3.27-2.49-.36-5.11.17-7.34.28-.65,3.67.85,4,3.12,5.27,8,4.33,16.83,5.23,25.24,7.69,5.91,1.74,12-.45,17.78-3.12l7.63,6.85c4.86-6.9,13.06-.59,19.54-7.14-1.54,10.7-11.25,11.08-15,16.93l-9.19.47c-.41,4.32,3.9.92,4.39,3.36-1.12,6.05-7.18,3.26-10.61,5.82l5.71,2.66c-5.08,4.61-8.79-2.48-13.37-1.28s-9,2.34-13.55,3.55c-.71,4.55,1.92,6.62,5.64,7.2,8.6,1.34,17.05,4,25.94,2.81a35.44,35.44,0,0,1,5,0c.76,2,1.34,3.6,2.08,5.57h30.76c-3.12,2.63-5.7,5.67-11.72,5.52,5.83,2.84,3.3,7.09,5,9.92l5.71,2c-12,3.77-23.34,6.76-33.94,12.27l-3.94-2.43c-1.94,1.88-.5,4.28-1,6.37-5.2,2.33-10.15,7.59-15.47,1.5-2.87-.48-3.46,1.75-4.87,2.54a4,4,0,0,1-4.6-1.93c-7,3.13-13.93,2.46-21.09.71-8.65-2.12-17.14-6-26.32-3.62-2.39,4.34,1.32,6.48,3.53,7.43a255.22,255.22,0,0,0,40.27,13.94c5.52,1.34,11.67,4.48,16.25,1.93,5-2.75,9.31-1.44,13.82-2.16,2.1,2.59-1.28,2.68-1.46,5.06h31.73c.5,4.62-3.48,1.86-4.12,3.82,3.88,5.27,10,4.53,15.6,5.7-8.64,2.72-17.41.88-26,2,3,6.26,12,3.19,16,11.23-14.83-5-27.69-1.27-40.13,2.09-2.82,2.38.31,5.8-2.17,7.61-2.85,1.38-4.23-.56-6.16-2.61-4.18,1.19-8.16,5.17-12.32,2.61-3.31,1.49-1.2,5-4,5.84-5.73-.59-9.67-7.45-16.41-4.92l-1.84,5.1-5.78-5.54-3.35,3.06L2078,953.71c-1.14,2.31-1.19,3.47,1.48,5.16,15.33,9.69,31.86,16.55,48.81,22.76,6.71,2.47,13.2.31,19.39,1.63,11.53-6.45,14.55-7.53,21.08-7.53-.53,2.77-3.21,3.76-4.86,6,.54.41,1.12,1.24,1.71,1.25,2.67.05,6.32,1,7.82-.43,4.5-4.12,9.33-1,14.27-.83l-20.85,7.36c3.08,8.49,11.28,2.32,15.9,6.08-2.81,3.27-6.83.12-10,1.93-1.61,1.72.84,1.86,1.21,2.82,1.54,4,6.56.46,9.4,4.31h-15c-2.9,2.58.12,3.07.62,4.38-.37,3-5.76-.14-5.17,4.13-.6,4.37,4.63,1.46,5.34,4.41-4,2.61-8.72-.21-12.78,1.74-1.17,1.84,1.47,1.67.89,4.34-1.92,1.35-5.34,0-8.71.5-.49,1.42-1,3-1.59,4.61-2,2.09-5.41-.83-7.36,1.91,5.57,7.92,15.14,8.36,22.76,9,8.75.73,16.54,6,25.66,3.83-3.85,3.43-8.3,1.34-14.49,3.12l-4.4,4.39-12.32-6.13c-1.64,4.9,4.41,4.36,3.55,7.79-1.25,3-6.53,4-4.65,9.29-5.83.15-8.43-4-12.59-4.95-1.47,2-1.69,5.41-5.15,7.51-4.61-4.41-8.88-10.07-16.3-10.61-2.53,2.92,3.67,3.51,1.66,6.63-1.08,1.67.71,4.38-.72,6.11-3.52,2.49-4.66-1.7-7.37-2.09-2.45-.82-2.87,3.13-6.46,2.68-2.38-3.72-7-2.43-11.29-2.59-.27-5.44-6-5.1-8.91-8.49-4.18,2.18-8.61,5.42-13.25.74-1.81,2.71-.56,4.37,1.34,5.78-1,2.25-1.91,4.42-2.85,6.58-4.59-2.6-10.78-3.69-14.29-1.13-4.32,3.15-9.77-7.22-11.15,3.55-5.25-5.83-10.8-4-15.6-4.69-7.3-1.52-9.51-8.13-13.51-13.16l-3,2.59c-1.86-2.56-2.13-6.38-5.69-7.76l-3.84,3.84c-.28,8.86,3.79,17.91,5.17,27.88h-41.11c6.43-12.65,6.22-26,9.38-38.13-3.67-4.45-8.22-5.77-12.21-7.83-3.53,3.32-.54,7.35-2.36,10.51-1.75,1.5-1.82-1-3.86-1.37-.92,4.25-4.53,6.93-7.58,10.07-2.16-.73-1.2-2.87-2.2-4.77-6.94,1.71-6.42,10.71-11.08,12.62-4.11,1.38-4.52-2.6-8-2.12-1.94,5-7.78,6.58-11.71,10.44l-2-2c-3.33.73-4.16,5.73-8.45,5-3.69-2.84.56-7.87-2.71-10.92-6.28-.09-7.17,8-13,8.24-4.3-1.36-.06-6-3.89-8.39l-5.66,7.38c-7.22,2.62-9.5-1.25-13-4.74l-4.75,7.24c-1-5.2-3.4-7.12-6.84-8,.57-1.94,3.48-2.86,2.42-5.46-.76-1.34-1.93-1.48-3.31-1.66-4.32-.54-7.46,5.28-12.31,2.09-.27-3.83,6.92-4.41,3.76-10.24-4.74.3-9.75,5.35-15.69,1.38,7.85-4.29,16.43-4.71,25.91-8.07l-6.87-2.46c-3.92-2.28-7.76,1.49-12.28,3.35-.59-1.55-1.18-3.11-1.72-4.56-4.4-1.87-6.73,5-10.75,2.46-2.38-1-1.75-3.08-2.5-5.38l-9.4,4.92-1.82-4.75-6.3-.69c-.77-3.68,4-3.82,4.12-7.07-6.24-3.21-12,5.66-18.59.67l15.47-7.63c-2.49-2.68-5.92-4.69-11-5.88,6-2.47,11.2-.62,16-1.55,1.52-.92,1.2-2.34,1.27-4.29,3.71-2.54,9.58,1.06,13.09-3.53.55-.72,3.36,0,5,.46,11.13,3.08,20.75,2.94,30.48-.59,4.38-1.59,4.76-2.38,4.9-10.35-2.85.44-3.78,3.18-6,4.74-5.11-3.7,4-6.25.9-9.61-.64-1.24-1-1-2-.16-4.69,4.57-8.61,10.1-15.78,12.06-2.54-2.28.2-6.17-1.25-9.22-.63-1.26-1.28-1.28-1.91-.06-2,3.86-6.8,3.71-9.47,6.67-5.3-1.41-4.6-6.28-4.67-9.81-5.24-1.71-8.31,5.71-13,1.17-1.54-4.64,3.39-5.54,5-8.39-.73-1.25-1.92-1.48-3.29-1.4a20.05,20.05,0,0,0-8.67,2c-3.91,2-9.37,2-12.43-5,7.13,1.43,12.78-1.92,19-3.63l-5.29-5.68c.76-.43,1.49-1.2,2.23-1.2,10.82-.08,21.65,0,32.48,0,3.16,0,6.42.48,9.44-.16,2.33-.49,4.36-2.39,7.36-4.16-7.7-2.33-13.94-8.93-23.62-4.45.09-4.56-5.2-4.35-7.57-7.37-1.75,1.09-2.71,3.91-5.67,2.32-1.2-.65-1.27-1.95-1.17-3.68l12.79-6.46h-18.94c-2.47-2-1.92-3.35-1.76-5.77,7.9,2.15,14.67-3.93,23.45-2.52,1.15-5.37,2-10.28-3.78-13.77-4.36-.61-5,4.66-8.51,5.43-9.35-1.48-12.43-9.47-16.82-16.12-.57-4.39,4.6-1.58,5.4-4.19v-3.79c-6.53,1-12-3-18.61-3.77,0-1.18-.11-2.4-.16-3.56,4.43-3.55,6.6,3.75,11,1.82,3.07-1.36,7,1,10.57-1.24l-5.39-5.79c2.87-2.07,5.57-2.27,8.34.32s6,.65,8.93,1.13c2.07-.88,1.43-2.94,1.91-4.37,6.39-4,11.59,2.7,17.56,1.67,8,5.75,15.38-.18,22.83-1.64a43.25,43.25,0,0,0,17.34-7.11c2.55-1,.9-4.85,4.06-5.92-.55-1.41-1.69-1.5-3-1.6-4.9-.35-7.91,4-12.36,4.76-3.31-3.73,4.38-5.58,1.42-9.47-2.16-1.37-2.16,2.08-5.3,1.85l-7.65-3.76,2.84-3.12c-4.75-3.52-7.48,3.24-12.26,2-4.15-1.07-6.85-6.21-12.06-4.25l2.78-3.27c-4.83-1.25-9.7-2.09-13.63-5.22,3-2.7,7,0,11.64-2.33l-21.62-8.66c5.89-1,9.28-1.66,13.77,1,3.36,2,8.85,1.34,13.13.53,4.59-.87,7.8,3.38,12.62,2.73l-2.14-4.42c23.83,3.63,45,.07,59.76-10.65-5.66-.86-10.43-2.17-12.52-6.06-3.68-1.1-4.44,2.14-7.15,2.5-3.12.85-3.21-6.2-8.8-1.17l3-6.24c-5.9-3.52-6.29,5.76-11.72,4.34-3.88-2.28.74-7.43-2.45-10.33-3.7,1.73-5.29,8.08-12.7,3.54l-3.26-3.25c-2.18-.3-2.86,3.26-5.44,2.12-3.28-.31-.73-4.14-3-5.11-2.72-1.21-4.08.75-5.89,2.67-6.11-1-10.31-7.57-17.83-5.56,1.9-4,5.61-4.94,6-9.51-2.43-3-9.73.35-10.51-6.19,8.6-.69,16.71-3.82,25.63-3.6,8.15.2,16.23.92,24.77-1.87,8.11-2.64,17.75-.57,26.36-.57l3.59-3.77c-2.38-6.67-8.58-3.14-12.49-4.81a3.94,3.94,0,0,1,.55-4.85c11.21,1.22,21.29-5,32.11-8.36a6.22,6.22,0,0,0,4.57-6.72c-6.11-3.67-10.84-.92-15.09,4.6-.84-2.24-1.41-3.8-2.54-6.85-1.64,2.8-2.93,5-4,6.84-3-1.48-3.89-4.55-7.36-2.42l-1.47,4.3h-13.86l-3.8-3.79c-.31.83-.88,2.4-1.39,3.8-4.12,1.41-4.74-1-4.92-4.91-4.1.33-8.44-1.86-11.91,2.56-2.81-2.69-5.14-6-9.42-6.68,1.3-1.68,3.9-2.74,1.75-6.59-3.14-1.76-10.21,2.54-12.13-5.34,6.33-.61,13-.1,17-7.62,1.32-2.48,7-4,11.75-3.65,11.38.9,21.58-3.85,31.74-8.14,1.54-.65,2.59-2.47,3.87-3.74,2.24-3.71-4.51-4.66-2.55-8.28,1.89-2.79,5.16-.23,6.81-1.5,1.77-1.46,1.24-2.81,1.12-4.17-2.72-2.32-6-.53-9-1.13-4.35,3.5-7.29,8.88-14.69,9.78-4.41-1.83-8.23-6.42-12.62-12h-10.75c-1.35-5.45-4.49-8.57-9.75-9.89,4.11-3,8.8-.32,12.83-1.88l1.83-4.77c2.48,2.55,6.65,2,8.54,5.22,7.38-.2,15.4,1.59,20.85-5.87-3.39-4.19-8.24-.62-11.5-3.28l2.77-3.13c-3.35-3.44-5.35.35-6.73,1.59-5.92-.71-6.12-5.38-8.38-8.34h-5.24c-2.28-1.84-.79-4.29-1.29-6.49-2.79-1.58-6.23-2.48-8.42-6.66h18.28c.89-2.53,1.44-4.1,2.16-6.13l14.82,5.55c9.06-3.41,20.13-2.89,30.11-9.21-5.47-3-11.09-5.22-15.51-9.67s-6.17-11.37-13.43-12.8L1903,628c-7.89-2.86-13.75-9.65-22.66-7.32-.52-3.18,3.09-3.84,1.47-7.47a37.88,37.88,0,0,1-14.07-5.51c6.35-.82,11.54-2.06,16.51,1.37l3-3c-.57-1.19-1.17-2.44-2.13-4.42,6.37.52,10.68,3.57,14.54,7.83,2.4-2.4,2.11-6.1,6.18-8.37l-10.26-6.83c9.2-.58,15.25-2.88,20.9,1.58l3.6-3.8c.58-2.44-.49-4.25-2.09-4.78-9.26-3-16.43-9.54-24.56-14.44.63-.64,1.27-1.28,1.94-1.94.17-3.68-4.19-.13-4.44-4.21l3.33-3.1c4.25.12,6.46,4.68,11.69,2.14.71-1.19,2.09-3.54,3.92-6.64,5,4.67,9.65,5,14.66,4.41,2.13-1-.09-4.53,3.65-5.44l16.38,8.43c11.77-8.79,26.78-13.59,35.18-26.55.22-3-1.4-3.37-3.82-3.35-2.93,7.12-8.6,9.94-16.41,11.16-5.82.91-12.5,1.92-16.87,8.6-.51-2.46-.76-3.7-1.09-5.29-3.23-.17-6.37,4.26-10,.91,1.31-5.7,11.06-3.72,10.25-12.35-4.22.4-5.53,6.28-10.63,5.48-3-.46-6.59,2.91-9.92,4.56-1.18-2.35-2.5-5-3.73-7.42.32-3.57,4.13-4.43,5.11-7.29-.87-1.49-3-1.53-3.51-1-2.76,2.9-5.17,6.14-7,8.38-4-.71-6.48.6-8.13-1.72-.69-4.25,4-5.28,5.25-8.94-8-1.68-16.91,1.83-23.72-4.51,4.59-5.58,11.44-3.71,17.1-4.18,3-2.33-.27-5.78,3.13-8.3,9.43,4.83,18.08,12.8,29.69,13.87,1-4.2-3.9-4.23-4-8.3,7.89.58,13.16,7.8,20.63,8.12,8,.33,16.11.07,24.51.07v-13c-4.35-1.51-4.39,1-5.33,3.74-.82,2.32-5.46.37-5.94,4.14-3.19-2.16-.62-5.43-2.31-7.6-3.82-3.75-5.6,4.33-9.41,1.45-4.65-3.86,4.5-5.46,1.17-9.87l-9.82,4.89-3.6-4.71c-5.3-2.5-7.57,1.87-11.32,2.12l-3.73-3.43c-.64-.68,0-1.05.56-2,2.88-5.13,8.51-1.06,11.84-3.45,3.14-5.94-5.81-3.21-5.38-8.58.29-3.76-5.58-4.49-11.58-4.77,3.71-2.68,4.5-6.37,9.21-4.67-1.65-5.71-8.25-6.75-8-13.53,9.09,1.24,15.91,6.8,23.88,10.66,3.54.06,5.78-5.75,12.62-.37-3.25-7.42-8.93-9-9.42-14,3.61-6.57,6.4,3.67,10.35-.07a17.62,17.62,0,0,0,.09-9.18c-4.1-3.16-6,4.41-9.87,1.08-2.27-4.63,2.91-5.54,4.58-8.53l-10.3-16.62c5.47-4.57,9.48,4,15.09,1.33.43-1.25,1-2.82,1.52-4.39.63-.88,1.11-.61,2,.36,1.42,1.66,3.25,2.84,2.93,5.6-.73,6.16,2.86,10.56,7.33,15.89V432.13c-4.39-5.19-8.57-12-12.52-19,2.22-2,3.9-1,5.63.82,2.79,2.94,5.72,5.76,9.29,9.32,1.91-5.37.78-10.5,1-15.45s0-9.65,0-16.34c3.85,6.21,6.12,10.52,5.5,16-.5,4.3-.08,4.33,4,10.42,2.4-5.14,4.8-10,12.15-12-2.57,7.83-6.92,13.2-11,18.38-5,6.38-6.09,12.9-4.58,20.8,9.83-1.88,7.9-12.45,14.09-16.36,2.28.47,1.18,2.63,1.93,4.27,4.46,0,7.28-4.94,13.37-4.46-1.36,3.15-4.1,4.54-5.53,6.74,2.1,4.39,8.14,3.44,10.41,8.51-6.78,2.35-14.35-.57-21.57,1.65,4.53,4.16,12,3.49,14.11,11.37-4.77,2.46-11.05.18-14.41,4.4-3.22-1.46-1-5-4.46-5.88-4.26.13-5.14,5.28-9.36,6.85,4.77,9,3.18,18.35,3.59,28.26,7.37.92,13.47-2.06,16.65-7.58,2.66-4.62,8.2-7.7,8-14.39-.09-2.29,3.61-4.72,5.64-7.16,2.82.9,5.14,3.06,9,2.06l7.14-8.54c3.22,2.29,1.9,4.74,2.41,7.57l-6.57,3.84c3.94,5,8.94.68,12.16,4.32-1.33,6.33-8.06,8.17-10.47,13.51,3.38,2.76,8.29,3.53,13.1,4.84-3.59,4.78-9.78,5.17-12.57,9.82a9.68,9.68,0,0,1-8.08-2.18l-3.86,3.3c-.78,3.2,1.47,4.36,3.36,6.49,3.49,2.09,8.3-1,12.28,1.39-1.36,4.88-5.36,4.7-9.22,4.76-2.17,1.8-.63,4.24-1.13,6.27-.84,2.13-3,1.35-4.54,2.07-1.36,1.5-1.36,3,.44,5.05,5.74-.24,9.77-6.82,16.25-5.45,2.41,1.54,1,4,1.44,6.22,4.43,3.29,9.18,5.84,15,4.25.85,5.87,7.31,5.7,9.12,10-8.08,6-13.64,7-23.12,4.14-2.65,1.92.43,5.33-2.58,8-6.48-.73-8.48-8-13.73-10.87h-5.05a2.91,2.91,0,0,0-1.26,3.6c.43,1.16,1.61,2.05,2.47,3.07-2.88,3.56-7.34,1.31-13.17-6.74-4.46-.6-1.74,4.5-5,5.66-7.51-2.39-8.14-9.5-9.48-18.11-2.88,5.26-2.44,8.75-.92,12.14s3.39,6.69,5.53,10.87c4.34,3.61,10.54,3,16.44,2.95,2.87,2.91-3.29,2.94,1.31,7.81,2.31.93,6.74,5.89,13.87,1.49,4.91-3,10.81-4.47,14.6-9.06,1.87,1.06,1.12,2.56,1.45,4.75,5.94-.44,10.55,2,12,8.52,6.7.53,11.95-3.8,19.16-5.66.73,2.07,1.69,4.77,2.65,7.47Z"/></g></g><g id="BIRDS"><g class="cls-4"><path class="cls-3" d="M1130.83,468.65s16.94,9.1,25.32,14c7.49,4.37,16,11.41,21.62,16.06a9.09,9.09,0,0,1,2.93,4.47c1,3.53,3.42,9.45,8,8.55,4.13-.81,6-4.65,6.85-7.33a12.68,12.68,0,0,1,3.53-5.53c5.55-5.12,16.65-15.81,34-22.43a61.88,61.88,0,0,0,9.14-5.38s-22.17,8.19-33,15a81.29,81.29,0,0,0-14.58,11.15,3,3,0,0,1-2,.9l-7.81.32a3,3,0,0,1-2.17-.78c-3.24-2.92-14.38-12.71-21.25-15.4C1153.22,479,1130.83,468.65,1130.83,468.65Z"/></g></g></svg>