<svg xmlns="http://www.w3.org/2000/svg" xmlns:xlink="http://www.w3.org/1999/xlink" viewBox="0 0 1920 1080"><defs><style>.cls-1{fill:none;}.cls-2{clip-path:url(#clip-path);}.cls-3{fill:#00765d;}</style><clipPath id="clip-path"><rect class="cls-1" width="1920" height="1080"/></clipPath></defs><title>bird1</title><g id="BIRDS"><g class="cls-2"><path class="cls-3" d="M1055.12,475.92h0a16.69,16.69,0,0,1,2-4.74h0a17.23,17.23,0,0,1,3.42-4.05l2.55-2.21a7.77,7.77,0,0,1,2.84-1.57h0a13.88,13.88,0,0,1,6.95-.33l4.56.94.48.15,4.25,1.67a4.4,4.4,0,0,0,3.45-.09l2.67-1.24a3.66,3.66,0,0,0,1.88-2l2.62-6.69,1.3-2.36a12.62,12.62,0,0,1,5.44-5.19l1.5-.74a12.63,12.63,0,0,1,1.36-.58l1-.35a25.41,25.41,0,0,1,6.56-1.44l3-.25a27.81,27.81,0,0,1,5.08,0h0a1.29,1.29,0,0,1,.62,2.32l-.44.31a6.71,6.71,0,0,1-2.9,1.18l-7.77,1.14a8.85,8.85,0,0,0-2.56.79l-3,1.46a9,9,0,0,0-3.24,2.7l-2.08,2.84-2.11,4.31a3.55,3.55,0,0,0-.36,1.49l-.06,2.81a1.4,1.4,0,0,0,1.5,1.44l4.37-.27a.31.31,0,0,1,.21.56l-5.18,4a4.24,4.24,0,0,1-1.33.7l-2.21.73a6.11,6.11,0,0,1-1.8.29l-2.8,0a1,1,0,0,1-.88-.53h0a2.4,2.4,0,0,0-.92-1l-.3-.17a2.31,2.31,0,0,0-1.74-.28l-2.34.52,1.08-1.59a3.18,3.18,0,0,0,.55-1.75h0a1.2,1.2,0,0,0-.89-1.19l-4.29-1.13a2.34,2.34,0,0,0-.45-.07l-3.89-.18a9,9,0,0,0-3.52.53l-.6.22a10.23,10.23,0,0,0-4,2.66l-1.48,1.59a26.44,26.44,0,0,1-6.94,5.36h0A.71.71,0,0,1,1055.12,475.92Z"/></g></g></svg>