<svg xmlns="http://www.w3.org/2000/svg" viewBox="0 0 365 167.1"><defs><style>.cls-1{fill:#fffdf3;}</style></defs><title>cloud</title><g id="Layer_2" data-name="Layer 2"><g id="Layer_1-2" data-name="Layer 1"><path class="cls-1" d="M365,131.6c0-17.72-16.65-32.41-38.41-35.07.07-1.13.11-2.27.11-3.43,0-32-26.79-58-59.85-58a61.92,61.92,0,0,0-14.65,1.76,78.77,78.77,0,0,0-133.66.44c-1.5-.12-3-.2-4.54-.2a56,56,0,0,0-54.23,42,39.69,39.69,0,0,0-17.27-4C19,75.1,0,95.7,0,121.1c0,25.23,18.76,45.7,42,46H320C344.9,166.88,365,151.08,365,131.6Z"/></g></g></svg>