<?xml version="1.0" encoding="UTF-8" standalone="no"?>
<!DOCTYPE svg PUBLIC "-//W3C//DTD SVG 1.1//EN" "http://www.w3.org/Graphics/SVG/1.1/DTD/svg11.dtd">
<svg width="100%" height="100%" viewBox="0 0 156 311" version="1.1" xmlns="http://www.w3.org/2000/svg" xmlns:xlink="http://www.w3.org/1999/xlink" xml:space="preserve" xmlns:serif="http://www.serif.com/" style="fill-rule:evenodd;clip-rule:evenodd;stroke-miterlimit:10;">
    <path d="M92,202L64,202C35.3,202 12,167.7 12,139L12,82C12,45.5 41.5,16 78,16C114.5,16 144,45.5 144,82L144,139C144,167.7 120.7,202 92,202Z" style="fill:none;fill-rule:nonzero;stroke:rgb(1,19,31);stroke-width:17px;"/>
    <g>
        <path d="M78,95C70.3,95 64,88.7 64,81L64,67C64,59.3 70.3,53 78,53C85.7,53 92,59.3 92,67L92,81C92,88.7 85.7,95 78,95Z" style="fill:rgb(1,19,31);fill-rule:nonzero;"/>
    </g>
    <path d="M78,24L77.5,111.5" style="fill:none;fill-rule:nonzero;stroke:rgb(1,19,31);stroke-width:7px;stroke-linecap:round;"/>
    <path d="M42,112L114,112" style="fill:none;fill-rule:nonzero;stroke:rgb(1,19,31);stroke-width:7px;"/>
    <g>
        <path d="M12,235.3L77.6,294L143.7,235.3" style="fill:none;fill-rule:nonzero;stroke:rgb(1,19,31);stroke-width:17px;"/>
    </g>
</svg>
